<svg width="300" height="120" viewBox="0 0 600 400" xmlns="http://www.w3.org/2000/svg">
    <rect width="600" height="400" fill="#ffffff"/>
    <g transform="scale(0.5)">
                                        stroke-dasharray="3,2" fill="none"/><circle cx="227.5" cy="362.5" r="8" fill="#666666"
                                stroke-dasharray="3,2" fill="none"/><circle cx="270" cy="362.5" r="8" fill="#666666"
                            fill="#333">a</text><circle cx="440" cy="425" r="8" fill="#666666"
                                stroke-dasharray="3,2" fill="none"/><circle cx="737.5" cy="362.5" r="8" fill="#666666"
                                stroke-dasharray="3,2" fill="none"/><circle cx="780" cy="362.5" r="8" fill="#666666"
                                stroke-dasharray="3,2" fill="none"/><circle cx="907.5" cy="337.5" r="8" fill="#666666"
                        fill="#333">6</text><circle cx="937.5" cy="337.5" r="5" fill="#FFD700"
                                stroke-dasharray="3,2" fill="none"/><circle cx="950" cy="300" r="8" fill="#666666"
                            fill="#FFD700">♪</text><circle cx="1035" cy="275" r="8" fill="#666666"
                        fill="#333">9</text><circle cx="1120" cy="275" r="8" fill="#666666"
                            fill="#333">Nỉu</text><circle cx="1205" cy="275" r="8" fill="#666666"
                            fill="#333">mứ</text><circle cx="1290" cy="275" r="8" fill="#666666"
                                stroke-dasharray="3,2" fill="none"/><circle cx="1375" cy="337.5" r="8" fill="#666666"
                                stroke-dasharray="3,2" fill="none"/><circle cx="1417.5" cy="300" r="8" fill="#666666"
                                stroke-dasharray="3,2" fill="none"/><circle cx="1460" cy="362.5" r="8" fill="#666666"
                                stroke-dasharray="3,2" fill="none"/><circle cx="1545" cy="300" r="8" fill="#666666"
                                stroke-dasharray="3,2" fill="none"/><circle cx="1630" cy="337.5" r="8" fill="#666666"
                                stroke-dasharray="3,2" fill="none"/><circle cx="1715" cy="300" r="8" fill="#666666"
                                stroke-dasharray="3,2" fill="none"/><circle cx="1970" cy="337.5" r="8" fill="#666666"
                                stroke-dasharray="3,2" fill="none"/><circle cx="2055" cy="300" r="8" fill="#666666"
                                stroke-dasharray="3,2" fill="none"/><circle cx="2140" cy="362.5" r="8" fill="#666666"
                                stroke-dasharray="3,2" fill="none"/><circle cx="2607.5" cy="362.5" r="8" fill="#666666"
                                stroke-dasharray="3,2" fill="none"/><circle cx="2650" cy="362.5" r="8" fill="#666666"
                                stroke-dasharray="3,2" fill="none"/><circle cx="3117.5" cy="362.5" r="8" fill="#666666"
                                stroke-dasharray="3,2" fill="none"/><circle cx="3160" cy="362.5" r="8" fill="#666666"
                                stroke-dasharray="3,2" fill="none"/><circle cx="3287.5" cy="337.5" r="8" fill="#666666"
                                stroke-dasharray="3,2" fill="none"/><circle cx="3330" cy="300" r="8" fill="#666666"
                                stroke-dasharray="3,2" fill="none"/><circle cx="3500" cy="362.5" r="8" fill="#666666"
                                stroke-dasharray="3,2" fill="none"/><circle cx="3585" cy="300" r="8" fill="#666666"
                                stroke-dasharray="3,2" fill="none"/><circle cx="3670" cy="362.5" r="8" fill="#666666"
                                stroke-dasharray="3,2" fill="none"/><circle cx="3755" cy="300" r="8" fill="#666666"
                                stroke-dasharray="3,2" fill="none"/><circle cx="3840" cy="337.5" r="8" fill="#666666"
                                stroke-dasharray="3,2" fill="none"/><circle cx="3925" cy="337.5" r="8" fill="#666666"
                                stroke-dasharray="3,2" fill="none"/><circle cx="4010" cy="300" r="8" fill="#666666"
                                stroke-dasharray="3,2" fill="none"/><circle cx="4350" cy="337.5" r="8" fill="#666666"
                                stroke-dasharray="3,2" fill="none"/><circle cx="4392.5" cy="300" r="8" fill="#666666"
                                stroke-dasharray="3,2" fill="none"/><circle cx="4435" cy="362.5" r="8" fill="#666666"
                                stroke-dasharray="3,2" fill="none"/><circle cx="4562.5" cy="362.5" r="8" fill="#666666"
                                stroke-dasharray="3,2" fill="none"/><circle cx="5030" cy="362.5" r="8" fill="#666666"
                                stroke-dasharray="3,2" fill="none"/><circle cx="5072.5" cy="362.5" r="8" fill="#666666"
                                stroke-dasharray="3,2" fill="none"/><circle cx="5540" cy="362.5" r="8" fill="#666666"
                                stroke-dasharray="3,2" fill="none"/><circle cx="5582.5" cy="362.5" r="8" fill="#666666"
                                stroke-dasharray="3,2" fill="none"/><circle cx="5710" cy="337.5" r="8" fill="#666666"
                                stroke-dasharray="3,2" fill="none"/><circle cx="5752.5" cy="300" r="8" fill="#666666"
                                stroke-dasharray="3,2" fill="none"/><circle cx="6092.5" cy="337.5" r="8" fill="#666666"
                                stroke-dasharray="3,2" fill="none"/><circle cx="6135" cy="300" r="8" fill="#666666"
                                stroke-dasharray="3,2" fill="none"/><circle cx="6177.5" cy="362.5" r="8" fill="#666666"
                                stroke-dasharray="3,2" fill="none"/><circle cx="6262.5" cy="300" r="8" fill="#666666"
                                stroke-dasharray="3,2" fill="none"/><circle cx="6347.5" cy="337.5" r="8" fill="#666666"
                                stroke-dasharray="3,2" fill="none"/><circle cx="6432.5" cy="337.5" r="8" fill="#666666"
                                stroke-dasharray="3,2" fill="none"/><circle cx="6475" cy="300" r="8" fill="#666666"
                                stroke-dasharray="3,2" fill="none"/><circle cx="6687.5" cy="337.5" r="8" fill="#666666"
                                stroke-dasharray="3,2" fill="none"/><circle cx="6730" cy="300" r="8" fill="#666666"
                                stroke-dasharray="3,2" fill="none"/><circle cx="6772.5" cy="362.5" r="8" fill="#666666"
    </g>
    <!-- Song name overlay -->
    <rect x="0" y="90" width="300" height="30" fill="rgba(0,128,128,0.9)"/>
    <text x="150" y="108" text-anchor="middle" fill="white" font-size="12" font-family="system-ui">
        Mơi Lảu
    </text>
</svg>