<?xml version="1.0" encoding="UTF-8"?>
<svg width="1640" height="800" xmlns="http://www.w3.org/2000/svg">
    <defs>
        <style>
            .string-line { stroke: #333; stroke-width: 3; }
            .string-label { font-family: Arial; font-size: 14px; font-weight: bold; fill: #2c3e50; }
            .note-circle { fill: #008080; stroke: #005959; stroke-width: 2; }
            .note-text { font-family: Arial; font-size: 10px; font-weight: bold; fill: white; text-anchor: middle; }
            .grace-note { fill: #FFD700; stroke: #CC9900; }
            .bent-note { fill: #E67E22; stroke: #D35400; }
            .lyric-text { font-family: Arial; font-size: 12px; fill: #2c3e50; }
            .resonance-band { fill: #008080; opacity: 0.3; }
        </style>
    </defs>

    <!-- Title -->
    <text x="10" y="30" style="font-size: 20px; font-weight: bold; fill: #2c3e50;">KHÂU XÌA</text>
    <text x="10" y="50" style="font-size: 14px; fill: #666;">Tuning: C-D-F-G-A | 36 notes | Traditional</text>

    <!-- String Lines -->
    <line x1="100" y1="100" x2="1620" y2="100" class="string-line"/>
    <line x1="100" y1="125" x2="1620" y2="125" class="string-line"/>
    <line x1="100" y1="162.5" x2="1620" y2="162.5" class="string-line"/>
    <line x1="100" y1="187.5" x2="1620" y2="187.5" class="string-line"/>
    <line x1="100" y1="212.5" x2="1620" y2="212.5" class="string-line"/>
    <line x1="100" y1="250" x2="1620" y2="250" class="string-line"/>
    <line x1="100" y1="275" x2="1620" y2="275" class="string-line"/>
    <line x1="100" y1="312.5" x2="1620" y2="312.5" class="string-line"/>
    <line x1="100" y1="337.5" x2="1620" y2="337.5" class="string-line"/>
    <line x1="100" y1="362.5" x2="1620" y2="362.5" class="string-line"/>
    <line x1="100" y1="400" x2="1620" y2="400" class="string-line"/>
    <line x1="100" y1="425" x2="1620" y2="425" class="string-line"/>
    <line x1="100" y1="462.5" x2="1620" y2="462.5" class="string-line"/>
    <line x1="100" y1="487.5" x2="1620" y2="487.5" class="string-line"/>
    <line x1="100" y1="512.5" x2="1620" y2="512.5" class="string-line"/>
    <line x1="100" y1="550" x2="1620" y2="550" class="string-line"/>
    <line x1="100" y1="575" x2="1620" y2="575" class="string-line"/>

    <!-- String Labels -->
    <text x="50" y="105" class="string-label">C3</text>
    <text x="50" y="130" class="string-label">D3</text>
    <text x="50" y="167.5" class="string-label">F3</text>
    <text x="50" y="192.5" class="string-label">G3</text>
    <text x="50" y="217.5" class="string-label">A3</text>
    <text x="50" y="255" class="string-label">C4</text>
    <text x="50" y="280" class="string-label">D4</text>
    <text x="50" y="317.5" class="string-label">F4</text>
    <text x="50" y="342.5" class="string-label">G4</text>
    <text x="50" y="367.5" class="string-label">A4</text>
    <text x="50" y="405" class="string-label">C5</text>
    <text x="50" y="430" class="string-label">D5</text>
    <text x="50" y="467.5" class="string-label">F5</text>
    <text x="50" y="492.5" class="string-label">G5</text>
    <text x="50" y="517.5" class="string-label">A5</text>
    <text x="50" y="555" class="string-label">C6</text>
    <text x="50" y="580" class="string-label">D6</text>

    <!-- Notes -->
    <rect x="-10" y="423.5" width="320" height="3" class="resonance-band"/>
    <circle cx="150" cy="425" r="12" class="note-circle"/>
    <text x="150" y="429" class="note-text">12</text>
    <rect x="30" y="211" width="320" height="3" class="resonance-band"/>
    <circle cx="190" cy="212.5" r="12" class="note-circle"/>
    <text x="190" y="216.5" class="note-text">5</text>
    <rect x="70" y="273.5" width="320" height="3" class="resonance-band"/>
    <circle cx="230" cy="275" r="12" class="note-circle"/>
    <text x="230" y="279" class="note-text">7</text>
    <rect x="110" y="311" width="320" height="3" class="resonance-band"/>
    <circle cx="270" cy="312.5" r="12" class="note-circle"/>
    <text x="270" y="316.5" class="note-text">8</text>
    <rect x="150" y="336" width="320" height="3" class="resonance-band"/>
    <circle cx="310" cy="337.5" r="12" class="note-circle"/>
    <text x="310" y="341.5" class="note-text">9</text>
    <rect x="190" y="273.5" width="320" height="3" class="resonance-band"/>
    <circle cx="350" cy="275" r="12" class="note-circle"/>
    <text x="350" y="279" class="note-text">7</text>
    <rect x="230" y="361" width="320" height="3" class="resonance-band"/>
    <circle cx="390" cy="362.5" r="12" class="note-circle"/>
    <text x="390" y="366.5" class="note-text">10</text>
    <rect x="270" y="336" width="320" height="3" class="resonance-band"/>
    <circle cx="430" cy="337.5" r="12" class="note-circle"/>
    <text x="430" y="341.5" class="note-text">9</text>
    <rect x="310" y="361" width="320" height="3" class="resonance-band"/>
    <circle cx="470" cy="362.5" r="12" class="note-circle"/>
    <text x="470" y="366.5" class="note-text">10</text>
    <rect x="350" y="311" width="320" height="3" class="resonance-band"/>
    <circle cx="510" cy="312.5" r="12" class="note-circle"/>
    <text x="510" y="316.5" class="note-text">8</text>
    <rect x="390" y="311" width="320" height="3" class="resonance-band"/>
    <circle cx="550" cy="312.5" r="12" class="note-circle"/>
    <text x="550" y="316.5" class="note-text">8</text>
    <rect x="430" y="336" width="320" height="3" class="resonance-band"/>
    <circle cx="590" cy="337.5" r="12" class="note-circle"/>
    <text x="590" y="341.5" class="note-text">9</text>
    <rect x="470" y="311" width="320" height="3" class="resonance-band"/>
    <circle cx="630" cy="312.5" r="12" class="note-circle"/>
    <text x="630" y="316.5" class="note-text">8</text>
    <rect x="510" y="273.5" width="320" height="3" class="resonance-band"/>
    <circle cx="670" cy="275" r="12" class="note-circle"/>
    <text x="670" y="279" class="note-text">7</text>
    <rect x="550" y="211" width="320" height="3" class="resonance-band"/>
    <circle cx="710" cy="212.5" r="12" class="note-circle"/>
    <text x="710" y="216.5" class="note-text">5</text>
    <rect x="590" y="273.5" width="320" height="3" class="resonance-band"/>
    <circle cx="750" cy="275" r="12" class="note-circle"/>
    <text x="750" y="279" class="note-text">7</text>
    <rect x="630" y="311" width="320" height="3" class="resonance-band"/>
    <circle cx="790" cy="312.5" r="12" class="note-circle"/>
    <text x="790" y="316.5" class="note-text">8</text>
    <rect x="670" y="273.5" width="320" height="3" class="resonance-band"/>
    <circle cx="830" cy="275" r="12" class="note-circle"/>
    <text x="830" y="279" class="note-text">7</text>
    <rect x="710" y="336" width="320" height="3" class="resonance-band"/>
    <circle cx="870" cy="337.5" r="12" class="note-circle"/>
    <text x="870" y="341.5" class="note-text">9</text>
    <rect x="750" y="361" width="320" height="3" class="resonance-band"/>
    <circle cx="910" cy="362.5" r="12" class="note-circle"/>
    <text x="910" y="366.5" class="note-text">10</text>
    <rect x="790" y="273.5" width="320" height="3" class="resonance-band"/>
    <circle cx="950" cy="275" r="12" class="note-circle"/>
    <text x="950" y="279" class="note-text">7</text>
    <rect x="830" y="311" width="320" height="3" class="resonance-band"/>
    <circle cx="990" cy="312.5" r="12" class="note-circle"/>
    <text x="990" y="316.5" class="note-text">8</text>
    <rect x="870" y="361" width="320" height="3" class="resonance-band"/>
    <circle cx="1030" cy="362.5" r="12" class="note-circle"/>
    <text x="1030" y="366.5" class="note-text">10</text>
    <rect x="910" y="336" width="320" height="3" class="resonance-band"/>
    <circle cx="1070" cy="337.5" r="12" class="note-circle"/>
    <text x="1070" y="341.5" class="note-text">9</text>
    <rect x="950" y="311" width="320" height="3" class="resonance-band"/>
    <circle cx="1110" cy="312.5" r="12" class="note-circle"/>
    <text x="1110" y="316.5" class="note-text">8</text>
    <rect x="990" y="273.5" width="320" height="3" class="resonance-band"/>
    <circle cx="1150" cy="275" r="12" class="note-circle"/>
    <text x="1150" y="279" class="note-text">7</text>
    <rect x="1030" y="211" width="320" height="3" class="resonance-band"/>
    <circle cx="1190" cy="212.5" r="12" class="note-circle"/>
    <text x="1190" y="216.5" class="note-text">5</text>
    <rect x="1070" y="273.5" width="320" height="3" class="resonance-band"/>
    <circle cx="1230" cy="275" r="12" class="note-circle"/>
    <text x="1230" y="279" class="note-text">7</text>
    <rect x="1110" y="311" width="320" height="3" class="resonance-band"/>
    <circle cx="1270" cy="312.5" r="12" class="note-circle"/>
    <text x="1270" y="316.5" class="note-text">8</text>
    <rect x="1150" y="273.5" width="320" height="3" class="resonance-band"/>
    <circle cx="1310" cy="275" r="12" class="note-circle"/>
    <text x="1310" y="279" class="note-text">7</text>
    <rect x="1190" y="361" width="320" height="3" class="resonance-band"/>
    <circle cx="1350" cy="362.5" r="12" class="note-circle"/>
    <text x="1350" y="366.5" class="note-text">10</text>
    <rect x="1230" y="311" width="320" height="3" class="resonance-band"/>
    <circle cx="1390" cy="312.5" r="12" class="note-circle"/>
    <text x="1390" y="316.5" class="note-text">8</text>
    <rect x="1270" y="361" width="320" height="3" class="resonance-band"/>
    <circle cx="1430" cy="362.5" r="12" class="note-circle"/>
    <text x="1430" y="366.5" class="note-text">10</text>
    <rect x="1310" y="336" width="320" height="3" class="resonance-band"/>
    <circle cx="1470" cy="337.5" r="12" class="note-circle"/>
    <text x="1470" y="341.5" class="note-text">9</text>
    <rect x="1350" y="361" width="320" height="3" class="resonance-band"/>
    <circle cx="1510" cy="362.5" r="12" class="note-circle"/>
    <text x="1510" y="366.5" class="note-text">10</text>
    <rect x="1390" y="311" width="320" height="3" class="resonance-band"/>
    <circle cx="1550" cy="312.5" r="12" class="note-circle"/>
    <text x="1550" y="316.5" class="note-text">8</text>
    

    <!-- Lyrics -->
    <text x="150" y="465" class="lyric-text">A</text>
    <text x="190" y="252.5" class="lyric-text">già</text>
    <text x="230" y="315" class="lyric-text">tù</text>
    <text x="270" y="352.5" class="lyric-text">dua</text>
    <text x="310" y="377.5" class="lyric-text">minh</text>
    <text x="350" y="315" class="lyric-text">cầu</text>
    <text x="390" y="402.5" class="lyric-text">mông</text>
    <text x="470" y="402.5" class="lyric-text">a</text>
    <text x="510" y="352.5" class="lyric-text">lơ</text>
    <text x="550" y="352.5" class="lyric-text">Tu</text>
    <text x="590" y="377.5" class="lyric-text">mi</text>
    <text x="630" y="352.5" class="lyric-text">chua</text>
    <text x="670" y="315" class="lyric-text">tùa</text>
    <text x="710" y="252.5" class="lyric-text">già</text>
    <text x="750" y="315" class="lyric-text">và</text>
    <text x="790" y="352.5" class="lyric-text">li</text>
    <text x="830" y="315" class="lyric-text">của</text>
    <text x="870" y="377.5" class="lyric-text">chua</text>
    <text x="910" y="402.5" class="lyric-text">tró</text>
    <text x="950" y="315" class="lyric-text">và</text>
    <text x="990" y="352.5" class="lyric-text">lì</text>
    <text x="1030" y="402.5" class="lyric-text">lí</text>
    <text x="1070" y="377.5" class="lyric-text">câu</text>
    <text x="1150" y="315" class="lyric-text">cầu</text>
    <text x="1190" y="252.5" class="lyric-text">lờư</text>
    <text x="1230" y="315" class="lyric-text">lú</text>
    <text x="1270" y="352.5" class="lyric-text">lua</text>
    <text x="1310" y="315" class="lyric-text">tùa</text>
    <text x="1350" y="402.5" class="lyric-text">tró</text>
    <text x="1390" y="352.5" class="lyric-text">sâu</text>
    <text x="1430" y="402.5" class="lyric-text">khâu</text>
    <text x="1510" y="402.5" class="lyric-text">a</text>
    <text x="1550" y="352.5" class="lyric-text">lơ...</text>
    
</svg>