<svg width="200" height="100" xmlns="http://www.w3.org/2000/svg"><rect width="200" height="100" fill="#f8f9fa"/><circle cx="2" cy="42" r="2" fill="#4dabf7"/><circle cx="6" cy="42" r="2" fill="#ff6b6b"/><circle cx="10" cy="42" r="2" fill="#4dabf7"/><circle cx="14" cy="66" r="2" fill="#ff6b6b"/><circle cx="18" cy="54" r="2" fill="#4dabf7"/><circle cx="22" cy="66" r="2" fill="#4dabf7"/><circle cx="26" cy="42" r="2" fill="#4dabf7"/><circle cx="30" cy="66" r="2" fill="#ff6b6b"/><circle cx="34" cy="42" r="2" fill="#ff6b6b"/><circle cx="38" cy="66" r="2" fill="#ff6b6b"/><circle cx="42" cy="42" r="2" fill="#4dabf7"/><circle cx="46" cy="42" r="2" fill="#4dabf7"/><circle cx="50" cy="54" r="2" fill="#4dabf7"/><circle cx="54" cy="66" r="2" fill="#4dabf7"/><circle cx="58" cy="42" r="2" fill="#4dabf7"/><circle cx="62" cy="66" r="2" fill="#4dabf7"/><circle cx="66" cy="42" r="2" fill="#4dabf7"/><circle cx="70" cy="42" r="2" fill="#4dabf7"/><circle cx="74" cy="90" r="2" fill="#4dabf7"/><circle cx="78" cy="42" r="2" fill="#4dabf7"/><circle cx="82" cy="90" r="2" fill="#4dabf7"/><circle cx="86" cy="42" r="2" fill="#4dabf7"/><circle cx="90" cy="42" r="2" fill="#4dabf7"/><circle cx="94" cy="42" r="2" fill="#4dabf7"/><circle cx="98" cy="42" r="2" fill="#4dabf7"/><circle cx="102" cy="90" r="2" fill="#4dabf7"/><circle cx="106" cy="42" r="2" fill="#4dabf7"/><circle cx="110" cy="90" r="2" fill="#4dabf7"/><circle cx="114" cy="42" r="2" fill="#4dabf7"/><circle cx="118" cy="90" r="2" fill="#4dabf7"/><circle cx="122" cy="42" r="2" fill="#4dabf7"/><circle cx="126" cy="42" r="2" fill="#4dabf7"/><circle cx="130" cy="66" r="2" fill="#4dabf7"/><circle cx="134" cy="54" r="2" fill="#ff6b6b"/><circle cx="138" cy="66" r="2" fill="#ff6b6b"/><circle cx="142" cy="42" r="2" fill="#4dabf7"/><circle cx="146" cy="66" r="2" fill="#ff6b6b"/><circle cx="150" cy="42" r="2" fill="#4dabf7"/><circle cx="154" cy="54" r="2" fill="#4dabf7"/><circle cx="158" cy="66" r="2" fill="#4dabf7"/><circle cx="162" cy="90" r="2" fill="#4dabf7"/><circle cx="166" cy="42" r="2" fill="#4dabf7"/><circle cx="170" cy="66" r="2" fill="#4dabf7"/><circle cx="174" cy="54" r="2" fill="#4dabf7"/><circle cx="178" cy="66" r="2" fill="#4dabf7"/><circle cx="182" cy="42" r="2" fill="#4dabf7"/><circle cx="186" cy="66" r="2" fill="#4dabf7"/><circle cx="190" cy="54" r="2" fill="#4dabf7"/><circle cx="194" cy="42" r="2" fill="#4dabf7"/><circle cx="198" cy="66" r="2" fill="#4dabf7"/></svg>