<svg width="300" height="120" viewBox="0 0 600 400" xmlns="http://www.w3.org/2000/svg">
    <rect width="600" height="400" fill="#ffffff"/>
    <g transform="scale(0.5)">
                                        stroke-dasharray="3,2" fill="none"/><circle cx="100" cy="362.5" r="8" fill="#666666"
                            fill="#333">Thày</text><circle cx="130" cy="362.5" r="5" fill="#FFD700"
<circle cx="142.5" cy="425" r="8" fill="#666666"
                            fill="#FFD700">♪</text><circle cx="270" cy="425" r="8" fill="#666666"
                            fill="#333">mưng</text><circle cx="300" cy="425" r="5" fill="#FFD700"
<circle cx="312.5" cy="462.5" r="8" fill="#666666"
                            fill="#FFD700">♪</text><circle cx="397.5" cy="425" r="8" fill="#666666"
                            fill="#333">ai</text><circle cx="440" cy="400" r="8" fill="#666666"
                                stroke-dasharray="3,2" fill="none"/><circle cx="482.5" cy="362.5" r="8" fill="#666666"
                            fill="#333">lại</text><circle cx="567.5" cy="312.5" r="8" fill="#666666"
                        fill="#333">10</text><circle cx="610" cy="312.5" r="8" fill="#666666"
                            fill="#333">thày</text><circle cx="640" cy="362.5" r="5" fill="#FFD700"
<circle cx="652.5" cy="425" r="8" fill="#666666"
                            fill="#FFD700">♪</text><circle cx="822.5" cy="425" r="8" fill="#666666"
                        fill="#333">14</text><circle cx="907.5" cy="425" r="8" fill="#666666"
                                stroke-dasharray="3,2" fill="none"/><circle cx="1247.5" cy="362.5" r="8" fill="#666666"
                                stroke-dasharray="3,2" fill="none"/><circle cx="1502.5" cy="362.5" r="8" fill="#666666"
                                stroke-dasharray="3,2" fill="none"/><circle cx="1587.5" cy="362.5" r="8" fill="#666666"
                                stroke-dasharray="3,2" fill="none"/><circle cx="1630" cy="337.5" r="8" fill="#666666"
                                stroke-dasharray="3,2" fill="none"/><circle cx="1800" cy="337.5" r="8" fill="#666666"
                                stroke-dasharray="3,2" fill="none"/><circle cx="1842.5" cy="362.5" r="8" fill="#666666"
                                stroke-dasharray="3,2" fill="none"/><circle cx="2012.5" cy="387.5" r="8" fill="#666666"
                                stroke-dasharray="3,2" fill="none"/><circle cx="2055" cy="387.5" r="8" fill="#666666"
                                stroke-dasharray="3,2" fill="none"/><circle cx="2140" cy="362.5" r="8" fill="#666666"
                                stroke-dasharray="3,2" fill="none"/><circle cx="2182.5" cy="337.5" r="8" fill="#666666"
                                stroke-dasharray="3,2" fill="none"/><circle cx="2395" cy="337.5" r="8" fill="#666666"
                                stroke-dasharray="3,2" fill="none"/><circle cx="2437.5" cy="362.5" r="8" fill="#666666"
                                stroke-dasharray="3,2" fill="none"/><circle cx="2607.5" cy="387.5" r="8" fill="#666666"
                                stroke-dasharray="3,2" fill="none"/><circle cx="2650" cy="387.5" r="8" fill="#666666"
                                stroke-dasharray="3,2" fill="none"/><circle cx="2735" cy="362.5" r="8" fill="#666666"
                                stroke-dasharray="3,2" fill="none"/><circle cx="2777.5" cy="337.5" r="8" fill="#666666"
    </g>
    <!-- Song name overlay -->
    <rect x="0" y="90" width="300" height="30" fill="rgba(0,128,128,0.9)"/>
    <text x="150" y="108" text-anchor="middle" fill="white" font-size="12" font-family="system-ui">
        Bengu Adai
    </text>
</svg>