<svg width="300" height="120" viewBox="0 0 600 400" xmlns="http://www.w3.org/2000/svg">
    <rect width="600" height="400" fill="#ffffff"/>
    <g transform="scale(0.5)">
        <circle cx="100" cy="462.5" r="8" fill="#666666"
                                stroke-dasharray="3,2" fill="none"/><circle cx="482.5" cy="362.5" r="8" fill="#666666"
                        fill="#333">2</text><circle cx="610" cy="425" r="8" fill="#666666"
                        fill="#333">3</text><circle cx="1630" cy="425" r="8" fill="#666666"
                        fill="#333">4</text><circle cx="2650" cy="425" r="8" fill="#666666"
                        fill="#333">5</text><circle cx="3670" cy="462.5" r="8" fill="#666666"
                                stroke-dasharray="3,2" fill="none"/><circle cx="4052.5" cy="362.5" r="8" fill="#666666"
                        fill="#333">7</text><circle cx="4180" cy="425" r="8" fill="#666666"
                        fill="#333">8</text><circle cx="5200" cy="425" r="8" fill="#666666"
                                stroke-dasharray="3,2" fill="none"/><circle cx="5710" cy="450" r="8" fill="#666666"
                                stroke-dasharray="3,2" fill="none"/><circle cx="6092.5" cy="362.5" r="8" fill="#666666"
                                stroke-dasharray="3,2" fill="none"/><circle cx="6220" cy="412.5" r="8" fill="#666666"
                        fill="#333">12</text><circle cx="6730" cy="425" r="8" fill="#666666"
                                stroke-dasharray="3,2" fill="none"/><circle cx="7112.5" cy="337.5" r="8" fill="#666666"
                                stroke-dasharray="3,2" fill="none"/><circle cx="7240" cy="362.5" r="8" fill="#666666"
                                stroke-dasharray="3,2" fill="none"/><circle cx="8132.5" cy="300" r="8" fill="#666666"
                                stroke-dasharray="3,2" fill="none"/><circle cx="8260" cy="337.5" r="8" fill="#666666"
                                stroke-dasharray="3,2" fill="none"/><circle cx="8770" cy="362.5" r="8" fill="#666666"
                                stroke-dasharray="3,2" fill="none"/><circle cx="9790" cy="337.5" r="8" fill="#666666"
                                stroke-dasharray="3,2" fill="none"/><circle cx="10172.5" cy="262.5" r="8" fill="#666666"
                                stroke-dasharray="3,2" fill="none"/><circle cx="10300" cy="300" r="8" fill="#666666"
                                stroke-dasharray="3,2" fill="none"/><circle cx="11830" cy="300" r="8" fill="#666666"
                                stroke-dasharray="3,2" fill="none"/><circle cx="12212.5" cy="212.5" r="8" fill="#666666"
                                stroke-dasharray="3,2" fill="none"/><circle cx="12340" cy="212.5" r="8" fill="#666666"
                                stroke-dasharray="3,2" fill="none"/><circle cx="12467.5" cy="237.5" r="8" fill="#666666"
                                stroke-dasharray="3,2" fill="none"/><circle cx="12595" cy="262.5" r="8" fill="#666666"
                                stroke-dasharray="3,2" fill="none"/><circle cx="12722.5" cy="237.5" r="8" fill="#666666"
                                stroke-dasharray="3,2" fill="none"/><circle cx="12850" cy="212.5" r="8" fill="#666666"
                                stroke-dasharray="3,2" fill="none"/><circle cx="12977.5" cy="237.5" r="8" fill="#666666"
                                stroke-dasharray="3,2" fill="none"/><circle cx="13105" cy="262.5" r="8" fill="#666666"
                                stroke-dasharray="3,2" fill="none"/><circle cx="13232.5" cy="237.5" r="8" fill="#666666"
                                stroke-dasharray="3,2" fill="none"/><circle cx="13360" cy="212.5" r="8" fill="#666666"
                                stroke-dasharray="3,2" fill="none"/><circle cx="14380" cy="212.5" r="8" fill="#666666"
                                stroke-dasharray="3,2" fill="none"/><circle cx="17440" cy="362.5" r="8" fill="#666666"
                                stroke-dasharray="3,2" fill="none"/><circle cx="17695" cy="362.5" r="8" fill="#666666"
                                stroke-dasharray="3,2" fill="none"/><circle cx="17950" cy="362.5" r="8" fill="#666666"
                                stroke-dasharray="3,2" fill="none"/><circle cx="18205" cy="362.5" r="8" fill="#666666"
                                stroke-dasharray="3,2" fill="none"/><circle cx="18332.5" cy="337.5" r="8" fill="#666666"
                                stroke-dasharray="3,2" fill="none"/><circle cx="19097.5" cy="362.5" r="8" fill="#666666"
                                stroke-dasharray="3,2" fill="none"/><circle cx="19225" cy="337.5" r="8" fill="#666666"
                                stroke-dasharray="3,2" fill="none"/><circle cx="20500" cy="212.5" r="8" fill="#666666"
                                stroke-dasharray="3,2" fill="none"/><circle cx="21010" cy="212.5" r="8" fill="#666666"
                                stroke-dasharray="3,2" fill="none"/><circle cx="21265" cy="212.5" r="8" fill="#666666"
                                stroke-dasharray="3,2" fill="none"/><circle cx="22157.5" cy="337.5" r="8" fill="#666666"
                                stroke-dasharray="3,2" fill="none"/><circle cx="22412.5" cy="337.5" r="8" fill="#666666"
                                stroke-dasharray="3,2" fill="none"/><circle cx="22540" cy="362.5" r="8" fill="#666666"
                                stroke-dasharray="3,2" fill="none"/><circle cx="22795" cy="362.5" r="8" fill="#666666"
                                stroke-dasharray="3,2" fill="none"/><circle cx="23050" cy="362.5" r="8" fill="#666666"
                                stroke-dasharray="3,2" fill="none"/><circle cx="23305" cy="362.5" r="8" fill="#666666"
                                stroke-dasharray="3,2" fill="none"/><circle cx="24197.5" cy="487.5" r="8" fill="#666666"
                                stroke-dasharray="3,2" fill="none"/><circle cx="24452.5" cy="487.5" r="8" fill="#666666"
                                stroke-dasharray="3,2" fill="none"/><circle cx="24580" cy="512.5" r="8" fill="#666666"
                                stroke-dasharray="3,2" fill="none"/><circle cx="24707.5" cy="487.5" r="8" fill="#666666"
                                stroke-dasharray="3,2" fill="none"/><circle cx="24962.5" cy="487.5" r="8" fill="#666666"
                                stroke-dasharray="3,2" fill="none"/><circle cx="25090" cy="512.5" r="8" fill="#666666"
                                stroke-dasharray="3,2" fill="none"/><circle cx="25217.5" cy="487.5" r="8" fill="#666666"
                                stroke-dasharray="3,2" fill="none"/><circle cx="25472.5" cy="487.5" r="8" fill="#666666"
                                stroke-dasharray="3,2" fill="none"/><circle cx="25600" cy="512.5" r="8" fill="#666666"
                                stroke-dasharray="3,2" fill="none"/><circle cx="25727.5" cy="487.5" r="8" fill="#666666"
                                stroke-dasharray="3,2" fill="none"/><circle cx="25982.5" cy="487.5" r="8" fill="#666666"
                                stroke-dasharray="3,2" fill="none"/><circle cx="26110" cy="512.5" r="8" fill="#666666"
                                stroke-dasharray="3,2" fill="none"/><circle cx="26237.5" cy="487.5" r="8" fill="#666666"
                                stroke-dasharray="3,2" fill="none"/><circle cx="26492.5" cy="487.5" r="8" fill="#666666"
                                stroke-dasharray="3,2" fill="none"/><circle cx="26620" cy="512.5" r="8" fill="#666666"
                                stroke-dasharray="3,2" fill="none"/><circle cx="27640" cy="487.5" r="8" fill="#666666"
                                stroke-dasharray="3,2" fill="none"/><circle cx="28150" cy="487.5" r="8" fill="#666666"
                                stroke-dasharray="3,2" fill="none"/><circle cx="28915" cy="450" r="8" fill="#666666"
                                stroke-dasharray="3,2" fill="none"/><circle cx="29170" cy="487.5" r="8" fill="#666666"
                                stroke-dasharray="3,2" fill="none"/><circle cx="29680" cy="450" r="8" fill="#666666"
                                stroke-dasharray="3,2" fill="none"/><circle cx="35035" cy="337.5" r="8" fill="#666666"
                                stroke-dasharray="3,2" fill="none"/><circle cx="35800" cy="337.5" r="8" fill="#666666"
                                stroke-dasharray="3,2" fill="none"/><circle cx="37330" cy="450" r="8" fill="#666666"
                                stroke-dasharray="3,2" fill="none"/><circle cx="38350" cy="450" r="8" fill="#666666"
                                stroke-dasharray="3,2" fill="none"/><circle cx="38860" cy="487.5" r="8" fill="#666666"
                                stroke-dasharray="3,2" fill="none"/><circle cx="40390" cy="337.5" r="8" fill="#666666"
                                stroke-dasharray="3,2" fill="none"/><circle cx="41920" cy="387.5" r="8" fill="#666666"
                                stroke-dasharray="3,2" fill="none"/><circle cx="42430" cy="337.5" r="8" fill="#666666"
                                stroke-dasharray="3,2" fill="none"/><circle cx="42940" cy="350" r="8" fill="#666666"
                                stroke-dasharray="3,2" fill="none"/><circle cx="43195" cy="387.5" r="8" fill="#666666"
                                stroke-dasharray="3,2" fill="none"/><circle cx="43705" cy="450" r="8" fill="#666666"
                                stroke-dasharray="3,2" fill="none"/><circle cx="44215" cy="487.5" r="8" fill="#666666"
                                stroke-dasharray="3,2" fill="none"/><circle cx="44470" cy="500" r="8" fill="#666666"
                                stroke-dasharray="3,2" fill="none"/><circle cx="44980" cy="500" r="8" fill="#666666"
                                stroke-dasharray="3,2" fill="none"/><circle cx="45320" cy="500" r="8" fill="#666666"
                                stroke-dasharray="3,2" fill="none"/><circle cx="45490" cy="487.5" r="8" fill="#666666"
                                stroke-dasharray="3,2" fill="none"/><circle cx="46000" cy="487.5" r="8" fill="#666666"
                                stroke-dasharray="3,2" fill="none"/><circle cx="46340" cy="487.5" r="8" fill="#666666"
                                stroke-dasharray="3,2" fill="none"/><circle cx="49315" cy="387.5" r="8" fill="#666666"
                                stroke-dasharray="3,2" fill="none"/><circle cx="51100" cy="300" r="8" fill="#666666"
                                stroke-dasharray="3,2" fill="none"/><circle cx="51610" cy="362.5" r="8" fill="#666666"
                                stroke-dasharray="3,2" fill="none"/><circle cx="52120" cy="412.5" r="8" fill="#666666"
                                stroke-dasharray="3,2" fill="none"/><circle cx="52630" cy="450" r="8" fill="#666666"
                                stroke-dasharray="3,2" fill="none"/><circle cx="53650" cy="450" r="8" fill="#666666"
                                stroke-dasharray="3,2" fill="none"/><circle cx="54160" cy="512.5" r="8" fill="#666666"
                                stroke-dasharray="3,2" fill="none"/><circle cx="54670" cy="500" r="8" fill="#666666"
                                stroke-dasharray="3,2" fill="none"/><circle cx="55052.5" cy="512.5" r="8" fill="#666666"
                                stroke-dasharray="3,2" fill="none"/><circle cx="55180" cy="412.5" r="8" fill="#666666"
                                stroke-dasharray="3,2" fill="none"/><circle cx="55690" cy="450" r="8" fill="#666666"
                                stroke-dasharray="3,2" fill="none"/><circle cx="56710" cy="450" r="8" fill="#666666"
                                stroke-dasharray="3,2" fill="none"/><circle cx="57730" cy="362.5" r="8" fill="#666666"
                                stroke-dasharray="3,2" fill="none"/><circle cx="57985" cy="387.5" r="8" fill="#666666"
                                stroke-dasharray="3,2" fill="none"/><circle cx="58240" cy="412.5" r="8" fill="#666666"
                                stroke-dasharray="3,2" fill="none"/><circle cx="58622.5" cy="450" r="8" fill="#666666"
                                stroke-dasharray="3,2" fill="none"/><circle cx="58877.5" cy="475" r="8" fill="#666666"
                                stroke-dasharray="3,2" fill="none"/><circle cx="59005" cy="487.5" r="8" fill="#666666"
                                stroke-dasharray="3,2" fill="none"/><circle cx="59132.5" cy="500" r="8" fill="#666666"
                                stroke-dasharray="3,2" fill="none"/><circle cx="59260" cy="512.5" r="8" fill="#666666"
                                stroke-dasharray="3,2" fill="none"/><circle cx="59387.5" cy="500" r="8" fill="#666666"
                                stroke-dasharray="3,2" fill="none"/><circle cx="59515" cy="500" r="8" fill="#666666"
                                stroke-dasharray="3,2" fill="none"/><circle cx="59642.5" cy="475" r="8" fill="#666666"
                                stroke-dasharray="3,2" fill="none"/><circle cx="59897.5" cy="450" r="8" fill="#666666"
                                stroke-dasharray="3,2" fill="none"/><circle cx="60280" cy="412.5" r="8" fill="#666666"
                                stroke-dasharray="3,2" fill="none"/><circle cx="60535" cy="387.5" r="8" fill="#666666"
                                stroke-dasharray="3,2" fill="none"/><circle cx="60790" cy="362.5" r="8" fill="#666666"
                                stroke-dasharray="3,2" fill="none"/><circle cx="61045" cy="387.5" r="8" fill="#666666"
                                stroke-dasharray="3,2" fill="none"/><circle cx="61300" cy="412.5" r="8" fill="#666666"
                                stroke-dasharray="3,2" fill="none"/><circle cx="61682.5" cy="450" r="8" fill="#666666"
                                stroke-dasharray="3,2" fill="none"/><circle cx="61937.5" cy="475" r="8" fill="#666666"
                                stroke-dasharray="3,2" fill="none"/><circle cx="62065" cy="487.5" r="8" fill="#666666"
                                stroke-dasharray="3,2" fill="none"/><circle cx="62192.5" cy="500" r="8" fill="#666666"
                                stroke-dasharray="3,2" fill="none"/><circle cx="62320" cy="512.5" r="8" fill="#666666"
                                stroke-dasharray="3,2" fill="none"/><circle cx="62447.5" cy="500" r="8" fill="#666666"
                                stroke-dasharray="3,2" fill="none"/><circle cx="62575" cy="500" r="8" fill="#666666"
                                stroke-dasharray="3,2" fill="none"/><circle cx="62702.5" cy="475" r="8" fill="#666666"
                                stroke-dasharray="3,2" fill="none"/><circle cx="62957.5" cy="450" r="8" fill="#666666"
                                stroke-dasharray="3,2" fill="none"/><circle cx="63340" cy="412.5" r="8" fill="#666666"
                                stroke-dasharray="3,2" fill="none"/><circle cx="63595" cy="387.5" r="8" fill="#666666"
                                stroke-dasharray="3,2" fill="none"/><circle cx="63850" cy="362.5" r="8" fill="#666666"
                                stroke-dasharray="3,2" fill="none"/><circle cx="64105" cy="387.5" r="8" fill="#666666"
                                stroke-dasharray="3,2" fill="none"/><circle cx="64360" cy="412.5" r="8" fill="#666666"
                                stroke-dasharray="3,2" fill="none"/><circle cx="64742.5" cy="450" r="8" fill="#666666"
                                stroke-dasharray="3,2" fill="none"/><circle cx="64997.5" cy="475" r="8" fill="#666666"
                                stroke-dasharray="3,2" fill="none"/><circle cx="65125" cy="487.5" r="8" fill="#666666"
                                stroke-dasharray="3,2" fill="none"/><circle cx="65252.5" cy="500" r="8" fill="#666666"
                                stroke-dasharray="3,2" fill="none"/><circle cx="65380" cy="512.5" r="8" fill="#666666"
                                stroke-dasharray="3,2" fill="none"/><circle cx="65507.5" cy="500" r="8" fill="#666666"
                                stroke-dasharray="3,2" fill="none"/><circle cx="65635" cy="500" r="8" fill="#666666"
                                stroke-dasharray="3,2" fill="none"/><circle cx="65762.5" cy="475" r="8" fill="#666666"
                                stroke-dasharray="3,2" fill="none"/><circle cx="66017.5" cy="450" r="8" fill="#666666"
                                stroke-dasharray="3,2" fill="none"/><circle cx="66400" cy="412.5" r="8" fill="#666666"
                                stroke-dasharray="3,2" fill="none"/><circle cx="66655" cy="387.5" r="8" fill="#666666"
                                stroke-dasharray="3,2" fill="none"/><circle cx="66910" cy="362.5" r="8" fill="#666666"
                                stroke-dasharray="3,2" fill="none"/><circle cx="67165" cy="387.5" r="8" fill="#666666"
                                stroke-dasharray="3,2" fill="none"/><circle cx="67420" cy="412.5" r="8" fill="#666666"
                                stroke-dasharray="3,2" fill="none"/><circle cx="67802.5" cy="450" r="8" fill="#666666"
                                stroke-dasharray="3,2" fill="none"/><circle cx="68057.5" cy="475" r="8" fill="#666666"
                                stroke-dasharray="3,2" fill="none"/><circle cx="68185" cy="487.5" r="8" fill="#666666"
                                stroke-dasharray="3,2" fill="none"/><circle cx="68312.5" cy="500" r="8" fill="#666666"
                                stroke-dasharray="3,2" fill="none"/><circle cx="68440" cy="512.5" r="8" fill="#666666"
                                stroke-dasharray="3,2" fill="none"/><circle cx="68950" cy="512.5" r="8" fill="#666666"
                                stroke-dasharray="3,2" fill="none"/><circle cx="92155" cy="300" r="8" fill="#666666"
                                stroke-dasharray="3,2" fill="none"/><circle cx="92282.5" cy="337.5" r="8" fill="#666666"
                                stroke-dasharray="3,2" fill="none"/><circle cx="92410" cy="362.5" r="8" fill="#666666"
                                stroke-dasharray="3,2" fill="none"/><circle cx="92665" cy="362.5" r="8" fill="#666666"
                                stroke-dasharray="3,2" fill="none"/><circle cx="92792.5" cy="387.5" r="8" fill="#666666"
                                stroke-dasharray="3,2" fill="none"/><circle cx="93302.5" cy="450" r="8" fill="#666666"
                                stroke-dasharray="3,2" fill="none"/><circle cx="93430" cy="487.5" r="8" fill="#666666"
                                stroke-dasharray="3,2" fill="none"/><circle cx="93685" cy="487.5" r="8" fill="#666666"
                                stroke-dasharray="3,2" fill="none"/><circle cx="93812.5" cy="512.5" r="8" fill="#666666"
                                stroke-dasharray="3,2" fill="none"/><circle cx="93940" cy="537.5" r="8" fill="#666666"
                                stroke-dasharray="3,2" fill="none"/><circle cx="94195" cy="537.5" r="8" fill="#666666"
                                stroke-dasharray="3,2" fill="none"/><circle cx="94450" cy="600" r="8" fill="#666666"
                                stroke-dasharray="3,2" fill="none"/><circle cx="94832.5" cy="537.5" r="8" fill="#666666"
                                stroke-dasharray="3,2" fill="none"/><circle cx="94960" cy="487.5" r="8" fill="#666666"
                                stroke-dasharray="3,2" fill="none"/><circle cx="95215" cy="487.5" r="8" fill="#666666"
                                stroke-dasharray="3,2" fill="none"/><circle cx="95342.5" cy="450" r="8" fill="#666666"
                                stroke-dasharray="3,2" fill="none"/><circle cx="95725" cy="487.5" r="8" fill="#666666"
                                stroke-dasharray="3,2" fill="none"/><circle cx="95852.5" cy="450" r="8" fill="#666666"
                                stroke-dasharray="3,2" fill="none"/><circle cx="96362.5" cy="450" r="8" fill="#666666"
                                stroke-dasharray="3,2" fill="none"/><circle cx="97000" cy="337.5" r="8" fill="#666666"
                                stroke-dasharray="3,2" fill="none"/><circle cx="97510" cy="337.5" r="8" fill="#666666"
                                stroke-dasharray="3,2" fill="none"/><circle cx="97765" cy="237.5" r="8" fill="#666666"
                                stroke-dasharray="3,2" fill="none"/><circle cx="98530" cy="337.5" r="8" fill="#666666"
                                stroke-dasharray="3,2" fill="none"/><circle cx="99040" cy="337.5" r="8" fill="#666666"
                                stroke-dasharray="3,2" fill="none"/><circle cx="99550" cy="325" r="8" fill="#666666"
                                stroke-dasharray="3,2" fill="none"/><circle cx="99805" cy="337.5" r="8" fill="#666666"
                                stroke-dasharray="3,2" fill="none"/><circle cx="100060" cy="362.5" r="8" fill="#666666"
                                stroke-dasharray="3,2" fill="none"/><circle cx="101080" cy="362.5" r="8" fill="#666666"
                                stroke-dasharray="3,2" fill="none"/><circle cx="101335" cy="387.5" r="8" fill="#666666"
                                stroke-dasharray="3,2" fill="none"/><circle cx="101845" cy="387.5" r="8" fill="#666666"
                                stroke-dasharray="3,2" fill="none"/><circle cx="102100" cy="337.5" r="8" fill="#666666"
                                stroke-dasharray="3,2" fill="none"/><circle cx="102610" cy="387.5" r="8" fill="#666666"
                                stroke-dasharray="3,2" fill="none"/><circle cx="103120" cy="362.5" r="8" fill="#666666"
                                stroke-dasharray="3,2" fill="none"/><circle cx="104140" cy="337.5" r="8" fill="#666666"
                                stroke-dasharray="3,2" fill="none"/><circle cx="107200" cy="487.5" r="8" fill="#666666"
                                stroke-dasharray="3,2" fill="none"/><circle cx="107710" cy="487.5" r="8" fill="#666666"
                                stroke-dasharray="3,2" fill="none"/><circle cx="107965" cy="387.5" r="8" fill="#666666"
                                stroke-dasharray="3,2" fill="none"/><circle cx="108730" cy="487.5" r="8" fill="#666666"
                                stroke-dasharray="3,2" fill="none"/><circle cx="109240" cy="487.5" r="8" fill="#666666"
                                stroke-dasharray="3,2" fill="none"/><circle cx="109750" cy="475" r="8" fill="#666666"
                                stroke-dasharray="3,2" fill="none"/><circle cx="110005" cy="487.5" r="8" fill="#666666"
                                stroke-dasharray="3,2" fill="none"/><circle cx="110260" cy="512.5" r="8" fill="#666666"
                                stroke-dasharray="3,2" fill="none"/><circle cx="110387.5" cy="475" r="8" fill="#666666"
                                stroke-dasharray="3,2" fill="none"/><circle cx="110515" cy="512.5" r="8" fill="#666666"
                                stroke-dasharray="3,2" fill="none"/><circle cx="110642.5" cy="475" r="8" fill="#666666"
                                stroke-dasharray="3,2" fill="none"/><circle cx="111025" cy="475" r="8" fill="#666666"
                                stroke-dasharray="3,2" fill="none"/><circle cx="111280" cy="362.5" r="8" fill="#666666"
                                stroke-dasharray="3,2" fill="none"/><circle cx="111407.5" cy="362.5" r="8" fill="#666666"
                                stroke-dasharray="3,2" fill="none"/><circle cx="111662.5" cy="362.5" r="8" fill="#666666"
                                stroke-dasharray="3,2" fill="none"/><circle cx="111790" cy="325" r="8" fill="#666666"
                                stroke-dasharray="3,2" fill="none"/><circle cx="111917.5" cy="325" r="8" fill="#666666"
                                stroke-dasharray="3,2" fill="none"/><circle cx="112045" cy="362.5" r="8" fill="#666666"
                                stroke-dasharray="3,2" fill="none"/><circle cx="112172.5" cy="325" r="8" fill="#666666"
                                stroke-dasharray="3,2" fill="none"/><circle cx="112555" cy="325" r="8" fill="#666666"
                                stroke-dasharray="3,2" fill="none"/><circle cx="112682.5" cy="362.5" r="8" fill="#666666"
                                stroke-dasharray="3,2" fill="none"/><circle cx="113065" cy="475" r="8" fill="#666666"
                                stroke-dasharray="3,2" fill="none"/><circle cx="113192.5" cy="512.5" r="8" fill="#666666"
                                stroke-dasharray="3,2" fill="none"/><circle cx="113320" cy="625" r="8" fill="#666666"
                                stroke-dasharray="3,2" fill="none"/><circle cx="113575" cy="387.5" r="8" fill="#666666"
                                stroke-dasharray="3,2" fill="none"/><circle cx="114085" cy="387.5" r="8" fill="#666666"
                                stroke-dasharray="3,2" fill="none"/><circle cx="114340" cy="337.5" r="8" fill="#666666"
                                stroke-dasharray="3,2" fill="none"/><circle cx="114850" cy="387.5" r="8" fill="#666666"
                                stroke-dasharray="3,2" fill="none"/><circle cx="115360" cy="362.5" r="8" fill="#666666"
                                stroke-dasharray="3,2" fill="none"/><circle cx="116380" cy="337.5" r="8" fill="#666666"
                                stroke-dasharray="3,2" fill="none"/><circle cx="116507.5" cy="337.5" r="8" fill="#666666"
                                stroke-dasharray="3,2" fill="none"/><circle cx="116635" cy="362.5" r="8" fill="#666666"
                                stroke-dasharray="3,2" fill="none"/><circle cx="116762.5" cy="387.5" r="8" fill="#666666"
                                stroke-dasharray="3,2" fill="none"/><circle cx="117145" cy="450" r="8" fill="#666666"
                                stroke-dasharray="3,2" fill="none"/><circle cx="117272.5" cy="475" r="8" fill="#666666"
                                stroke-dasharray="3,2" fill="none"/><circle cx="117400" cy="487.5" r="8" fill="#666666"
                                stroke-dasharray="3,2" fill="none"/><circle cx="117527.5" cy="487.5" r="8" fill="#666666"
                                stroke-dasharray="3,2" fill="none"/><circle cx="117655" cy="512.5" r="8" fill="#666666"
                                stroke-dasharray="3,2" fill="none"/><circle cx="117782.5" cy="537.5" r="8" fill="#666666"
                                stroke-dasharray="3,2" fill="none"/><circle cx="118165" cy="600" r="8" fill="#666666"
                                stroke-dasharray="3,2" fill="none"/><circle cx="118675" cy="600" r="8" fill="#666666"
                                stroke-dasharray="3,2" fill="none"/><circle cx="118930" cy="537.5" r="8" fill="#666666"
                                stroke-dasharray="3,2" fill="none"/><circle cx="119185" cy="537.5" r="8" fill="#666666"
                                stroke-dasharray="3,2" fill="none"/><circle cx="119312.5" cy="487.5" r="8" fill="#666666"
                                stroke-dasharray="3,2" fill="none"/><circle cx="120460" cy="487.5" r="8" fill="#666666"
                                stroke-dasharray="3,2" fill="none"/><circle cx="121480" cy="337.5" r="8" fill="#666666"
                                stroke-dasharray="3,2" fill="none"/><circle cx="124030" cy="325" r="8" fill="#666666"
                                stroke-dasharray="3,2" fill="none"/><circle cx="124540" cy="362.5" r="8" fill="#666666"
                                stroke-dasharray="3,2" fill="none"/><circle cx="125560" cy="362.5" r="8" fill="#666666"
                                stroke-dasharray="3,2" fill="none"/><circle cx="126070" cy="325" r="8" fill="#666666"
                                stroke-dasharray="3,2" fill="none"/><circle cx="126580" cy="325" r="8" fill="#666666"
                                stroke-dasharray="3,2" fill="none"/><circle cx="127600" cy="325" r="8" fill="#666666"
                                stroke-dasharray="3,2" fill="none"/><circle cx="128110" cy="237.5" r="8" fill="#666666"
                                stroke-dasharray="3,2" fill="none"/><circle cx="128620" cy="300" r="8" fill="#666666"
                                stroke-dasharray="3,2" fill="none"/><circle cx="129385" cy="300" r="8" fill="#666666"
                                stroke-dasharray="3,2" fill="none"/><circle cx="129640" cy="325" r="8" fill="#666666"
                                stroke-dasharray="3,2" fill="none"/><circle cx="130150" cy="362.5" r="8" fill="#666666"
                                stroke-dasharray="3,2" fill="none"/><circle cx="130660" cy="387.5" r="8" fill="#666666"
                                stroke-dasharray="3,2" fill="none"/><circle cx="131680" cy="387.5" r="8" fill="#666666"
                                stroke-dasharray="3,2" fill="none"/><circle cx="132190" cy="362.5" r="8" fill="#666666"
                                stroke-dasharray="3,2" fill="none"/><circle cx="132445" cy="362.5" r="8" fill="#666666"
                                stroke-dasharray="3,2" fill="none"/><circle cx="132700" cy="362.5" r="8" fill="#666666"
                                stroke-dasharray="3,2" fill="none"/><circle cx="133210" cy="387.5" r="8" fill="#666666"
                                stroke-dasharray="3,2" fill="none"/><circle cx="133465" cy="387.5" r="8" fill="#666666"
                                stroke-dasharray="3,2" fill="none"/><circle cx="133720" cy="387.5" r="8" fill="#666666"
                                stroke-dasharray="3,2" fill="none"/><circle cx="135250" cy="387.5" r="8" fill="#666666"
                                stroke-dasharray="3,2" fill="none"/><circle cx="135760" cy="362.5" r="8" fill="#666666"
                                stroke-dasharray="3,2" fill="none"/><circle cx="136780" cy="362.5" r="8" fill="#666666"
                                stroke-dasharray="3,2" fill="none"/><circle cx="137290" cy="362.5" r="8" fill="#666666"
                                stroke-dasharray="3,2" fill="none"/><circle cx="138310" cy="337.5" r="8" fill="#666666"
                                stroke-dasharray="3,2" fill="none"/><circle cx="140350" cy="337.5" r="8" fill="#666666"
                                stroke-dasharray="3,2" fill="none"/><circle cx="142390" cy="387.5" r="8" fill="#666666"
                                stroke-dasharray="3,2" fill="none"/><circle cx="143410" cy="362.5" r="8" fill="#666666"
                                stroke-dasharray="3,2" fill="none"/><circle cx="143920" cy="325" r="8" fill="#666666"
                                stroke-dasharray="3,2" fill="none"/><circle cx="144430" cy="337.5" r="8" fill="#666666"
                                stroke-dasharray="3,2" fill="none"/><circle cx="144940" cy="237.5" r="8" fill="#666666"
                                stroke-dasharray="3,2" fill="none"/><circle cx="145960" cy="300" r="8" fill="#666666"
                                stroke-dasharray="3,2" fill="none"/><circle cx="146470" cy="337.5" r="8" fill="#666666"
                                stroke-dasharray="3,2" fill="none"/><circle cx="149275" cy="337.5" r="8" fill="#666666"
                                stroke-dasharray="3,2" fill="none"/><circle cx="149530" cy="362.5" r="8" fill="#666666"
                                stroke-dasharray="3,2" fill="none"/><circle cx="150040" cy="337.5" r="8" fill="#666666"
                                stroke-dasharray="3,2" fill="none"/><circle cx="150550" cy="337.5" r="8" fill="#666666"
                                stroke-dasharray="3,2" fill="none"/><circle cx="151060" cy="325" r="8" fill="#666666"
                                stroke-dasharray="3,2" fill="none"/><circle cx="151315" cy="337.5" r="8" fill="#666666"
                                stroke-dasharray="3,2" fill="none"/><circle cx="151570" cy="362.5" r="8" fill="#666666"
                                stroke-dasharray="3,2" fill="none"/><circle cx="152590" cy="362.5" r="8" fill="#666666"
                                stroke-dasharray="3,2" fill="none"/><circle cx="153610" cy="337.5" r="8" fill="#666666"
                                stroke-dasharray="3,2" fill="none"/><circle cx="154630" cy="362.5" r="8" fill="#666666"
                                stroke-dasharray="3,2" fill="none"/><circle cx="155650" cy="337.5" r="8" fill="#666666"
                                stroke-dasharray="3,2" fill="none"/><circle cx="156670" cy="337.5" r="8" fill="#666666"
                                stroke-dasharray="3,2" fill="none"/><circle cx="157180" cy="337.5" r="8" fill="#666666"
                                stroke-dasharray="3,2" fill="none"/><circle cx="157435" cy="337.5" r="8" fill="#666666"
                                stroke-dasharray="3,2" fill="none"/><circle cx="158710" cy="337.5" r="8" fill="#666666"
                                stroke-dasharray="3,2" fill="none"/><circle cx="159220" cy="337.5" r="8" fill="#666666"
                                stroke-dasharray="3,2" fill="none"/><circle cx="159475" cy="337.5" r="8" fill="#666666"
                                stroke-dasharray="3,2" fill="none"/><circle cx="162280" cy="362.5" r="8" fill="#666666"
                                stroke-dasharray="3,2" fill="none"/><circle cx="167125" cy="337.5" r="8" fill="#666666"
                                stroke-dasharray="3,2" fill="none"/><circle cx="167380" cy="337.5" r="8" fill="#666666"
                                stroke-dasharray="3,2" fill="none"/><circle cx="167890" cy="362.5" r="8" fill="#666666"
                                stroke-dasharray="3,2" fill="none"/><circle cx="168400" cy="387.5" r="8" fill="#666666"
                                stroke-dasharray="3,2" fill="none"/><circle cx="169420" cy="387.5" r="8" fill="#666666"
                                stroke-dasharray="3,2" fill="none"/><circle cx="171970" cy="450" r="8" fill="#666666"
                                stroke-dasharray="3,2" fill="none"/><circle cx="172480" cy="387.5" r="8" fill="#666666"
                                stroke-dasharray="3,2" fill="none"/><circle cx="173500" cy="387.5" r="8" fill="#666666"
                                stroke-dasharray="3,2" fill="none"/><circle cx="174010" cy="387.5" r="8" fill="#666666"
                                stroke-dasharray="3,2" fill="none"/><circle cx="174392.5" cy="362.5" r="8" fill="#666666"
                                stroke-dasharray="3,2" fill="none"/><circle cx="174520" cy="337.5" r="8" fill="#666666"
                                stroke-dasharray="3,2" fill="none"/><circle cx="175030" cy="337.5" r="8" fill="#666666"
                                stroke-dasharray="3,2" fill="none"/><circle cx="175540" cy="337.5" r="8" fill="#666666"
                                stroke-dasharray="3,2" fill="none"/><circle cx="176050" cy="362.5" r="8" fill="#666666"
                                stroke-dasharray="3,2" fill="none"/><circle cx="176432.5" cy="337.5" r="8" fill="#666666"
                                stroke-dasharray="3,2" fill="none"/><circle cx="176560" cy="300" r="8" fill="#666666"
                                stroke-dasharray="3,2" fill="none"/><circle cx="178090" cy="237.5" r="8" fill="#666666"
                                stroke-dasharray="3,2" fill="none"/><circle cx="179365" cy="337.5" r="8" fill="#666666"
                                stroke-dasharray="3,2" fill="none"/><circle cx="179620" cy="337.5" r="8" fill="#666666"
                                stroke-dasharray="3,2" fill="none"/><circle cx="180130" cy="362.5" r="8" fill="#666666"
                                stroke-dasharray="3,2" fill="none"/><circle cx="180640" cy="387.5" r="8" fill="#666666"
                                stroke-dasharray="3,2" fill="none"/><circle cx="181660" cy="387.5" r="8" fill="#666666"
                                stroke-dasharray="3,2" fill="none"/><circle cx="183955" cy="487.5" r="8" fill="#666666"
                                stroke-dasharray="3,2" fill="none"/><circle cx="184210" cy="487.5" r="8" fill="#666666"
                                stroke-dasharray="3,2" fill="none"/><circle cx="184720" cy="512.5" r="8" fill="#666666"
                                stroke-dasharray="3,2" fill="none"/><circle cx="185230" cy="537.5" r="8" fill="#666666"
                                stroke-dasharray="3,2" fill="none"/><circle cx="186250" cy="537.5" r="8" fill="#666666"
                                stroke-dasharray="3,2" fill="none"/><circle cx="190840" cy="537.5" r="8" fill="#666666"
                                stroke-dasharray="3,2" fill="none"/><circle cx="191222.5" cy="512.5" r="8" fill="#666666"
                                stroke-dasharray="3,2" fill="none"/><circle cx="191350" cy="487.5" r="8" fill="#666666"
                                stroke-dasharray="3,2" fill="none"/><circle cx="191860" cy="487.5" r="8" fill="#666666"
                                stroke-dasharray="3,2" fill="none"/><circle cx="192370" cy="487.5" r="8" fill="#666666"
                                stroke-dasharray="3,2" fill="none"/><circle cx="192880" cy="512.5" r="8" fill="#666666"
                                stroke-dasharray="3,2" fill="none"/><circle cx="193262.5" cy="487.5" r="8" fill="#666666"
                                stroke-dasharray="3,2" fill="none"/><circle cx="193390" cy="450" r="8" fill="#666666"
                                stroke-dasharray="3,2" fill="none"/><circle cx="194920" cy="387.5" r="8" fill="#666666"
                                stroke-dasharray="3,2" fill="none"/><circle cx="196195" cy="487.5" r="8" fill="#666666"
                                stroke-dasharray="3,2" fill="none"/><circle cx="196450" cy="487.5" r="8" fill="#666666"
                                stroke-dasharray="3,2" fill="none"/><circle cx="196960" cy="512.5" r="8" fill="#666666"
                                stroke-dasharray="3,2" fill="none"/><circle cx="197470" cy="537.5" r="8" fill="#666666"
                                stroke-dasharray="3,2" fill="none"/><circle cx="198490" cy="537.5" r="8" fill="#666666"
                                stroke-dasharray="3,2" fill="none"/><circle cx="200275" cy="487.5" r="8" fill="#666666"
                                stroke-dasharray="3,2" fill="none"/><circle cx="200530" cy="487.5" r="8" fill="#666666"
                                stroke-dasharray="3,2" fill="none"/><circle cx="201040" cy="512.5" r="8" fill="#666666"
                                stroke-dasharray="3,2" fill="none"/><circle cx="201210" cy="487.5" r="8" fill="#666666"
                                stroke-dasharray="3,2" fill="none"/><circle cx="201380" cy="512.5" r="8" fill="#666666"
                                stroke-dasharray="3,2" fill="none"/><circle cx="201550" cy="537.5" r="8" fill="#666666"
                                stroke-dasharray="3,2" fill="none"/><circle cx="202570" cy="537.5" r="8" fill="#666666"
                                stroke-dasharray="3,2" fill="none"/><circle cx="207160" cy="537.5" r="8" fill="#666666"
                                stroke-dasharray="3,2" fill="none"/><circle cx="207542.5" cy="512.5" r="8" fill="#666666"
                                stroke-dasharray="3,2" fill="none"/><circle cx="207670" cy="487.5" r="8" fill="#666666"
                                stroke-dasharray="3,2" fill="none"/><circle cx="208180" cy="487.5" r="8" fill="#666666"
                                stroke-dasharray="3,2" fill="none"/><circle cx="208690" cy="487.5" r="8" fill="#666666"
                                stroke-dasharray="3,2" fill="none"/><circle cx="209200" cy="512.5" r="8" fill="#666666"
                                stroke-dasharray="3,2" fill="none"/><circle cx="209582.5" cy="487.5" r="8" fill="#666666"
                                stroke-dasharray="3,2" fill="none"/><circle cx="209710" cy="450" r="8" fill="#666666"
                                stroke-dasharray="3,2" fill="none"/><circle cx="211240" cy="387.5" r="8" fill="#666666"
                                stroke-dasharray="3,2" fill="none"/><circle cx="212515" cy="487.5" r="8" fill="#666666"
                                stroke-dasharray="3,2" fill="none"/><circle cx="212770" cy="487.5" r="8" fill="#666666"
                                stroke-dasharray="3,2" fill="none"/><circle cx="213280" cy="475" r="8" fill="#666666"
                                stroke-dasharray="3,2" fill="none"/><circle cx="213790" cy="487.5" r="8" fill="#666666"
                                stroke-dasharray="3,2" fill="none"/><circle cx="214810" cy="487.5" r="8" fill="#666666"
                                stroke-dasharray="3,2" fill="none"/><circle cx="216850" cy="512.5" r="8" fill="#666666"
                                stroke-dasharray="3,2" fill="none"/><circle cx="217360" cy="512.5" r="8" fill="#666666"
                                stroke-dasharray="3,2" fill="none"/><circle cx="218890" cy="512.5" r="8" fill="#666666"
                                stroke-dasharray="3,2" fill="none"/><circle cx="219910" cy="487.5" r="8" fill="#666666"
                                stroke-dasharray="3,2" fill="none"/><circle cx="220420" cy="512.5" r="8" fill="#666666"
                                stroke-dasharray="3,2" fill="none"/><circle cx="220675" cy="487.5" r="8" fill="#666666"
                                stroke-dasharray="3,2" fill="none"/><circle cx="221695" cy="512.5" r="8" fill="#666666"
                                stroke-dasharray="3,2" fill="none"/><circle cx="221950" cy="487.5" r="8" fill="#666666"
                                stroke-dasharray="3,2" fill="none"/><circle cx="222205" cy="512.5" r="8" fill="#666666"
    </g>
    <!-- Song name overlay -->
    <rect x="0" y="90" width="300" height="30" fill="rgba(0,128,128,0.9)"/>
    <text x="150" y="108" text-anchor="middle" fill="white" font-size="12" font-family="system-ui">
        ví dụ
    </text>
</svg>