<svg width="300" height="120" viewBox="0 0 600 400" xmlns="http://www.w3.org/2000/svg">
    <rect width="600" height="400" fill="#ffffff"/>
    <g transform="scale(0.5)">
        <circle cx="100" cy="425" r="8" fill="#666666"
                            fill="#333">Chim</text><circle cx="610" cy="400" r="8" fill="#666666"
                            fill="#333">(a)</text><circle cx="1120" cy="425" r="8" fill="#666666"
                            fill="#333">chim</text><circle cx="2140" cy="425" r="8" fill="#666666"
                                stroke-dasharray="3,2" fill="none"/><circle cx="3160" cy="337.5" r="8" fill="#666666"
                            fill="#333">về</text><circle cx="3670" cy="375" r="8" fill="#666666"
                                stroke-dasharray="2,2"/><circle cx="3925" cy="312.5" r="8" fill="#666666"
                                stroke-dasharray="3,2" fill="none"/><circle cx="4180" cy="337.5" r="8" fill="#666666"
                                stroke-dasharray="3,2" fill="none"/><circle cx="5710" cy="337.5" r="8" fill="#666666"
                            fill="#333">ngàn</text><circle cx="6220" cy="425" r="8" fill="#666666"
                            fill="#333">yêu</text><circle cx="6730" cy="425" r="8" fill="#666666"
                                stroke-dasharray="2,2"/><circle cx="6985" cy="400" r="8" fill="#666666"
                                stroke-dasharray="3,2" fill="none"/><circle cx="7240" cy="337.5" r="8" fill="#666666"
                        fill="#333">13</text><circle cx="7750" cy="425" r="8" fill="#666666"
                            fill="#333">Con</text><circle cx="8515" cy="400" r="8" fill="#666666"
                                stroke-dasharray="3,2" fill="none"/><circle cx="10810" cy="337.5" r="8" fill="#666666"
                                stroke-dasharray="3,2" fill="none"/><circle cx="11830" cy="337.5" r="8" fill="#666666"
                                stroke-dasharray="3,2" fill="none"/><circle cx="14890" cy="337.5" r="8" fill="#666666"
                                stroke-dasharray="3,2" fill="none"/><circle cx="15400" cy="337.5" r="8" fill="#666666"
                                stroke-dasharray="3,2" fill="none"/><circle cx="15910" cy="337.5" r="8" fill="#666666"
                                stroke-dasharray="3,2" fill="none"/><circle cx="16420" cy="337.5" r="8" fill="#666666"
                                stroke-dasharray="3,2" fill="none"/><circle cx="17440" cy="337.5" r="8" fill="#666666"
                                stroke-dasharray="3,2" fill="none"/><circle cx="18460" cy="337.5" r="8" fill="#666666"
                                stroke-dasharray="3,2" fill="none"/><circle cx="19480" cy="337.5" r="8" fill="#666666"
                                stroke-dasharray="3,2" fill="none"/><circle cx="19990" cy="337.5" r="8" fill="#666666"
                                stroke-dasharray="3,2" fill="none"/><circle cx="20245" cy="337.5" r="8" fill="#666666"
                                stroke-dasharray="3,2" fill="none"/><circle cx="22540" cy="337.5" r="8" fill="#666666"
                                stroke-dasharray="3,2" fill="none"/><circle cx="23560" cy="337.5" r="8" fill="#666666"
                                stroke-dasharray="3,2" fill="none"/><circle cx="24580" cy="337.5" r="8" fill="#666666"
                                stroke-dasharray="3,2" fill="none"/><circle cx="30190" cy="337.5" r="8" fill="#666666"
                                stroke-dasharray="3,2" fill="none"/><circle cx="31465" cy="337.5" r="8" fill="#666666"
                                stroke-dasharray="3,2" fill="none"/><circle cx="31720" cy="337.5" r="8" fill="#666666"
    </g>
    <!-- Song name overlay -->
    <rect x="0" y="90" width="300" height="30" fill="rgba(0,128,128,0.9)"/>
    <text x="150" y="108" text-anchor="middle" fill="white" font-size="12" font-family="system-ui">
        Khổng mi nhủa
    </text>
</svg>