<?xml version="1.0" encoding="UTF-8"?>
<svg width="3840" height="800" xmlns="http://www.w3.org/2000/svg">
    <defs>
        <style>
            .string-line { stroke: #333; stroke-width: 3; }
            .string-label { font-family: Arial; font-size: 14px; font-weight: bold; fill: #2c3e50; }
            .note-circle { fill: #008080; stroke: #005959; stroke-width: 2; }
            .note-text { font-family: Arial; font-size: 10px; font-weight: bold; fill: white; text-anchor: middle; }
            .grace-note { fill: #999999; stroke: #000000; }
            .bent-note { fill: #E67E22; stroke: #D35400; }
            .lyric-text { font-family: Arial; font-size: 12px; fill: #2c3e50; }
            .resonance-band { fill: #008080; opacity: 0.3; }
        </style>
    </defs>

    <!-- Title -->
    <text x="10" y="30" style="font-size: 20px; font-weight: bold; fill: #2c3e50;">CÔ NÓI SAO?</text>
    <text x="10" y="50" style="font-size: 14px; fill: #666;">Tuning: C-Eb-F-G-Bb | 91 notes | Traditional</text>

    <!-- String Lines -->
    <line x1="100" y1="100" x2="3820" y2="100" class="string-line"/>
    <line x1="100" y1="137.5" x2="3820" y2="137.5" class="string-line"/>
    <line x1="100" y1="162.5" x2="3820" y2="162.5" class="string-line"/>
    <line x1="100" y1="187.5" x2="3820" y2="187.5" class="string-line"/>
    <line x1="100" y1="225" x2="3820" y2="225" class="string-line"/>
    <line x1="100" y1="250" x2="3820" y2="250" class="string-line"/>
    <line x1="100" y1="287.5" x2="3820" y2="287.5" class="string-line"/>
    <line x1="100" y1="312.5" x2="3820" y2="312.5" class="string-line"/>
    <line x1="100" y1="337.5" x2="3820" y2="337.5" class="string-line"/>
    <line x1="100" y1="375" x2="3820" y2="375" class="string-line"/>
    <line x1="100" y1="400" x2="3820" y2="400" class="string-line"/>
    <line x1="100" y1="437.5" x2="3820" y2="437.5" class="string-line"/>
    <line x1="100" y1="462.5" x2="3820" y2="462.5" class="string-line"/>
    <line x1="100" y1="487.5" x2="3820" y2="487.5" class="string-line"/>
    <line x1="100" y1="525" x2="3820" y2="525" class="string-line"/>
    <line x1="100" y1="550" x2="3820" y2="550" class="string-line"/>
    <line x1="100" y1="587.5" x2="3820" y2="587.5" class="string-line"/>

    <!-- String Labels -->
    <text x="50" y="105" class="string-label">C3</text>
    <text x="50" y="142.5" class="string-label">Eb3</text>
    <text x="50" y="167.5" class="string-label">F3</text>
    <text x="50" y="192.5" class="string-label">G3</text>
    <text x="50" y="230" class="string-label">Bb3</text>
    <text x="50" y="255" class="string-label">C4</text>
    <text x="50" y="292.5" class="string-label">Eb4</text>
    <text x="50" y="317.5" class="string-label">F4</text>
    <text x="50" y="342.5" class="string-label">G4</text>
    <text x="50" y="380" class="string-label">Bb4</text>
    <text x="50" y="405" class="string-label">C5</text>
    <text x="50" y="442.5" class="string-label">Eb5</text>
    <text x="50" y="467.5" class="string-label">F5</text>
    <text x="50" y="492.5" class="string-label">G5</text>
    <text x="50" y="530" class="string-label">Bb5</text>
    <text x="50" y="555" class="string-label">C6</text>
    <text x="50" y="592.5" class="string-label">Eb6</text>

    <!-- Notes -->
    <rect x="-10" y="436" width="320" height="3" class="resonance-band"/>
    <circle cx="150" cy="437.5" r="12" class="note-circle"/>
    <text x="150" y="441.5" class="note-text">12</text>
    <rect x="30" y="373.5" width="320" height="3" class="resonance-band"/>
    <circle cx="190" cy="375" r="12" class="note-circle"/>
    <text x="190" y="379" class="note-text">10</text>
    <rect x="70" y="398.5" width="320" height="3" class="resonance-band"/>
    <circle cx="230" cy="400" r="6" class="grace-note"/>
    <rect x="110" y="373.5" width="320" height="3" class="resonance-band"/>
    <circle cx="270" cy="375" r="6" class="grace-note"/>
    <rect x="150" y="311" width="320" height="3" class="resonance-band"/>
    <circle cx="310" cy="312.5" r="12" class="note-circle"/>
    <text x="310" y="316.5" class="note-text">8</text>
    <rect x="190" y="398.5" width="320" height="3" class="resonance-band"/>
    <circle cx="350" cy="400" r="12" class="note-circle"/>
    <text x="350" y="404" class="note-text">11</text>
    <rect x="230" y="436" width="320" height="3" class="resonance-band"/>
    <circle cx="390" cy="437.5" r="12" class="note-circle"/>
    <text x="390" y="441.5" class="note-text">12</text>
    <rect x="270" y="373.5" width="320" height="3" class="resonance-band"/>
    <circle cx="430" cy="375" r="12" class="note-circle"/>
    <text x="430" y="379" class="note-text">10</text>
    <rect x="310" y="311" width="320" height="3" class="resonance-band"/>
    <circle cx="470" cy="312.5" r="12" class="note-circle"/>
    <text x="470" y="316.5" class="note-text">8</text>
    <rect x="350" y="436" width="320" height="3" class="resonance-band"/>
    <circle cx="510" cy="437.5" r="12" class="note-circle"/>
    <text x="510" y="441.5" class="note-text">12</text>
    <rect x="390" y="398.5" width="320" height="3" class="resonance-band"/>
    <circle cx="550" cy="400" r="12" class="note-circle"/>
    <text x="550" y="404" class="note-text">11</text>
    <rect x="430" y="436" width="320" height="3" class="resonance-band"/>
    <circle cx="590" cy="437.5" r="12" class="note-circle"/>
    <text x="590" y="441.5" class="note-text">12</text>
    <rect x="470" y="398.5" width="320" height="3" class="resonance-band"/>
    <circle cx="630" cy="400" r="12" class="note-circle"/>
    <text x="630" y="404" class="note-text">11</text>
    <rect x="510" y="373.5" width="320" height="3" class="resonance-band"/>
    <circle cx="670" cy="375" r="6" class="grace-note"/>
    <rect x="550" y="311" width="320" height="3" class="resonance-band"/>
    <circle cx="710" cy="312.5" r="12" class="note-circle"/>
    <text x="710" y="316.5" class="note-text">8</text>
    <rect x="590" y="398.5" width="320" height="3" class="resonance-band"/>
    <circle cx="750" cy="400" r="12" class="note-circle"/>
    <text x="750" y="404" class="note-text">11</text>
    <rect x="630" y="373.5" width="320" height="3" class="resonance-band"/>
    <circle cx="790" cy="375" r="12" class="note-circle"/>
    <text x="790" y="379" class="note-text">10</text>
    <rect x="670" y="436" width="320" height="3" class="resonance-band"/>
    <circle cx="830" cy="437.5" r="6" class="grace-note"/>
    <rect x="710" y="398.5" width="320" height="3" class="resonance-band"/>
    <circle cx="870" cy="400" r="6" class="grace-note"/>
    <rect x="750" y="436" width="320" height="3" class="resonance-band"/>
    <circle cx="910" cy="437.5" r="12" class="note-circle"/>
    <text x="910" y="441.5" class="note-text">12</text>
    <rect x="790" y="461" width="320" height="3" class="resonance-band"/>
    <circle cx="950" cy="462.5" r="12" class="note-circle"/>
    <text x="950" y="466.5" class="note-text">13</text>
    <rect x="830" y="436" width="320" height="3" class="resonance-band"/>
    <circle cx="990" cy="437.5" r="12" class="note-circle"/>
    <text x="990" y="441.5" class="note-text">12</text>
    <rect x="870" y="311" width="320" height="3" class="resonance-band"/>
    <circle cx="1030" cy="312.5" r="12" class="note-circle"/>
    <text x="1030" y="316.5" class="note-text">8</text>
    <rect x="910" y="398.5" width="320" height="3" class="resonance-band"/>
    <circle cx="1070" cy="400" r="12" class="note-circle"/>
    <text x="1070" y="404" class="note-text">11</text>
    <rect x="950" y="436" width="320" height="3" class="resonance-band"/>
    <circle cx="1110" cy="437.5" r="12" class="note-circle"/>
    <text x="1110" y="441.5" class="note-text">12</text>
    <rect x="990" y="373.5" width="320" height="3" class="resonance-band"/>
    <circle cx="1150" cy="375" r="12" class="note-circle"/>
    <text x="1150" y="379" class="note-text">10</text>
    <rect x="1030" y="398.5" width="320" height="3" class="resonance-band"/>
    <circle cx="1190" cy="400" r="12" class="note-circle"/>
    <text x="1190" y="404" class="note-text">11</text>
    <rect x="1070" y="373.5" width="320" height="3" class="resonance-band"/>
    <circle cx="1230" cy="375" r="12" class="note-circle"/>
    <text x="1230" y="379" class="note-text">10</text>
    <rect x="1110" y="398.5" width="320" height="3" class="resonance-band"/>
    <circle cx="1270" cy="400" r="12" class="note-circle"/>
    <text x="1270" y="404" class="note-text">11</text>
    <rect x="1150" y="373.5" width="320" height="3" class="resonance-band"/>
    <circle cx="1310" cy="375" r="12" class="note-circle"/>
    <text x="1310" y="379" class="note-text">10</text>
    <rect x="1190" y="311" width="320" height="3" class="resonance-band"/>
    <circle cx="1350" cy="312.5" r="12" class="note-circle"/>
    <text x="1350" y="316.5" class="note-text">8</text>
    <rect x="1230" y="373.5" width="320" height="3" class="resonance-band"/>
    <circle cx="1390" cy="375" r="12" class="note-circle"/>
    <text x="1390" y="379" class="note-text">10</text>
    <rect x="1270" y="398.5" width="320" height="3" class="resonance-band"/>
    <circle cx="1430" cy="400" r="12" class="note-circle"/>
    <text x="1430" y="404" class="note-text">11</text>
    <rect x="1310" y="436" width="320" height="3" class="resonance-band"/>
    <circle cx="1470" cy="437.5" r="12" class="note-circle"/>
    <text x="1470" y="441.5" class="note-text">12</text>
    <rect x="1350" y="373.5" width="320" height="3" class="resonance-band"/>
    <circle cx="1510" cy="375" r="12" class="note-circle"/>
    <text x="1510" y="379" class="note-text">10</text>
    <rect x="1390" y="398.5" width="320" height="3" class="resonance-band"/>
    <circle cx="1550" cy="400" r="12" class="note-circle"/>
    <text x="1550" y="404" class="note-text">11</text>
    <rect x="1430" y="436" width="320" height="3" class="resonance-band"/>
    <circle cx="1590" cy="437.5" r="12" class="note-circle"/>
    <text x="1590" y="441.5" class="note-text">12</text>
    <rect x="1470" y="373.5" width="320" height="3" class="resonance-band"/>
    <circle cx="1630" cy="375" r="12" class="note-circle"/>
    <text x="1630" y="379" class="note-text">10</text>
    <rect x="1510" y="373.5" width="320" height="3" class="resonance-band"/>
    <circle cx="1670" cy="375" r="6" class="grace-note"/>
    <rect x="1550" y="398.5" width="320" height="3" class="resonance-band"/>
    <circle cx="1710" cy="400" r="12" class="note-circle"/>
    <text x="1710" y="404" class="note-text">11</text>
    <rect x="1590" y="373.5" width="320" height="3" class="resonance-band"/>
    <circle cx="1750" cy="375" r="6" class="grace-note"/>
    <rect x="1630" y="398.5" width="320" height="3" class="resonance-band"/>
    <circle cx="1790" cy="400" r="12" class="note-circle"/>
    <text x="1790" y="404" class="note-text">11</text>
    <rect x="1670" y="398.5" width="320" height="3" class="resonance-band"/>
    <circle cx="1830" cy="400" r="12" class="note-circle"/>
    <text x="1830" y="404" class="note-text">11</text>
    <rect x="1710" y="373.5" width="320" height="3" class="resonance-band"/>
    <circle cx="1870" cy="375" r="12" class="note-circle"/>
    <text x="1870" y="379" class="note-text">10</text>
    <rect x="1750" y="311" width="320" height="3" class="resonance-band"/>
    <circle cx="1910" cy="312.5" r="12" class="note-circle"/>
    <text x="1910" y="316.5" class="note-text">8</text>
    <rect x="1790" y="373.5" width="320" height="3" class="resonance-band"/>
    <circle cx="1950" cy="375" r="12" class="note-circle"/>
    <text x="1950" y="379" class="note-text">10</text>
    <rect x="1830" y="373.5" width="320" height="3" class="resonance-band"/>
    <circle cx="1990" cy="375" r="12" class="note-circle"/>
    <text x="1990" y="379" class="note-text">10</text>
    <rect x="1870" y="436" width="320" height="3" class="resonance-band"/>
    <circle cx="2030" cy="437.5" r="12" class="note-circle"/>
    <text x="2030" y="441.5" class="note-text">12</text>
    <rect x="1910" y="398.5" width="320" height="3" class="resonance-band"/>
    <circle cx="2070" cy="400" r="12" class="note-circle"/>
    <text x="2070" y="404" class="note-text">11</text>
    <rect x="1950" y="373.5" width="320" height="3" class="resonance-band"/>
    <circle cx="2110" cy="375" r="6" class="grace-note"/>
    <rect x="1990" y="311" width="320" height="3" class="resonance-band"/>
    <circle cx="2150" cy="312.5" r="12" class="note-circle"/>
    <text x="2150" y="316.5" class="note-text">8</text>
    <rect x="2030" y="398.5" width="320" height="3" class="resonance-band"/>
    <circle cx="2190" cy="400" r="12" class="note-circle"/>
    <text x="2190" y="404" class="note-text">11</text>
    <rect x="2070" y="373.5" width="320" height="3" class="resonance-band"/>
    <circle cx="2230" cy="375" r="12" class="note-circle"/>
    <text x="2230" y="379" class="note-text">10</text>
    <rect x="2110" y="436" width="320" height="3" class="resonance-band"/>
    <circle cx="2270" cy="437.5" r="6" class="grace-note"/>
    <rect x="2150" y="398.5" width="320" height="3" class="resonance-band"/>
    <circle cx="2310" cy="400" r="6" class="grace-note"/>
    <rect x="2190" y="436" width="320" height="3" class="resonance-band"/>
    <circle cx="2350" cy="437.5" r="12" class="note-circle"/>
    <text x="2350" y="441.5" class="note-text">12</text>
    <rect x="2230" y="461" width="320" height="3" class="resonance-band"/>
    <circle cx="2390" cy="462.5" r="12" class="note-circle"/>
    <text x="2390" y="466.5" class="note-text">13</text>
    <rect x="2270" y="436" width="320" height="3" class="resonance-band"/>
    <circle cx="2430" cy="437.5" r="12" class="note-circle"/>
    <text x="2430" y="441.5" class="note-text">12</text>
    <rect x="2310" y="311" width="320" height="3" class="resonance-band"/>
    <circle cx="2470" cy="312.5" r="12" class="note-circle"/>
    <text x="2470" y="316.5" class="note-text">8</text>
    <rect x="2350" y="398.5" width="320" height="3" class="resonance-band"/>
    <circle cx="2510" cy="400" r="12" class="note-circle"/>
    <text x="2510" y="404" class="note-text">11</text>
    <rect x="2390" y="436" width="320" height="3" class="resonance-band"/>
    <circle cx="2550" cy="437.5" r="12" class="note-circle"/>
    <text x="2550" y="441.5" class="note-text">12</text>
    <rect x="2430" y="373.5" width="320" height="3" class="resonance-band"/>
    <circle cx="2590" cy="375" r="12" class="note-circle"/>
    <text x="2590" y="379" class="note-text">10</text>
    <rect x="2470" y="398.5" width="320" height="3" class="resonance-band"/>
    <circle cx="2630" cy="400" r="12" class="note-circle"/>
    <text x="2630" y="404" class="note-text">11</text>
    <rect x="2510" y="436" width="320" height="3" class="resonance-band"/>
    <circle cx="2670" cy="437.5" r="12" class="note-circle"/>
    <text x="2670" y="441.5" class="note-text">12</text>
    <rect x="2550" y="373.5" width="320" height="3" class="resonance-band"/>
    <circle cx="2710" cy="375" r="12" class="note-circle"/>
    <text x="2710" y="379" class="note-text">10</text>
    <rect x="2590" y="398.5" width="320" height="3" class="resonance-band"/>
    <circle cx="2750" cy="400" r="12" class="note-circle"/>
    <text x="2750" y="404" class="note-text">11</text>
    <rect x="2630" y="373.5" width="320" height="3" class="resonance-band"/>
    <circle cx="2790" cy="375" r="12" class="note-circle"/>
    <text x="2790" y="379" class="note-text">10</text>
    <rect x="2670" y="398.5" width="320" height="3" class="resonance-band"/>
    <circle cx="2830" cy="400" r="6" class="grace-note"/>
    <rect x="2710" y="436" width="320" height="3" class="resonance-band"/>
    <circle cx="2870" cy="437.5" r="12" class="note-circle"/>
    <text x="2870" y="441.5" class="note-text">12</text>
    <rect x="2750" y="398.5" width="320" height="3" class="resonance-band"/>
    <circle cx="2910" cy="400" r="12" class="note-circle"/>
    <text x="2910" y="404" class="note-text">11</text>
    <rect x="2790" y="436" width="320" height="3" class="resonance-band"/>
    <circle cx="2950" cy="437.5" r="12" class="note-circle"/>
    <text x="2950" y="441.5" class="note-text">12</text>
    <rect x="2830" y="461" width="320" height="3" class="resonance-band"/>
    <circle cx="2990" cy="462.5" r="12" class="note-circle"/>
    <text x="2990" y="466.5" class="note-text">13</text>
    <rect x="2870" y="373.5" width="320" height="3" class="resonance-band"/>
    <circle cx="3030" cy="375" r="12" class="note-circle"/>
    <text x="3030" y="379" class="note-text">10</text>
    <rect x="2910" y="398.5" width="320" height="3" class="resonance-band"/>
    <circle cx="3070" cy="400" r="12" class="note-circle"/>
    <text x="3070" y="404" class="note-text">11</text>
    <rect x="2950" y="436" width="320" height="3" class="resonance-band"/>
    <circle cx="3110" cy="437.5" r="12" class="note-circle"/>
    <text x="3110" y="441.5" class="note-text">12</text>
    <rect x="2990" y="373.5" width="320" height="3" class="resonance-band"/>
    <circle cx="3150" cy="375" r="12" class="note-circle"/>
    <text x="3150" y="379" class="note-text">10</text>
    <rect x="3030" y="373.5" width="320" height="3" class="resonance-band"/>
    <circle cx="3190" cy="375" r="6" class="grace-note"/>
    <rect x="3070" y="398.5" width="320" height="3" class="resonance-band"/>
    <circle cx="3230" cy="400" r="12" class="note-circle"/>
    <text x="3230" y="404" class="note-text">11</text>
    <rect x="3110" y="373.5" width="320" height="3" class="resonance-band"/>
    <circle cx="3270" cy="375" r="6" class="grace-note"/>
    <rect x="3150" y="398.5" width="320" height="3" class="resonance-band"/>
    <circle cx="3310" cy="400" r="12" class="note-circle"/>
    <text x="3310" y="404" class="note-text">11</text>
    <rect x="3190" y="398.5" width="320" height="3" class="resonance-band"/>
    <circle cx="3350" cy="400" r="12" class="note-circle"/>
    <text x="3350" y="404" class="note-text">11</text>
    <rect x="3230" y="311" width="320" height="3" class="resonance-band"/>
    <circle cx="3390" cy="312.5" r="12" class="note-circle"/>
    <text x="3390" y="316.5" class="note-text">8</text>
    <rect x="3270" y="398.5" width="320" height="3" class="resonance-band"/>
    <circle cx="3430" cy="400" r="12" class="note-circle"/>
    <text x="3430" y="404" class="note-text">11</text>
    <rect x="3310" y="436" width="320" height="3" class="resonance-band"/>
    <circle cx="3470" cy="437.5" r="12" class="note-circle"/>
    <text x="3470" y="441.5" class="note-text">12</text>
    <rect x="3350" y="373.5" width="320" height="3" class="resonance-band"/>
    <circle cx="3510" cy="375" r="12" class="note-circle"/>
    <text x="3510" y="379" class="note-text">10</text>
    <rect x="3390" y="398.5" width="320" height="3" class="resonance-band"/>
    <circle cx="3550" cy="400" r="12" class="note-circle"/>
    <text x="3550" y="404" class="note-text">11</text>
    <rect x="3430" y="311" width="320" height="3" class="resonance-band"/>
    <circle cx="3590" cy="312.5" r="12" class="note-circle"/>
    <text x="3590" y="316.5" class="note-text">8</text>
    <rect x="3470" y="373.5" width="320" height="3" class="resonance-band"/>
    <circle cx="3630" cy="375" r="12" class="note-circle"/>
    <text x="3630" y="379" class="note-text">10</text>
    <rect x="3510" y="398.5" width="320" height="3" class="resonance-band"/>
    <circle cx="3670" cy="400" r="12" class="note-circle"/>
    <text x="3670" y="404" class="note-text">11</text>
    <rect x="3550" y="373.5" width="320" height="3" class="resonance-band"/>
    <circle cx="3710" cy="375" r="12" class="note-circle"/>
    <text x="3710" y="379" class="note-text">10</text>
    <rect x="3590" y="373.5" width="320" height="3" class="resonance-band"/>
    <circle cx="3750" cy="375" r="12" class="note-circle"/>
    <text x="3750" y="379" class="note-text">10</text>
    

    <!-- Lyrics -->
    <text x="150" y="477.5" class="lyric-text">Có</text>
    <text x="190" y="415" class="lyric-text">bao</text>
    <text x="310" y="352.5" class="lyric-text">giờ</text>
    <text x="350" y="440" class="lyric-text">tôi</text>
    <text x="390" y="477.5" class="lyric-text">thấy</text>
    <text x="430" y="415" class="lyric-text">như</text>
    <text x="470" y="352.5" class="lyric-text">vậy</text>
    <text x="510" y="477.5" class="lyric-text">đâu</text>
    <text x="550" y="440" class="lyric-text">à!</text>
    <text x="590" y="477.5" class="lyric-text">Có</text>
    <text x="630" y="440" class="lyric-text">ai</text>
    <text x="710" y="352.5" class="lyric-text">ngờ</text>
    <text x="750" y="440" class="lyric-text">bố</text>
    <text x="790" y="415" class="lyric-text">mẹ</text>
    <text x="910" y="477.5" class="lyric-text">cô</text>
    <text x="950" y="502.5" class="lyric-text">đã</text>
    <text x="990" y="477.5" class="lyric-text">dối</text>
    <text x="1030" y="352.5" class="lyric-text">người.</text>
    <text x="1070" y="440" class="lyric-text">Nói</text>
    <text x="1150" y="415" class="lyric-text">cô</text>
    <text x="1190" y="440" class="lyric-text">đã</text>
    <text x="1230" y="415" class="lyric-text">đi</text>
    <text x="1270" y="440" class="lyric-text">suối</text>
    <text x="1350" y="352.5" class="lyric-text">mà</text>
    <text x="1390" y="415" class="lyric-text">sao</text>
    <text x="1430" y="440" class="lyric-text">thấy</text>
    <text x="1510" y="415" class="lyric-text">mời</text>
    <text x="1550" y="440" class="lyric-text">những</text>
    <text x="1630" y="415" class="lyric-text">người</text>
    <text x="1710" y="440" class="lyric-text">anh</text>
    <text x="1790" y="440" class="lyric-text">em</text>
    <text x="1830" y="440" class="lyric-text">đã</text>
    <text x="1910" y="352.5" class="lyric-text">về</text>
    <text x="1950" y="415" class="lyric-text">đây.</text>
    <text x="2030" y="477.5" class="lyric-text">Có</text>
    <text x="2070" y="440" class="lyric-text">ai</text>
    <text x="2150" y="352.5" class="lyric-text">ngờ</text>
    <text x="2190" y="440" class="lyric-text">bố</text>
    <text x="2230" y="415" class="lyric-text">mẹ</text>
    <text x="2350" y="477.5" class="lyric-text">cô</text>
    <text x="2390" y="502.5" class="lyric-text">đã</text>
    <text x="2430" y="477.5" class="lyric-text">dối</text>
    <text x="2470" y="352.5" class="lyric-text">người.</text>
    <text x="2510" y="440" class="lyric-text">Nói</text>
    <text x="2590" y="415" class="lyric-text">cô</text>
    <text x="2630" y="440" class="lyric-text">lấy</text>
    <text x="2710" y="415" class="lyric-text">củi</text>
    <text x="2750" y="440" class="lyric-text">trong</text>
    <text x="2790" y="415" class="lyric-text">rừng</text>
    <text x="2870" y="477.5" class="lyric-text">sao</text>
    <text x="2950" y="477.5" class="lyric-text">tôi</text>
    <text x="2990" y="502.5" class="lyric-text">thấy</text>
    <text x="3030" y="415" class="lyric-text">mời</text>
    <text x="3070" y="440" class="lyric-text">những</text>
    <text x="3150" y="415" class="lyric-text">người</text>
    <text x="3230" y="440" class="lyric-text">thông</text>
    <text x="3310" y="440" class="lyric-text">gia</text>
    <text x="3350" y="440" class="lyric-text">hai</text>
    <text x="3390" y="352.5" class="lyric-text">họ</text>
    <text x="3430" y="440" class="lyric-text">khắp</text>
    <text x="3510" y="415" class="lyric-text">nơi</text>
    <text x="3550" y="440" class="lyric-text">kéo</text>
    <text x="3590" y="352.5" class="lyric-text">về</text>
    <text x="3630" y="415" class="lyric-text">Cô</text>
    <text x="3670" y="440" class="lyric-text">nói</text>
    <text x="3710" y="415" class="lyric-text">sao?</text>
    
</svg>