<?xml version="1.0" encoding="UTF-8"?>
<svg width="3560" height="800" xmlns="http://www.w3.org/2000/svg">
    <defs>
        <style>
            .string-line { stroke: #333; stroke-width: 3; }
            .string-label { font-family: Arial; font-size: 14px; font-weight: bold; fill: #2c3e50; }
            .note-circle { fill: #008080; stroke: #005959; stroke-width: 2; }
            .note-text { font-family: Arial; font-size: 10px; font-weight: bold; fill: white; text-anchor: middle; }
            .grace-note { fill: #999999; stroke: #000000; }
            .bent-note { fill: #E67E22; stroke: #D35400; }
            .lyric-text { font-family: Arial; font-size: 12px; fill: #2c3e50; }
            .resonance-band { fill: #008080; opacity: 0.3; }
        </style>
    </defs>

    <!-- Title -->
    <text x="10" y="30" style="font-size: 20px; font-weight: bold; fill: #2c3e50;">HÒ ĐƯA LINH</text>
    <text x="10" y="50" style="font-size: 14px; fill: #666;">Tuning: C-Eb-F-G-Bb | 84 notes | Hò</text>

    <!-- String Lines -->
    <line x1="100" y1="100" x2="3540" y2="100" class="string-line"/>
    <line x1="100" y1="137.5" x2="3540" y2="137.5" class="string-line"/>
    <line x1="100" y1="162.5" x2="3540" y2="162.5" class="string-line"/>
    <line x1="100" y1="187.5" x2="3540" y2="187.5" class="string-line"/>
    <line x1="100" y1="225" x2="3540" y2="225" class="string-line"/>
    <line x1="100" y1="250" x2="3540" y2="250" class="string-line"/>
    <line x1="100" y1="287.5" x2="3540" y2="287.5" class="string-line"/>
    <line x1="100" y1="312.5" x2="3540" y2="312.5" class="string-line"/>
    <line x1="100" y1="337.5" x2="3540" y2="337.5" class="string-line"/>
    <line x1="100" y1="375" x2="3540" y2="375" class="string-line"/>
    <line x1="100" y1="400" x2="3540" y2="400" class="string-line"/>
    <line x1="100" y1="437.5" x2="3540" y2="437.5" class="string-line"/>
    <line x1="100" y1="462.5" x2="3540" y2="462.5" class="string-line"/>
    <line x1="100" y1="487.5" x2="3540" y2="487.5" class="string-line"/>
    <line x1="100" y1="525" x2="3540" y2="525" class="string-line"/>
    <line x1="100" y1="550" x2="3540" y2="550" class="string-line"/>
    <line x1="100" y1="587.5" x2="3540" y2="587.5" class="string-line"/>

    <!-- String Labels -->
    <text x="50" y="105" class="string-label">C3</text>
    <text x="50" y="142.5" class="string-label">Eb3</text>
    <text x="50" y="167.5" class="string-label">F3</text>
    <text x="50" y="192.5" class="string-label">G3</text>
    <text x="50" y="230" class="string-label">Bb3</text>
    <text x="50" y="255" class="string-label">C4</text>
    <text x="50" y="292.5" class="string-label">Eb4</text>
    <text x="50" y="317.5" class="string-label">F4</text>
    <text x="50" y="342.5" class="string-label">G4</text>
    <text x="50" y="380" class="string-label">Bb4</text>
    <text x="50" y="405" class="string-label">C5</text>
    <text x="50" y="442.5" class="string-label">Eb5</text>
    <text x="50" y="467.5" class="string-label">F5</text>
    <text x="50" y="492.5" class="string-label">G5</text>
    <text x="50" y="530" class="string-label">Bb5</text>
    <text x="50" y="555" class="string-label">C6</text>
    <text x="50" y="592.5" class="string-label">Eb6</text>

    <!-- Notes -->
    <rect x="-10" y="311" width="320" height="3" class="resonance-band"/>
    <circle cx="150" cy="312.5" r="12" class="note-circle"/>
    <text x="150" y="316.5" class="note-text">8</text>
    <rect x="30" y="311" width="320" height="3" class="resonance-band"/>
    <circle cx="190" cy="312.5" r="12" class="note-circle"/>
    <text x="190" y="316.5" class="note-text">8</text>
    <rect x="70" y="248.5" width="320" height="3" class="resonance-band"/>
    <circle cx="230" cy="250" r="12" class="note-circle"/>
    <text x="230" y="254" class="note-text">6</text>
    <rect x="110" y="373.5" width="320" height="3" class="resonance-band"/>
    <circle cx="270" cy="375" r="12" class="note-circle"/>
    <text x="270" y="379" class="note-text">10</text>
    <rect x="150" y="373.5" width="320" height="3" class="resonance-band"/>
    <circle cx="310" cy="375" r="12" class="note-circle"/>
    <text x="310" y="379" class="note-text">10</text>
    <rect x="190" y="398.5" width="320" height="3" class="resonance-band"/>
    <circle cx="350" cy="400" r="12" class="note-circle"/>
    <text x="350" y="404" class="note-text">11</text>
    <rect x="230" y="398.5" width="320" height="3" class="resonance-band"/>
    <circle cx="390" cy="400" r="6" class="grace-note"/>
    <rect x="270" y="373.5" width="320" height="3" class="resonance-band"/>
    <circle cx="430" cy="375" r="12" class="note-circle"/>
    <text x="430" y="379" class="note-text">10</text>
    <rect x="310" y="373.5" width="320" height="3" class="resonance-band"/>
    <circle cx="470" cy="375" r="12" class="note-circle"/>
    <text x="470" y="379" class="note-text">10</text>
    <rect x="350" y="336" width="320" height="3" class="resonance-band"/>
    <circle cx="510" cy="337.5" r="12" class="note-circle"/>
    <text x="510" y="341.5" class="note-text">9</text>
    <rect x="390" y="311" width="320" height="3" class="resonance-band"/>
    <circle cx="550" cy="312.5" r="12" class="note-circle"/>
    <text x="550" y="316.5" class="note-text">8</text>
    <rect x="430" y="373.5" width="320" height="3" class="resonance-band"/>
    <circle cx="590" cy="375" r="6" class="grace-note"/>
    <rect x="470" y="398.5" width="320" height="3" class="resonance-band"/>
    <circle cx="630" cy="400" r="12" class="note-circle"/>
    <text x="630" y="404" class="note-text">11</text>
    <rect x="510" y="373.5" width="320" height="3" class="resonance-band"/>
    <circle cx="670" cy="375" r="12" class="note-circle"/>
    <text x="670" y="379" class="note-text">10</text>
    <rect x="550" y="361" width="320" height="3" class="resonance-band"/>
    <circle cx="710" cy="362.5" r="12" class="bent-note"/>
    <rect x="590" y="373.5" width="320" height="3" class="resonance-band"/>
    <circle cx="750" cy="375" r="12" class="note-circle"/>
    <text x="750" y="379" class="note-text">10</text>
    <rect x="630" y="373.5" width="320" height="3" class="resonance-band"/>
    <circle cx="790" cy="375" r="12" class="note-circle"/>
    <text x="790" y="379" class="note-text">10</text>
    <rect x="670" y="398.5" width="320" height="3" class="resonance-band"/>
    <circle cx="830" cy="400" r="12" class="note-circle"/>
    <text x="830" y="404" class="note-text">11</text>
    <rect x="710" y="336" width="320" height="3" class="resonance-band"/>
    <circle cx="870" cy="337.5" r="12" class="note-circle"/>
    <text x="870" y="341.5" class="note-text">9</text>
    <rect x="750" y="373.5" width="320" height="3" class="resonance-band"/>
    <circle cx="910" cy="375" r="12" class="note-circle"/>
    <text x="910" y="379" class="note-text">10</text>
    <rect x="790" y="373.5" width="320" height="3" class="resonance-band"/>
    <circle cx="950" cy="375" r="12" class="note-circle"/>
    <text x="950" y="379" class="note-text">10</text>
    <rect x="830" y="398.5" width="320" height="3" class="resonance-band"/>
    <circle cx="990" cy="400" r="12" class="note-circle"/>
    <text x="990" y="404" class="note-text">11</text>
    <rect x="870" y="311" width="320" height="3" class="resonance-band"/>
    <circle cx="1030" cy="312.5" r="12" class="note-circle"/>
    <text x="1030" y="316.5" class="note-text">8</text>
    <rect x="910" y="423.5" width="320" height="3" class="resonance-band"/>
    <circle cx="1070" cy="425" r="6" class="grace-note"/>
    <rect x="950" y="436" width="320" height="3" class="resonance-band"/>
    <circle cx="1110" cy="437.5" r="12" class="note-circle"/>
    <text x="1110" y="441.5" class="note-text">12</text>
    <rect x="990" y="436" width="320" height="3" class="resonance-band"/>
    <circle cx="1150" cy="437.5" r="12" class="note-circle"/>
    <text x="1150" y="441.5" class="note-text">12</text>
    <rect x="1030" y="398.5" width="320" height="3" class="resonance-band"/>
    <circle cx="1190" cy="400" r="12" class="note-circle"/>
    <text x="1190" y="404" class="note-text">11</text>
    <rect x="1070" y="436" width="320" height="3" class="resonance-band"/>
    <circle cx="1230" cy="437.5" r="12" class="note-circle"/>
    <text x="1230" y="441.5" class="note-text">12</text>
    <rect x="1110" y="436" width="320" height="3" class="resonance-band"/>
    <circle cx="1270" cy="437.5" r="12" class="note-circle"/>
    <text x="1270" y="441.5" class="note-text">12</text>
    <rect x="1150" y="461" width="320" height="3" class="resonance-band"/>
    <circle cx="1310" cy="462.5" r="12" class="note-circle"/>
    <text x="1310" y="466.5" class="note-text">13</text>
    <rect x="1190" y="373.5" width="320" height="3" class="resonance-band"/>
    <circle cx="1350" cy="375" r="12" class="note-circle"/>
    <text x="1350" y="379" class="note-text">10</text>
    <rect x="1230" y="398.5" width="320" height="3" class="resonance-band"/>
    <circle cx="1390" cy="400" r="6" class="grace-note"/>
    <rect x="1270" y="436" width="320" height="3" class="resonance-band"/>
    <circle cx="1430" cy="437.5" r="12" class="note-circle"/>
    <text x="1430" y="441.5" class="note-text">12</text>
    <rect x="1310" y="398.5" width="320" height="3" class="resonance-band"/>
    <circle cx="1470" cy="400" r="6" class="grace-note"/>
    <rect x="1350" y="436" width="320" height="3" class="resonance-band"/>
    <circle cx="1510" cy="437.5" r="12" class="note-circle"/>
    <text x="1510" y="441.5" class="note-text">12</text>
    <rect x="1390" y="436" width="320" height="3" class="resonance-band"/>
    <circle cx="1550" cy="437.5" r="12" class="note-circle"/>
    <text x="1550" y="441.5" class="note-text">12</text>
    <rect x="1430" y="461" width="320" height="3" class="resonance-band"/>
    <circle cx="1590" cy="462.5" r="12" class="note-circle"/>
    <text x="1590" y="466.5" class="note-text">13</text>
    <rect x="1470" y="373.5" width="320" height="3" class="resonance-band"/>
    <circle cx="1630" cy="375" r="12" class="note-circle"/>
    <text x="1630" y="379" class="note-text">10</text>
    <rect x="1510" y="398.5" width="320" height="3" class="resonance-band"/>
    <circle cx="1670" cy="400" r="12" class="note-circle"/>
    <text x="1670" y="404" class="note-text">11</text>
    <rect x="1550" y="461" width="320" height="3" class="resonance-band"/>
    <circle cx="1710" cy="462.5" r="12" class="note-circle"/>
    <text x="1710" y="466.5" class="note-text">13</text>
    <rect x="1590" y="461" width="320" height="3" class="resonance-band"/>
    <circle cx="1750" cy="462.5" r="12" class="note-circle"/>
    <text x="1750" y="466.5" class="note-text">13</text>
    <rect x="1630" y="461" width="320" height="3" class="resonance-band"/>
    <circle cx="1790" cy="462.5" r="12" class="note-circle"/>
    <text x="1790" y="466.5" class="note-text">13</text>
    <rect x="1670" y="423.5" width="320" height="3" class="resonance-band"/>
    <circle cx="1830" cy="425" r="6" class="grace-note"/>
    <rect x="1710" y="398.5" width="320" height="3" class="resonance-band"/>
    <circle cx="1870" cy="400" r="12" class="note-circle"/>
    <text x="1870" y="404" class="note-text">11</text>
    <rect x="1750" y="373.5" width="320" height="3" class="resonance-band"/>
    <circle cx="1910" cy="375" r="12" class="note-circle"/>
    <text x="1910" y="379" class="note-text">10</text>
    <rect x="1790" y="398.5" width="320" height="3" class="resonance-band"/>
    <circle cx="1950" cy="400" r="12" class="note-circle"/>
    <text x="1950" y="404" class="note-text">11</text>
    <rect x="1830" y="373.5" width="320" height="3" class="resonance-band"/>
    <circle cx="1990" cy="375" r="12" class="note-circle"/>
    <text x="1990" y="379" class="note-text">10</text>
    <rect x="1870" y="336" width="320" height="3" class="resonance-band"/>
    <circle cx="2030" cy="337.5" r="12" class="note-circle"/>
    <text x="2030" y="341.5" class="note-text">9</text>
    <rect x="1910" y="373.5" width="320" height="3" class="resonance-band"/>
    <circle cx="2070" cy="375" r="12" class="note-circle"/>
    <text x="2070" y="379" class="note-text">10</text>
    <rect x="1950" y="398.5" width="320" height="3" class="resonance-band"/>
    <circle cx="2110" cy="400" r="12" class="note-circle"/>
    <text x="2110" y="404" class="note-text">11</text>
    <rect x="1990" y="398.5" width="320" height="3" class="resonance-band"/>
    <circle cx="2150" cy="400" r="12" class="note-circle"/>
    <text x="2150" y="404" class="note-text">11</text>
    <rect x="2030" y="423.5" width="320" height="3" class="resonance-band"/>
    <circle cx="2190" cy="425" r="6" class="grace-note"/>
    <rect x="2070" y="398.5" width="320" height="3" class="resonance-band"/>
    <circle cx="2230" cy="400" r="12" class="note-circle"/>
    <text x="2230" y="404" class="note-text">11</text>
    <rect x="2110" y="398.5" width="320" height="3" class="resonance-band"/>
    <circle cx="2270" cy="400" r="12" class="note-circle"/>
    <text x="2270" y="404" class="note-text">11</text>
    <rect x="2150" y="373.5" width="320" height="3" class="resonance-band"/>
    <circle cx="2310" cy="375" r="12" class="note-circle"/>
    <text x="2310" y="379" class="note-text">10</text>
    <rect x="2190" y="373.5" width="320" height="3" class="resonance-band"/>
    <circle cx="2350" cy="375" r="12" class="note-circle"/>
    <text x="2350" y="379" class="note-text">10</text>
    <rect x="2230" y="398.5" width="320" height="3" class="resonance-band"/>
    <circle cx="2390" cy="400" r="12" class="note-circle"/>
    <text x="2390" y="404" class="note-text">11</text>
    <rect x="2270" y="398.5" width="320" height="3" class="resonance-band"/>
    <circle cx="2430" cy="400" r="6" class="grace-note"/>
    <rect x="2310" y="398.5" width="320" height="3" class="resonance-band"/>
    <circle cx="2470" cy="400" r="12" class="note-circle"/>
    <text x="2470" y="404" class="note-text">11</text>
    <rect x="2350" y="373.5" width="320" height="3" class="resonance-band"/>
    <circle cx="2510" cy="375" r="6" class="grace-note"/>
    <rect x="2390" y="398.5" width="320" height="3" class="resonance-band"/>
    <circle cx="2550" cy="400" r="12" class="note-circle"/>
    <text x="2550" y="404" class="note-text">11</text>
    <rect x="2430" y="398.5" width="320" height="3" class="resonance-band"/>
    <circle cx="2590" cy="400" r="12" class="note-circle"/>
    <text x="2590" y="404" class="note-text">11</text>
    <rect x="2470" y="373.5" width="320" height="3" class="resonance-band"/>
    <circle cx="2630" cy="375" r="12" class="note-circle"/>
    <text x="2630" y="379" class="note-text">10</text>
    <rect x="2510" y="336" width="320" height="3" class="resonance-band"/>
    <circle cx="2670" cy="337.5" r="12" class="note-circle"/>
    <text x="2670" y="341.5" class="note-text">9</text>
    <rect x="2550" y="373.5" width="320" height="3" class="resonance-band"/>
    <circle cx="2710" cy="375" r="6" class="grace-note"/>
    <rect x="2590" y="398.5" width="320" height="3" class="resonance-band"/>
    <circle cx="2750" cy="400" r="12" class="note-circle"/>
    <text x="2750" y="404" class="note-text">11</text>
    <rect x="2630" y="311" width="320" height="3" class="resonance-band"/>
    <circle cx="2790" cy="312.5" r="12" class="note-circle"/>
    <text x="2790" y="316.5" class="note-text">8</text>
    <rect x="2670" y="311" width="320" height="3" class="resonance-band"/>
    <circle cx="2830" cy="312.5" r="12" class="note-circle"/>
    <text x="2830" y="316.5" class="note-text">8</text>
    <rect x="2710" y="373.5" width="320" height="3" class="resonance-band"/>
    <circle cx="2870" cy="375" r="6" class="grace-note"/>
    <rect x="2750" y="398.5" width="320" height="3" class="resonance-band"/>
    <circle cx="2910" cy="400" r="12" class="note-circle"/>
    <text x="2910" y="404" class="note-text">11</text>
    <rect x="2790" y="398.5" width="320" height="3" class="resonance-band"/>
    <circle cx="2950" cy="400" r="6" class="grace-note"/>
    <rect x="2830" y="373.5" width="320" height="3" class="resonance-band"/>
    <circle cx="2990" cy="375" r="12" class="note-circle"/>
    <text x="2990" y="379" class="note-text">10</text>
    <rect x="2870" y="373.5" width="320" height="3" class="resonance-band"/>
    <circle cx="3030" cy="375" r="12" class="note-circle"/>
    <text x="3030" y="379" class="note-text">10</text>
    <rect x="2910" y="398.5" width="320" height="3" class="resonance-band"/>
    <circle cx="3070" cy="400" r="12" class="note-circle"/>
    <text x="3070" y="404" class="note-text">11</text>
    <rect x="2950" y="398.5" width="320" height="3" class="resonance-band"/>
    <circle cx="3110" cy="400" r="12" class="note-circle"/>
    <text x="3110" y="404" class="note-text">11</text>
    <rect x="2990" y="373.5" width="320" height="3" class="resonance-band"/>
    <circle cx="3150" cy="375" r="12" class="note-circle"/>
    <text x="3150" y="379" class="note-text">10</text>
    <rect x="3030" y="373.5" width="320" height="3" class="resonance-band"/>
    <circle cx="3190" cy="375" r="12" class="note-circle"/>
    <text x="3190" y="379" class="note-text">10</text>
    <rect x="3070" y="398.5" width="320" height="3" class="resonance-band"/>
    <circle cx="3230" cy="400" r="12" class="note-circle"/>
    <text x="3230" y="404" class="note-text">11</text>
    <rect x="3110" y="336" width="320" height="3" class="resonance-band"/>
    <circle cx="3270" cy="337.5" r="6" class="grace-note"/>
    <rect x="3150" y="398.5" width="320" height="3" class="resonance-band"/>
    <circle cx="3310" cy="400" r="12" class="note-circle"/>
    <text x="3310" y="404" class="note-text">11</text>
    <rect x="3190" y="336" width="320" height="3" class="resonance-band"/>
    <circle cx="3350" cy="337.5" r="12" class="note-circle"/>
    <text x="3350" y="341.5" class="note-text">9</text>
    <rect x="3230" y="311" width="320" height="3" class="resonance-band"/>
    <circle cx="3390" cy="312.5" r="12" class="note-circle"/>
    <text x="3390" y="316.5" class="note-text">8</text>
    <rect x="3270" y="336" width="320" height="3" class="resonance-band"/>
    <circle cx="3430" cy="337.5" r="12" class="note-circle"/>
    <text x="3430" y="341.5" class="note-text">9</text>
    <rect x="3310" y="311" width="320" height="3" class="resonance-band"/>
    <circle cx="3470" cy="312.5" r="12" class="note-circle"/>
    <text x="3470" y="316.5" class="note-text">8</text>
    

    <!-- Lyrics -->
    <text x="150" y="352.5" class="lyric-text">Hò</text>
    <text x="190" y="352.5" class="lyric-text">hò</text>
    <text x="270" y="415" class="lyric-text">đưa</text>
    <text x="430" y="415" class="lyric-text">linh</text>
    <text x="470" y="415" class="lyric-text">hưm</text>
    <text x="510" y="377.5" class="lyric-text">hư</text>
    <text x="550" y="352.5" class="lyric-text">hứ</text>
    <text x="630" y="440" class="lyric-text">A</text>
    <text x="670" y="415" class="lyric-text">đưa</text>
    <text x="750" y="415" class="lyric-text">linh</text>
    <text x="870" y="377.5" class="lyric-text">ơ</text>
    <text x="910" y="415" class="lyric-text">phản</text>
    <text x="990" y="440" class="lyric-text">ơ</text>
    <text x="1030" y="352.5" class="lyric-text">hồi.</text>
    <text x="1110" y="477.5" class="lyric-text">Ai</text>
    <text x="1150" y="477.5" class="lyric-text">đem</text>
    <text x="1230" y="477.5" class="lyric-text">chiếc</text>
    <text x="1310" y="502.5" class="lyric-text">ư</text>
    <text x="1350" y="415" class="lyric-text">thuyền</text>
    <text x="1430" y="477.5" class="lyric-text">loan</text>
    <text x="1510" y="477.5" class="lyric-text">qua</text>
    <text x="1630" y="415" class="lyric-text">bể</text>
    <text x="1710" y="502.5" class="lyric-text">Bắc</text>
    <text x="1790" y="502.5" class="lyric-text">ư</text>
    <text x="1870" y="440" class="lyric-text">ơ</text>
    <text x="1990" y="415" class="lyric-text">ơ</text>
    <text x="2230" y="440" class="lyric-text">ư</text>
    <text x="2470" y="440" class="lyric-text">không</text>
    <text x="2550" y="440" class="lyric-text">ơ</text>
    <text x="2590" y="440" class="lyric-text">cho</text>
    <text x="2670" y="377.5" class="lyric-text">a</text>
    <text x="2750" y="440" class="lyric-text">chim</text>
    <text x="2790" y="352.5" class="lyric-text">nhạn</text>
    <text x="2830" y="352.5" class="lyric-text">đậu</text>
    <text x="2910" y="440" class="lyric-text">ư</text>
    <text x="3110" y="440" class="lyric-text">chốn</text>
    <text x="3230" y="440" class="lyric-text">ơ</text>
    <text x="3310" y="440" class="lyric-text">non</text>
    <text x="3390" y="352.5" class="lyric-text">ơ</text>
    <text x="3470" y="352.5" class="lyric-text">đoài.</text>
    
</svg>