<svg width="300" height="120" viewBox="0 0 600 400" xmlns="http://www.w3.org/2000/svg">
    <rect width="600" height="400" fill="#ffffff"/>
    <g transform="scale(0.5)">
        <circle cx="100" cy="312.5" r="8" fill="#666666"
                            fill="#333">Hò</text><circle cx="780" cy="312.5" r="8" fill="#666666"
                            fill="#333">hò</text><circle cx="950" cy="250" r="8" fill="#666666"
                        fill="#333">3</text><circle cx="1120" cy="375" r="8" fill="#666666"
                            fill="#333">đưa</text><circle cx="1205" cy="375" r="8" fill="#666666"
                        fill="#333">5</text><circle cx="1290" cy="400" r="8" fill="#666666"
                        fill="#333">6</text><circle cx="1447.5" cy="400" r="5" fill="#FFD700"
<circle cx="1460" cy="375" r="8" fill="#666666"
                            fill="#FFD700">♪</text><circle cx="1800" cy="375" r="8" fill="#666666"
                                stroke-dasharray="3,2" fill="none"/><circle cx="1970" cy="337.5" r="8" fill="#666666"
                            fill="#333">hư</text><circle cx="2140" cy="312.5" r="8" fill="#666666"
                            fill="#333">hứ</text><circle cx="2977.5" cy="375" r="5" fill="#FFD700"
<circle cx="2990" cy="400" r="8" fill="#666666"
                            fill="#FFD700">♪</text><circle cx="3160" cy="375" r="8" fill="#666666"
                                stroke-dasharray="3,2" fill="none"/><circle cx="3415" cy="362.5" r="8" fill="#666666"
                                stroke-dasharray="3,2" fill="none"/><circle cx="3840" cy="337.5" r="8" fill="#666666"
                                stroke-dasharray="3,2" fill="none"/><circle cx="11065" cy="337.5" r="8" fill="#666666"
                                stroke-dasharray="3,2" fill="none"/><circle cx="13275" cy="337.5" r="8" fill="#666666"
                                stroke-dasharray="3,2" fill="none"/><circle cx="16080" cy="337.5" r="8" fill="#666666"
                                stroke-dasharray="3,2" fill="none"/><circle cx="16335" cy="337.5" r="8" fill="#666666"
    </g>
    <!-- Song name overlay -->
    <rect x="0" y="90" width="300" height="30" fill="rgba(0,128,128,0.9)"/>
    <text x="150" y="108" text-anchor="middle" fill="white" font-size="12" font-family="system-ui">
        Hò đưa linh
    </text>
</svg>