<svg width="300" height="120" viewBox="0 0 600 400" xmlns="http://www.w3.org/2000/svg">
    <rect width="600" height="400" fill="#ffffff"/>
    <g transform="scale(0.5)">
        <circle cx="87.5" cy="337.5" r="5" fill="#FFD700"
                                stroke-dasharray="3,2" fill="none"/><circle cx="100" cy="387.5" r="8" fill="#666666"
                            fill="#FFD700">♪</text><circle cx="185" cy="275" r="8" fill="#666666"
                                stroke-dasharray="3,2" fill="none"/><circle cx="270" cy="337.5" r="8" fill="#666666"
                                stroke-dasharray="3,2" fill="none"/><circle cx="440" cy="387.5" r="8" fill="#666666"
                            fill="#333">rớt</text><circle cx="525" cy="275" r="8" fill="#666666"
                            fill="#333">bằng</text><circle cx="610" cy="275" r="8" fill="#666666"
                                stroke-dasharray="3,2" fill="none"/><circle cx="652.5" cy="337.5" r="8" fill="#666666"
                        fill="#333">8</text><circle cx="780" cy="275" r="8" fill="#666666"
                                stroke-dasharray="3,2" fill="none"/><circle cx="865" cy="237.5" r="8" fill="#666666"
                                stroke-dasharray="3,2" fill="none"/><circle cx="950" cy="187.5" r="8" fill="#666666"
                                stroke-dasharray="3,2" fill="none"/><circle cx="1120" cy="337.5" r="8" fill="#666666"
                            fill="#333">vôi</text><circle cx="1205" cy="275" r="8" fill="#666666"
                                stroke-dasharray="3,2" fill="none"/><circle cx="1290" cy="337.5" r="8" fill="#666666"
                            fill="#333">vôi.</text><circle cx="1447.5" cy="337.5" r="5" fill="#FFD700"
                                stroke-dasharray="3,2" fill="none"/><circle cx="1460" cy="387.5" r="8" fill="#666666"
                                stroke-dasharray="3,2" fill="none"/><circle cx="1630" cy="337.5" r="8" fill="#666666"
                                stroke-dasharray="3,2" fill="none"/><circle cx="1800" cy="387.5" r="8" fill="#666666"
                                stroke-dasharray="3,2" fill="none"/><circle cx="2012.5" cy="337.5" r="8" fill="#666666"
                                stroke-dasharray="3,2" fill="none"/><circle cx="2225" cy="237.5" r="8" fill="#666666"
                                stroke-dasharray="3,2" fill="none"/><circle cx="2310" cy="187.5" r="8" fill="#666666"
                                stroke-dasharray="3,2" fill="none"/><circle cx="2480" cy="387.5" r="8" fill="#666666"
                                stroke-dasharray="3,2" fill="none"/><circle cx="2650" cy="337.5" r="8" fill="#666666"
                                stroke-dasharray="3,2" fill="none"/><circle cx="2735" cy="387.5" r="8" fill="#666666"
                                stroke-dasharray="3,2" fill="none"/><circle cx="2905" cy="387.5" r="8" fill="#666666"
                                stroke-dasharray="3,2" fill="none"/><circle cx="2990" cy="337.5" r="8" fill="#666666"
                                stroke-dasharray="3,2" fill="none"/><circle cx="3330" cy="337.5" r="8" fill="#666666"
                                stroke-dasharray="3,2" fill="none"/><circle cx="3670" cy="387.5" r="8" fill="#666666"
                                stroke-dasharray="3,2" fill="none"/><circle cx="3925" cy="337.5" r="8" fill="#666666"
                                stroke-dasharray="3,2" fill="none"/><circle cx="4222.5" cy="337.5" r="8" fill="#666666"
                                stroke-dasharray="3,2" fill="none"/><circle cx="4350" cy="237.5" r="8" fill="#666666"
                                stroke-dasharray="3,2" fill="none"/><circle cx="4690" cy="237.5" r="8" fill="#666666"
                                stroke-dasharray="3,2" fill="none"/><circle cx="4860" cy="387.5" r="8" fill="#666666"
                                stroke-dasharray="3,2" fill="none"/><circle cx="5030" cy="337.5" r="8" fill="#666666"
                                stroke-dasharray="3,2" fill="none"/><circle cx="5370" cy="187.5" r="8" fill="#666666"
                                stroke-dasharray="3,2" fill="none"/><circle cx="5710" cy="337.5" r="8" fill="#666666"
                                stroke-dasharray="3,2" fill="none"/><circle cx="5795" cy="387.5" r="8" fill="#666666"
                                stroke-dasharray="3,2" fill="none"/><circle cx="5922.5" cy="337.5" r="8" fill="#666666"
                                stroke-dasharray="3,2" fill="none"/><circle cx="6050" cy="337.5" r="8" fill="#666666"
                                stroke-dasharray="3,2" fill="none"/><circle cx="6645" cy="387.5" r="8" fill="#666666"
                                stroke-dasharray="3,2" fill="none"/><circle cx="6730" cy="337.5" r="8" fill="#666666"
                                stroke-dasharray="3,2" fill="none"/><circle cx="7070" cy="337.5" r="8" fill="#666666"
                                stroke-dasharray="3,2" fill="none"/><circle cx="7155" cy="387.5" r="8" fill="#666666"
                                stroke-dasharray="3,2" fill="none"/><circle cx="7282.5" cy="387.5" r="8" fill="#666666"
                                stroke-dasharray="3,2" fill="none"/><circle cx="7410" cy="337.5" r="8" fill="#666666"
                                stroke-dasharray="3,2" fill="none"/><circle cx="7750" cy="337.5" r="8" fill="#666666"
    </g>
    <!-- Song name overlay -->
    <rect x="0" y="90" width="300" height="30" fill="rgba(0,128,128,0.9)"/>
    <text x="150" y="108" text-anchor="middle" fill="white" font-size="12" font-family="system-ui">
        Lý bình vôi
    </text>
</svg>