<?xml version="1.0" encoding="UTF-8" standalone="no"?>
<!DOCTYPE score-partwise PUBLIC "-//Recordare//DTD MusicXML 4.0 Partwise//EN" "http://www.musicxml.org/dtds/partwise.dtd">
<score-partwise version="4.0">
  <movement-title>RU EM CẢNH DƯƠNG</movement-title>
  <identification>
    <rights>©</rights>
    <encoding>
      <software>Finale v27.2 for Windows</software>
      <encoding-date>2025-08-18</encoding-date>
      <supports attribute="new-system" element="print" type="yes" value="yes"/>
      <supports attribute="new-page" element="print" type="yes" value="yes"/>
      <supports element="accidental" type="yes"/>
      <supports element="beam" type="yes"/>
      <supports element="stem" type="yes"/>
    </encoding>
  </identification>
  <defaults>
    <scaling>
      <millimeters>7.2319</millimeters>
      <tenths>40</tenths>
    </scaling>
    <page-layout>
      <page-height>1545</page-height>
      <page-width>1194</page-width>
      <page-margins type="both">
        <left-margin>140</left-margin>
        <right-margin>70</right-margin>
        <top-margin>70</top-margin>
        <bottom-margin>70</bottom-margin>
      </page-margins>
    </page-layout>
    <system-layout>
      <system-margins>
        <left-margin>0</left-margin>
        <right-margin>0</right-margin>
      </system-margins>
      <system-distance>121</system-distance>
      <top-system-distance>70</top-system-distance>
    </system-layout>
    <appearance>
      <line-width type="stem">0.9115</line-width>
      <line-width type="beam">5</line-width>
      <line-width type="staff">0.9115</line-width>
      <line-width type="light barline">1.0026</line-width>
      <line-width type="heavy barline">5</line-width>
      <line-width type="leger">1.1003</line-width>
      <line-width type="ending">1.3021</line-width>
      <line-width type="wedge">1.0026</line-width>
      <line-width type="enclosure">1.3021</line-width>
      <line-width type="tuplet bracket">1.0026</line-width>
      <note-size type="grace">60</note-size>
      <note-size type="cue">60</note-size>
      <distance type="hyphen">120</distance>
      <distance type="beam">7.5</distance>
    </appearance>
    <music-font font-family="Finale Maestro,engraved" font-size="20.5"/>
    <word-font font-family="Times New Roman" font-size="15.4" font-weight="bold"/>
    <lyric-font font-family="Arial" font-size="12"/>
  </defaults>
  <credit page="1">
    <credit-type>title</credit-type>
    <credit-words default-x="675" default-y="1462" font-family="Arial" font-size="24" justify="center" valign="top">RU EM CẢNH DƯƠNG</credit-words>
  </credit>
  <credit page="1">
    <credit-type>rights</credit-type>
    <credit-words default-x="632" default-y="53" font-size="10" justify="center" valign="bottom">©</credit-words>
  </credit>
  <credit page="1">
    <credit-words default-x="1017" default-y="1346" font-size="18" font-weight="bold" valign="top">,</credit-words>
  </credit>
  <part-list>
    <score-part id="P1">
      <part-name print-object="no">MusicXML Part</part-name>
      <group>score</group>
      <score-instrument id="P1-I1">
        <instrument-name>SmartMusic SoftSynth</instrument-name>
        <virtual-instrument/>
      </score-instrument>
      <midi-device>SmartMusic SoftSynth</midi-device>
      <midi-instrument id="P1-I1">
        <midi-channel>1</midi-channel>
        <midi-bank>15489</midi-bank>
        <midi-program>1</midi-program>
        <volume>80</volume>
        <pan>0</pan>
      </midi-instrument>
    </score-part>
  </part-list>
  <!--=========================================================-->
  <part id="P1">
    <measure implicit="yes" number="0" width="141">
      <print>
        <system-layout>
          <system-margins>
            <left-margin>70</left-margin>
            <right-margin>0</right-margin>
          </system-margins>
          <top-system-distance>177</top-system-distance>
        </system-layout>
        <measure-numbering multiple-rest-always="no" multiple-rest-range="no" system="only-top">system</measure-numbering>
      </print>
      <attributes>
        <divisions>4</divisions>
        <key>
          <fifths>0</fifths>
          <mode>major</mode>
        </key>
        <time>
          <beats>2</beats>
          <beat-type>4</beat-type>
        </time>
        <clef>
          <sign>G</sign>
          <line>2</line>
        </clef>
      </attributes>
      <sound tempo="120">
        <swing>
          <straight/>
        </swing>
      </sound>
      <note default-x="86">
        <pitch>
          <step>C</step>
          <octave>4</octave>
        </pitch>
        <duration>2</duration>
        <voice>1</voice>
        <type>eighth</type>
        <stem default-y="-15">up</stem>
        <notations>
          <slur bezier-x="25" bezier-y="-19" default-x="6" default-y="-60" number="1" placement="below" type="start"/>
        </notations>
        <lyric default-y="-98" number="1">
          <syllabic>single</syllabic>
          <text>Hò</text>
        </lyric>
      </note>
    </measure>
    <!--=======================================================-->
    <measure number="1" width="197">
      <note default-x="16">
        <grace slash="yes"/>
        <pitch>
          <step>C</step>
          <octave>4</octave>
        </pitch>
        <voice>1</voice>
        <type>eighth</type>
        <stem default-y="-29">up</stem>
        <notations>
          <slur bezier-x="8" bezier-y="-7" default-x="4" default-y="-58" number="2" placement="below" type="start"/>
        </notations>
      </note>
      <note default-x="38">
        <pitch>
          <step>D</step>
          <octave>4</octave>
        </pitch>
        <duration>4</duration>
        <voice>1</voice>
        <type>quarter</type>
        <stem default-y="-10">up</stem>
        <notations>
          <slur bezier-x="-6" bezier-y="-9" default-x="6" default-y="-55" number="2" type="stop"/>
          <slur bezier-x="-23" bezier-y="-21" default-x="6" default-y="-55" number="1" type="stop"/>
          <slur bezier-x="18" bezier-y="-10" default-x="6" default-y="-55" number="1" placement="below" type="start"/>
        </notations>
        <lyric default-y="-98" number="1">
          <syllabic>single</syllabic>
          <text>hẻ</text>
        </lyric>
      </note>
      <note default-x="92">
        <grace slash="yes"/>
        <pitch>
          <step>F</step>
          <octave>4</octave>
        </pitch>
        <voice>1</voice>
        <type>eighth</type>
        <stem default-y="-14">up</stem>
        <notations>
          <slur bezier-x="-12" bezier-y="-16" default-x="4" default-y="-43" number="1" type="stop"/>
        </notations>
      </note>
      <note default-x="117">
        <pitch>
          <step>C</step>
          <octave>4</octave>
        </pitch>
        <duration>4</duration>
        <voice>1</voice>
        <type>quarter</type>
        <stem default-y="-15">up</stem>
        <notations>
          <slur bezier-x="17" bezier-y="-12" default-x="6" default-y="-60" number="1" placement="below" type="start"/>
        </notations>
        <lyric default-y="-98" number="1">
          <syllabic>single</syllabic>
          <text>hò</text>
        </lyric>
      </note>
      <note default-x="173">
        <grace slash="yes"/>
        <pitch>
          <step>D</step>
          <octave>4</octave>
        </pitch>
        <voice>1</voice>
        <type>eighth</type>
        <stem default-y="-24">up</stem>
        <notations>
          <slur bezier-x="-13" bezier-y="-16" default-x="4" default-y="-53" number="1" type="stop"/>
        </notations>
      </note>
    </measure>
    <!--=======================================================-->
    <measure number="2" width="155">
      <note default-x="16">
        <pitch>
          <step>C</step>
          <octave>4</octave>
        </pitch>
        <duration>4</duration>
        <voice>1</voice>
        <type>quarter</type>
        <stem default-y="-15">up</stem>
        <notations>
          <ornaments>
            <inverted-mordent default-x="-6" default-y="5" placement="above"/>
          </ornaments>
        </notations>
        <lyric default-y="-98" number="1">
          <syllabic>single</syllabic>
          <text>hè</text>
        </lyric>
      </note>
      <note default-x="77">
        <rest/>
        <duration>2</duration>
        <voice>1</voice>
        <type>eighth</type>
      </note>
      <note default-x="115">
        <pitch>
          <step>C</step>
          <octave>4</octave>
        </pitch>
        <duration>2</duration>
        <voice>1</voice>
        <type>eighth</type>
        <stem default-y="-15">up</stem>
        <notations>
          <slur bezier-x="22" bezier-y="-16" default-x="6" default-y="-60" number="1" placement="below" type="start"/>
        </notations>
        <lyric default-y="-98" number="1">
          <syllabic>single</syllabic>
          <text>Hò</text>
        </lyric>
      </note>
    </measure>
    <!--=======================================================-->
    <measure number="3" width="208">
      <note default-x="16">
        <grace slash="yes"/>
        <pitch>
          <step>C</step>
          <octave>4</octave>
        </pitch>
        <voice>1</voice>
        <type>eighth</type>
        <stem default-y="-29">up</stem>
        <notations>
          <slur bezier-x="8" bezier-y="-7" default-x="4" default-y="-58" number="2" placement="below" type="start"/>
        </notations>
      </note>
      <note default-x="38">
        <pitch>
          <step>D</step>
          <octave>4</octave>
        </pitch>
        <duration>4</duration>
        <voice>1</voice>
        <type>quarter</type>
        <stem default-y="-10">up</stem>
        <notations>
          <slur bezier-x="-20" bezier-y="-19" default-x="6" default-y="-55" number="1" type="stop"/>
          <slur bezier-x="-6" bezier-y="-9" default-x="6" default-y="-55" number="2" type="stop"/>
          <slur bezier-x="14" bezier-y="-7" default-x="6" default-y="-55" number="1" placement="below" type="start"/>
        </notations>
        <lyric default-y="-98" number="1">
          <syllabic>single</syllabic>
          <text>hẻ</text>
        </lyric>
      </note>
      <note default-x="76">
        <grace slash="yes"/>
        <pitch>
          <step>F</step>
          <octave>4</octave>
        </pitch>
        <voice>1</voice>
        <type>eighth</type>
        <stem default-y="-14">up</stem>
        <notations>
          <slur bezier-x="-7" bezier-y="-13" default-x="4" default-y="-43" number="1" type="stop"/>
        </notations>
      </note>
      <note default-x="98">
        <grace slash="yes"/>
        <pitch>
          <step>D</step>
          <octave>4</octave>
        </pitch>
        <voice>1</voice>
        <type>eighth</type>
        <stem default-y="-24">up</stem>
        <notations>
          <slur bezier-x="5" bezier-y="-10" default-x="4" default-y="-53" number="1" placement="below" type="start"/>
        </notations>
      </note>
      <note default-x="122">
        <pitch>
          <step>C</step>
          <octave>4</octave>
        </pitch>
        <duration>4</duration>
        <voice>1</voice>
        <type>quarter</type>
        <stem default-y="-15">up</stem>
        <notations>
          <slur bezier-x="-10" bezier-y="-6" default-x="6" default-y="-60" number="1" type="stop"/>
        </notations>
        <lyric default-y="-98" number="1">
          <syllabic>single</syllabic>
          <text>hò</text>
        </lyric>
      </note>
    </measure>
    <!--=======================================================-->
    <measure number="4" width="213">
      <note default-x="16">
        <pitch>
          <step>C</step>
          <octave>4</octave>
        </pitch>
        <duration>4</duration>
        <voice>1</voice>
        <type>quarter</type>
        <stem default-y="-15">up</stem>
        <notations>
          <ornaments>
            <inverted-mordent default-x="-6" default-y="5" placement="above"/>
          </ornaments>
        </notations>
        <lyric default-y="-98" number="1">
          <syllabic>single</syllabic>
          <text>hè.</text>
        </lyric>
      </note>
      <note default-x="104">
        <rest/>
        <duration>2</duration>
        <voice>1</voice>
        <type>eighth</type>
      </note>
      <note default-x="158">
        <pitch>
          <step>C</step>
          <octave>4</octave>
        </pitch>
        <duration>2</duration>
        <voice>1</voice>
        <type>eighth</type>
        <stem default-y="-15">up</stem>
        <lyric default-y="-98" number="1">
          <syllabic>single</syllabic>
          <text>Bồong</text>
        </lyric>
      </note>
    </measure>
    <!--=======================================================-->
    <measure number="5" width="299">
      <print new-system="yes">
        <system-layout>
          <system-distance>114</system-distance>
        </system-layout>
      </print>
      <note default-x="53">
        <grace slash="yes"/>
        <pitch>
          <step>C</step>
          <octave>4</octave>
        </pitch>
        <voice>1</voice>
        <type>eighth</type>
        <stem default-y="-29">up</stem>
        <notations>
          <slur bezier-x="8" bezier-y="-7" default-x="4" default-y="-58" number="1" placement="below" type="start"/>
        </notations>
      </note>
      <note default-x="75">
        <pitch>
          <step>D</step>
          <octave>4</octave>
        </pitch>
        <duration>4</duration>
        <voice>1</voice>
        <type>quarter</type>
        <stem default-y="-10">up</stem>
        <notations>
          <slur bezier-x="-6" bezier-y="-9" default-x="6" default-y="-55" number="1" type="stop"/>
          <slur bezier-x="25" bezier-y="-16" default-x="6" default-y="-55" number="1" placement="below" type="start"/>
        </notations>
        <lyric default-y="-98" number="1" relative-x="13">
          <syllabic>single</syllabic>
          <text>bổong</text>
        </lyric>
      </note>
      <note default-x="162">
        <grace slash="yes"/>
        <pitch>
          <step>F</step>
          <octave>4</octave>
        </pitch>
        <voice>1</voice>
        <type>eighth</type>
        <stem default-y="-14">up</stem>
        <notations>
          <slur bezier-x="-20" bezier-y="-22" default-x="4" default-y="-43" number="1" type="stop"/>
        </notations>
      </note>
      <note default-x="187">
        <pitch>
          <step>C</step>
          <octave>4</octave>
        </pitch>
        <duration>4</duration>
        <voice>1</voice>
        <type>quarter</type>
        <stem default-y="-15">up</stem>
        <notations>
          <slur bezier-x="25" bezier-y="-17" default-x="6" default-y="-60" number="1" placement="below" type="start"/>
        </notations>
        <lyric default-y="-98" number="1" relative-x="24">
          <syllabic>single</syllabic>
          <text>bồong</text>
        </lyric>
      </note>
      <note default-x="276">
        <grace slash="yes"/>
        <pitch>
          <step>D</step>
          <octave>4</octave>
        </pitch>
        <voice>1</voice>
        <type>eighth</type>
        <stem default-y="-24">up</stem>
        <notations>
          <slur bezier-x="-22" bezier-y="-21" default-x="4" default-y="-53" number="1" type="stop"/>
        </notations>
      </note>
    </measure>
    <!--=======================================================-->
    <measure number="6" width="197">
      <direction>
        <direction-type>
          <words default-x="82" default-y="51" font-size="18" font-weight="bold" valign="top">,</words>
        </direction-type>
        <offset>4</offset>
      </direction>
      <note default-x="16">
        <pitch>
          <step>C</step>
          <octave>4</octave>
        </pitch>
        <duration>4</duration>
        <voice>1</voice>
        <type>quarter</type>
        <stem default-y="-15">up</stem>
        <lyric default-y="-98" number="1" relative-x="9">
          <syllabic>single</syllabic>
          <text>bồong</text>
        </lyric>
      </note>
      <note default-x="96">
        <rest/>
        <duration>2</duration>
        <voice>1</voice>
        <type>eighth</type>
      </note>
      <note default-x="146">
        <pitch>
          <step>C</step>
          <octave>4</octave>
        </pitch>
        <duration>2</duration>
        <voice>1</voice>
        <type>eighth</type>
        <stem default-y="-15">up</stem>
        <lyric default-y="-98" number="1">
          <syllabic>single</syllabic>
          <text>bồong</text>
        </lyric>
      </note>
    </measure>
    <!--=======================================================-->
    <measure number="7" width="245">
      <note default-x="16">
        <grace slash="yes"/>
        <pitch>
          <step>C</step>
          <octave>4</octave>
        </pitch>
        <voice>1</voice>
        <type>eighth</type>
        <stem default-y="-29">up</stem>
        <notations>
          <slur bezier-x="8" bezier-y="-7" default-x="4" default-y="-58" number="1" placement="below" type="start"/>
        </notations>
      </note>
      <note default-x="38">
        <pitch>
          <step>D</step>
          <octave>4</octave>
        </pitch>
        <duration>4</duration>
        <voice>1</voice>
        <type>quarter</type>
        <stem default-y="-10">up</stem>
        <notations>
          <slur bezier-x="-6" bezier-y="-9" default-x="6" default-y="-55" number="1" type="stop"/>
          <slur bezier-x="18" bezier-y="-10" default-x="6" default-y="-55" number="1" placement="below" type="start"/>
        </notations>
        <lyric default-y="-98" number="1">
          <syllabic>single</syllabic>
          <text>bổong</text>
        </lyric>
      </note>
      <note default-x="94">
        <grace slash="yes"/>
        <pitch>
          <step>F</step>
          <octave>4</octave>
        </pitch>
        <voice>1</voice>
        <type>eighth</type>
        <stem default-y="-14">up</stem>
        <notations>
          <slur bezier-x="-12" bezier-y="-17" default-x="4" default-y="-43" number="1" type="stop"/>
        </notations>
      </note>
      <note default-x="116">
        <grace slash="yes"/>
        <pitch>
          <step>D</step>
          <octave>4</octave>
        </pitch>
        <voice>1</voice>
        <type>eighth</type>
        <stem default-y="-24">up</stem>
        <notations>
          <slur bezier-x="6" bezier-y="-11" default-x="4" default-y="-53" number="1" placement="below" type="start"/>
        </notations>
      </note>
      <note default-x="141">
        <pitch>
          <step>C</step>
          <octave>4</octave>
        </pitch>
        <duration>4</duration>
        <voice>1</voice>
        <type>quarter</type>
        <stem default-y="-15">up</stem>
        <notations>
          <slur bezier-x="-10" bezier-y="-6" default-x="6" default-y="-60" number="1" type="stop"/>
          <slur bezier-x="23" bezier-y="-16" default-x="6" default-y="-60" number="1" placement="below" type="start"/>
        </notations>
        <lyric default-y="-98" number="1">
          <syllabic>single</syllabic>
          <text>bồong</text>
        </lyric>
      </note>
      <note default-x="222">
        <grace slash="yes"/>
        <pitch>
          <step>D</step>
          <octave>4</octave>
        </pitch>
        <voice>1</voice>
        <type>eighth</type>
        <stem default-y="-24">up</stem>
        <notations>
          <slur bezier-x="-20" bezier-y="-20" default-x="4" default-y="-53" number="1" type="stop"/>
        </notations>
      </note>
    </measure>
    <!--=======================================================-->
    <measure number="8" width="148">
      <direction>
        <direction-type>
          <words default-x="68" default-y="48" font-size="18" font-weight="bold" valign="top">,</words>
        </direction-type>
        <offset>4</offset>
      </direction>
      <note default-x="16">
        <pitch>
          <step>C</step>
          <octave>4</octave>
        </pitch>
        <duration>4</duration>
        <voice>1</voice>
        <type>quarter</type>
        <stem default-y="-15">up</stem>
        <lyric default-y="-98" number="1" relative-x="9">
          <syllabic>single</syllabic>
          <text>bồong</text>
        </lyric>
      </note>
      <note default-x="74">
        <rest/>
        <duration>2</duration>
        <voice>1</voice>
        <type>eighth</type>
      </note>
      <note default-x="110">
        <pitch>
          <step>G</step>
          <octave>4</octave>
        </pitch>
        <duration>2</duration>
        <voice>1</voice>
        <type>eighth</type>
        <stem default-y="5">up</stem>
        <notations>
          <slur bezier-x="15" bezier-y="-10" default-x="8" default-y="-37" number="1" placement="below" type="start"/>
        </notations>
        <lyric default-y="-98" number="1">
          <syllabic>single</syllabic>
          <text>Hò</text>
        </lyric>
      </note>
    </measure>
    <!--=======================================================-->
    <measure number="9" width="95">
      <note default-x="13">
        <pitch>
          <step>C</step>
          <octave>5</octave>
        </pitch>
        <duration>8</duration>
        <voice>1</voice>
        <type>half</type>
        <stem default-y="-50">down</stem>
        <notations>
          <slur bezier-x="-5" bezier-y="-17" default-x="-6" default-y="-24" number="1" type="stop"/>
          <ornaments>
            <inverted-mordent default-x="-5" default-y="5" placement="above"/>
          </ornaments>
        </notations>
        <lyric default-y="-98" number="1">
          <syllabic>single</syllabic>
          <text>ơ</text>
        </lyric>
      </note>
    </measure>
    <!--=======================================================-->
    <measure number="10" width="232">
      <print new-system="yes">
        <system-layout>
          <system-distance>114</system-distance>
        </system-layout>
      </print>
      <note default-x="51">
        <grace/>
        <pitch>
          <step>D</step>
          <octave>5</octave>
        </pitch>
        <voice>1</voice>
        <type>16th</type>
        <stem default-y="11">up</stem>
        <beam number="1">begin</beam>
        <beam number="2">begin</beam>
        <notations>
          <slur bezier-x="4" bezier-y="-12" default-x="4" default-y="-23" number="1" placement="below" type="start"/>
        </notations>
      </note>
      <note default-x="63">
        <grace/>
        <pitch>
          <step>C</step>
          <octave>5</octave>
        </pitch>
        <voice>1</voice>
        <type>16th</type>
        <stem default-y="8">up</stem>
        <beam number="1">end</beam>
        <beam number="2">end</beam>
      </note>
      <note default-x="76">
        <pitch>
          <step>A</step>
          <octave>4</octave>
        </pitch>
        <duration>2</duration>
        <voice>1</voice>
        <type>eighth</type>
        <stem default-y="10">up</stem>
        <notations>
          <slur bezier-x="-12" bezier-y="-5" default-x="6" default-y="-35" number="1" type="stop"/>
        </notations>
        <lyric default-y="-98" number="1">
          <syllabic>single</syllabic>
          <text>ơ</text>
        </lyric>
      </note>
      <note default-x="119">
        <pitch>
          <step>C</step>
          <octave>5</octave>
        </pitch>
        <duration>4</duration>
        <voice>1</voice>
        <type>quarter</type>
        <stem default-y="-50">down</stem>
        <notations>
          <ornaments>
            <inverted-mordent default-x="-2" default-y="20" placement="above"/>
          </ornaments>
          <fermata default-x="-4" default-y="5" type="upright"/>
        </notations>
        <lyric default-y="-98" number="1">
          <syllabic>single</syllabic>
          <text>ơ....</text>
        </lyric>
      </note>
      <note default-x="163">
        <grace/>
        <pitch>
          <step>G</step>
          <octave>4</octave>
        </pitch>
        <voice>1</voice>
        <type>16th</type>
        <stem default-y="-9">up</stem>
        <beam number="1">begin</beam>
        <beam number="2">begin</beam>
        <notations>
          <slur bezier-x="10" bezier-y="-7" default-x="4" default-y="-43" number="1" placement="below" type="start"/>
        </notations>
      </note>
      <note default-x="175">
        <grace/>
        <pitch>
          <step>F</step>
          <octave>4</octave>
        </pitch>
        <voice>1</voice>
        <type>16th</type>
        <stem default-y="-12">up</stem>
        <beam number="1">end</beam>
        <beam number="2">end</beam>
      </note>
      <note default-x="188">
        <pitch>
          <step>A</step>
          <octave>4</octave>
        </pitch>
        <duration>2</duration>
        <voice>1</voice>
        <type>eighth</type>
        <stem default-y="10">up</stem>
        <notations>
          <slur bezier-x="-5" bezier-y="-11" default-x="6" default-y="-35" number="1" type="stop"/>
        </notations>
        <lyric default-y="-98" number="1">
          <syllabic>single</syllabic>
          <text>Ai</text>
        </lyric>
      </note>
    </measure>
    <!--=======================================================-->
    <measure number="11" width="261">
      <note default-x="13">
        <pitch>
          <step>F</step>
          <octave>4</octave>
        </pitch>
        <duration>2</duration>
        <voice>1</voice>
        <type>eighth</type>
        <stem default-y="0">up</stem>
        <lyric default-y="-98" number="1">
          <syllabic>single</syllabic>
          <text>về</text>
        </lyric>
      </note>
      <note default-x="69">
        <pitch>
          <step>A</step>
          <octave>4</octave>
        </pitch>
        <duration>2</duration>
        <voice>1</voice>
        <type>eighth</type>
        <stem default-y="10">up</stem>
        <lyric default-y="-98" number="1">
          <syllabic>single</syllabic>
          <text>đất</text>
        </lyric>
      </note>
      <note default-x="120">
        <pitch>
          <step>D</step>
          <octave>4</octave>
        </pitch>
        <duration>1</duration>
        <voice>1</voice>
        <type>16th</type>
        <stem default-y="5">up</stem>
        <beam number="1">begin</beam>
        <beam number="2">begin</beam>
        <notations>
          <slur bezier-x="18" bezier-y="-6" default-x="7" default-y="-55" number="1" placement="below" type="start"/>
        </notations>
        <lyric default-y="-98" justify="left" number="1">
          <syllabic>single</syllabic>
          <text>Cảnh</text>
          <extend type="start"/>
        </lyric>
      </note>
      <note default-x="166">
        <pitch>
          <step>A</step>
          <octave>4</octave>
        </pitch>
        <duration>1</duration>
        <voice>1</voice>
        <type>16th</type>
        <stem default-y="10">up</stem>
        <beam number="1">end</beam>
        <beam number="2">end</beam>
        <notations>
          <slur bezier-x="-8" bezier-y="-17" default-x="6" default-y="-35" number="1" type="stop"/>
        </notations>
        <lyric number="1">
          <extend type="stop"/>
        </lyric>
      </note>
      <note default-x="205">
        <pitch>
          <step>G</step>
          <octave>4</octave>
        </pitch>
        <duration>2</duration>
        <voice>1</voice>
        <type>eighth</type>
        <stem default-y="5">up</stem>
        <lyric default-y="-98" number="1">
          <syllabic>single</syllabic>
          <text>hôm</text>
        </lyric>
      </note>
    </measure>
    <!--=======================================================-->
    <measure number="12" width="132">
      <direction>
        <direction-type>
          <words default-x="67" default-y="52" font-size="18" font-weight="bold" valign="top">,</words>
        </direction-type>
        <offset>4</offset>
      </direction>
      <note default-x="13">
        <pitch>
          <step>G</step>
          <octave>4</octave>
        </pitch>
        <duration>4</duration>
        <voice>1</voice>
        <type>quarter</type>
        <stem default-y="5">up</stem>
        <notations>
          <fermata default-x="-6" default-y="11" type="upright"/>
        </notations>
        <lyric default-y="-98" number="1">
          <syllabic>single</syllabic>
          <text>nay</text>
        </lyric>
      </note>
      <note default-x="65">
        <rest/>
        <duration>2</duration>
        <voice>1</voice>
        <type>eighth</type>
      </note>
      <note default-x="99">
        <pitch>
          <step>G</step>
          <octave>4</octave>
        </pitch>
        <duration>2</duration>
        <voice>1</voice>
        <type>eighth</type>
        <stem default-y="5">up</stem>
        <lyric default-y="-98" number="1">
          <syllabic>single</syllabic>
          <text>Ra</text>
        </lyric>
      </note>
    </measure>
    <!--=======================================================-->
    <measure number="13" width="181">
      <note default-x="13">
        <pitch>
          <step>G</step>
          <octave>4</octave>
        </pitch>
        <duration>2</duration>
        <voice>1</voice>
        <type>eighth</type>
        <stem default-y="5">up</stem>
        <lyric default-y="-98" number="1">
          <syllabic>single</syllabic>
          <text>khơi</text>
        </lyric>
      </note>
      <note default-x="60">
        <pitch>
          <step>F</step>
          <octave>4</octave>
        </pitch>
        <duration>4</duration>
        <voice>1</voice>
        <type>quarter</type>
        <stem default-y="0">up</stem>
        <lyric default-y="-98" number="1">
          <syllabic>single</syllabic>
          <text>mà</text>
        </lyric>
      </note>
      <note default-x="134">
        <pitch>
          <step>F</step>
          <octave>4</octave>
        </pitch>
        <duration>2</duration>
        <voice>1</voice>
        <type>eighth</type>
        <stem default-y="0">up</stem>
        <lyric default-y="-98" number="1">
          <syllabic>single</syllabic>
          <text>vào</text>
        </lyric>
      </note>
    </measure>
    <!--=======================================================-->
    <measure number="14" width="177">
      <note default-x="13">
        <pitch>
          <step>F</step>
          <octave>4</octave>
        </pitch>
        <duration>2</duration>
        <voice>1</voice>
        <type>eighth</type>
        <stem default-y="5">up</stem>
        <beam number="1">begin</beam>
        <notations>
          <slur bezier-x="15" bezier-y="-8" default-x="6" default-y="-45" number="1" placement="below" type="start"/>
        </notations>
        <lyric default-y="-98" justify="left" number="1">
          <syllabic>single</syllabic>
          <text>động</text>
          <extend type="start"/>
        </lyric>
      </note>
      <note default-x="54">
        <pitch>
          <step>A</step>
          <octave>4</octave>
        </pitch>
        <duration>2</duration>
        <voice>1</voice>
        <type>eighth</type>
        <stem default-y="10">up</stem>
        <beam number="1">end</beam>
        <notations>
          <slur bezier-x="-9" bezier-y="-14" default-x="6" default-y="-35" number="1" type="stop"/>
        </notations>
        <lyric number="1">
          <extend type="stop"/>
        </lyric>
      </note>
      <note default-x="95">
        <rest/>
        <duration>2</duration>
        <voice>1</voice>
        <type>eighth</type>
      </note>
      <note default-x="135">
        <pitch>
          <step>A</step>
          <octave>4</octave>
        </pitch>
        <duration>2</duration>
        <voice>1</voice>
        <type>eighth</type>
        <stem default-y="10">up</stem>
        <lyric default-y="-98" number="1">
          <syllabic>single</syllabic>
          <text>sóng</text>
        </lyric>
      </note>
    </measure>
    <!--=======================================================-->
    <measure number="15" width="185">
      <print new-system="yes">
        <system-layout>
          <system-distance>114</system-distance>
        </system-layout>
      </print>
      <note default-x="51">
        <pitch>
          <step>F</step>
          <octave>4</octave>
        </pitch>
        <duration>4</duration>
        <voice>1</voice>
        <type>quarter</type>
        <stem default-y="0">up</stem>
        <lyric default-y="-98" number="1">
          <syllabic>single</syllabic>
          <text>reo</text>
        </lyric>
      </note>
      <note default-x="107">
        <pitch>
          <step>A</step>
          <octave>4</octave>
        </pitch>
        <duration>2</duration>
        <voice>1</voice>
        <type>eighth</type>
        <stem default-y="10">up</stem>
        <notations>
          <slur bezier-x="19" bezier-y="-19" default-x="6" default-y="-35" number="1" placement="below" type="start"/>
        </notations>
        <lyric default-y="-98" number="1">
          <syllabic>single</syllabic>
          <text>sớm</text>
        </lyric>
      </note>
      <note default-x="141">
        <pitch>
          <step>G</step>
          <octave>4</octave>
        </pitch>
        <duration>1</duration>
        <voice>1</voice>
        <type>16th</type>
        <stem default-y="5">up</stem>
        <beam number="1">begin</beam>
        <beam number="2">begin</beam>
        <notations>
          <slur bezier-x="5" bezier-y="-8" default-x="6" default-y="-43" number="2" placement="below" type="start"/>
        </notations>
      </note>
      <note default-x="162">
        <pitch>
          <step>F</step>
          <octave>4</octave>
        </pitch>
        <duration>1</duration>
        <voice>1</voice>
        <type>16th</type>
        <stem default-y="0">up</stem>
        <beam number="1">end</beam>
        <beam number="2">end</beam>
        <notations>
          <slur bezier-x="-7" bezier-y="-7" default-x="6" default-y="-45" number="2" type="stop"/>
        </notations>
      </note>
    </measure>
    <!--=======================================================-->
    <measure number="16" width="138">
      <direction>
        <direction-type>
          <words default-x="72" default-y="50" font-size="18" font-weight="bold" valign="top">,</words>
        </direction-type>
        <offset>4</offset>
      </direction>
      <note default-x="16">
        <pitch>
          <step>C</step>
          <octave>4</octave>
        </pitch>
        <duration>4</duration>
        <voice>1</voice>
        <type>quarter</type>
        <stem default-y="-15">up</stem>
        <notations>
          <slur bezier-x="-27" bezier-y="-7" default-x="0" default-y="-58" number="1" type="stop"/>
        </notations>
        <lyric default-y="-98" number="1" relative-x="5">
          <syllabic>single</syllabic>
          <text>chiều.</text>
        </lyric>
      </note>
      <note default-x="70">
        <rest/>
        <duration>2</duration>
        <voice>1</voice>
        <type>eighth</type>
      </note>
      <note default-x="103">
        <pitch>
          <step>C</step>
          <octave>4</octave>
        </pitch>
        <duration>2</duration>
        <voice>1</voice>
        <type>eighth</type>
        <stem default-y="-15">up</stem>
        <lyric default-y="-98" number="1">
          <syllabic>single</syllabic>
          <text>Hò</text>
        </lyric>
      </note>
    </measure>
    <!--=======================================================-->
    <measure number="17" width="170">
      <note default-x="16">
        <grace slash="yes"/>
        <pitch>
          <step>C</step>
          <octave>4</octave>
        </pitch>
        <voice>1</voice>
        <type>eighth</type>
        <stem default-y="-29">up</stem>
        <notations>
          <slur bezier-x="8" bezier-y="-7" default-x="4" default-y="-58" number="1" placement="below" type="start"/>
        </notations>
      </note>
      <note default-x="38">
        <pitch>
          <step>D</step>
          <octave>4</octave>
        </pitch>
        <duration>4</duration>
        <voice>1</voice>
        <type>quarter</type>
        <stem default-y="-10">up</stem>
        <notations>
          <slur bezier-x="-6" bezier-y="-9" default-x="6" default-y="-55" number="1" type="stop"/>
          <slur bezier-x="15" bezier-y="-7" default-x="6" default-y="-55" number="1" placement="below" type="start"/>
        </notations>
        <lyric default-y="-98" number="1">
          <syllabic>single</syllabic>
          <text>hẻ</text>
        </lyric>
      </note>
      <note default-x="79">
        <grace slash="yes"/>
        <pitch>
          <step>F</step>
          <octave>4</octave>
        </pitch>
        <voice>1</voice>
        <type>eighth</type>
        <stem default-y="-14">up</stem>
        <notations>
          <slur bezier-x="-8" bezier-y="-14" default-x="4" default-y="-43" number="1" type="stop"/>
        </notations>
      </note>
      <note default-x="104">
        <pitch>
          <step>C</step>
          <octave>4</octave>
        </pitch>
        <duration>4</duration>
        <voice>1</voice>
        <type>quarter</type>
        <stem default-y="-15">up</stem>
        <notations>
          <slur bezier-x="13" bezier-y="-9" default-x="6" default-y="-60" number="1" placement="below" type="start"/>
        </notations>
        <lyric default-y="-98" number="1">
          <syllabic>single</syllabic>
          <text>hò</text>
        </lyric>
      </note>
      <note default-x="147">
        <grace slash="yes"/>
        <pitch>
          <step>D</step>
          <octave>4</octave>
        </pitch>
        <voice>1</voice>
        <type>eighth</type>
        <stem default-y="-24">up</stem>
        <notations>
          <slur bezier-x="-10" bezier-y="-13" default-x="4" default-y="-53" number="1" type="stop"/>
        </notations>
      </note>
    </measure>
    <!--=======================================================-->
    <measure number="18" width="184">
      <direction>
        <direction-type>
          <words default-x="85" default-y="54" font-size="18" font-weight="bold" valign="top">,</words>
        </direction-type>
        <offset>4</offset>
      </direction>
      <note default-x="16">
        <pitch>
          <step>C</step>
          <octave>4</octave>
        </pitch>
        <duration>4</duration>
        <voice>1</voice>
        <type>quarter</type>
        <stem default-y="-15">up</stem>
        <notations>
          <ornaments>
            <inverted-mordent default-x="-6" default-y="5" placement="above"/>
          </ornaments>
        </notations>
        <lyric default-y="-98" number="1">
          <syllabic>single</syllabic>
          <text>hè</text>
        </lyric>
      </note>
      <note default-x="86">
        <rest/>
        <duration>2</duration>
        <voice>1</voice>
        <type>eighth</type>
      </note>
      <note default-x="134">
        <pitch>
          <step>C</step>
          <octave>4</octave>
        </pitch>
        <duration>2</duration>
        <voice>1</voice>
        <type>eighth</type>
        <stem default-y="-15">up</stem>
        <lyric default-y="-98" number="1">
          <syllabic>single</syllabic>
          <text>Bồong</text>
        </lyric>
      </note>
    </measure>
    <!--=======================================================-->
    <measure number="19" width="205">
      <note default-x="16">
        <grace slash="yes"/>
        <pitch>
          <step>C</step>
          <octave>4</octave>
        </pitch>
        <voice>1</voice>
        <type>eighth</type>
        <stem default-y="-29">up</stem>
        <notations>
          <slur bezier-x="8" bezier-y="-7" default-x="4" default-y="-58" number="1" placement="below" type="start"/>
        </notations>
      </note>
      <note default-x="38">
        <pitch>
          <step>D</step>
          <octave>4</octave>
        </pitch>
        <duration>4</duration>
        <voice>1</voice>
        <type>quarter</type>
        <stem default-y="-10">up</stem>
        <notations>
          <slur bezier-x="-6" bezier-y="-9" default-x="6" default-y="-55" number="1" type="stop"/>
          <slur bezier-x="19" bezier-y="-10" default-x="6" default-y="-55" number="1" placement="below" type="start"/>
        </notations>
        <lyric default-y="-98" number="1">
          <syllabic>single</syllabic>
          <text>bổong</text>
        </lyric>
      </note>
      <note default-x="96">
        <grace slash="yes"/>
        <pitch>
          <step>F</step>
          <octave>4</octave>
        </pitch>
        <voice>1</voice>
        <type>eighth</type>
        <stem default-y="-14">up</stem>
        <notations>
          <slur bezier-x="-13" bezier-y="-17" default-x="4" default-y="-43" number="1" type="stop"/>
        </notations>
      </note>
      <note default-x="121">
        <pitch>
          <step>C</step>
          <octave>4</octave>
        </pitch>
        <duration>4</duration>
        <voice>1</voice>
        <type>quarter</type>
        <stem default-y="-15">up</stem>
        <lyric default-y="-98" number="1">
          <syllabic>single</syllabic>
          <text>bồong</text>
        </lyric>
      </note>
    </measure>
    <!--=======================================================-->
    <measure number="20" width="102">
      <note default-x="16">
        <pitch>
          <step>C</step>
          <octave>4</octave>
        </pitch>
        <duration>4</duration>
        <voice>1</voice>
        <type>quarter</type>
        <stem default-y="-15">up</stem>
        <lyric default-y="-98" number="1" relative-x="9">
          <syllabic>single</syllabic>
          <text>bồong</text>
        </lyric>
      </note>
      <note default-x="63">
        <rest/>
        <duration>2</duration>
        <voice>1</voice>
        <type>eighth</type>
      </note>
      <barline location="right">
        <bar-style>light-heavy</bar-style>
      </barline>
    </measure>
  </part>
  <!--=========================================================-->
</score-partwise>
