<svg width="200" height="100" xmlns="http://www.w3.org/2000/svg"><rect width="200" height="100" fill="#f8f9fa"/><circle cx="2.127659574468085" cy="66" r="2" fill="#4dabf7"/><circle cx="6.382978723404255" cy="30" r="2" fill="#4dabf7"/><circle cx="10.638297872340425" cy="42" r="2" fill="#4dabf7"/><circle cx="14.893617021276595" cy="42" r="2" fill="#ff6b6b"/><circle cx="19.148936170212764" cy="30" r="2" fill="#4dabf7"/><circle cx="23.404255319148938" cy="30" r="2" fill="#4dabf7"/><circle cx="27.659574468085104" cy="42" r="2" fill="#4dabf7"/><circle cx="31.914893617021278" cy="42" r="2" fill="#4dabf7"/><circle cx="36.170212765957444" cy="42" r="2" fill="#4dabf7"/><circle cx="40.42553191489361" cy="42" r="2" fill="#4dabf7"/><circle cx="44.680851063829785" cy="42" r="2" fill="#4dabf7"/><circle cx="48.93617021276596" cy="30" r="2" fill="#4dabf7"/><circle cx="53.191489361702125" cy="18" r="2" fill="#4dabf7"/><circle cx="57.44680851063829" cy="42" r="2" fill="#4dabf7"/><circle cx="61.702127659574465" cy="42" r="2" fill="#4dabf7"/><circle cx="65.95744680851064" cy="42" r="2" fill="#4dabf7"/><circle cx="70.2127659574468" cy="42" r="2" fill="#4dabf7"/><circle cx="74.46808510638297" cy="30" r="2" fill="#4dabf7"/><circle cx="78.72340425531914" cy="66" r="2" fill="#4dabf7"/><circle cx="82.97872340425532" cy="42" r="2" fill="#4dabf7"/><circle cx="87.23404255319149" cy="66" r="2" fill="#4dabf7"/><circle cx="91.48936170212765" cy="66" r="2" fill="#4dabf7"/><circle cx="95.74468085106383" cy="42" r="2" fill="#4dabf7"/><circle cx="100" cy="42" r="2" fill="#4dabf7"/><circle cx="104.25531914893617" cy="42" r="2" fill="#4dabf7"/><circle cx="108.51063829787233" cy="42" r="2" fill="#4dabf7"/><circle cx="112.7659574468085" cy="66" r="2" fill="#4dabf7"/><circle cx="117.02127659574468" cy="42" r="2" fill="#4dabf7"/><circle cx="121.27659574468085" cy="42" r="2" fill="#4dabf7"/><circle cx="125.53191489361701" cy="42" r="2" fill="#4dabf7"/><circle cx="129.7872340425532" cy="66" r="2" fill="#4dabf7"/><circle cx="134.04255319148936" cy="42" r="2" fill="#4dabf7"/><circle cx="138.29787234042553" cy="42" r="2" fill="#4dabf7"/><circle cx="142.5531914893617" cy="66" r="2" fill="#4dabf7"/><circle cx="146.80851063829786" cy="42" r="2" fill="#4dabf7"/><circle cx="151.06382978723403" cy="90" r="2" fill="#4dabf7"/><circle cx="155.3191489361702" cy="42" r="2" fill="#4dabf7"/><circle cx="159.5744680851064" cy="66" r="2" fill="#4dabf7"/><circle cx="163.82978723404256" cy="66" r="2" fill="#4dabf7"/><circle cx="168.08510638297872" cy="66" r="2" fill="#4dabf7"/><circle cx="172.3404255319149" cy="42" r="2" fill="#4dabf7"/><circle cx="176.59574468085106" cy="42" r="2" fill="#ff6b6b"/><circle cx="180.85106382978722" cy="42" r="2" fill="#4dabf7"/><circle cx="185.1063829787234" cy="66" r="2" fill="#4dabf7"/><circle cx="189.36170212765958" cy="66" r="2" fill="#4dabf7"/><circle cx="193.61702127659575" cy="66" r="2" fill="#4dabf7"/><circle cx="197.87234042553192" cy="30" r="2" fill="#4dabf7"/></svg>