<svg width="300" height="120" viewBox="0 0 600 400" xmlns="http://www.w3.org/2000/svg">
    <rect width="600" height="400" fill="#ffffff"/>
    <g transform="scale(0.5)">
                                        stroke-dasharray="3,2" fill="none"/><circle cx="100" cy="337.5" r="8" fill="#666666"
                            fill="#333">Hội</text><circle cx="185" cy="400" r="8" fill="#666666"
                        fill="#333">2</text><circle cx="227.5" cy="375" r="8" fill="#666666"
                        fill="#333">3</text><circle cx="270" cy="400" r="8" fill="#666666"
                            fill="#333">xuân</text><circle cx="440" cy="375" r="8" fill="#666666"
                            fill="#333">mở</text><circle cx="525" cy="400" r="8" fill="#666666"
                        fill="#333">6</text><circle cx="567.5" cy="375" r="8" fill="#666666"
                        fill="#333">7</text><circle cx="597.5" cy="425" r="5" fill="#FFD700"
<circle cx="585" cy="462.5" r="5" fill="#FFD700"
<circle cx="610" cy="425" r="8" fill="#666666"
                            fill="#FFD700">♪</text><circle cx="780" cy="400" r="8" fill="#666666"
                                stroke-dasharray="3,2" fill="none"/><circle cx="950" cy="337.5" r="8" fill="#666666"
                                stroke-dasharray="2,2"/><circle cx="992.5" cy="400" r="8" fill="#666666"
                        fill="#333">13</text><circle cx="1107.5" cy="400" r="5" fill="#FFD700"
<circle cx="1120" cy="425" r="8" fill="#666666"
                                stroke-dasharray="3,2" fill="none"/><circle cx="1800" cy="337.5" r="8" fill="#666666"
                                stroke-dasharray="3,2" fill="none"/><circle cx="1885" cy="337.5" r="8" fill="#666666"
                                stroke-dasharray="3,2" fill="none"/><circle cx="2012.5" cy="337.5" r="8" fill="#666666"
                                stroke-dasharray="3,2" fill="none"/><circle cx="2352.5" cy="337.5" r="8" fill="#666666"
                                stroke-dasharray="3,2" fill="none"/><circle cx="2480" cy="337.5" r="8" fill="#666666"
                                stroke-dasharray="3,2" fill="none"/><circle cx="2990" cy="337.5" r="8" fill="#666666"
                                stroke-dasharray="3,2" fill="none"/><circle cx="3160" cy="337.5" r="8" fill="#666666"
    </g>
    <!-- Song name overlay -->
    <rect x="0" y="90" width="300" height="30" fill="rgba(0,128,128,0.9)"/>
    <text x="150" y="108" text-anchor="middle" fill="white" font-size="12" font-family="system-ui">
        hát chèo tàu
    </text>
</svg>