<svg width="200" height="100" xmlns="http://www.w3.org/2000/svg"><rect width="200" height="100" fill="#f8f9fa"/><circle cx="2.6315789473684212" cy="42" r="2" fill="#4dabf7"/><circle cx="7.894736842105264" cy="90" r="2" fill="#4dabf7"/><circle cx="13.157894736842106" cy="90" r="2" fill="#4dabf7"/><circle cx="18.42105263157895" cy="42" r="2" fill="#4dabf7"/><circle cx="23.68421052631579" cy="42" r="2" fill="#4dabf7"/><circle cx="28.947368421052634" cy="42" r="2" fill="#4dabf7"/><circle cx="34.21052631578948" cy="42" r="2" fill="#4dabf7"/><circle cx="39.473684210526315" cy="42" r="2" fill="#4dabf7"/><circle cx="44.736842105263165" cy="42" r="2" fill="#4dabf7"/><circle cx="50" cy="42" r="2" fill="#4dabf7"/><circle cx="55.26315789473685" cy="42" r="2" fill="#4dabf7"/><circle cx="60.526315789473685" cy="42" r="2" fill="#4dabf7"/><circle cx="65.78947368421053" cy="42" r="2" fill="#4dabf7"/><circle cx="71.05263157894738" cy="90" r="2" fill="#4dabf7"/><circle cx="76.31578947368422" cy="90" r="2" fill="#4dabf7"/><circle cx="81.57894736842105" cy="42" r="2" fill="#4dabf7"/><circle cx="86.8421052631579" cy="42" r="2" fill="#4dabf7"/><circle cx="92.10526315789475" cy="42" r="2" fill="#4dabf7"/><circle cx="97.36842105263159" cy="42" r="2" fill="#4dabf7"/><circle cx="102.63157894736842" cy="42" r="2" fill="#4dabf7"/><circle cx="107.89473684210527" cy="90" r="2" fill="#4dabf7"/><circle cx="113.15789473684212" cy="42" r="2" fill="#4dabf7"/><circle cx="118.42105263157896" cy="90" r="2" fill="#4dabf7"/><circle cx="123.6842105263158" cy="90" r="2" fill="#4dabf7"/><circle cx="128.94736842105263" cy="42" r="2" fill="#4dabf7"/><circle cx="134.21052631578948" cy="42" r="2" fill="#4dabf7"/><circle cx="139.47368421052633" cy="90" r="2" fill="#4dabf7"/><circle cx="144.73684210526315" cy="42" r="2" fill="#4dabf7"/><circle cx="150" cy="42" r="2" fill="#4dabf7"/><circle cx="155.26315789473685" cy="42" r="2" fill="#4dabf7"/><circle cx="160.52631578947367" cy="42" r="2" fill="#4dabf7"/><circle cx="165.78947368421052" cy="42" r="2" fill="#4dabf7"/><circle cx="171.05263157894737" cy="42" r="2" fill="#4dabf7"/><circle cx="176.31578947368422" cy="42" r="2" fill="#4dabf7"/><circle cx="181.57894736842107" cy="90" r="2" fill="#4dabf7"/><circle cx="186.8421052631579" cy="42" r="2" fill="#4dabf7"/><circle cx="192.10526315789474" cy="90" r="2" fill="#4dabf7"/><circle cx="197.3684210526316" cy="90" r="2" fill="#4dabf7"/></svg>