<svg width="200" height="100" xmlns="http://www.w3.org/2000/svg"><rect width="200" height="100" fill="#f8f9fa"/><circle cx="4" cy="42" r="2" fill="#4dabf7"/><circle cx="12" cy="42" r="2" fill="#4dabf7"/><circle cx="20" cy="42" r="2" fill="#4dabf7"/><circle cx="28" cy="42" r="2" fill="#4dabf7"/><circle cx="36" cy="42" r="2" fill="#4dabf7"/><circle cx="44" cy="42" r="2" fill="#4dabf7"/><circle cx="52" cy="42" r="2" fill="#4dabf7"/><circle cx="60" cy="66" r="2" fill="#ff6b6b"/><circle cx="68" cy="42" r="2" fill="#4dabf7"/><circle cx="76" cy="42" r="2" fill="#4dabf7"/><circle cx="84" cy="42" r="2" fill="#4dabf7"/><circle cx="92" cy="42" r="2" fill="#4dabf7"/><circle cx="100" cy="42" r="2" fill="#4dabf7"/><circle cx="108" cy="42" r="2" fill="#4dabf7"/><circle cx="116" cy="66" r="2" fill="#ff6b6b"/><circle cx="124" cy="42" r="2" fill="#4dabf7"/><circle cx="132" cy="42" r="2" fill="#4dabf7"/><circle cx="140" cy="42" r="2" fill="#ff6b6b"/><circle cx="148" cy="66" r="2" fill="#4dabf7"/><circle cx="156" cy="42" r="2" fill="#4dabf7"/><circle cx="164" cy="42" r="2" fill="#4dabf7"/><circle cx="172" cy="42" r="2" fill="#4dabf7"/><circle cx="180" cy="42" r="2" fill="#4dabf7"/><circle cx="188" cy="42" r="2" fill="#4dabf7"/><circle cx="196" cy="42" r="2" fill="#4dabf7"/></svg>