<svg width="200" height="100" xmlns="http://www.w3.org/2000/svg"><rect width="200" height="100" fill="#f8f9fa"/><circle cx="5" cy="42" r="2" fill="#4dabf7"/><circle cx="15" cy="42" r="2" fill="#4dabf7"/><circle cx="25" cy="42" r="2" fill="#4dabf7"/><circle cx="35" cy="66" r="2" fill="#4dabf7"/><circle cx="45" cy="42" r="2" fill="#4dabf7"/><circle cx="55" cy="42" r="2" fill="#4dabf7"/><circle cx="65" cy="90" r="2" fill="#4dabf7"/><circle cx="75" cy="42" r="2" fill="#4dabf7"/><circle cx="85" cy="42" r="2" fill="#4dabf7"/><circle cx="95" cy="42" r="2" fill="#4dabf7"/><circle cx="105" cy="42" r="2" fill="#4dabf7"/><circle cx="115" cy="90" r="2" fill="#4dabf7"/><circle cx="125" cy="42" r="2" fill="#4dabf7"/><circle cx="135" cy="42" r="2" fill="#4dabf7"/><circle cx="145" cy="42" r="2" fill="#4dabf7"/><circle cx="155" cy="90" r="2" fill="#4dabf7"/><circle cx="165" cy="42" r="2" fill="#4dabf7"/><circle cx="175" cy="66" r="2" fill="#4dabf7"/><circle cx="185" cy="54" r="2" fill="#4dabf7"/><circle cx="195" cy="30" r="2" fill="#4dabf7"/></svg>