<?xml version="1.0" encoding="UTF-8"?>
<svg width="4760" height="800" xmlns="http://www.w3.org/2000/svg">
    <defs>
        <style>
            .string-line { stroke: #333; stroke-width: 3; }
            .string-label { font-family: Arial; font-size: 14px; font-weight: bold; fill: #2c3e50; }
            .note-circle { fill: #008080; stroke: #005959; stroke-width: 2; }
            .note-text { font-family: Arial; font-size: 10px; font-weight: bold; fill: white; text-anchor: middle; }
            .grace-note { fill: #FFD700; stroke: #CC9900; }
            .bent-note { fill: #E67E22; stroke: #D35400; }
            .lyric-text { font-family: Arial; font-size: 12px; fill: #2c3e50; }
            .resonance-band { fill: #008080; opacity: 0.3; }
        </style>
    </defs>

    <!-- Title -->
    <text x="10" y="30" style="font-size: 20px; font-weight: bold; fill: #2c3e50;">NHẮN CÔ BÊN SÔNG</text>
    <text x="10" y="50" style="font-size: 14px; fill: #666;">Tuning: C-D-E-G-A | 114 notes | Traditional</text>

    <!-- String Lines -->
    <line x1="100" y1="100" x2="4740" y2="100" class="string-line"/>
    <line x1="100" y1="125" x2="4740" y2="125" class="string-line"/>
    <line x1="100" y1="150" x2="4740" y2="150" class="string-line"/>
    <line x1="100" y1="187.5" x2="4740" y2="187.5" class="string-line"/>
    <line x1="100" y1="212.5" x2="4740" y2="212.5" class="string-line"/>
    <line x1="100" y1="250" x2="4740" y2="250" class="string-line"/>
    <line x1="100" y1="275" x2="4740" y2="275" class="string-line"/>
    <line x1="100" y1="300" x2="4740" y2="300" class="string-line"/>
    <line x1="100" y1="337.5" x2="4740" y2="337.5" class="string-line"/>
    <line x1="100" y1="362.5" x2="4740" y2="362.5" class="string-line"/>
    <line x1="100" y1="400" x2="4740" y2="400" class="string-line"/>
    <line x1="100" y1="425" x2="4740" y2="425" class="string-line"/>
    <line x1="100" y1="450" x2="4740" y2="450" class="string-line"/>
    <line x1="100" y1="487.5" x2="4740" y2="487.5" class="string-line"/>
    <line x1="100" y1="512.5" x2="4740" y2="512.5" class="string-line"/>
    <line x1="100" y1="550" x2="4740" y2="550" class="string-line"/>
    <line x1="100" y1="575" x2="4740" y2="575" class="string-line"/>

    <!-- String Labels -->
    <text x="50" y="105" class="string-label">C3</text>
    <text x="50" y="130" class="string-label">D3</text>
    <text x="50" y="155" class="string-label">E3</text>
    <text x="50" y="192.5" class="string-label">G3</text>
    <text x="50" y="217.5" class="string-label">A3</text>
    <text x="50" y="255" class="string-label">C4</text>
    <text x="50" y="280" class="string-label">D4</text>
    <text x="50" y="305" class="string-label">E4</text>
    <text x="50" y="342.5" class="string-label">G4</text>
    <text x="50" y="367.5" class="string-label">A4</text>
    <text x="50" y="405" class="string-label">C5</text>
    <text x="50" y="430" class="string-label">D5</text>
    <text x="50" y="455" class="string-label">E5</text>
    <text x="50" y="492.5" class="string-label">G5</text>
    <text x="50" y="517.5" class="string-label">A5</text>
    <text x="50" y="555" class="string-label">C6</text>
    <text x="50" y="580" class="string-label">D6</text>

    <!-- Notes -->
    <rect x="-10" y="423.5" width="320" height="3" class="resonance-band"/>
    <circle cx="150" cy="425" r="12" class="note-circle"/>
    <text x="150" y="429" class="note-text">12</text>
    <rect x="30" y="448.5" width="320" height="3" class="resonance-band"/>
    <circle cx="190" cy="450" r="12" class="note-circle"/>
    <text x="190" y="454" class="note-text">13</text>
    <rect x="70" y="423.5" width="320" height="3" class="resonance-band"/>
    <circle cx="230" cy="425" r="12" class="note-circle"/>
    <text x="230" y="429" class="note-text">12</text>
    <rect x="110" y="361" width="320" height="3" class="resonance-band"/>
    <circle cx="270" cy="362.5" r="12" class="note-circle"/>
    <text x="270" y="366.5" class="note-text">10</text>
    <rect x="150" y="423.5" width="320" height="3" class="resonance-band"/>
    <circle cx="310" cy="425" r="12" class="note-circle"/>
    <text x="310" y="429" class="note-text">12</text>
    <rect x="190" y="423.5" width="320" height="3" class="resonance-band"/>
    <circle cx="350" cy="425" r="12" class="note-circle"/>
    <text x="350" y="429" class="note-text">12</text>
    <rect x="230" y="423.5" width="320" height="3" class="resonance-band"/>
    <circle cx="390" cy="425" r="12" class="note-circle"/>
    <text x="390" y="429" class="note-text">12</text>
    <rect x="270" y="423.5" width="320" height="3" class="resonance-band"/>
    <circle cx="430" cy="425" r="6" class="grace-note"/>
    <rect x="310" y="448.5" width="320" height="3" class="resonance-band"/>
    <circle cx="470" cy="450" r="6" class="grace-note"/>
    <rect x="350" y="423.5" width="320" height="3" class="resonance-band"/>
    <circle cx="510" cy="425" r="12" class="note-circle"/>
    <text x="510" y="429" class="note-text">12</text>
    <rect x="390" y="423.5" width="320" height="3" class="resonance-band"/>
    <circle cx="550" cy="425" r="12" class="note-circle"/>
    <text x="550" y="429" class="note-text">12</text>
    <rect x="430" y="448.5" width="320" height="3" class="resonance-band"/>
    <circle cx="590" cy="450" r="6" class="grace-note"/>
    <rect x="470" y="423.5" width="320" height="3" class="resonance-band"/>
    <circle cx="630" cy="425" r="12" class="note-circle"/>
    <text x="630" y="429" class="note-text">12</text>
    <rect x="510" y="423.5" width="320" height="3" class="resonance-band"/>
    <circle cx="670" cy="425" r="12" class="note-circle"/>
    <text x="670" y="429" class="note-text">12</text>
    <rect x="550" y="448.5" width="320" height="3" class="resonance-band"/>
    <circle cx="710" cy="450" r="6" class="grace-note"/>
    <rect x="590" y="423.5" width="320" height="3" class="resonance-band"/>
    <circle cx="750" cy="425" r="12" class="note-circle"/>
    <text x="750" y="429" class="note-text">12</text>
    <rect x="630" y="361" width="320" height="3" class="resonance-band"/>
    <circle cx="790" cy="362.5" r="12" class="note-circle"/>
    <text x="790" y="366.5" class="note-text">10</text>
    <rect x="670" y="336" width="320" height="3" class="resonance-band"/>
    <circle cx="830" cy="337.5" r="12" class="note-circle"/>
    <text x="830" y="341.5" class="note-text">9</text>
    <rect x="710" y="273.5" width="320" height="3" class="resonance-band"/>
    <circle cx="870" cy="275" r="12" class="note-circle"/>
    <text x="870" y="279" class="note-text">7</text>
    <rect x="750" y="273.5" width="320" height="3" class="resonance-band"/>
    <circle cx="910" cy="275" r="12" class="note-circle"/>
    <text x="910" y="279" class="note-text">7</text>
    <rect x="790" y="273.5" width="320" height="3" class="resonance-band"/>
    <circle cx="950" cy="275" r="6" class="grace-note"/>
    <rect x="830" y="298.5" width="320" height="3" class="resonance-band"/>
    <circle cx="990" cy="300" r="6" class="grace-note"/>
    <rect x="870" y="273.5" width="320" height="3" class="resonance-band"/>
    <circle cx="1030" cy="275" r="12" class="note-circle"/>
    <text x="1030" y="279" class="note-text">7</text>
    <rect x="910" y="273.5" width="320" height="3" class="resonance-band"/>
    <circle cx="1070" cy="275" r="12" class="note-circle"/>
    <text x="1070" y="279" class="note-text">7</text>
    <rect x="950" y="273.5" width="320" height="3" class="resonance-band"/>
    <circle cx="1110" cy="275" r="12" class="note-circle"/>
    <text x="1110" y="279" class="note-text">7</text>
    <rect x="990" y="273.5" width="320" height="3" class="resonance-band"/>
    <circle cx="1150" cy="275" r="12" class="note-circle"/>
    <text x="1150" y="279" class="note-text">7</text>
    <rect x="1030" y="336" width="320" height="3" class="resonance-band"/>
    <circle cx="1190" cy="337.5" r="12" class="note-circle"/>
    <text x="1190" y="341.5" class="note-text">9</text>
    <rect x="1070" y="361" width="320" height="3" class="resonance-band"/>
    <circle cx="1230" cy="362.5" r="12" class="note-circle"/>
    <text x="1230" y="366.5" class="note-text">10</text>
    <rect x="1110" y="386" width="320" height="3" class="resonance-band"/>
    <circle cx="1270" cy="387.5" r="12" class="bent-note"/>
    <rect x="1150" y="361" width="320" height="3" class="resonance-band"/>
    <circle cx="1310" cy="362.5" r="12" class="note-circle"/>
    <text x="1310" y="366.5" class="note-text">10</text>
    <rect x="1190" y="336" width="320" height="3" class="resonance-band"/>
    <circle cx="1350" cy="337.5" r="12" class="note-circle"/>
    <text x="1350" y="341.5" class="note-text">9</text>
    <rect x="1230" y="386" width="320" height="3" class="resonance-band"/>
    <circle cx="1390" cy="387.5" r="12" class="bent-note"/>
    <rect x="1270" y="423.5" width="320" height="3" class="resonance-band"/>
    <circle cx="1430" cy="425" r="12" class="note-circle"/>
    <text x="1430" y="429" class="note-text">12</text>
    <rect x="1310" y="386" width="320" height="3" class="resonance-band"/>
    <circle cx="1470" cy="387.5" r="12" class="bent-note"/>
    <rect x="1350" y="361" width="320" height="3" class="resonance-band"/>
    <circle cx="1510" cy="362.5" r="12" class="note-circle"/>
    <text x="1510" y="366.5" class="note-text">10</text>
    <rect x="1390" y="423.5" width="320" height="3" class="resonance-band"/>
    <circle cx="1550" cy="425" r="12" class="note-circle"/>
    <text x="1550" y="429" class="note-text">12</text>
    <rect x="1430" y="423.5" width="320" height="3" class="resonance-band"/>
    <circle cx="1590" cy="425" r="12" class="note-circle"/>
    <text x="1590" y="429" class="note-text">12</text>
    <rect x="1470" y="361" width="320" height="3" class="resonance-band"/>
    <circle cx="1630" cy="362.5" r="12" class="note-circle"/>
    <text x="1630" y="366.5" class="note-text">10</text>
    <rect x="1510" y="423.5" width="320" height="3" class="resonance-band"/>
    <circle cx="1670" cy="425" r="12" class="note-circle"/>
    <text x="1670" y="429" class="note-text">12</text>
    <rect x="1550" y="386" width="320" height="3" class="resonance-band"/>
    <circle cx="1710" cy="387.5" r="12" class="bent-note"/>
    <rect x="1590" y="361" width="320" height="3" class="resonance-band"/>
    <circle cx="1750" cy="362.5" r="12" class="note-circle"/>
    <text x="1750" y="366.5" class="note-text">10</text>
    <rect x="1630" y="336" width="320" height="3" class="resonance-band"/>
    <circle cx="1790" cy="337.5" r="6" class="grace-note"/>
    <rect x="1670" y="361" width="320" height="3" class="resonance-band"/>
    <circle cx="1830" cy="362.5" r="12" class="note-circle"/>
    <text x="1830" y="366.5" class="note-text">10</text>
    <rect x="1710" y="336" width="320" height="3" class="resonance-band"/>
    <circle cx="1870" cy="337.5" r="12" class="note-circle"/>
    <text x="1870" y="341.5" class="note-text">9</text>
    <rect x="1750" y="273.5" width="320" height="3" class="resonance-band"/>
    <circle cx="1910" cy="275" r="12" class="note-circle"/>
    <text x="1910" y="279" class="note-text">7</text>
    <rect x="1790" y="273.5" width="320" height="3" class="resonance-band"/>
    <circle cx="1950" cy="275" r="12" class="note-circle"/>
    <text x="1950" y="279" class="note-text">7</text>
    <rect x="1830" y="361" width="320" height="3" class="resonance-band"/>
    <circle cx="1990" cy="362.5" r="6" class="grace-note"/>
    <rect x="1870" y="386" width="320" height="3" class="resonance-band"/>
    <circle cx="2030" cy="387.5" r="12" class="bent-note"/>
    <rect x="1910" y="273.5" width="320" height="3" class="resonance-band"/>
    <circle cx="2070" cy="275" r="12" class="note-circle"/>
    <text x="2070" y="279" class="note-text">7</text>
    <rect x="1950" y="336" width="320" height="3" class="resonance-band"/>
    <circle cx="2110" cy="337.5" r="12" class="note-circle"/>
    <text x="2110" y="341.5" class="note-text">9</text>
    <rect x="1990" y="361" width="320" height="3" class="resonance-band"/>
    <circle cx="2150" cy="362.5" r="12" class="note-circle"/>
    <text x="2150" y="366.5" class="note-text">10</text>
    <rect x="2030" y="386" width="320" height="3" class="resonance-band"/>
    <circle cx="2190" cy="387.5" r="12" class="bent-note"/>
    <rect x="2070" y="361" width="320" height="3" class="resonance-band"/>
    <circle cx="2230" cy="362.5" r="12" class="note-circle"/>
    <text x="2230" y="366.5" class="note-text">10</text>
    <rect x="2110" y="336" width="320" height="3" class="resonance-band"/>
    <circle cx="2270" cy="337.5" r="12" class="note-circle"/>
    <text x="2270" y="341.5" class="note-text">9</text>
    <rect x="2150" y="423.5" width="320" height="3" class="resonance-band"/>
    <circle cx="2310" cy="425" r="12" class="note-circle"/>
    <text x="2310" y="429" class="note-text">12</text>
    <rect x="2190" y="448.5" width="320" height="3" class="resonance-band"/>
    <circle cx="2350" cy="450" r="12" class="note-circle"/>
    <text x="2350" y="454" class="note-text">13</text>
    <rect x="2230" y="423.5" width="320" height="3" class="resonance-band"/>
    <circle cx="2390" cy="425" r="12" class="note-circle"/>
    <text x="2390" y="429" class="note-text">12</text>
    <rect x="2270" y="361" width="320" height="3" class="resonance-band"/>
    <circle cx="2430" cy="362.5" r="12" class="note-circle"/>
    <text x="2430" y="366.5" class="note-text">10</text>
    <rect x="2310" y="423.5" width="320" height="3" class="resonance-band"/>
    <circle cx="2470" cy="425" r="12" class="note-circle"/>
    <text x="2470" y="429" class="note-text">12</text>
    <rect x="2350" y="448.5" width="320" height="3" class="resonance-band"/>
    <circle cx="2510" cy="450" r="12" class="note-circle"/>
    <text x="2510" y="454" class="note-text">13</text>
    <rect x="2390" y="423.5" width="320" height="3" class="resonance-band"/>
    <circle cx="2550" cy="425" r="12" class="note-circle"/>
    <text x="2550" y="429" class="note-text">12</text>
    <rect x="2430" y="361" width="320" height="3" class="resonance-band"/>
    <circle cx="2590" cy="362.5" r="6" class="grace-note"/>
    <rect x="2470" y="423.5" width="320" height="3" class="resonance-band"/>
    <circle cx="2630" cy="425" r="12" class="note-circle"/>
    <text x="2630" y="429" class="note-text">12</text>
    <rect x="2510" y="423.5" width="320" height="3" class="resonance-band"/>
    <circle cx="2670" cy="425" r="12" class="note-circle"/>
    <text x="2670" y="429" class="note-text">12</text>
    <rect x="2550" y="423.5" width="320" height="3" class="resonance-band"/>
    <circle cx="2710" cy="425" r="12" class="note-circle"/>
    <text x="2710" y="429" class="note-text">12</text>
    <rect x="2590" y="448.5" width="320" height="3" class="resonance-band"/>
    <circle cx="2750" cy="450" r="12" class="note-circle"/>
    <text x="2750" y="454" class="note-text">13</text>
    <rect x="2630" y="423.5" width="320" height="3" class="resonance-band"/>
    <circle cx="2790" cy="425" r="12" class="note-circle"/>
    <text x="2790" y="429" class="note-text">12</text>
    <rect x="2670" y="361" width="320" height="3" class="resonance-band"/>
    <circle cx="2830" cy="362.5" r="12" class="note-circle"/>
    <text x="2830" y="366.5" class="note-text">10</text>
    <rect x="2710" y="423.5" width="320" height="3" class="resonance-band"/>
    <circle cx="2870" cy="425" r="12" class="note-circle"/>
    <text x="2870" y="429" class="note-text">12</text>
    <rect x="2750" y="273.5" width="320" height="3" class="resonance-band"/>
    <circle cx="2910" cy="275" r="12" class="note-circle"/>
    <text x="2910" y="279" class="note-text">7</text>
    <rect x="2790" y="273.5" width="320" height="3" class="resonance-band"/>
    <circle cx="2950" cy="275" r="6" class="grace-note"/>
    <rect x="2830" y="336" width="320" height="3" class="resonance-band"/>
    <circle cx="2990" cy="337.5" r="12" class="note-circle"/>
    <text x="2990" y="341.5" class="note-text">9</text>
    <rect x="2870" y="273.5" width="320" height="3" class="resonance-band"/>
    <circle cx="3030" cy="275" r="12" class="note-circle"/>
    <text x="3030" y="279" class="note-text">7</text>
    <rect x="2910" y="336" width="320" height="3" class="resonance-band"/>
    <circle cx="3070" cy="337.5" r="12" class="note-circle"/>
    <text x="3070" y="341.5" class="note-text">9</text>
    <rect x="2950" y="361" width="320" height="3" class="resonance-band"/>
    <circle cx="3110" cy="362.5" r="12" class="note-circle"/>
    <text x="3110" y="366.5" class="note-text">10</text>
    <rect x="2990" y="386" width="320" height="3" class="resonance-band"/>
    <circle cx="3150" cy="387.5" r="12" class="bent-note"/>
    <rect x="3030" y="361" width="320" height="3" class="resonance-band"/>
    <circle cx="3190" cy="362.5" r="12" class="note-circle"/>
    <text x="3190" y="366.5" class="note-text">10</text>
    <rect x="3070" y="361" width="320" height="3" class="resonance-band"/>
    <circle cx="3230" cy="362.5" r="12" class="note-circle"/>
    <text x="3230" y="366.5" class="note-text">10</text>
    <rect x="3110" y="423.5" width="320" height="3" class="resonance-band"/>
    <circle cx="3270" cy="425" r="12" class="note-circle"/>
    <text x="3270" y="429" class="note-text">12</text>
    <rect x="3150" y="448.5" width="320" height="3" class="resonance-band"/>
    <circle cx="3310" cy="450" r="12" class="note-circle"/>
    <text x="3310" y="454" class="note-text">13</text>
    <rect x="3190" y="423.5" width="320" height="3" class="resonance-band"/>
    <circle cx="3350" cy="425" r="12" class="note-circle"/>
    <text x="3350" y="429" class="note-text">12</text>
    <rect x="3230" y="361" width="320" height="3" class="resonance-band"/>
    <circle cx="3390" cy="362.5" r="12" class="note-circle"/>
    <text x="3390" y="366.5" class="note-text">10</text>
    <rect x="3270" y="273.5" width="320" height="3" class="resonance-band"/>
    <circle cx="3430" cy="275" r="12" class="note-circle"/>
    <text x="3430" y="279" class="note-text">7</text>
    <rect x="3310" y="273.5" width="320" height="3" class="resonance-band"/>
    <circle cx="3470" cy="275" r="6" class="grace-note"/>
    <rect x="3350" y="336" width="320" height="3" class="resonance-band"/>
    <circle cx="3510" cy="337.5" r="12" class="note-circle"/>
    <text x="3510" y="341.5" class="note-text">9</text>
    <rect x="3390" y="336" width="320" height="3" class="resonance-band"/>
    <circle cx="3550" cy="337.5" r="12" class="note-circle"/>
    <text x="3550" y="341.5" class="note-text">9</text>
    <rect x="3430" y="386" width="320" height="3" class="resonance-band"/>
    <circle cx="3590" cy="387.5" r="12" class="bent-note"/>
    <rect x="3470" y="361" width="320" height="3" class="resonance-band"/>
    <circle cx="3630" cy="362.5" r="12" class="note-circle"/>
    <text x="3630" y="366.5" class="note-text">10</text>
    <rect x="3510" y="336" width="320" height="3" class="resonance-band"/>
    <circle cx="3670" cy="337.5" r="12" class="note-circle"/>
    <text x="3670" y="341.5" class="note-text">9</text>
    <rect x="3550" y="273.5" width="320" height="3" class="resonance-band"/>
    <circle cx="3710" cy="275" r="12" class="note-circle"/>
    <text x="3710" y="279" class="note-text">7</text>
    <rect x="3590" y="273.5" width="320" height="3" class="resonance-band"/>
    <circle cx="3750" cy="275" r="12" class="note-circle"/>
    <text x="3750" y="279" class="note-text">7</text>
    <rect x="3630" y="273.5" width="320" height="3" class="resonance-band"/>
    <circle cx="3790" cy="275" r="12" class="note-circle"/>
    <text x="3790" y="279" class="note-text">7</text>
    <rect x="3670" y="336" width="320" height="3" class="resonance-band"/>
    <circle cx="3830" cy="337.5" r="12" class="note-circle"/>
    <text x="3830" y="341.5" class="note-text">9</text>
    <rect x="3710" y="273.5" width="320" height="3" class="resonance-band"/>
    <circle cx="3870" cy="275" r="12" class="note-circle"/>
    <text x="3870" y="279" class="note-text">7</text>
    <rect x="3750" y="298.5" width="320" height="3" class="resonance-band"/>
    <circle cx="3910" cy="300" r="12" class="note-circle"/>
    <text x="3910" y="304" class="note-text">8</text>
    <rect x="3790" y="273.5" width="320" height="3" class="resonance-band"/>
    <circle cx="3950" cy="275" r="12" class="note-circle"/>
    <text x="3950" y="279" class="note-text">7</text>
    <rect x="3830" y="336" width="320" height="3" class="resonance-band"/>
    <circle cx="3990" cy="337.5" r="12" class="note-circle"/>
    <text x="3990" y="341.5" class="note-text">9</text>
    <rect x="3870" y="361" width="320" height="3" class="resonance-band"/>
    <circle cx="4030" cy="362.5" r="12" class="note-circle"/>
    <text x="4030" y="366.5" class="note-text">10</text>
    <rect x="3910" y="361" width="320" height="3" class="resonance-band"/>
    <circle cx="4070" cy="362.5" r="12" class="note-circle"/>
    <text x="4070" y="366.5" class="note-text">10</text>
    <rect x="3950" y="298.5" width="320" height="3" class="resonance-band"/>
    <circle cx="4110" cy="300" r="12" class="note-circle"/>
    <text x="4110" y="304" class="note-text">8</text>
    <rect x="3990" y="361" width="320" height="3" class="resonance-band"/>
    <circle cx="4150" cy="362.5" r="12" class="note-circle"/>
    <text x="4150" y="366.5" class="note-text">10</text>
    <rect x="4030" y="361" width="320" height="3" class="resonance-band"/>
    <circle cx="4190" cy="362.5" r="12" class="note-circle"/>
    <text x="4190" y="366.5" class="note-text">10</text>
    <rect x="4070" y="386" width="320" height="3" class="resonance-band"/>
    <circle cx="4230" cy="387.5" r="12" class="bent-note"/>
    <rect x="4110" y="361" width="320" height="3" class="resonance-band"/>
    <circle cx="4270" cy="362.5" r="12" class="note-circle"/>
    <text x="4270" y="366.5" class="note-text">10</text>
    <rect x="4150" y="386" width="320" height="3" class="resonance-band"/>
    <circle cx="4310" cy="387.5" r="12" class="bent-note"/>
    <rect x="4190" y="361" width="320" height="3" class="resonance-band"/>
    <circle cx="4350" cy="362.5" r="12" class="note-circle"/>
    <text x="4350" y="366.5" class="note-text">10</text>
    <rect x="4230" y="386" width="320" height="3" class="resonance-band"/>
    <circle cx="4390" cy="387.5" r="12" class="bent-note"/>
    <rect x="4270" y="361" width="320" height="3" class="resonance-band"/>
    <circle cx="4430" cy="362.5" r="12" class="note-circle"/>
    <text x="4430" y="366.5" class="note-text">10</text>
    <rect x="4310" y="423.5" width="320" height="3" class="resonance-band"/>
    <circle cx="4470" cy="425" r="12" class="note-circle"/>
    <text x="4470" y="429" class="note-text">12</text>
    <rect x="4350" y="386" width="320" height="3" class="resonance-band"/>
    <circle cx="4510" cy="387.5" r="12" class="bent-note"/>
    <rect x="4390" y="386" width="320" height="3" class="resonance-band"/>
    <circle cx="4550" cy="387.5" r="12" class="bent-note"/>
    <rect x="4430" y="386" width="320" height="3" class="resonance-band"/>
    <circle cx="4590" cy="387.5" r="12" class="bent-note"/>
    <rect x="4470" y="361" width="320" height="3" class="resonance-band"/>
    <circle cx="4630" cy="362.5" r="12" class="note-circle"/>
    <text x="4630" y="366.5" class="note-text">10</text>
    <rect x="4510" y="361" width="320" height="3" class="resonance-band"/>
    <circle cx="4670" cy="362.5" r="12" class="note-circle"/>
    <text x="4670" y="366.5" class="note-text">10</text>
    

    <!-- Lyrics -->
    <text x="150" y="465" class="lyric-text">Qua</text>
    <text x="190" y="490" class="lyric-text">bức</text>
    <text x="270" y="402.5" class="lyric-text">kỳ</text>
    <text x="310" y="465" class="lyric-text">anh</text>
    <text x="350" y="465" class="lyric-text">đi</text>
    <text x="390" y="465" class="lyric-text">chơi</text>
    <text x="510" y="465" class="lyric-text">phố,</text>
    <text x="550" y="465" class="lyric-text">anh</text>
    <text x="630" y="465" class="lyric-text">thấy</text>
    <text x="670" y="465" class="lyric-text">cô</text>
    <text x="750" y="465" class="lyric-text">nữ</text>
    <text x="790" y="402.5" class="lyric-text">ăn</text>
    <text x="870" y="315" class="lyric-text">mặc</text>
    <text x="910" y="315" class="lyric-text">lịch</text>
    <text x="1030" y="315" class="lyric-text">sự</text>
    <text x="1070" y="315" class="lyric-text">mà</text>
    <text x="1110" y="315" class="lyric-text">lòng</text>
    <text x="1150" y="315" class="lyric-text">càng</text>
    <text x="1230" y="402.5" class="lyric-text">thêm</text>
    <text x="1350" y="377.5" class="lyric-text">yêu.</text>
    <text x="1390" y="427.5" class="lyric-text">Cả</text>
    <text x="1470" y="427.5" class="lyric-text">đầu</text>
    <text x="1550" y="465" class="lyric-text">treo</text>
    <text x="1590" y="465" class="lyric-text">đeo</text>
    <text x="1630" y="402.5" class="lyric-text">giải</text>
    <text x="1710" y="427.5" class="lyric-text">yếm</text>
    <text x="1830" y="402.5" class="lyric-text">điều,</text>
    <text x="1870" y="377.5" class="lyric-text">cái</text>
    <text x="1910" y="315" class="lyric-text">bộ</text>
    <text x="1950" y="315" class="lyric-text">xà</text>
    <text x="2030" y="427.5" class="lyric-text">tích</text>
    <text x="2070" y="315" class="lyric-text">mà</text>
    <text x="2150" y="402.5" class="lyric-text">em</text>
    <text x="2270" y="377.5" class="lyric-text">đeo.</text>
    <text x="2310" y="465" class="lyric-text">Dây</text>
    <text x="2350" y="490" class="lyric-text">lưng</text>
    <text x="2430" y="402.5" class="lyric-text">điều,</text>
    <text x="2470" y="465" class="lyric-text">khăn</text>
    <text x="2510" y="490" class="lyric-text">mỏ</text>
    <text x="2630" y="465" class="lyric-text">quạ,</text>
    <text x="2670" y="465" class="lyric-text">dây</text>
    <text x="2710" y="465" class="lyric-text">lưng</text>
    <text x="2750" y="490" class="lyric-text">cánh</text>
    <text x="2830" y="402.5" class="lyric-text">trả</text>
    <text x="2910" y="315" class="lyric-text">vành</text>
    <text x="2990" y="377.5" class="lyric-text">vạnh</text>
    <text x="3030" y="315" class="lyric-text">mà</text>
    <text x="3110" y="402.5" class="lyric-text">hoa</text>
    <text x="3230" y="402.5" class="lyric-text">tai.</text>
    <text x="3270" y="465" class="lyric-text">Áo</text>
    <text x="3310" y="490" class="lyric-text">bán</text>
    <text x="3390" y="402.5" class="lyric-text">giàng</text>
    <text x="3430" y="315" class="lyric-text">mà</text>
    <text x="3510" y="377.5" class="lyric-text">lại</text>
    <text x="3550" y="377.5" class="lyric-text">vá</text>
    <text x="3630" y="402.5" class="lyric-text">vai,</text>
    <text x="3670" y="377.5" class="lyric-text">cái</text>
    <text x="3710" y="315" class="lyric-text">bộ</text>
    <text x="3750" y="315" class="lyric-text">bằng</text>
    <text x="3790" y="315" class="lyric-text">ngà,</text>
    <text x="3830" y="377.5" class="lyric-text">mắt</text>
    <text x="3870" y="315" class="lyric-text">phượng</text>
    <text x="3910" y="340" class="lyric-text">em</text>
    <text x="3950" y="315" class="lyric-text">nhìn</text>
    <text x="4030" y="402.5" class="lyric-text">ai</text>
    <text x="4070" y="402.5" class="lyric-text">mắt</text>
    <text x="4110" y="340" class="lyric-text">phượng</text>
    <text x="4150" y="402.5" class="lyric-text">em</text>
    <text x="4190" y="402.5" class="lyric-text">liếc</text>
    <text x="4270" y="402.5" class="lyric-text">ai,</text>
    <text x="4310" y="427.5" class="lyric-text">lúng</text>
    <text x="4350" y="402.5" class="lyric-text">la</text>
    <text x="4390" y="427.5" class="lyric-text">lúng</text>
    <text x="4470" y="465" class="lyric-text">lính</text>
    <text x="4510" y="427.5" class="lyric-text">như</text>
    <text x="4550" y="427.5" class="lyric-text">ngôi</text>
    <text x="4590" y="427.5" class="lyric-text">sao</text>
    <text x="4670" y="402.5" class="lyric-text">mai.</text>
    
</svg>