<svg width="300" height="120" viewBox="0 0 600 400" xmlns="http://www.w3.org/2000/svg">
    <rect width="600" height="400" fill="#ffffff"/>
    <g transform="scale(0.5)">
        <circle cx="100" cy="375" r="8" fill="#666666"
                            fill="#333">Ê......</text><circle cx="767.5" cy="312.5" r="5" fill="#FFD700"
<circle cx="755" cy="287.5" r="5" fill="#FFD700"
<circle cx="780" cy="312.5" r="8" fill="#666666"
                            fill="#FFD700">♪</text><circle cx="852.5" cy="287.5" r="5" fill="#FFD700"
<circle cx="865" cy="312.5" r="8" fill="#666666"
                            fill="#FFD700">♪</text><circle cx="937.5" cy="287.5" r="5" fill="#FFD700"
<circle cx="950" cy="312.5" r="8" fill="#666666"
                            fill="#FFD700">♪</text><circle cx="1120" cy="287.5" r="8" fill="#666666"
                        fill="#333">9</text><circle cx="1192.5" cy="262.5" r="5" fill="#FFD700"
<circle cx="1205" cy="287.5" r="8" fill="#666666"
                            fill="#FFD700">♪</text><circle cx="1235" cy="262.5" r="5" fill="#FFD700"
<circle cx="1247.5" cy="287.5" r="8" fill="#666666"
                            fill="#FFD700">♪</text><circle cx="1277.5" cy="262.5" r="5" fill="#FFD700"
<circle cx="1290" cy="287.5" r="8" fill="#666666"
                                stroke-dasharray="3,2" fill="none"/><circle cx="1417.5" cy="262.5" r="8" fill="#666666"
                                stroke-dasharray="3,2" fill="none"/><circle cx="1502.5" cy="262.5" r="8" fill="#666666"
                                stroke-dasharray="3,2" fill="none"/><circle cx="2607.5" cy="262.5" r="8" fill="#666666"
                                stroke-dasharray="3,2" fill="none"/><circle cx="4775" cy="262.5" r="8" fill="#666666"
                                stroke-dasharray="3,2" fill="none"/><circle cx="4945" cy="262.5" r="8" fill="#666666"
                                stroke-dasharray="3,2" fill="none"/><circle cx="5285" cy="250" r="8" fill="#666666"
                                stroke-dasharray="3,2" fill="none"/><circle cx="5412.5" cy="262.5" r="8" fill="#666666"
                                stroke-dasharray="3,2" fill="none"/><circle cx="5497.5" cy="262.5" r="8" fill="#666666"
                                stroke-dasharray="3,2" fill="none"/><circle cx="5667.5" cy="262.5" r="8" fill="#666666"
    </g>
    <!-- Song name overlay -->
    <rect x="0" y="90" width="300" height="30" fill="rgba(0,128,128,0.9)"/>
    <text x="150" y="108" text-anchor="middle" fill="white" font-size="12" font-family="system-ui">
        tampot
    </text>
</svg>