<?xml version="1.0" encoding="UTF-8"?>
<svg width="7640" height="800" xmlns="http://www.w3.org/2000/svg">
    <defs>
        <style>
            .string-line { stroke: #333; stroke-width: 3; }
            .string-label { font-family: Arial; font-size: 14px; font-weight: bold; fill: #2c3e50; }
            .note-circle { fill: #008080; stroke: #005959; stroke-width: 2; }
            .note-text { font-family: Arial; font-size: 10px; font-weight: bold; fill: white; text-anchor: middle; }
            .grace-note { fill: #FFD700; stroke: #CC9900; }
            .bent-note { fill: #E67E22; stroke: #D35400; }
            .lyric-text { font-family: Arial; font-size: 12px; fill: #2c3e50; }
            .resonance-band { fill: #008080; opacity: 0.3; }
        </style>
    </defs>

    <!-- Title -->
    <text x="10" y="30" style="font-size: 20px; font-weight: bold; fill: #2c3e50;">NÓI THƠ SÁU TRỌNG</text>
    <text x="10" y="50" style="font-size: 14px; fill: #666;">Tuning: C-D-E-G-A | 186 notes | Traditional</text>

    <!-- String Lines -->
    <line x1="100" y1="100" x2="7620" y2="100" class="string-line"/>
    <line x1="100" y1="125" x2="7620" y2="125" class="string-line"/>
    <line x1="100" y1="150" x2="7620" y2="150" class="string-line"/>
    <line x1="100" y1="187.5" x2="7620" y2="187.5" class="string-line"/>
    <line x1="100" y1="212.5" x2="7620" y2="212.5" class="string-line"/>
    <line x1="100" y1="250" x2="7620" y2="250" class="string-line"/>
    <line x1="100" y1="275" x2="7620" y2="275" class="string-line"/>
    <line x1="100" y1="300" x2="7620" y2="300" class="string-line"/>
    <line x1="100" y1="337.5" x2="7620" y2="337.5" class="string-line"/>
    <line x1="100" y1="362.5" x2="7620" y2="362.5" class="string-line"/>
    <line x1="100" y1="400" x2="7620" y2="400" class="string-line"/>
    <line x1="100" y1="425" x2="7620" y2="425" class="string-line"/>
    <line x1="100" y1="450" x2="7620" y2="450" class="string-line"/>
    <line x1="100" y1="487.5" x2="7620" y2="487.5" class="string-line"/>
    <line x1="100" y1="512.5" x2="7620" y2="512.5" class="string-line"/>
    <line x1="100" y1="550" x2="7620" y2="550" class="string-line"/>
    <line x1="100" y1="575" x2="7620" y2="575" class="string-line"/>

    <!-- String Labels -->
    <text x="50" y="105" class="string-label">C3</text>
    <text x="50" y="130" class="string-label">D3</text>
    <text x="50" y="155" class="string-label">E3</text>
    <text x="50" y="192.5" class="string-label">G3</text>
    <text x="50" y="217.5" class="string-label">A3</text>
    <text x="50" y="255" class="string-label">C4</text>
    <text x="50" y="280" class="string-label">D4</text>
    <text x="50" y="305" class="string-label">E4</text>
    <text x="50" y="342.5" class="string-label">G4</text>
    <text x="50" y="367.5" class="string-label">A4</text>
    <text x="50" y="405" class="string-label">C5</text>
    <text x="50" y="430" class="string-label">D5</text>
    <text x="50" y="455" class="string-label">E5</text>
    <text x="50" y="492.5" class="string-label">G5</text>
    <text x="50" y="517.5" class="string-label">A5</text>
    <text x="50" y="555" class="string-label">C6</text>
    <text x="50" y="580" class="string-label">D6</text>

    <!-- Notes -->
    <rect x="-10" y="361" width="320" height="3" class="resonance-band"/>
    <circle cx="150" cy="362.5" r="12" class="note-circle"/>
    <text x="150" y="366.5" class="note-text">10</text>
    <rect x="30" y="386" width="320" height="3" class="resonance-band"/>
    <circle cx="190" cy="387.5" r="12" class="bent-note"/>
    <rect x="70" y="311" width="320" height="3" class="resonance-band"/>
    <circle cx="230" cy="312.5" r="12" class="bent-note"/>
    <rect x="110" y="361" width="320" height="3" class="resonance-band"/>
    <circle cx="270" cy="362.5" r="12" class="note-circle"/>
    <text x="270" y="366.5" class="note-text">10</text>
    <rect x="150" y="423.5" width="320" height="3" class="resonance-band"/>
    <circle cx="310" cy="425" r="12" class="note-circle"/>
    <text x="310" y="429" class="note-text">12</text>
    <rect x="190" y="423.5" width="320" height="3" class="resonance-band"/>
    <circle cx="350" cy="425" r="12" class="note-circle"/>
    <text x="350" y="429" class="note-text">12</text>
    <rect x="230" y="311" width="320" height="3" class="resonance-band"/>
    <circle cx="390" cy="312.5" r="12" class="bent-note"/>
    <rect x="270" y="361" width="320" height="3" class="resonance-band"/>
    <circle cx="430" cy="362.5" r="12" class="note-circle"/>
    <text x="430" y="366.5" class="note-text">10</text>
    <rect x="310" y="423.5" width="320" height="3" class="resonance-band"/>
    <circle cx="470" cy="425" r="12" class="note-circle"/>
    <text x="470" y="429" class="note-text">12</text>
    <rect x="350" y="423.5" width="320" height="3" class="resonance-band"/>
    <circle cx="510" cy="425" r="12" class="note-circle"/>
    <text x="510" y="429" class="note-text">12</text>
    <rect x="390" y="386" width="320" height="3" class="resonance-band"/>
    <circle cx="550" cy="387.5" r="12" class="bent-note"/>
    <rect x="430" y="361" width="320" height="3" class="resonance-band"/>
    <circle cx="590" cy="362.5" r="12" class="note-circle"/>
    <text x="590" y="366.5" class="note-text">10</text>
    <rect x="470" y="336" width="320" height="3" class="resonance-band"/>
    <circle cx="630" cy="337.5" r="12" class="note-circle"/>
    <text x="630" y="341.5" class="note-text">9</text>
    <rect x="510" y="323.5" width="320" height="3" class="resonance-band"/>
    <circle cx="670" cy="325" r="12" class="bent-note"/>
    <rect x="550" y="323.5" width="320" height="3" class="resonance-band"/>
    <circle cx="710" cy="325" r="12" class="bent-note"/>
    <rect x="590" y="386" width="320" height="3" class="resonance-band"/>
    <circle cx="750" cy="387.5" r="12" class="bent-note"/>
    <rect x="630" y="361" width="320" height="3" class="resonance-band"/>
    <circle cx="790" cy="362.5" r="12" class="note-circle"/>
    <text x="790" y="366.5" class="note-text">10</text>
    <rect x="670" y="386" width="320" height="3" class="resonance-band"/>
    <circle cx="830" cy="387.5" r="12" class="bent-note"/>
    <rect x="710" y="311" width="320" height="3" class="resonance-band"/>
    <circle cx="870" cy="312.5" r="12" class="bent-note"/>
    <rect x="750" y="361" width="320" height="3" class="resonance-band"/>
    <circle cx="910" cy="362.5" r="12" class="note-circle"/>
    <text x="910" y="366.5" class="note-text">10</text>
    <rect x="790" y="423.5" width="320" height="3" class="resonance-band"/>
    <circle cx="950" cy="425" r="12" class="note-circle"/>
    <text x="950" y="429" class="note-text">12</text>
    <rect x="830" y="361" width="320" height="3" class="resonance-band"/>
    <circle cx="990" cy="362.5" r="12" class="note-circle"/>
    <text x="990" y="366.5" class="note-text">10</text>
    <rect x="870" y="423.5" width="320" height="3" class="resonance-band"/>
    <circle cx="1030" cy="425" r="12" class="note-circle"/>
    <text x="1030" y="429" class="note-text">12</text>
    <rect x="910" y="423.5" width="320" height="3" class="resonance-band"/>
    <circle cx="1070" cy="425" r="12" class="note-circle"/>
    <text x="1070" y="429" class="note-text">12</text>
    <rect x="950" y="423.5" width="320" height="3" class="resonance-band"/>
    <circle cx="1110" cy="425" r="12" class="note-circle"/>
    <text x="1110" y="429" class="note-text">12</text>
    <rect x="990" y="361" width="320" height="3" class="resonance-band"/>
    <circle cx="1150" cy="362.5" r="12" class="note-circle"/>
    <text x="1150" y="366.5" class="note-text">10</text>
    <rect x="1030" y="386" width="320" height="3" class="resonance-band"/>
    <circle cx="1190" cy="387.5" r="12" class="bent-note"/>
    <rect x="1070" y="273.5" width="320" height="3" class="resonance-band"/>
    <circle cx="1230" cy="275" r="12" class="note-circle"/>
    <text x="1230" y="279" class="note-text">7</text>
    <rect x="1110" y="323.5" width="320" height="3" class="resonance-band"/>
    <circle cx="1270" cy="325" r="12" class="bent-note"/>
    <rect x="1150" y="386" width="320" height="3" class="resonance-band"/>
    <circle cx="1310" cy="387.5" r="12" class="bent-note"/>
    <rect x="1190" y="361" width="320" height="3" class="resonance-band"/>
    <circle cx="1350" cy="362.5" r="12" class="note-circle"/>
    <text x="1350" y="366.5" class="note-text">10</text>
    <rect x="1230" y="311" width="320" height="3" class="resonance-band"/>
    <circle cx="1390" cy="312.5" r="12" class="bent-note"/>
    <rect x="1270" y="273.5" width="320" height="3" class="resonance-band"/>
    <circle cx="1430" cy="275" r="12" class="note-circle"/>
    <text x="1430" y="279" class="note-text">7</text>
    <rect x="1310" y="423.5" width="320" height="3" class="resonance-band"/>
    <circle cx="1470" cy="425" r="12" class="note-circle"/>
    <text x="1470" y="429" class="note-text">12</text>
    <rect x="1350" y="398.5" width="320" height="3" class="resonance-band"/>
    <circle cx="1510" cy="400" r="12" class="note-circle"/>
    <text x="1510" y="404" class="note-text">11</text>
    <rect x="1390" y="311" width="320" height="3" class="resonance-band"/>
    <circle cx="1550" cy="312.5" r="12" class="bent-note"/>
    <rect x="1430" y="398.5" width="320" height="3" class="resonance-band"/>
    <circle cx="1590" cy="400" r="6" class="grace-note"/>
    <rect x="1470" y="423.5" width="320" height="3" class="resonance-band"/>
    <circle cx="1630" cy="425" r="12" class="note-circle"/>
    <text x="1630" y="429" class="note-text">12</text>
    <rect x="1510" y="311" width="320" height="3" class="resonance-band"/>
    <circle cx="1670" cy="312.5" r="12" class="bent-note"/>
    <rect x="1550" y="311" width="320" height="3" class="resonance-band"/>
    <circle cx="1710" cy="312.5" r="12" class="bent-note"/>
    <rect x="1590" y="323.5" width="320" height="3" class="resonance-band"/>
    <circle cx="1750" cy="325" r="6" class="grace-note"/>
    <rect x="1630" y="361" width="320" height="3" class="resonance-band"/>
    <circle cx="1790" cy="362.5" r="12" class="note-circle"/>
    <text x="1790" y="366.5" class="note-text">10</text>
    <rect x="1670" y="311" width="320" height="3" class="resonance-band"/>
    <circle cx="1830" cy="312.5" r="12" class="bent-note"/>
    <rect x="1710" y="423.5" width="320" height="3" class="resonance-band"/>
    <circle cx="1870" cy="425" r="12" class="note-circle"/>
    <text x="1870" y="429" class="note-text">12</text>
    <rect x="1750" y="398.5" width="320" height="3" class="resonance-band"/>
    <circle cx="1910" cy="400" r="12" class="note-circle"/>
    <text x="1910" y="404" class="note-text">11</text>
    <rect x="1790" y="361" width="320" height="3" class="resonance-band"/>
    <circle cx="1950" cy="362.5" r="12" class="note-circle"/>
    <text x="1950" y="366.5" class="note-text">10</text>
    <rect x="1830" y="311" width="320" height="3" class="resonance-band"/>
    <circle cx="1990" cy="312.5" r="12" class="bent-note"/>
    <rect x="1870" y="398.5" width="320" height="3" class="resonance-band"/>
    <circle cx="2030" cy="400" r="12" class="note-circle"/>
    <text x="2030" y="404" class="note-text">11</text>
    <rect x="1910" y="361" width="320" height="3" class="resonance-band"/>
    <circle cx="2070" cy="362.5" r="12" class="note-circle"/>
    <text x="2070" y="366.5" class="note-text">10</text>
    <rect x="1950" y="323.5" width="320" height="3" class="resonance-band"/>
    <circle cx="2110" cy="325" r="12" class="bent-note"/>
    <rect x="1990" y="361" width="320" height="3" class="resonance-band"/>
    <circle cx="2150" cy="362.5" r="12" class="note-circle"/>
    <text x="2150" y="366.5" class="note-text">10</text>
    <rect x="2030" y="323.5" width="320" height="3" class="resonance-band"/>
    <circle cx="2190" cy="325" r="12" class="bent-note"/>
    <rect x="2070" y="361" width="320" height="3" class="resonance-band"/>
    <circle cx="2230" cy="362.5" r="6" class="grace-note"/>
    <rect x="2110" y="423.5" width="320" height="3" class="resonance-band"/>
    <circle cx="2270" cy="425" r="12" class="note-circle"/>
    <text x="2270" y="429" class="note-text">12</text>
    <rect x="2150" y="323.5" width="320" height="3" class="resonance-band"/>
    <circle cx="2310" cy="325" r="6" class="grace-note"/>
    <rect x="2190" y="361" width="320" height="3" class="resonance-band"/>
    <circle cx="2350" cy="362.5" r="12" class="note-circle"/>
    <text x="2350" y="366.5" class="note-text">10</text>
    <rect x="2230" y="423.5" width="320" height="3" class="resonance-band"/>
    <circle cx="2390" cy="425" r="12" class="note-circle"/>
    <text x="2390" y="429" class="note-text">12</text>
    <rect x="2270" y="323.5" width="320" height="3" class="resonance-band"/>
    <circle cx="2430" cy="325" r="12" class="bent-note"/>
    <rect x="2310" y="386" width="320" height="3" class="resonance-band"/>
    <circle cx="2470" cy="387.5" r="12" class="bent-note"/>
    <rect x="2350" y="273.5" width="320" height="3" class="resonance-band"/>
    <circle cx="2510" cy="275" r="12" class="note-circle"/>
    <text x="2510" y="279" class="note-text">7</text>
    <rect x="2390" y="273.5" width="320" height="3" class="resonance-band"/>
    <circle cx="2550" cy="275" r="6" class="grace-note"/>
    <rect x="2430" y="311" width="320" height="3" class="resonance-band"/>
    <circle cx="2590" cy="312.5" r="12" class="bent-note"/>
    <rect x="2470" y="273.5" width="320" height="3" class="resonance-band"/>
    <circle cx="2630" cy="275" r="12" class="note-circle"/>
    <text x="2630" y="279" class="note-text">7</text>
    <rect x="2510" y="323.5" width="320" height="3" class="resonance-band"/>
    <circle cx="2670" cy="325" r="12" class="bent-note"/>
    <rect x="2550" y="336" width="320" height="3" class="resonance-band"/>
    <circle cx="2710" cy="337.5" r="12" class="note-circle"/>
    <text x="2710" y="341.5" class="note-text">9</text>
    <rect x="2590" y="311" width="320" height="3" class="resonance-band"/>
    <circle cx="2750" cy="312.5" r="12" class="bent-note"/>
    <rect x="2630" y="273.5" width="320" height="3" class="resonance-band"/>
    <circle cx="2790" cy="275" r="12" class="note-circle"/>
    <text x="2790" y="279" class="note-text">7</text>
    <rect x="2670" y="361" width="320" height="3" class="resonance-band"/>
    <circle cx="2830" cy="362.5" r="12" class="note-circle"/>
    <text x="2830" y="366.5" class="note-text">10</text>
    <rect x="2710" y="423.5" width="320" height="3" class="resonance-band"/>
    <circle cx="2870" cy="425" r="12" class="note-circle"/>
    <text x="2870" y="429" class="note-text">12</text>
    <rect x="2750" y="361" width="320" height="3" class="resonance-band"/>
    <circle cx="2910" cy="362.5" r="12" class="note-circle"/>
    <text x="2910" y="366.5" class="note-text">10</text>
    <rect x="2790" y="361" width="320" height="3" class="resonance-band"/>
    <circle cx="2950" cy="362.5" r="12" class="note-circle"/>
    <text x="2950" y="366.5" class="note-text">10</text>
    <rect x="2830" y="423.5" width="320" height="3" class="resonance-band"/>
    <circle cx="2990" cy="425" r="12" class="note-circle"/>
    <text x="2990" y="429" class="note-text">12</text>
    <rect x="2870" y="361" width="320" height="3" class="resonance-band"/>
    <circle cx="3030" cy="362.5" r="6" class="grace-note"/>
    <rect x="2910" y="423.5" width="320" height="3" class="resonance-band"/>
    <circle cx="3070" cy="425" r="12" class="note-circle"/>
    <text x="3070" y="429" class="note-text">12</text>
    <rect x="2950" y="398.5" width="320" height="3" class="resonance-band"/>
    <circle cx="3110" cy="400" r="12" class="note-circle"/>
    <text x="3110" y="404" class="note-text">11</text>
    <rect x="2990" y="423.5" width="320" height="3" class="resonance-band"/>
    <circle cx="3150" cy="425" r="12" class="note-circle"/>
    <text x="3150" y="429" class="note-text">12</text>
    <rect x="3030" y="361" width="320" height="3" class="resonance-band"/>
    <circle cx="3190" cy="362.5" r="12" class="note-circle"/>
    <text x="3190" y="366.5" class="note-text">10</text>
    <rect x="3070" y="423.5" width="320" height="3" class="resonance-band"/>
    <circle cx="3230" cy="425" r="12" class="note-circle"/>
    <text x="3230" y="429" class="note-text">12</text>
    <rect x="3110" y="423.5" width="320" height="3" class="resonance-band"/>
    <circle cx="3270" cy="425" r="12" class="note-circle"/>
    <text x="3270" y="429" class="note-text">12</text>
    <rect x="3150" y="398.5" width="320" height="3" class="resonance-band"/>
    <circle cx="3310" cy="400" r="12" class="note-circle"/>
    <text x="3310" y="404" class="note-text">11</text>
    <rect x="3190" y="361" width="320" height="3" class="resonance-band"/>
    <circle cx="3350" cy="362.5" r="6" class="grace-note"/>
    <rect x="3230" y="423.5" width="320" height="3" class="resonance-band"/>
    <circle cx="3390" cy="425" r="12" class="note-circle"/>
    <text x="3390" y="429" class="note-text">12</text>
    <rect x="3270" y="361" width="320" height="3" class="resonance-band"/>
    <circle cx="3430" cy="362.5" r="6" class="grace-note"/>
    <rect x="3310" y="398.5" width="320" height="3" class="resonance-band"/>
    <circle cx="3470" cy="400" r="12" class="note-circle"/>
    <text x="3470" y="404" class="note-text">11</text>
    <rect x="3350" y="423.5" width="320" height="3" class="resonance-band"/>
    <circle cx="3510" cy="425" r="12" class="note-circle"/>
    <text x="3510" y="429" class="note-text">12</text>
    <rect x="3390" y="311" width="320" height="3" class="resonance-band"/>
    <circle cx="3550" cy="312.5" r="12" class="bent-note"/>
    <rect x="3430" y="361" width="320" height="3" class="resonance-band"/>
    <circle cx="3590" cy="362.5" r="12" class="note-circle"/>
    <text x="3590" y="366.5" class="note-text">10</text>
    <rect x="3470" y="273.5" width="320" height="3" class="resonance-band"/>
    <circle cx="3630" cy="275" r="12" class="note-circle"/>
    <text x="3630" y="279" class="note-text">7</text>
    <rect x="3510" y="361" width="320" height="3" class="resonance-band"/>
    <circle cx="3670" cy="362.5" r="12" class="note-circle"/>
    <text x="3670" y="366.5" class="note-text">10</text>
    <rect x="3550" y="323.5" width="320" height="3" class="resonance-band"/>
    <circle cx="3710" cy="325" r="12" class="bent-note"/>
    <rect x="3590" y="386" width="320" height="3" class="resonance-band"/>
    <circle cx="3750" cy="387.5" r="12" class="bent-note"/>
    <rect x="3630" y="386" width="320" height="3" class="resonance-band"/>
    <circle cx="3790" cy="387.5" r="12" class="bent-note"/>
    <rect x="3670" y="361" width="320" height="3" class="resonance-band"/>
    <circle cx="3830" cy="362.5" r="12" class="note-circle"/>
    <text x="3830" y="366.5" class="note-text">10</text>
    <rect x="3710" y="323.5" width="320" height="3" class="resonance-band"/>
    <circle cx="3870" cy="325" r="12" class="bent-note"/>
    <rect x="3750" y="273.5" width="320" height="3" class="resonance-band"/>
    <circle cx="3910" cy="275" r="12" class="note-circle"/>
    <text x="3910" y="279" class="note-text">7</text>
    <rect x="3790" y="423.5" width="320" height="3" class="resonance-band"/>
    <circle cx="3950" cy="425" r="6" class="grace-note"/>
    <rect x="3830" y="461" width="320" height="3" class="resonance-band"/>
    <circle cx="3990" cy="462.5" r="12" class="bent-note"/>
    <rect x="3870" y="361" width="320" height="3" class="resonance-band"/>
    <circle cx="4030" cy="362.5" r="12" class="note-circle"/>
    <text x="4030" y="366.5" class="note-text">10</text>
    <rect x="3910" y="398.5" width="320" height="3" class="resonance-band"/>
    <circle cx="4070" cy="400" r="12" class="note-circle"/>
    <text x="4070" y="404" class="note-text">11</text>
    <rect x="3950" y="423.5" width="320" height="3" class="resonance-band"/>
    <circle cx="4110" cy="425" r="12" class="note-circle"/>
    <text x="4110" y="429" class="note-text">12</text>
    <rect x="3990" y="423.5" width="320" height="3" class="resonance-band"/>
    <circle cx="4150" cy="425" r="6" class="grace-note"/>
    <rect x="4030" y="461" width="320" height="3" class="resonance-band"/>
    <circle cx="4190" cy="462.5" r="12" class="bent-note"/>
    <rect x="4070" y="423.5" width="320" height="3" class="resonance-band"/>
    <circle cx="4230" cy="425" r="12" class="note-circle"/>
    <text x="4230" y="429" class="note-text">12</text>
    <rect x="4110" y="361" width="320" height="3" class="resonance-band"/>
    <circle cx="4270" cy="362.5" r="6" class="grace-note"/>
    <rect x="4150" y="423.5" width="320" height="3" class="resonance-band"/>
    <circle cx="4310" cy="425" r="12" class="note-circle"/>
    <text x="4310" y="429" class="note-text">12</text>
    <rect x="4190" y="423.5" width="320" height="3" class="resonance-band"/>
    <circle cx="4350" cy="425" r="12" class="note-circle"/>
    <text x="4350" y="429" class="note-text">12</text>
    <rect x="4230" y="361" width="320" height="3" class="resonance-band"/>
    <circle cx="4390" cy="362.5" r="12" class="note-circle"/>
    <text x="4390" y="366.5" class="note-text">10</text>
    <rect x="4270" y="423.5" width="320" height="3" class="resonance-band"/>
    <circle cx="4430" cy="425" r="12" class="note-circle"/>
    <text x="4430" y="429" class="note-text">12</text>
    <rect x="4310" y="386" width="320" height="3" class="resonance-band"/>
    <circle cx="4470" cy="387.5" r="12" class="bent-note"/>
    <rect x="4350" y="361" width="320" height="3" class="resonance-band"/>
    <circle cx="4510" cy="362.5" r="12" class="note-circle"/>
    <text x="4510" y="366.5" class="note-text">10</text>
    <rect x="4390" y="323.5" width="320" height="3" class="resonance-band"/>
    <circle cx="4550" cy="325" r="12" class="bent-note"/>
    <rect x="4430" y="361" width="320" height="3" class="resonance-band"/>
    <circle cx="4590" cy="362.5" r="12" class="note-circle"/>
    <text x="4590" y="366.5" class="note-text">10</text>
    <rect x="4470" y="361" width="320" height="3" class="resonance-band"/>
    <circle cx="4630" cy="362.5" r="6" class="grace-note"/>
    <rect x="4510" y="423.5" width="320" height="3" class="resonance-band"/>
    <circle cx="4670" cy="425" r="12" class="note-circle"/>
    <text x="4670" y="429" class="note-text">12</text>
    <rect x="4550" y="361" width="320" height="3" class="resonance-band"/>
    <circle cx="4710" cy="362.5" r="12" class="note-circle"/>
    <text x="4710" y="366.5" class="note-text">10</text>
    <rect x="4590" y="386" width="320" height="3" class="resonance-band"/>
    <circle cx="4750" cy="387.5" r="12" class="bent-note"/>
    <rect x="4630" y="273.5" width="320" height="3" class="resonance-band"/>
    <circle cx="4790" cy="275" r="12" class="note-circle"/>
    <text x="4790" y="279" class="note-text">7</text>
    <rect x="4670" y="361" width="320" height="3" class="resonance-band"/>
    <circle cx="4830" cy="362.5" r="12" class="note-circle"/>
    <text x="4830" y="366.5" class="note-text">10</text>
    <rect x="4710" y="386" width="320" height="3" class="resonance-band"/>
    <circle cx="4870" cy="387.5" r="12" class="bent-note"/>
    <rect x="4750" y="323.5" width="320" height="3" class="resonance-band"/>
    <circle cx="4910" cy="325" r="12" class="bent-note"/>
    <rect x="4790" y="386" width="320" height="3" class="resonance-band"/>
    <circle cx="4950" cy="387.5" r="12" class="bent-note"/>
    <rect x="4830" y="361" width="320" height="3" class="resonance-band"/>
    <circle cx="4990" cy="362.5" r="12" class="note-circle"/>
    <text x="4990" y="366.5" class="note-text">10</text>
    <rect x="4870" y="361" width="320" height="3" class="resonance-band"/>
    <circle cx="5030" cy="362.5" r="12" class="note-circle"/>
    <text x="5030" y="366.5" class="note-text">10</text>
    <rect x="4910" y="386" width="320" height="3" class="resonance-band"/>
    <circle cx="5070" cy="387.5" r="12" class="bent-note"/>
    <rect x="4950" y="361" width="320" height="3" class="resonance-band"/>
    <circle cx="5110" cy="362.5" r="12" class="note-circle"/>
    <text x="5110" y="366.5" class="note-text">10</text>
    <rect x="4990" y="361" width="320" height="3" class="resonance-band"/>
    <circle cx="5150" cy="362.5" r="12" class="note-circle"/>
    <text x="5150" y="366.5" class="note-text">10</text>
    <rect x="5030" y="323.5" width="320" height="3" class="resonance-band"/>
    <circle cx="5190" cy="325" r="6" class="grace-note"/>
    <rect x="5070" y="386" width="320" height="3" class="resonance-band"/>
    <circle cx="5230" cy="387.5" r="12" class="bent-note"/>
    <rect x="5110" y="361" width="320" height="3" class="resonance-band"/>
    <circle cx="5270" cy="362.5" r="12" class="note-circle"/>
    <text x="5270" y="366.5" class="note-text">10</text>
    <rect x="5150" y="323.5" width="320" height="3" class="resonance-band"/>
    <circle cx="5310" cy="325" r="12" class="bent-note"/>
    <rect x="5190" y="386" width="320" height="3" class="resonance-band"/>
    <circle cx="5350" cy="387.5" r="12" class="bent-note"/>
    <rect x="5230" y="273.5" width="320" height="3" class="resonance-band"/>
    <circle cx="5390" cy="275" r="12" class="note-circle"/>
    <text x="5390" y="279" class="note-text">7</text>
    <rect x="5270" y="323.5" width="320" height="3" class="resonance-band"/>
    <circle cx="5430" cy="325" r="12" class="bent-note"/>
    <rect x="5310" y="386" width="320" height="3" class="resonance-band"/>
    <circle cx="5470" cy="387.5" r="12" class="bent-note"/>
    <rect x="5350" y="361" width="320" height="3" class="resonance-band"/>
    <circle cx="5510" cy="362.5" r="12" class="note-circle"/>
    <text x="5510" y="366.5" class="note-text">10</text>
    <rect x="5390" y="386" width="320" height="3" class="resonance-band"/>
    <circle cx="5550" cy="387.5" r="12" class="bent-note"/>
    <rect x="5430" y="311" width="320" height="3" class="resonance-band"/>
    <circle cx="5590" cy="312.5" r="12" class="bent-note"/>
    <rect x="5470" y="361" width="320" height="3" class="resonance-band"/>
    <circle cx="5630" cy="362.5" r="12" class="note-circle"/>
    <text x="5630" y="366.5" class="note-text">10</text>
    <rect x="5510" y="423.5" width="320" height="3" class="resonance-band"/>
    <circle cx="5670" cy="425" r="12" class="note-circle"/>
    <text x="5670" y="429" class="note-text">12</text>
    <rect x="5550" y="423.5" width="320" height="3" class="resonance-band"/>
    <circle cx="5710" cy="425" r="12" class="note-circle"/>
    <text x="5710" y="429" class="note-text">12</text>
    <rect x="5590" y="361" width="320" height="3" class="resonance-band"/>
    <circle cx="5750" cy="362.5" r="12" class="note-circle"/>
    <text x="5750" y="366.5" class="note-text">10</text>
    <rect x="5630" y="423.5" width="320" height="3" class="resonance-band"/>
    <circle cx="5790" cy="425" r="12" class="note-circle"/>
    <text x="5790" y="429" class="note-text">12</text>
    <rect x="5670" y="273.5" width="320" height="3" class="resonance-band"/>
    <circle cx="5830" cy="275" r="12" class="note-circle"/>
    <text x="5830" y="279" class="note-text">7</text>
    <rect x="5710" y="361" width="320" height="3" class="resonance-band"/>
    <circle cx="5870" cy="362.5" r="12" class="note-circle"/>
    <text x="5870" y="366.5" class="note-text">10</text>
    <rect x="5750" y="386" width="320" height="3" class="resonance-band"/>
    <circle cx="5910" cy="387.5" r="12" class="bent-note"/>
    <rect x="5790" y="361" width="320" height="3" class="resonance-band"/>
    <circle cx="5950" cy="362.5" r="12" class="note-circle"/>
    <text x="5950" y="366.5" class="note-text">10</text>
    <rect x="5830" y="311" width="320" height="3" class="resonance-band"/>
    <circle cx="5990" cy="312.5" r="12" class="bent-note"/>
    <rect x="5870" y="273.5" width="320" height="3" class="resonance-band"/>
    <circle cx="6030" cy="275" r="12" class="note-circle"/>
    <text x="6030" y="279" class="note-text">7</text>
    <rect x="5910" y="423.5" width="320" height="3" class="resonance-band"/>
    <circle cx="6070" cy="425" r="12" class="note-circle"/>
    <text x="6070" y="429" class="note-text">12</text>
    <rect x="5950" y="461" width="320" height="3" class="resonance-band"/>
    <circle cx="6110" cy="462.5" r="12" class="bent-note"/>
    <rect x="5990" y="361" width="320" height="3" class="resonance-band"/>
    <circle cx="6150" cy="362.5" r="12" class="note-circle"/>
    <text x="6150" y="366.5" class="note-text">10</text>
    <rect x="6030" y="423.5" width="320" height="3" class="resonance-band"/>
    <circle cx="6190" cy="425" r="12" class="note-circle"/>
    <text x="6190" y="429" class="note-text">12</text>
    <rect x="6070" y="423.5" width="320" height="3" class="resonance-band"/>
    <circle cx="6230" cy="425" r="12" class="note-circle"/>
    <text x="6230" y="429" class="note-text">12</text>
    <rect x="6110" y="386" width="320" height="3" class="resonance-band"/>
    <circle cx="6270" cy="387.5" r="12" class="bent-note"/>
    <rect x="6150" y="423.5" width="320" height="3" class="resonance-band"/>
    <circle cx="6310" cy="425" r="6" class="grace-note"/>
    <rect x="6190" y="461" width="320" height="3" class="resonance-band"/>
    <circle cx="6350" cy="462.5" r="12" class="bent-note"/>
    <rect x="6230" y="448.5" width="320" height="3" class="resonance-band"/>
    <circle cx="6390" cy="450" r="12" class="note-circle"/>
    <text x="6390" y="454" class="note-text">13</text>
    <rect x="6270" y="361" width="320" height="3" class="resonance-band"/>
    <circle cx="6430" cy="362.5" r="12" class="note-circle"/>
    <text x="6430" y="366.5" class="note-text">10</text>
    <rect x="6310" y="398.5" width="320" height="3" class="resonance-band"/>
    <circle cx="6470" cy="400" r="12" class="note-circle"/>
    <text x="6470" y="404" class="note-text">11</text>
    <rect x="6350" y="311" width="320" height="3" class="resonance-band"/>
    <circle cx="6510" cy="312.5" r="12" class="bent-note"/>
    <rect x="6390" y="361" width="320" height="3" class="resonance-band"/>
    <circle cx="6550" cy="362.5" r="12" class="note-circle"/>
    <text x="6550" y="366.5" class="note-text">10</text>
    <rect x="6430" y="423.5" width="320" height="3" class="resonance-band"/>
    <circle cx="6590" cy="425" r="12" class="note-circle"/>
    <text x="6590" y="429" class="note-text">12</text>
    <rect x="6470" y="398.5" width="320" height="3" class="resonance-band"/>
    <circle cx="6630" cy="400" r="12" class="note-circle"/>
    <text x="6630" y="404" class="note-text">11</text>
    <rect x="6510" y="423.5" width="320" height="3" class="resonance-band"/>
    <circle cx="6670" cy="425" r="12" class="note-circle"/>
    <text x="6670" y="429" class="note-text">12</text>
    <rect x="6550" y="311" width="320" height="3" class="resonance-band"/>
    <circle cx="6710" cy="312.5" r="12" class="bent-note"/>
    <rect x="6590" y="398.5" width="320" height="3" class="resonance-band"/>
    <circle cx="6750" cy="400" r="12" class="note-circle"/>
    <text x="6750" y="404" class="note-text">11</text>
    <rect x="6630" y="423.5" width="320" height="3" class="resonance-band"/>
    <circle cx="6790" cy="425" r="12" class="note-circle"/>
    <text x="6790" y="429" class="note-text">12</text>
    <rect x="6670" y="398.5" width="320" height="3" class="resonance-band"/>
    <circle cx="6830" cy="400" r="12" class="note-circle"/>
    <text x="6830" y="404" class="note-text">11</text>
    <rect x="6710" y="361" width="320" height="3" class="resonance-band"/>
    <circle cx="6870" cy="362.5" r="12" class="note-circle"/>
    <text x="6870" y="366.5" class="note-text">10</text>
    <rect x="6750" y="423.5" width="320" height="3" class="resonance-band"/>
    <circle cx="6910" cy="425" r="12" class="note-circle"/>
    <text x="6910" y="429" class="note-text">12</text>
    <rect x="6790" y="361" width="320" height="3" class="resonance-band"/>
    <circle cx="6950" cy="362.5" r="12" class="note-circle"/>
    <text x="6950" y="366.5" class="note-text">10</text>
    <rect x="6830" y="423.5" width="320" height="3" class="resonance-band"/>
    <circle cx="6990" cy="425" r="12" class="note-circle"/>
    <text x="6990" y="429" class="note-text">12</text>
    <rect x="6870" y="311" width="320" height="3" class="resonance-band"/>
    <circle cx="7030" cy="312.5" r="12" class="bent-note"/>
    <rect x="6910" y="361" width="320" height="3" class="resonance-band"/>
    <circle cx="7070" cy="362.5" r="12" class="note-circle"/>
    <text x="7070" y="366.5" class="note-text">10</text>
    <rect x="6950" y="386" width="320" height="3" class="resonance-band"/>
    <circle cx="7110" cy="387.5" r="12" class="bent-note"/>
    <rect x="6990" y="361" width="320" height="3" class="resonance-band"/>
    <circle cx="7150" cy="362.5" r="12" class="note-circle"/>
    <text x="7150" y="366.5" class="note-text">10</text>
    <rect x="7030" y="311" width="320" height="3" class="resonance-band"/>
    <circle cx="7190" cy="312.5" r="12" class="bent-note"/>
    <rect x="7070" y="273.5" width="320" height="3" class="resonance-band"/>
    <circle cx="7230" cy="275" r="12" class="note-circle"/>
    <text x="7230" y="279" class="note-text">7</text>
    <rect x="7110" y="361" width="320" height="3" class="resonance-band"/>
    <circle cx="7270" cy="362.5" r="12" class="note-circle"/>
    <text x="7270" y="366.5" class="note-text">10</text>
    <rect x="7150" y="423.5" width="320" height="3" class="resonance-band"/>
    <circle cx="7310" cy="425" r="12" class="note-circle"/>
    <text x="7310" y="429" class="note-text">12</text>
    <rect x="7190" y="311" width="320" height="3" class="resonance-band"/>
    <circle cx="7350" cy="312.5" r="12" class="bent-note"/>
    <rect x="7230" y="423.5" width="320" height="3" class="resonance-band"/>
    <circle cx="7390" cy="425" r="12" class="note-circle"/>
    <text x="7390" y="429" class="note-text">12</text>
    <rect x="7270" y="423.5" width="320" height="3" class="resonance-band"/>
    <circle cx="7430" cy="425" r="12" class="note-circle"/>
    <text x="7430" y="429" class="note-text">12</text>
    <rect x="7310" y="461" width="320" height="3" class="resonance-band"/>
    <circle cx="7470" cy="462.5" r="12" class="bent-note"/>
    <rect x="7350" y="361" width="320" height="3" class="resonance-band"/>
    <circle cx="7510" cy="362.5" r="12" class="note-circle"/>
    <text x="7510" y="366.5" class="note-text">10</text>
    <rect x="7390" y="398.5" width="320" height="3" class="resonance-band"/>
    <circle cx="7550" cy="400" r="12" class="note-circle"/>
    <text x="7550" y="404" class="note-text">11</text>
    

    <!-- Lyrics -->
    <text x="150" y="402.5" class="lyric-text">Kỷ</text>
    <text x="230" y="352.5" class="lyric-text">vì</text>
    <text x="270" y="402.5" class="lyric-text">(í</text>
    <text x="310" y="465" class="lyric-text">i)</text>
    <text x="350" y="465" class="lyric-text">cái</text>
    <text x="390" y="352.5" class="lyric-text">thọ</text>
    <text x="470" y="465" class="lyric-text">Pháp</text>
    <text x="510" y="465" class="lyric-text">cái</text>
    <text x="550" y="427.5" class="lyric-text">Tân</text>
    <text x="630" y="377.5" class="lyric-text">Trào</text>
    <text x="710" y="365" class="lyric-text">Ngày</text>
    <text x="790" y="402.5" class="lyric-text">nay</text>
    <text x="830" y="427.5" class="lyric-text">cái</text>
    <text x="870" y="352.5" class="lyric-text">mà</text>
    <text x="910" y="402.5" class="lyric-text">nghĩ</text>
    <text x="990" y="402.5" class="lyric-text">lại</text>
    <text x="1110" y="465" class="lyric-text">có</text>
    <text x="1150" y="402.5" class="lyric-text">khác</text>
    <text x="1230" y="315" class="lyric-text">nào</text>
    <text x="1270" y="365" class="lyric-text">thuở</text>
    <text x="1350" y="402.5" class="lyric-text">xưa</text>
    <text x="1390" y="352.5" class="lyric-text">(ơ</text>
    <text x="1430" y="315" class="lyric-text">ớ).</text>
    <text x="1470" y="465" class="lyric-text">Du</text>
    <text x="1550" y="352.5" class="lyric-text">nhàn</text>
    <text x="1630" y="465" class="lyric-text">(ơ)</text>
    <text x="1670" y="352.5" class="lyric-text">thiềng</text>
    <text x="1790" y="402.5" class="lyric-text">thị</text>
    <text x="1830" y="352.5" class="lyric-text">mà</text>
    <text x="1870" y="465" class="lyric-text">sớm</text>
    <text x="1910" y="440" class="lyric-text">trưa</text>
    <text x="1950" y="402.5" class="lyric-text">(ơ</text>
    <text x="1990" y="352.5" class="lyric-text">ớ).</text>
    <text x="2030" y="440" class="lyric-text">có</text>
    <text x="2110" y="365" class="lyric-text">chăng</text>
    <text x="2150" y="402.5" class="lyric-text">cái</text>
    <text x="2190" y="365" class="lyric-text">mà</text>
    <text x="2270" y="465" class="lyric-text">Sáu</text>
    <text x="2350" y="402.5" class="lyric-text">Trọng</text>
    <text x="2390" y="465" class="lyric-text">nó</text>
    <text x="2430" y="365" class="lyric-text">tuổi</text>
    <text x="2510" y="315" class="lyric-text">vừa</text>
    <text x="2590" y="352.5" class="lyric-text">lại</text>
    <text x="2630" y="315" class="lyric-text">mươi</text>
    <text x="2710" y="377.5" class="lyric-text">lăm</text>
    <text x="2750" y="352.5" class="lyric-text">(ơ</text>
    <text x="2790" y="315" class="lyric-text">ờ).</text>
    <text x="2830" y="402.5" class="lyric-text">Trọng</text>
    <text x="2910" y="402.5" class="lyric-text">(ơ)</text>
    <text x="2950" y="402.5" class="lyric-text">giận</text>
    <text x="2990" y="465" class="lyric-text">(ơ)</text>
    <text x="3070" y="465" class="lyric-text">bỏ</text>
    <text x="3110" y="440" class="lyric-text">đi</text>
    <text x="3150" y="465" class="lyric-text">tính</text>
    <text x="3190" y="402.5" class="lyric-text">đã</text>
    <text x="3270" y="465" class="lyric-text">mấy</text>
    <text x="3310" y="440" class="lyric-text">năm,</text>
    <text x="3390" y="465" class="lyric-text">nghĩ</text>
    <text x="3470" y="440" class="lyric-text">lại</text>
    <text x="3510" y="465" class="lyric-text">nó</text>
    <text x="3550" y="352.5" class="lyric-text">chạnh</text>
    <text x="3630" y="315" class="lyric-text">lòng</text>
    <text x="3670" y="402.5" class="lyric-text">thương</text>
    <text x="3710" y="365" class="lyric-text">cảnh</text>
    <text x="3790" y="427.5" class="lyric-text">nhớ</text>
    <text x="3830" y="402.5" class="lyric-text">quê</text>
    <text x="3870" y="365" class="lyric-text">(ơ</text>
    <text x="3910" y="315" class="lyric-text">ơ).</text>
    <text x="3990" y="502.5" class="lyric-text">Bấy</text>
    <text x="4070" y="440" class="lyric-text">(ở)</text>
    <text x="4110" y="465" class="lyric-text">lâu</text>
    <text x="4190" y="502.5" class="lyric-text">cách</text>
    <text x="4310" y="465" class="lyric-text">mặt</text>
    <text x="4350" y="465" class="lyric-text">nó</text>
    <text x="4390" y="402.5" class="lyric-text">ủ</text>
    <text x="4470" y="427.5" class="lyric-text">ê</text>
    <text x="4550" y="365" class="lyric-text">(ơ),</text>
    <text x="4590" y="402.5" class="lyric-text">nay</text>
    <text x="4670" y="465" class="lyric-text">mới</text>
    <text x="4710" y="402.5" class="lyric-text">trở</text>
    <text x="4790" y="315" class="lyric-text">về</text>
    <text x="4830" y="402.5" class="lyric-text">thăm</text>
    <text x="4870" y="427.5" class="lyric-text">viếng</text>
    <text x="4910" y="365" class="lyric-text">mẫu</text>
    <text x="4990" y="402.5" class="lyric-text">thân.</text>
    <text x="5030" y="402.5" class="lyric-text">Có</text>
    <text x="5110" y="402.5" class="lyric-text">lên</text>
    <text x="5150" y="402.5" class="lyric-text">Hai</text>
    <text x="5230" y="427.5" class="lyric-text">Đẩu</text>
    <text x="5270" y="402.5" class="lyric-text">em</text>
    <text x="5310" y="365" class="lyric-text">ở</text>
    <text x="5390" y="315" class="lyric-text">gần,</text>
    <text x="5430" y="365" class="lyric-text">thường</text>
    <text x="5470" y="427.5" class="lyric-text">cái</text>
    <text x="5510" y="402.5" class="lyric-text">đi</text>
    <text x="5550" y="427.5" class="lyric-text">cái</text>
    <text x="5590" y="352.5" class="lyric-text">mà</text>
    <text x="5630" y="402.5" class="lyric-text">buôn</text>
    <text x="5670" y="465" class="lyric-text">bán</text>
    <text x="5710" y="465" class="lyric-text">nó</text>
    <text x="5750" y="402.5" class="lyric-text">tảo</text>
    <text x="5830" y="315" class="lyric-text">tần</text>
    <text x="5870" y="402.5" class="lyric-text">lân</text>
    <text x="5950" y="402.5" class="lyric-text">la</text>
    <text x="5990" y="352.5" class="lyric-text">(ơ</text>
    <text x="6030" y="315" class="lyric-text">ờ).</text>
    <text x="6070" y="465" class="lyric-text">Thấy</text>
    <text x="6150" y="402.5" class="lyric-text">chàng</text>
    <text x="6190" y="465" class="lyric-text">(a)</text>
    <text x="6270" y="427.5" class="lyric-text">ăn</text>
    <text x="6350" y="502.5" class="lyric-text">nói</text>
    <text x="6430" y="402.5" class="lyric-text">thật</text>
    <text x="6510" y="352.5" class="lyric-text">thà,</text>
    <text x="6550" y="402.5" class="lyric-text">hỏi</text>
    <text x="6630" y="440" class="lyric-text">thăm</text>
    <text x="6670" y="465" class="lyric-text">cái</text>
    <text x="6710" y="352.5" class="lyric-text">mà</text>
    <text x="6750" y="440" class="lyric-text">anh</text>
    <text x="6790" y="465" class="lyric-text">có</text>
    <text x="6830" y="440" class="lyric-text">con</text>
    <text x="6870" y="402.5" class="lyric-text">vợ</text>
    <text x="6950" y="402.5" class="lyric-text">ở</text>
    <text x="7030" y="352.5" class="lyric-text">nhà</text>
    <text x="7070" y="402.5" class="lyric-text">hay</text>
    <text x="7150" y="402.5" class="lyric-text">chưa</text>
    <text x="7190" y="352.5" class="lyric-text">(ơ</text>
    <text x="7230" y="315" class="lyric-text">ờ).</text>
    <text x="7270" y="402.5" class="lyric-text">Trọng</text>
    <text x="7350" y="352.5" class="lyric-text">rằng</text>
    <text x="7390" y="465" class="lyric-text">(a)</text>
    <text x="7430" y="465" class="lyric-text">buôn</text>
    <text x="7470" y="502.5" class="lyric-text">bán</text>
    <text x="7510" y="402.5" class="lyric-text">mà</text>
    <text x="7550" y="440" class="lyric-text">không.</text>
    
</svg>