<?xml version="1.0" encoding="UTF-8"?>
<svg width="1440" height="800" xmlns="http://www.w3.org/2000/svg">
    <defs>
        <style>
            .string-line { stroke: #333; stroke-width: 3; }
            .string-label { font-family: Arial; font-size: 14px; font-weight: bold; fill: #2c3e50; }
            .note-circle { fill: #008080; stroke: #005959; stroke-width: 2; }
            .note-text { font-family: Arial; font-size: 10px; font-weight: bold; fill: white; text-anchor: middle; }
            .grace-note { fill: #FFD700; stroke: #CC9900; }
            .bent-note { fill: #E67E22; stroke: #D35400; }
            .lyric-text { font-family: Arial; font-size: 12px; fill: #2c3e50; }
            .resonance-band { fill: #008080; opacity: 0.3; }
        </style>
    </defs>

    <!-- Title -->
    <text x="10" y="30" style="font-size: 20px; font-weight: bold; fill: #2c3e50;">TRỐNG QUÂN ĐỨC BẮC</text>
    <text x="10" y="50" style="font-size: 14px; fill: #666;">Tuning: C-D-E-G-Bb | 31 notes | Traditional</text>

    <!-- String Lines -->
    <line x1="100" y1="100" x2="1420" y2="100" class="string-line"/>
    <line x1="100" y1="125" x2="1420" y2="125" class="string-line"/>
    <line x1="100" y1="150" x2="1420" y2="150" class="string-line"/>
    <line x1="100" y1="187.5" x2="1420" y2="187.5" class="string-line"/>
    <line x1="100" y1="225" x2="1420" y2="225" class="string-line"/>
    <line x1="100" y1="250" x2="1420" y2="250" class="string-line"/>
    <line x1="100" y1="275" x2="1420" y2="275" class="string-line"/>
    <line x1="100" y1="300" x2="1420" y2="300" class="string-line"/>
    <line x1="100" y1="337.5" x2="1420" y2="337.5" class="string-line"/>
    <line x1="100" y1="375" x2="1420" y2="375" class="string-line"/>
    <line x1="100" y1="400" x2="1420" y2="400" class="string-line"/>
    <line x1="100" y1="425" x2="1420" y2="425" class="string-line"/>
    <line x1="100" y1="450" x2="1420" y2="450" class="string-line"/>
    <line x1="100" y1="487.5" x2="1420" y2="487.5" class="string-line"/>
    <line x1="100" y1="525" x2="1420" y2="525" class="string-line"/>
    <line x1="100" y1="550" x2="1420" y2="550" class="string-line"/>
    <line x1="100" y1="575" x2="1420" y2="575" class="string-line"/>

    <!-- String Labels -->
    <text x="50" y="105" class="string-label">C3</text>
    <text x="50" y="130" class="string-label">D3</text>
    <text x="50" y="155" class="string-label">E3</text>
    <text x="50" y="192.5" class="string-label">G3</text>
    <text x="50" y="230" class="string-label">Bb3</text>
    <text x="50" y="255" class="string-label">C4</text>
    <text x="50" y="280" class="string-label">D4</text>
    <text x="50" y="305" class="string-label">E4</text>
    <text x="50" y="342.5" class="string-label">G4</text>
    <text x="50" y="380" class="string-label">Bb4</text>
    <text x="50" y="405" class="string-label">C5</text>
    <text x="50" y="430" class="string-label">D5</text>
    <text x="50" y="455" class="string-label">E5</text>
    <text x="50" y="492.5" class="string-label">G5</text>
    <text x="50" y="530" class="string-label">Bb5</text>
    <text x="50" y="555" class="string-label">C6</text>
    <text x="50" y="580" class="string-label">D6</text>

    <!-- Notes -->
    <rect x="-10" y="423.5" width="320" height="3" class="resonance-band"/>
    <circle cx="150" cy="425" r="12" class="note-circle"/>
    <text x="150" y="429" class="note-text">12</text>
    <rect x="30" y="398.5" width="320" height="3" class="resonance-band"/>
    <circle cx="190" cy="400" r="12" class="note-circle"/>
    <text x="190" y="404" class="note-text">11</text>
    <rect x="70" y="423.5" width="320" height="3" class="resonance-band"/>
    <circle cx="230" cy="425" r="12" class="note-circle"/>
    <text x="230" y="429" class="note-text">12</text>
    <rect x="110" y="398.5" width="320" height="3" class="resonance-band"/>
    <circle cx="270" cy="400" r="12" class="note-circle"/>
    <text x="270" y="404" class="note-text">11</text>
    <rect x="150" y="373.5" width="320" height="3" class="resonance-band"/>
    <circle cx="310" cy="375" r="12" class="note-circle"/>
    <text x="310" y="379" class="note-text">10</text>
    <rect x="190" y="423.5" width="320" height="3" class="resonance-band"/>
    <circle cx="350" cy="425" r="12" class="note-circle"/>
    <text x="350" y="429" class="note-text">12</text>
    <rect x="230" y="398.5" width="320" height="3" class="resonance-band"/>
    <circle cx="390" cy="400" r="12" class="note-circle"/>
    <text x="390" y="404" class="note-text">11</text>
    <rect x="270" y="373.5" width="320" height="3" class="resonance-band"/>
    <circle cx="430" cy="375" r="12" class="note-circle"/>
    <text x="430" y="379" class="note-text">10</text>
    <rect x="310" y="398.5" width="320" height="3" class="resonance-band"/>
    <circle cx="470" cy="400" r="12" class="note-circle"/>
    <text x="470" y="404" class="note-text">11</text>
    <rect x="350" y="336" width="320" height="3" class="resonance-band"/>
    <circle cx="510" cy="337.5" r="12" class="note-circle"/>
    <text x="510" y="341.5" class="note-text">9</text>
    <rect x="390" y="423.5" width="320" height="3" class="resonance-band"/>
    <circle cx="550" cy="425" r="12" class="note-circle"/>
    <text x="550" y="429" class="note-text">12</text>
    <rect x="430" y="398.5" width="320" height="3" class="resonance-band"/>
    <circle cx="590" cy="400" r="12" class="note-circle"/>
    <text x="590" y="404" class="note-text">11</text>
    <rect x="470" y="398.5" width="320" height="3" class="resonance-band"/>
    <circle cx="630" cy="400" r="12" class="note-circle"/>
    <text x="630" y="404" class="note-text">11</text>
    <rect x="510" y="336" width="320" height="3" class="resonance-band"/>
    <circle cx="670" cy="337.5" r="12" class="note-circle"/>
    <text x="670" y="341.5" class="note-text">9</text>
    <rect x="550" y="398.5" width="320" height="3" class="resonance-band"/>
    <circle cx="710" cy="400" r="12" class="note-circle"/>
    <text x="710" y="404" class="note-text">11</text>
    <rect x="590" y="398.5" width="320" height="3" class="resonance-band"/>
    <circle cx="750" cy="400" r="6" class="grace-note"/>
    <rect x="630" y="423.5" width="320" height="3" class="resonance-band"/>
    <circle cx="790" cy="425" r="12" class="note-circle"/>
    <text x="790" y="429" class="note-text">12</text>
    <rect x="670" y="398.5" width="320" height="3" class="resonance-band"/>
    <circle cx="830" cy="400" r="12" class="note-circle"/>
    <text x="830" y="404" class="note-text">11</text>
    <rect x="710" y="336" width="320" height="3" class="resonance-band"/>
    <circle cx="870" cy="337.5" r="12" class="note-circle"/>
    <text x="870" y="341.5" class="note-text">9</text>
    <rect x="750" y="336" width="320" height="3" class="resonance-band"/>
    <circle cx="910" cy="337.5" r="12" class="note-circle"/>
    <text x="910" y="341.5" class="note-text">9</text>
    <rect x="790" y="398.5" width="320" height="3" class="resonance-band"/>
    <circle cx="950" cy="400" r="12" class="note-circle"/>
    <text x="950" y="404" class="note-text">11</text>
    <rect x="830" y="336" width="320" height="3" class="resonance-band"/>
    <circle cx="990" cy="337.5" r="12" class="note-circle"/>
    <text x="990" y="341.5" class="note-text">9</text>
    <rect x="870" y="336" width="320" height="3" class="resonance-band"/>
    <circle cx="1030" cy="337.5" r="12" class="note-circle"/>
    <text x="1030" y="341.5" class="note-text">9</text>
    <rect x="910" y="398.5" width="320" height="3" class="resonance-band"/>
    <circle cx="1070" cy="400" r="12" class="note-circle"/>
    <text x="1070" y="404" class="note-text">11</text>
    <rect x="950" y="423.5" width="320" height="3" class="resonance-band"/>
    <circle cx="1110" cy="425" r="12" class="note-circle"/>
    <text x="1110" y="429" class="note-text">12</text>
    <rect x="990" y="398.5" width="320" height="3" class="resonance-band"/>
    <circle cx="1150" cy="400" r="12" class="note-circle"/>
    <text x="1150" y="404" class="note-text">11</text>
    <rect x="1030" y="336" width="320" height="3" class="resonance-band"/>
    <circle cx="1190" cy="337.5" r="12" class="note-circle"/>
    <text x="1190" y="341.5" class="note-text">9</text>
    <rect x="1070" y="423.5" width="320" height="3" class="resonance-band"/>
    <circle cx="1230" cy="425" r="12" class="note-circle"/>
    <text x="1230" y="429" class="note-text">12</text>
    <rect x="1110" y="398.5" width="320" height="3" class="resonance-band"/>
    <circle cx="1270" cy="400" r="12" class="note-circle"/>
    <text x="1270" y="404" class="note-text">11</text>
    <rect x="1150" y="423.5" width="320" height="3" class="resonance-band"/>
    <circle cx="1310" cy="425" r="12" class="note-circle"/>
    <text x="1310" y="429" class="note-text">12</text>
    <rect x="1190" y="398.5" width="320" height="3" class="resonance-band"/>
    <circle cx="1350" cy="400" r="12" class="note-circle"/>
    <text x="1350" y="404" class="note-text">11</text>
    

    <!-- Lyrics -->
    <text x="150" y="465" class="lyric-text">Trống</text>
    <text x="190" y="440" class="lyric-text">quân</text>
    <text x="230" y="465" class="lyric-text">ta</text>
    <text x="310" y="415" class="lyric-text">tập</text>
    <text x="350" y="465" class="lyric-text">a</text>
    <text x="430" y="415" class="lyric-text">đã</text>
    <text x="470" y="440" class="lyric-text">lâu.</text>
    <text x="550" y="465" class="lyric-text">Tốn</text>
    <text x="590" y="440" class="lyric-text">cơm</text>
    <text x="630" y="440" class="lyric-text">thôi</text>
    <text x="670" y="377.5" class="lyric-text">là</text>
    <text x="710" y="440" class="lyric-text">tốn</text>
    <text x="790" y="465" class="lyric-text">áo</text>
    <text x="830" y="440" class="lyric-text">tốn</text>
    <text x="910" y="377.5" class="lyric-text">dầu</text>
    <text x="950" y="440" class="lyric-text">thôi</text>
    <text x="990" y="377.5" class="lyric-text">là</text>
    <text x="1030" y="377.5" class="lyric-text">mẹ</text>
    <text x="1070" y="440" class="lyric-text">cha.</text>
    <text x="1110" y="465" class="lyric-text">Kìa</text>
    <text x="1190" y="377.5" class="lyric-text">hỡi</text>
    <text x="1230" y="465" class="lyric-text">a</text>
    <text x="1310" y="465" class="lyric-text">trống</text>
    <text x="1350" y="440" class="lyric-text">quân.</text>
    
</svg>