<svg width="300" height="120" viewBox="0 0 600 400" xmlns="http://www.w3.org/2000/svg">
    <rect width="600" height="400" fill="#ffffff"/>
    <g transform="scale(0.5)">
        <circle cx="100" cy="250" r="8" fill="#666666"
                            fill="#333">À</text><circle cx="780" cy="312.5" r="8" fill="#666666"
                            fill="#333">á</text><circle cx="865" cy="275" r="8" fill="#666666"
                            fill="#333">a</text><circle cx="950" cy="250" r="8" fill="#666666"
                            fill="#333">à</text><circle cx="1035" cy="250" r="8" fill="#666666"
                            fill="#333">ơi</text><circle cx="1375" cy="250" r="8" fill="#666666"
                            fill="#333">A</text><circle cx="1715" cy="312.5" r="8" fill="#666666"
                            fill="#333">á</text><circle cx="1800" cy="275" r="8" fill="#666666"
                            fill="#333">a</text><circle cx="1885" cy="250" r="8" fill="#666666"
                            fill="#333">à</text><circle cx="1970" cy="312.5" r="8" fill="#666666"
                                stroke-dasharray="3,2" fill="none"/><circle cx="2650" cy="337.5" r="8" fill="#666666"
                                stroke-dasharray="2,2"/><circle cx="2692.5" cy="400" r="8" fill="#666666"
                                stroke-dasharray="3,2" fill="none"/><circle cx="2735" cy="337.5" r="8" fill="#666666"
                                stroke-dasharray="2,2"/><circle cx="2777.5" cy="400" r="8" fill="#666666"
                        fill="#333">14</text><circle cx="2820" cy="312.5" r="8" fill="#666666"
                                stroke-dasharray="3,2" fill="none"/><circle cx="3160" cy="337.5" r="8" fill="#666666"
                                stroke-dasharray="3,2" fill="none"/><circle cx="4095" cy="362.5" r="8" fill="#666666"
                                stroke-dasharray="3,2" fill="none"/><circle cx="7835" cy="337.5" r="8" fill="#666666"
                                stroke-dasharray="3,2" fill="none"/><circle cx="7920" cy="362.5" r="8" fill="#666666"
                                stroke-dasharray="3,2" fill="none"/><circle cx="8260" cy="337.5" r="8" fill="#666666"
                                stroke-dasharray="3,2" fill="none"/><circle cx="8430" cy="362.5" r="8" fill="#666666"
                                stroke-dasharray="3,2" fill="none"/><circle cx="8472.5" cy="337.5" r="8" fill="#666666"
                                stroke-dasharray="3,2" fill="none"/><circle cx="9535" cy="337.5" r="8" fill="#666666"
                                stroke-dasharray="3,2" fill="none"/><circle cx="9875" cy="362.5" r="8" fill="#666666"
                                stroke-dasharray="3,2" fill="none"/><circle cx="9917.5" cy="337.5" r="8" fill="#666666"
                                stroke-dasharray="3,2" fill="none"/><circle cx="10470" cy="337.5" r="8" fill="#666666"
    </g>
    <!-- Song name overlay -->
    <rect x="0" y="90" width="300" height="30" fill="rgba(0,128,128,0.9)"/>
    <text x="150" y="108" text-anchor="middle" fill="white" font-size="12" font-family="system-ui">
        hát ru miền bắc
    </text>
</svg>