<svg width="300" height="120" viewBox="0 0 600 400" xmlns="http://www.w3.org/2000/svg">
    <rect width="600" height="400" fill="#ffffff"/>
    <g transform="scale(0.5)">
        <circle cx="100" cy="250" r="8" fill="#666666"
                                stroke-dasharray="3,2" fill="none"/><circle cx="185" cy="337.5" r="8" fill="#666666"
                            fill="#333">Các</text><circle cx="312.5" cy="250" r="8" fill="#666666"
                                stroke-dasharray="3,2" fill="none"/><circle cx="355" cy="337.5" r="8" fill="#666666"
                            fill="#333">bác</text><circle cx="440" cy="312.5" r="8" fill="#666666"
                            fill="#333">chim</text><circle cx="525" cy="312.5" r="8" fill="#666666"
                            fill="#333">Ri.</text><circle cx="780" cy="312.5" r="8" fill="#666666"
                            fill="#333">Chim</text><circle cx="865" cy="312.5" r="8" fill="#666666"
                            fill="#333">Ri</text><circle cx="992.5" cy="250" r="8" fill="#666666"
                            fill="#333">là</text><circle cx="1035" cy="250" r="8" fill="#666666"
                                stroke-dasharray="3,2" fill="none"/><circle cx="1120" cy="337.5" r="8" fill="#666666"
                            fill="#333">Sáo</text><circle cx="1192.5" cy="250" r="5" fill="#FFD700"
<circle cx="1205" cy="312.5" r="8" fill="#666666"
                                stroke-dasharray="3,2" fill="none"/><circle cx="1460" cy="337.5" r="8" fill="#666666"
                            fill="#333">Sáo</text><circle cx="1532.5" cy="250" r="5" fill="#FFD700"
                                stroke-dasharray="3,2" fill="none"/><circle cx="1800" cy="337.5" r="8" fill="#666666"
                                stroke-dasharray="3,2" fill="none"/><circle cx="2182.5" cy="337.5" r="8" fill="#666666"
                                stroke-dasharray="3,2" fill="none"/><circle cx="2565" cy="337.5" r="8" fill="#666666"
                                stroke-dasharray="3,2" fill="none"/><circle cx="2905" cy="337.5" r="8" fill="#666666"
                                stroke-dasharray="3,2" fill="none"/><circle cx="3075" cy="337.5" r="8" fill="#666666"
                                stroke-dasharray="3,2" fill="none"/><circle cx="3245" cy="337.5" r="8" fill="#666666"
                                stroke-dasharray="3,2" fill="none"/><circle cx="3585" cy="337.5" r="8" fill="#666666"
                                stroke-dasharray="3,2" fill="none"/><circle cx="3755" cy="337.5" r="8" fill="#666666"
    </g>
    <!-- Song name overlay -->
    <rect x="0" y="90" width="300" height="30" fill="rgba(0,128,128,0.9)"/>
    <text x="150" y="108" text-anchor="middle" fill="white" font-size="12" font-family="system-ui">
        Bồ Các là bác chim Ri
    </text>
</svg>