<svg width="300" height="120" viewBox="0 0 600 400" xmlns="http://www.w3.org/2000/svg">
    <rect width="600" height="400" fill="#ffffff"/>
    <g transform="scale(0.5)">
        <circle cx="227.5" cy="400" r="8" fill="#666666"
                            fill="#333">Ai</text><circle cx="270" cy="400" r="8" fill="#666666"
                            fill="#333">đem</text><circle cx="312.5" cy="400" r="8" fill="#666666"
                            fill="#333">con</text><circle cx="355" cy="400" r="8" fill="#666666"
                            fill="#333">sáo</text><circle cx="397.5" cy="400" r="8" fill="#666666"
                            fill="#333">sang</text><circle cx="440" cy="400" r="8" fill="#666666"
                            fill="#333">sông</text><circle cx="610" cy="425" r="8" fill="#666666"
                            fill="#333">để</text><circle cx="652.5" cy="400" r="8" fill="#666666"
                        fill="#333">8</text><circle cx="695" cy="462.5" r="8" fill="#666666"
                                stroke-dasharray="3,2" fill="none"/><circle cx="780" cy="487.5" r="8" fill="#666666"
                        fill="#333">10</text><circle cx="822.5" cy="400" r="8" fill="#666666"
                            fill="#333">cho</text><circle cx="907.5" cy="425" r="8" fill="#666666"
                            fill="#333">để</text><circle cx="950" cy="400" r="8" fill="#666666"
                                stroke-dasharray="2,2"/><circle cx="992.5" cy="375" r="8" fill="#666666"
                        fill="#333">14</text><circle cx="1035" cy="312.5" r="8" fill="#666666"
                                stroke-dasharray="3,2" fill="none"/><circle cx="1120" cy="337.5" r="8" fill="#666666"
                                stroke-dasharray="3,2" fill="none"/><circle cx="1630" cy="337.5" r="8" fill="#666666"
                                stroke-dasharray="3,2" fill="none"/><circle cx="1715" cy="362.5" r="8" fill="#666666"
                                stroke-dasharray="3,2" fill="none"/><circle cx="1757.5" cy="337.5" r="8" fill="#666666"
                                stroke-dasharray="3,2" fill="none"/><circle cx="1842.5" cy="337.5" r="8" fill="#666666"
                                stroke-dasharray="3,2" fill="none"/><circle cx="2055" cy="337.5" r="8" fill="#666666"
                                stroke-dasharray="3,2" fill="none"/><circle cx="2310" cy="337.5" r="8" fill="#666666"
                                stroke-dasharray="3,2" fill="none"/><circle cx="2395" cy="362.5" r="8" fill="#666666"
                                stroke-dasharray="3,2" fill="none"/><circle cx="2437.5" cy="337.5" r="8" fill="#666666"
                                stroke-dasharray="3,2" fill="none"/><circle cx="2522.5" cy="337.5" r="8" fill="#666666"
                                stroke-dasharray="3,2" fill="none"/><circle cx="2735" cy="337.5" r="8" fill="#666666"
    </g>
    <!-- Song name overlay -->
    <rect x="0" y="90" width="300" height="30" fill="rgba(0,128,128,0.9)"/>
    <text x="150" y="108" text-anchor="middle" fill="white" font-size="12" font-family="system-ui">
        Lý hoài xuân
    </text>
</svg>