<svg width="300" height="120" viewBox="0 0 600 400" xmlns="http://www.w3.org/2000/svg">
    <rect width="600" height="400" fill="#ffffff"/>
    <g transform="scale(0.5)">
        <circle cx="100" cy="250" r="8" fill="#666666"
                            fill="#333">Bồng</text><circle cx="185" cy="275" r="8" fill="#666666"
                            fill="#333">bồng</text><circle cx="342.5" cy="312.5" r="5" fill="#FFD700"
<circle cx="355" cy="250" r="8" fill="#666666"
                            fill="#FFD700">♪</text><circle cx="512.5" cy="275" r="5" fill="#FFD700"
<circle cx="525" cy="250" r="8" fill="#666666"
                            fill="#FFD700">♪</text><circle cx="695" cy="250" r="8" fill="#666666"
                            fill="#333">Bồng</text><circle cx="780" cy="275" r="8" fill="#666666"
                            fill="#333">bồng</text><circle cx="937.5" cy="312.5" r="5" fill="#FFD700"
<circle cx="950" cy="250" r="8" fill="#666666"
                            fill="#FFD700">♪</text><circle cx="1120" cy="250" r="8" fill="#666666"
                            fill="#333">bồng</text><circle cx="1277.5" cy="337.5" r="5" fill="#FFD700"
<circle cx="1290" cy="400" r="8" fill="#666666"
                            fill="#FFD700">♪</text><circle cx="1617.5" cy="425" r="5" fill="#FFD700"
<circle cx="1605" cy="400" r="5" fill="#FFD700"
                                stroke-dasharray="3,2" fill="none"/><circle cx="1630" cy="362.5" r="8" fill="#666666"
                                stroke-dasharray="3,2" fill="none"/><circle cx="2140" cy="362.5" r="8" fill="#666666"
                                stroke-dasharray="3,2" fill="none"/><circle cx="2310" cy="337.5" r="8" fill="#666666"
                                stroke-dasharray="3,2" fill="none"/><circle cx="2480" cy="362.5" r="8" fill="#666666"
                                stroke-dasharray="3,2" fill="none"/><circle cx="2565" cy="362.5" r="8" fill="#666666"
                                stroke-dasharray="3,2" fill="none"/><circle cx="2777.5" cy="362.5" r="8" fill="#666666"
                                stroke-dasharray="3,2" fill="none"/><circle cx="2820" cy="337.5" r="8" fill="#666666"
                                stroke-dasharray="3,2" fill="none"/><circle cx="3075" cy="337.5" r="8" fill="#666666"
                                stroke-dasharray="3,2" fill="none"/><circle cx="3117.5" cy="362.5" r="8" fill="#666666"
                                stroke-dasharray="3,2" fill="none"/><circle cx="3160" cy="337.5" r="8" fill="#666666"
                                stroke-dasharray="3,2" fill="none"/><circle cx="3245" cy="362.5" r="8" fill="#666666"
                                stroke-dasharray="3,2" fill="none"/><circle cx="3330" cy="362.5" r="8" fill="#666666"
                                stroke-dasharray="3,2" fill="none"/><circle cx="3415" cy="362.5" r="8" fill="#666666"
                                stroke-dasharray="3,2" fill="none"/><circle cx="3500" cy="337.5" r="8" fill="#666666"
                                stroke-dasharray="3,2" fill="none"/><circle cx="4520" cy="362.5" r="8" fill="#666666"
                                stroke-dasharray="3,2" fill="none"/><circle cx="4860" cy="337.5" r="8" fill="#666666"
                                stroke-dasharray="3,2" fill="none"/><circle cx="4945" cy="362.5" r="8" fill="#666666"
                                stroke-dasharray="3,2" fill="none"/><circle cx="5030" cy="337.5" r="8" fill="#666666"
                                stroke-dasharray="3,2" fill="none"/><circle cx="5285" cy="362.5" r="8" fill="#666666"
                                stroke-dasharray="3,2" fill="none"/><circle cx="5370" cy="362.5" r="8" fill="#666666"
                                stroke-dasharray="3,2" fill="none"/><circle cx="5837.5" cy="337.5" r="8" fill="#666666"
    </g>
    <!-- Song name overlay -->
    <rect x="0" y="90" width="300" height="30" fill="rgba(0,128,128,0.9)"/>
    <text x="150" y="108" text-anchor="middle" fill="white" font-size="12" font-family="system-ui">
        Hò ru em cảnh dương (quản
    </text>
</svg>