<svg width="300" height="120" viewBox="0 0 600 400" xmlns="http://www.w3.org/2000/svg">
    <rect width="600" height="400" fill="#ffffff"/>
    <g transform="scale(0.5)">
        <circle cx="270" cy="275" r="8" fill="#666666"
                            fill="#333">Hời</text><circle cx="440" cy="275" r="8" fill="#666666"
                        fill="#333">2</text><circle cx="482.5" cy="312.5" r="8" fill="#666666"
                            fill="#333">hơ</text><circle cx="525" cy="275" r="8" fill="#666666"
                        fill="#333">4</text><circle cx="567.5" cy="250" r="8" fill="#666666"
                        fill="#333">5</text><circle cx="610" cy="275" r="8" fill="#666666"
                            fill="#333">hời</text><circle cx="950" cy="275" r="8" fill="#666666"
                            fill="#333">Hời</text><circle cx="1120" cy="275" r="8" fill="#666666"
                        fill="#333">8</text><circle cx="1162.5" cy="312.5" r="8" fill="#666666"
                            fill="#333">hơ</text><circle cx="1205" cy="275" r="8" fill="#666666"
                        fill="#333">10</text><circle cx="1247.5" cy="250" r="8" fill="#666666"
                        fill="#333">11</text><circle cx="1290" cy="275" r="8" fill="#666666"
                            fill="#333">hời.</text><circle cx="1545" cy="275" r="8" fill="#666666"
                                stroke-dasharray="3,2" fill="none"/><circle cx="1587.5" cy="325" r="8" fill="#666666"
                                stroke-dasharray="3,2" fill="none"/><circle cx="1630" cy="337.5" r="8" fill="#666666"
                                stroke-dasharray="3,2" fill="none"/><circle cx="1885" cy="337.5" r="8" fill="#666666"
                                stroke-dasharray="3,2" fill="none"/><circle cx="1927.5" cy="325" r="8" fill="#666666"
                                stroke-dasharray="3,2" fill="none"/><circle cx="1970" cy="362.5" r="8" fill="#666666"
                                stroke-dasharray="3,2" fill="none"/><circle cx="2097.5" cy="387.5" r="8" fill="#666666"
                                stroke-dasharray="3,2" fill="none"/><circle cx="2140" cy="362.5" r="8" fill="#666666"
                                stroke-dasharray="3,2" fill="none"/><circle cx="2182.5" cy="337.5" r="8" fill="#666666"
                                stroke-dasharray="3,2" fill="none"/><circle cx="2267.5" cy="325" r="8" fill="#666666"
                                stroke-dasharray="3,2" fill="none"/><circle cx="2310" cy="337.5" r="8" fill="#666666"
                                stroke-dasharray="3,2" fill="none"/><circle cx="2607.5" cy="337.5" r="8" fill="#666666"
                                stroke-dasharray="3,2" fill="none"/><circle cx="2990" cy="337.5" r="8" fill="#666666"
                                stroke-dasharray="3,2" fill="none"/><circle cx="4010" cy="325" r="8" fill="#666666"
                                stroke-dasharray="3,2" fill="none"/><circle cx="4095" cy="300" r="8" fill="#666666"
                                stroke-dasharray="3,2" fill="none"/><circle cx="4180" cy="300" r="8" fill="#666666"
                                stroke-dasharray="3,2" fill="none"/><circle cx="4222.5" cy="325" r="8" fill="#666666"
                                stroke-dasharray="3,2" fill="none"/><circle cx="4265" cy="300" r="8" fill="#666666"
                                stroke-dasharray="3,2" fill="none"/><circle cx="4307.5" cy="325" r="8" fill="#666666"
                                stroke-dasharray="3,2" fill="none"/><circle cx="4350" cy="300" r="8" fill="#666666"
                                stroke-dasharray="3,2" fill="none"/><circle cx="4605" cy="212.5" r="8" fill="#666666"
                                stroke-dasharray="3,2" fill="none"/><circle cx="5285" cy="212.5" r="8" fill="#666666"
    </g>
    <!-- Song name overlay -->
    <rect x="0" y="90" width="300" height="30" fill="rgba(0,128,128,0.9)"/>
    <text x="150" y="108" text-anchor="middle" fill="white" font-size="12" font-family="system-ui">
        Hát ru (Sông Cầu, Phú Yê
    </text>
</svg>