<svg width="300" height="120" viewBox="0 0 600 400" xmlns="http://www.w3.org/2000/svg">
    <rect width="600" height="400" fill="#ffffff"/>
    <g transform="scale(0.5)">
                                        stroke-dasharray="3,2" fill="none"/><circle cx="100" cy="337.5" r="8" fill="#666666"
                                stroke-dasharray="3,2" fill="none"/><circle cx="185" cy="337.5" r="8" fill="#666666"
                            fill="#333">chi</text><circle cx="270" cy="250" r="8" fill="#666666"
                            fill="#333">chành</text><circle cx="355" cy="250" r="8" fill="#666666"
                            fill="#333">chành.</text><circle cx="440" cy="400" r="8" fill="#666666"
                                stroke-dasharray="3,2" fill="none"/><circle cx="525" cy="337.5" r="8" fill="#666666"
                            fill="#333">đanh</text><circle cx="610" cy="250" r="8" fill="#666666"
                                stroke-dasharray="2,2"/><circle cx="640" cy="312.5" r="5" fill="#FFD700"
<circle cx="695" cy="250" r="8" fill="#666666"
                            fill="#333">lửa.</text><circle cx="725" cy="312.5" r="5" fill="#FFD700"
<circle cx="780" cy="312.5" r="8" fill="#666666"
                            fill="#FFD700">♪</text><circle cx="865" cy="250" r="8" fill="#666666"
                            fill="#333">ngựa</text><circle cx="950" cy="400" r="8" fill="#666666"
                                stroke-dasharray="3,2" fill="none"/><circle cx="1035" cy="337.5" r="8" fill="#666666"
                                stroke-dasharray="3,2" fill="none"/><circle cx="1162.5" cy="337.5" r="8" fill="#666666"
                                stroke-dasharray="3,2" fill="none"/><circle cx="1205" cy="337.5" r="8" fill="#666666"
                                stroke-dasharray="3,2" fill="none"/><circle cx="1630" cy="337.5" r="8" fill="#666666"
                                stroke-dasharray="3,2" fill="none"/><circle cx="1885" cy="337.5" r="8" fill="#666666"
                                stroke-dasharray="3,2" fill="none"/><circle cx="2055" cy="337.5" r="8" fill="#666666"
    </g>
    <!-- Song name overlay -->
    <rect x="0" y="90" width="300" height="30" fill="rgba(0,128,128,0.9)"/>
    <text x="150" y="108" text-anchor="middle" fill="white" font-size="12" font-family="system-ui">
        chi chi chành chành
    </text>
</svg>