<svg width="300" height="120" viewBox="0 0 600 400" xmlns="http://www.w3.org/2000/svg">
    <rect width="600" height="400" fill="#ffffff"/>
    <g transform="scale(0.5)">
        <circle cx="100" cy="425" r="8" fill="#666666"
                            fill="#333">Trống</text><circle cx="185" cy="400" r="8" fill="#666666"
                            fill="#333">quân</text><circle cx="355" cy="425" r="8" fill="#666666"
                            fill="#333">ta</text><circle cx="440" cy="400" r="8" fill="#666666"
                        fill="#333">4</text><circle cx="525" cy="375" r="8" fill="#666666"
                            fill="#333">tập</text><circle cx="610" cy="425" r="8" fill="#666666"
                            fill="#333">a</text><circle cx="695" cy="400" r="8" fill="#666666"
                        fill="#333">7</text><circle cx="780" cy="375" r="8" fill="#666666"
                            fill="#333">đã</text><circle cx="865" cy="400" r="8" fill="#666666"
                                stroke-dasharray="3,2" fill="none"/><circle cx="950" cy="337.5" r="8" fill="#666666"
                        fill="#333">10</text><circle cx="1120" cy="425" r="8" fill="#666666"
                            fill="#333">Tốn</text><circle cx="1205" cy="400" r="8" fill="#666666"
                            fill="#333">cơm</text><circle cx="1290" cy="400" r="8" fill="#666666"
                                stroke-dasharray="3,2" fill="none"/><circle cx="1375" cy="337.5" r="8" fill="#666666"
                            fill="#333">là</text><circle cx="1460" cy="400" r="8" fill="#666666"
                                stroke-dasharray="3,2" fill="none"/><circle cx="1800" cy="337.5" r="8" fill="#666666"
                                stroke-dasharray="3,2" fill="none"/><circle cx="1885" cy="337.5" r="8" fill="#666666"
                                stroke-dasharray="3,2" fill="none"/><circle cx="2055" cy="337.5" r="8" fill="#666666"
                                stroke-dasharray="3,2" fill="none"/><circle cx="2140" cy="337.5" r="8" fill="#666666"
                                stroke-dasharray="3,2" fill="none"/><circle cx="2565" cy="337.5" r="8" fill="#666666"
    </g>
    <!-- Song name overlay -->
    <rect x="0" y="90" width="300" height="30" fill="rgba(0,128,128,0.9)"/>
    <text x="150" y="108" text-anchor="middle" fill="white" font-size="12" font-family="system-ui">
        Trống quân đức bắc
    </text>
</svg>