<svg width="300" height="120" viewBox="0 0 600 400" xmlns="http://www.w3.org/2000/svg">
    <rect width="600" height="400" fill="#ffffff"/>
    <g transform="scale(0.5)">
        <circle cx="87.5" cy="362.5" r="5" fill="#FFD700"
                                stroke-dasharray="3,2" fill="none"/><circle cx="100" cy="387.5" r="8" fill="#666666"
                            fill="#FFD700">♪</text><circle cx="355" cy="425" r="8" fill="#666666"
                        fill="#333">3</text><circle cx="482.5" cy="400" r="8" fill="#666666"
                        fill="#333">4</text><circle cx="610" cy="425" r="8" fill="#666666"
                        fill="#333">5</text><circle cx="1375" cy="400" r="8" fill="#666666"
                                stroke-dasharray="3,2" fill="none"/><circle cx="1502.5" cy="362.5" r="8" fill="#666666"
                                stroke-dasharray="3,2" fill="none"/><circle cx="1630" cy="337.5" r="8" fill="#666666"
                                stroke-dasharray="3,2" fill="none"/><circle cx="1757.5" cy="362.5" r="8" fill="#666666"
                                stroke-dasharray="3,2" fill="none"/><circle cx="1885" cy="337.5" r="8" fill="#666666"
                        fill="#333">10</text><circle cx="2127.5" cy="337.5" r="5" fill="#FFD700"
                                stroke-dasharray="3,2" fill="none"/><circle cx="2140" cy="362.5" r="8" fill="#666666"
                            fill="#FFD700">♪</text><circle cx="2395" cy="400" r="8" fill="#666666"
                            fill="#333">ba</text><circle cx="2650" cy="400" r="8" fill="#666666"
                            fill="#333">năm</text><circle cx="2905" cy="400" r="8" fill="#666666"
                                stroke-dasharray="3,2" fill="none"/><circle cx="3032.5" cy="337.5" r="8" fill="#666666"
                                stroke-dasharray="3,2" fill="none"/><circle cx="3287.5" cy="337.5" r="8" fill="#666666"
                                stroke-dasharray="3,2" fill="none"/><circle cx="3670" cy="362.5" r="8" fill="#666666"
                                stroke-dasharray="3,2" fill="none"/><circle cx="3925" cy="362.5" r="8" fill="#666666"
                                stroke-dasharray="3,2" fill="none"/><circle cx="4180" cy="362.5" r="8" fill="#666666"
                                stroke-dasharray="3,2" fill="none"/><circle cx="4817.5" cy="337.5" r="8" fill="#666666"
                                stroke-dasharray="3,2" fill="none"/><circle cx="5200" cy="337.5" r="8" fill="#666666"
                                stroke-dasharray="3,2" fill="none"/><circle cx="5327.5" cy="362.5" r="8" fill="#666666"
                                stroke-dasharray="3,2" fill="none"/><circle cx="5455" cy="337.5" r="8" fill="#666666"
                                stroke-dasharray="3,2" fill="none"/><circle cx="5582.5" cy="362.5" r="8" fill="#666666"
                                stroke-dasharray="3,2" fill="none"/><circle cx="6730" cy="362.5" r="8" fill="#666666"
                                stroke-dasharray="3,2" fill="none"/><circle cx="7495" cy="362.5" r="8" fill="#666666"
                                stroke-dasharray="3,2" fill="none"/><circle cx="8005" cy="362.5" r="8" fill="#666666"
                                stroke-dasharray="3,2" fill="none"/><circle cx="8175" cy="362.5" r="8" fill="#666666"
                                stroke-dasharray="3,2" fill="none"/><circle cx="8260" cy="337.5" r="8" fill="#666666"
                                stroke-dasharray="3,2" fill="none"/><circle cx="9790" cy="337.5" r="8" fill="#666666"
                                stroke-dasharray="3,2" fill="none"/><circle cx="9917.5" cy="362.5" r="8" fill="#666666"
                                stroke-dasharray="3,2" fill="none"/><circle cx="10045" cy="337.5" r="8" fill="#666666"
                                stroke-dasharray="3,2" fill="none"/><circle cx="10300" cy="337.5" r="8" fill="#666666"
                                stroke-dasharray="3,2" fill="none"/><circle cx="10682.5" cy="362.5" r="8" fill="#666666"
                                stroke-dasharray="3,2" fill="none"/><circle cx="11320" cy="362.5" r="8" fill="#666666"
                                stroke-dasharray="3,2" fill="none"/><circle cx="11575" cy="362.5" r="8" fill="#666666"
                                stroke-dasharray="3,2" fill="none"/><circle cx="11702.5" cy="337.5" r="8" fill="#666666"
                                stroke-dasharray="3,2" fill="none"/><circle cx="12850" cy="337.5" r="8" fill="#666666"
                                stroke-dasharray="3,2" fill="none"/><circle cx="13360" cy="337.5" r="8" fill="#666666"
                                stroke-dasharray="3,2" fill="none"/><circle cx="13615" cy="337.5" r="8" fill="#666666"
                                stroke-dasharray="3,2" fill="none"/><circle cx="13870" cy="337.5" r="8" fill="#666666"
                                stroke-dasharray="3,2" fill="none"/><circle cx="14380" cy="362.5" r="8" fill="#666666"
                                stroke-dasharray="3,2" fill="none"/><circle cx="14635" cy="387.5" r="8" fill="#666666"
                                stroke-dasharray="3,2" fill="none"/><circle cx="14762.5" cy="362.5" r="8" fill="#666666"
                                stroke-dasharray="3,2" fill="none"/><circle cx="14890" cy="387.5" r="8" fill="#666666"
                                stroke-dasharray="3,2" fill="none"/><circle cx="15655" cy="362.5" r="8" fill="#666666"
                                stroke-dasharray="3,2" fill="none"/><circle cx="15740" cy="387.5" r="8" fill="#666666"
                                stroke-dasharray="3,2" fill="none"/><circle cx="15825" cy="362.5" r="8" fill="#666666"
                                stroke-dasharray="3,2" fill="none"/><circle cx="15910" cy="337.5" r="8" fill="#666666"
    </g>
    <!-- Song name overlay -->
    <rect x="0" y="90" width="300" height="30" fill="rgba(0,128,128,0.9)"/>
    <text x="150" y="108" text-anchor="middle" fill="white" font-size="12" font-family="system-ui">
        Hò hái củi
    </text>
</svg>