<svg width="200" height="100" xmlns="http://www.w3.org/2000/svg"><rect width="200" height="100" fill="#f8f9fa"/><circle cx="3.225806451612903" cy="30" r="2" fill="#4dabf7"/><circle cx="9.677419354838708" cy="42" r="2" fill="#4dabf7"/><circle cx="16.129032258064516" cy="30" r="2" fill="#4dabf7"/><circle cx="22.58064516129032" cy="42" r="2" fill="#4dabf7"/><circle cx="29.032258064516128" cy="42" r="2" fill="#4dabf7"/><circle cx="35.483870967741936" cy="30" r="2" fill="#4dabf7"/><circle cx="41.93548387096774" cy="42" r="2" fill="#4dabf7"/><circle cx="48.387096774193544" cy="42" r="2" fill="#4dabf7"/><circle cx="54.83870967741935" cy="42" r="2" fill="#4dabf7"/><circle cx="61.29032258064516" cy="66" r="2" fill="#4dabf7"/><circle cx="67.74193548387096" cy="30" r="2" fill="#4dabf7"/><circle cx="74.19354838709677" cy="42" r="2" fill="#4dabf7"/><circle cx="80.64516129032256" cy="42" r="2" fill="#4dabf7"/><circle cx="87.09677419354837" cy="66" r="2" fill="#4dabf7"/><circle cx="93.54838709677418" cy="42" r="2" fill="#4dabf7"/><circle cx="99.99999999999999" cy="42" r="2" fill="#ff6b6b"/><circle cx="106.4516129032258" cy="30" r="2" fill="#4dabf7"/><circle cx="112.9032258064516" cy="42" r="2" fill="#4dabf7"/><circle cx="119.35483870967741" cy="66" r="2" fill="#4dabf7"/><circle cx="125.80645161290322" cy="66" r="2" fill="#4dabf7"/><circle cx="132.25806451612902" cy="42" r="2" fill="#4dabf7"/><circle cx="138.70967741935482" cy="66" r="2" fill="#4dabf7"/><circle cx="145.16129032258064" cy="66" r="2" fill="#4dabf7"/><circle cx="151.61290322580643" cy="42" r="2" fill="#4dabf7"/><circle cx="158.06451612903223" cy="30" r="2" fill="#4dabf7"/><circle cx="164.51612903225805" cy="42" r="2" fill="#4dabf7"/><circle cx="170.96774193548384" cy="66" r="2" fill="#4dabf7"/><circle cx="177.41935483870967" cy="30" r="2" fill="#4dabf7"/><circle cx="183.87096774193546" cy="42" r="2" fill="#4dabf7"/><circle cx="190.32258064516128" cy="30" r="2" fill="#4dabf7"/><circle cx="196.77419354838707" cy="42" r="2" fill="#4dabf7"/></svg>