<svg width="300" height="120" viewBox="0 0 600 400" xmlns="http://www.w3.org/2000/svg">
    <rect width="600" height="400" fill="#ffffff"/>
    <g transform="scale(0.5)">
                                        stroke-dasharray="3,2" fill="none"/><circle cx="100" cy="300" r="8" fill="#666666"
                                stroke-dasharray="3,2" fill="none"/><circle cx="610" cy="362.5" r="8" fill="#666666"
                            fill="#333">Khóa</text><circle cx="1120" cy="400" r="8" fill="#666666"
                                stroke-dasharray="3,2" fill="none"/><circle cx="1630" cy="362.5" r="8" fill="#666666"
                        fill="#333">4</text><circle cx="2140" cy="400" r="8" fill="#666666"
                                stroke-dasharray="3,2" fill="none"/><circle cx="2310" cy="362.5" r="8" fill="#666666"
                                stroke-dasharray="3,2" fill="none"/><circle cx="2480" cy="337.5" r="8" fill="#666666"
                                stroke-dasharray="3,2" fill="none"/><circle cx="2650" cy="362.5" r="8" fill="#666666"
                                stroke-dasharray="3,2" fill="none"/><circle cx="3160" cy="300" r="8" fill="#666666"
                            fill="#333">Cậu</text><circle cx="3657.5" cy="400" r="5" fill="#FFD700"
                                stroke-dasharray="3,2" fill="none"/><circle cx="3670" cy="362.5" r="8" fill="#666666"
                                stroke-dasharray="3,2" fill="none"/><circle cx="3925" cy="362.5" r="8" fill="#666666"
                            fill="#333">tôi</text><circle cx="4422.5" cy="400" r="5" fill="#FFD700"
<circle cx="4410" cy="337.5" r="5" fill="#FFD700"
                                stroke-dasharray="3,2" fill="none"/><circle cx="4435" cy="362.5" r="8" fill="#666666"
                                stroke-dasharray="3,2" fill="none"/><circle cx="4945" cy="362.5" r="8" fill="#666666"
                                stroke-dasharray="3,2" fill="none"/><circle cx="5710" cy="362.5" r="8" fill="#666666"
                                stroke-dasharray="3,2" fill="none"/><circle cx="6220" cy="362.5" r="8" fill="#666666"
                                stroke-dasharray="3,2" fill="none"/><circle cx="6475" cy="362.5" r="8" fill="#666666"
                                stroke-dasharray="3,2" fill="none"/><circle cx="6602.5" cy="337.5" r="8" fill="#666666"
                                stroke-dasharray="3,2" fill="none"/><circle cx="6730" cy="362.5" r="8" fill="#666666"
                                stroke-dasharray="3,2" fill="none"/><circle cx="8770" cy="300" r="8" fill="#666666"
                                stroke-dasharray="3,2" fill="none"/><circle cx="9280" cy="300" r="8" fill="#666666"
                                stroke-dasharray="3,2" fill="none"/><circle cx="9535" cy="212.5" r="8" fill="#666666"
                                stroke-dasharray="3,2" fill="none"/><circle cx="10045" cy="300" r="8" fill="#666666"
                                stroke-dasharray="3,2" fill="none"/><circle cx="10300" cy="337.5" r="8" fill="#666666"
                                stroke-dasharray="3,2" fill="none"/><circle cx="10555" cy="337.5" r="8" fill="#666666"
                                stroke-dasharray="3,2" fill="none"/><circle cx="11065" cy="300" r="8" fill="#666666"
                                stroke-dasharray="3,2" fill="none"/><circle cx="11575" cy="300" r="8" fill="#666666"
                                stroke-dasharray="3,2" fill="none"/><circle cx="11830" cy="212.5" r="8" fill="#666666"
                                stroke-dasharray="3,2" fill="none"/><circle cx="12340" cy="212.5" r="8" fill="#666666"
                                stroke-dasharray="3,2" fill="none"/><circle cx="12850" cy="300" r="8" fill="#666666"
                                stroke-dasharray="3,2" fill="none"/><circle cx="13360" cy="300" r="8" fill="#666666"
                                stroke-dasharray="3,2" fill="none"/><circle cx="13615" cy="337.5" r="8" fill="#666666"
                                stroke-dasharray="3,2" fill="none"/><circle cx="14380" cy="212.5" r="8" fill="#666666"
                                stroke-dasharray="3,2" fill="none"/><circle cx="15400" cy="212.5" r="8" fill="#666666"
                                stroke-dasharray="3,2" fill="none"/><circle cx="15910" cy="212.5" r="8" fill="#666666"
                                stroke-dasharray="3,2" fill="none"/><circle cx="16165" cy="212.5" r="8" fill="#666666"
                                stroke-dasharray="3,2" fill="none"/><circle cx="16675" cy="212.5" r="8" fill="#666666"
                                stroke-dasharray="3,2" fill="none"/><circle cx="17185" cy="300" r="8" fill="#666666"
                                stroke-dasharray="3,2" fill="none"/><circle cx="17440" cy="337.5" r="8" fill="#666666"
                                stroke-dasharray="3,2" fill="none"/><circle cx="17695" cy="300" r="8" fill="#666666"
                                stroke-dasharray="3,2" fill="none"/><circle cx="18205" cy="300" r="8" fill="#666666"
                                stroke-dasharray="3,2" fill="none"/><circle cx="18715" cy="300" r="8" fill="#666666"
                                stroke-dasharray="3,2" fill="none"/><circle cx="19395" cy="300" r="8" fill="#666666"
    </g>
    <!-- Song name overlay -->
    <rect x="0" y="90" width="300" height="30" fill="rgba(0,128,128,0.9)"/>
    <text x="150" y="108" text-anchor="middle" fill="white" font-size="12" font-family="system-ui">
        Cậu khóa ơi!
    </text>
</svg>