<svg width="200" height="100" xmlns="http://www.w3.org/2000/svg"><rect width="200" height="100" fill="#f8f9fa"/><circle cx="3.125" cy="42" r="2" fill="#4dabf7"/><circle cx="9.375" cy="42" r="2" fill="#4dabf7"/><circle cx="15.625" cy="42" r="2" fill="#4dabf7"/><circle cx="21.875" cy="90" r="2" fill="#4dabf7"/><circle cx="28.125" cy="90" r="2" fill="#4dabf7"/><circle cx="34.375" cy="90" r="2" fill="#4dabf7"/><circle cx="40.625" cy="42" r="2" fill="#4dabf7"/><circle cx="46.875" cy="42" r="2" fill="#4dabf7"/><circle cx="53.125" cy="42" r="2" fill="#4dabf7"/><circle cx="59.375" cy="42" r="2" fill="#4dabf7"/><circle cx="65.625" cy="90" r="2" fill="#4dabf7"/><circle cx="71.875" cy="42" r="2" fill="#4dabf7"/><circle cx="78.125" cy="90" r="2" fill="#4dabf7"/><circle cx="84.375" cy="42" r="2" fill="#4dabf7"/><circle cx="90.625" cy="42" r="2" fill="#4dabf7"/><circle cx="96.875" cy="42" r="2" fill="#4dabf7"/><circle cx="103.125" cy="42" r="2" fill="#4dabf7"/><circle cx="109.375" cy="90" r="2" fill="#4dabf7"/><circle cx="115.625" cy="42" r="2" fill="#4dabf7"/><circle cx="121.875" cy="42" r="2" fill="#4dabf7"/><circle cx="128.125" cy="42" r="2" fill="#4dabf7"/><circle cx="134.375" cy="90" r="2" fill="#4dabf7"/><circle cx="140.625" cy="42" r="2" fill="#4dabf7"/><circle cx="146.875" cy="42" r="2" fill="#4dabf7"/><circle cx="153.125" cy="90" r="2" fill="#4dabf7"/><circle cx="159.375" cy="42" r="2" fill="#4dabf7"/><circle cx="165.625" cy="90" r="2" fill="#4dabf7"/><circle cx="171.875" cy="42" r="2" fill="#4dabf7"/><circle cx="178.125" cy="42" r="2" fill="#4dabf7"/><circle cx="184.375" cy="42" r="2" fill="#4dabf7"/><circle cx="190.625" cy="42" r="2" fill="#4dabf7"/><circle cx="196.875" cy="42" r="2" fill="#4dabf7"/></svg>