<svg width="200" height="100" xmlns="http://www.w3.org/2000/svg"><rect width="200" height="100" fill="#f8f9fa"/><circle cx="2.1739130434782608" cy="54" r="2" fill="#4dabf7"/><circle cx="6.521739130434782" cy="54" r="2" fill="#ff6b6b"/><circle cx="10.869565217391305" cy="30" r="2" fill="#4dabf7"/><circle cx="15.217391304347824" cy="30" r="2" fill="#4dabf7"/><circle cx="19.565217391304348" cy="30" r="2" fill="#ff6b6b"/><circle cx="23.91304347826087" cy="42" r="2" fill="#4dabf7"/><circle cx="28.26086956521739" cy="30" r="2" fill="#4dabf7"/><circle cx="32.60869565217391" cy="42" r="2" fill="#4dabf7"/><circle cx="36.95652173913043" cy="54" r="2" fill="#4dabf7"/><circle cx="41.30434782608695" cy="42" r="2" fill="#4dabf7"/><circle cx="45.65217391304348" cy="42" r="2" fill="#4dabf7"/><circle cx="49.99999999999999" cy="54" r="2" fill="#ff6b6b"/><circle cx="54.347826086956516" cy="30" r="2" fill="#4dabf7"/><circle cx="58.69565217391304" cy="30" r="2" fill="#4dabf7"/><circle cx="63.043478260869556" cy="30" r="2" fill="#4dabf7"/><circle cx="67.3913043478261" cy="42" r="2" fill="#4dabf7"/><circle cx="71.73913043478261" cy="30" r="2" fill="#4dabf7"/><circle cx="76.08695652173913" cy="30" r="2" fill="#4dabf7"/><circle cx="80.43478260869566" cy="42" r="2" fill="#4dabf7"/><circle cx="84.78260869565217" cy="54" r="2" fill="#4dabf7"/><circle cx="89.1304347826087" cy="54" r="2" fill="#ff6b6b"/><circle cx="93.47826086956522" cy="30" r="2" fill="#4dabf7"/><circle cx="97.82608695652173" cy="54" r="2" fill="#4dabf7"/><circle cx="102.17391304347827" cy="42" r="2" fill="#4dabf7"/><circle cx="106.52173913043478" cy="54" r="2" fill="#4dabf7"/><circle cx="110.8695652173913" cy="66" r="2" fill="#4dabf7"/><circle cx="115.21739130434783" cy="90" r="2" fill="#4dabf7"/><circle cx="119.56521739130434" cy="66" r="2" fill="#4dabf7"/><circle cx="123.91304347826086" cy="54" r="2" fill="#4dabf7"/><circle cx="128.26086956521738" cy="30" r="2" fill="#4dabf7"/><circle cx="132.6086956521739" cy="42" r="2" fill="#4dabf7"/><circle cx="136.9565217391304" cy="42" r="2" fill="#4dabf7"/><circle cx="141.30434782608694" cy="54" r="2" fill="#4dabf7"/><circle cx="145.65217391304347" cy="66" r="2" fill="#4dabf7"/><circle cx="149.99999999999997" cy="90" r="2" fill="#4dabf7"/><circle cx="154.3478260869565" cy="90" r="2" fill="#4dabf7"/><circle cx="158.69565217391303" cy="66" r="2" fill="#4dabf7"/><circle cx="163.04347826086953" cy="54" r="2" fill="#4dabf7"/><circle cx="167.39130434782606" cy="30" r="2" fill="#4dabf7"/><circle cx="171.7391304347826" cy="42" r="2" fill="#4dabf7"/><circle cx="176.08695652173913" cy="42" r="2" fill="#4dabf7"/><circle cx="180.43478260869563" cy="54" r="2" fill="#4dabf7"/><circle cx="184.78260869565216" cy="66" r="2" fill="#4dabf7"/><circle cx="189.1304347826087" cy="90" r="2" fill="#4dabf7"/><circle cx="193.4782608695652" cy="90" r="2" fill="#4dabf7"/><circle cx="197.82608695652172" cy="90" r="2" fill="#4dabf7"/></svg>