<svg width="300" height="120" viewBox="0 0 600 400" xmlns="http://www.w3.org/2000/svg">
    <rect width="600" height="400" fill="#ffffff"/>
    <g transform="scale(0.5)">
        <circle cx="100" cy="250" r="8" fill="#666666"
                            fill="#333">Hò</text><circle cx="172.5" cy="250" r="5" fill="#FFD700"
<circle cx="185" cy="275" r="8" fill="#666666"
                            fill="#FFD700">♪</text><circle cx="342.5" cy="312.5" r="5" fill="#FFD700"
<circle cx="355" cy="250" r="8" fill="#666666"
                            fill="#FFD700">♪</text><circle cx="512.5" cy="275" r="5" fill="#FFD700"
<circle cx="525" cy="250" r="8" fill="#666666"
                            fill="#333">hè</text><circle cx="780" cy="250" r="8" fill="#666666"
                            fill="#333">Hò</text><circle cx="852.5" cy="250" r="5" fill="#FFD700"
<circle cx="865" cy="275" r="8" fill="#666666"
                            fill="#FFD700">♪</text><circle cx="1022.5" cy="312.5" r="5" fill="#FFD700"
<circle cx="1010" cy="275" r="5" fill="#FFD700"
<circle cx="1035" cy="250" r="8" fill="#666666"
                            fill="#FFD700">♪</text><circle cx="1205" cy="250" r="8" fill="#666666"
                            fill="#333">hè.</text><circle cx="1460" cy="250" r="8" fill="#666666"
                                stroke-dasharray="3,2" fill="none"/><circle cx="2820" cy="337.5" r="8" fill="#666666"
                                stroke-dasharray="3,2" fill="none"/><circle cx="3245" cy="362.5" r="8" fill="#666666"
                                stroke-dasharray="3,2" fill="none"/><circle cx="3500" cy="362.5" r="8" fill="#666666"
                                stroke-dasharray="3,2" fill="none"/><circle cx="3670" cy="362.5" r="8" fill="#666666"
                                stroke-dasharray="3,2" fill="none"/><circle cx="3797.5" cy="362.5" r="8" fill="#666666"
                                stroke-dasharray="3,2" fill="none"/><circle cx="3840" cy="337.5" r="8" fill="#666666"
                                stroke-dasharray="3,2" fill="none"/><circle cx="3925" cy="337.5" r="8" fill="#666666"
                                stroke-dasharray="3,2" fill="none"/><circle cx="4180" cy="337.5" r="8" fill="#666666"
                                stroke-dasharray="3,2" fill="none"/><circle cx="4265" cy="337.5" r="8" fill="#666666"
                                stroke-dasharray="3,2" fill="none"/><circle cx="4690" cy="362.5" r="8" fill="#666666"
                                stroke-dasharray="3,2" fill="none"/><circle cx="4860" cy="362.5" r="8" fill="#666666"
                                stroke-dasharray="3,2" fill="none"/><circle cx="5115" cy="362.5" r="8" fill="#666666"
                                stroke-dasharray="3,2" fill="none"/><circle cx="5200" cy="337.5" r="8" fill="#666666"
    </g>
    <!-- Song name overlay -->
    <rect x="0" y="90" width="300" height="30" fill="rgba(0,128,128,0.9)"/>
    <text x="150" y="108" text-anchor="middle" fill="white" font-size="12" font-family="system-ui">
        Ru em Cảnh Dương
    </text>
</svg>