<svg width="300" height="120" viewBox="0 0 600 400" xmlns="http://www.w3.org/2000/svg">
    <rect width="600" height="400" fill="#ffffff"/>
    <g transform="scale(0.5)">
                                        stroke-dasharray="3,2" fill="none"/><circle cx="100" cy="212.5" r="8" fill="#666666"
                                stroke-dasharray="3,2" fill="none"/><circle cx="185" cy="212.5" r="8" fill="#666666"
                            fill="#333">tử</text><circle cx="355" cy="275" r="8" fill="#666666"
                                stroke-dasharray="3,2" fill="none"/><circle cx="440" cy="300" r="8" fill="#666666"
                                stroke-dasharray="3,2" fill="none"/><circle cx="525" cy="325" r="8" fill="#666666"
                            fill="#333">thâm</text><circle cx="682.5" cy="300" r="5" fill="#FFD700"
                                stroke-dasharray="3,2" fill="none"/><circle cx="695" cy="325" r="8" fill="#666666"
                            fill="#333">công</text><circle cx="852.5" cy="300" r="5" fill="#FFD700"
<circle cx="865" cy="275" r="8" fill="#666666"
                                stroke-dasharray="3,2" fill="none"/><circle cx="950" cy="300" r="8" fill="#666666"
                                stroke-dasharray="3,2" fill="none"/><circle cx="1035" cy="212.5" r="8" fill="#666666"
                                stroke-dasharray="3,2" fill="none"/><circle cx="1205" cy="212.5" r="8" fill="#666666"
                            fill="#333">mẹ</text><circle cx="1375" cy="275" r="8" fill="#666666"
                                stroke-dasharray="3,2" fill="none"/><circle cx="1417.5" cy="300" r="8" fill="#666666"
                        fill="#333">14</text><circle cx="1460" cy="275" r="8" fill="#666666"
                                stroke-dasharray="3,2" fill="none"/><circle cx="1502.5" cy="300" r="8" fill="#666666"
                                stroke-dasharray="3,2" fill="none"/><circle cx="1545" cy="325" r="8" fill="#666666"
                                stroke-dasharray="3,2" fill="none"/><circle cx="1715" cy="212.5" r="8" fill="#666666"
                                stroke-dasharray="3,2" fill="none"/><circle cx="2097.5" cy="300" r="8" fill="#666666"
                                stroke-dasharray="3,2" fill="none"/><circle cx="2140" cy="212.5" r="8" fill="#666666"
                                stroke-dasharray="3,2" fill="none"/><circle cx="2267.5" cy="300" r="8" fill="#666666"
                                stroke-dasharray="3,2" fill="none"/><circle cx="2480" cy="300" r="8" fill="#666666"
                                stroke-dasharray="3,2" fill="none"/><circle cx="2565" cy="325" r="8" fill="#666666"
                                stroke-dasharray="3,2" fill="none"/><circle cx="2735" cy="212.5" r="8" fill="#666666"
                                stroke-dasharray="3,2" fill="none"/><circle cx="2820" cy="212.5" r="8" fill="#666666"
                                stroke-dasharray="3,2" fill="none"/><circle cx="2990" cy="300" r="8" fill="#666666"
                                stroke-dasharray="3,2" fill="none"/><circle cx="3075" cy="325" r="8" fill="#666666"
                                stroke-dasharray="3,2" fill="none"/><circle cx="3245" cy="325" r="8" fill="#666666"
                                stroke-dasharray="3,2" fill="none"/><circle cx="3415" cy="212.5" r="8" fill="#666666"
                                stroke-dasharray="3,2" fill="none"/><circle cx="3500" cy="212.5" r="8" fill="#666666"
                                stroke-dasharray="3,2" fill="none"/><circle cx="3670" cy="300" r="8" fill="#666666"
                                stroke-dasharray="3,2" fill="none"/><circle cx="3755" cy="325" r="8" fill="#666666"
                                stroke-dasharray="3,2" fill="none"/><circle cx="3925" cy="212.5" r="8" fill="#666666"
    </g>
    <!-- Song name overlay -->
    <rect x="0" y="90" width="300" height="30" fill="rgba(0,128,128,0.9)"/>
    <text x="150" y="108" text-anchor="middle" fill="white" font-size="12" font-family="system-ui">
        Hát ru lối Giặm
    </text>
</svg>