<svg width="300" height="120" viewBox="0 0 600 400" xmlns="http://www.w3.org/2000/svg">
    <rect width="600" height="400" fill="#ffffff"/>
    <g transform="scale(0.5)">
        <circle cx="87.5" cy="287.5" r="5" fill="#FFD700"
<circle cx="100" cy="287.5" r="8" fill="#666666"
                            fill="#FFD700">♪</text><circle cx="185" cy="375" r="8" fill="#666666"
                            fill="#333">Kua</text><circle cx="270" cy="375" r="8" fill="#666666"
                                stroke-dasharray="3,2" fill="none"/><circle cx="312.5" cy="537.5" r="8" fill="#666666"
                        fill="#333">5</text><circle cx="355" cy="375" r="8" fill="#666666"
                                stroke-dasharray="3,2" fill="none"/><circle cx="440" cy="537.5" r="8" fill="#666666"
                            fill="#333">Kua</text><circle cx="512.5" cy="375" r="5" fill="#FFD700"
                                stroke-dasharray="3,2" fill="none"/><circle cx="525" cy="537.5" r="8" fill="#666666"
                                stroke-dasharray="3,2" fill="none"/><circle cx="652.5" cy="350" r="8" fill="#666666"
                            fill="#333">mân</text><circle cx="695" cy="375" r="8" fill="#666666"
                            fill="#333">ơi</text><circle cx="767.5" cy="350" r="5" fill="#FFD700"
<circle cx="780" cy="375" r="8" fill="#666666"
                                stroke-dasharray="3,2" fill="none"/><circle cx="822.5" cy="350" r="8" fill="#666666"
                        fill="#333">14</text><circle cx="865" cy="375" r="8" fill="#666666"
                                stroke-dasharray="3,2" fill="none"/><circle cx="950" cy="537.5" r="8" fill="#666666"
                                stroke-dasharray="3,2" fill="none"/><circle cx="1077.5" cy="350" r="8" fill="#666666"
                                stroke-dasharray="3,2" fill="none"/><circle cx="1120" cy="537.5" r="8" fill="#666666"
                                stroke-dasharray="3,2" fill="none"/><circle cx="1205" cy="537.5" r="8" fill="#666666"
                                stroke-dasharray="3,2" fill="none"/><circle cx="1332.5" cy="337.5" r="8" fill="#666666"
                                stroke-dasharray="3,2" fill="none"/><circle cx="1375" cy="350" r="8" fill="#666666"
                                stroke-dasharray="3,2" fill="none"/><circle cx="1545" cy="350" r="8" fill="#666666"
                                stroke-dasharray="3,2" fill="none"/><circle cx="1800" cy="350" r="8" fill="#666666"
                                stroke-dasharray="3,2" fill="none"/><circle cx="2097.5" cy="350" r="8" fill="#666666"
                                stroke-dasharray="3,2" fill="none"/><circle cx="2140" cy="337.5" r="8" fill="#666666"
                                stroke-dasharray="3,2" fill="none"/><circle cx="2225" cy="350" r="8" fill="#666666"
                                stroke-dasharray="3,2" fill="none"/><circle cx="2310" cy="337.5" r="8" fill="#666666"
                                stroke-dasharray="3,2" fill="none"/><circle cx="2395" cy="350" r="8" fill="#666666"
                                stroke-dasharray="3,2" fill="none"/><circle cx="2607.5" cy="350" r="8" fill="#666666"
    </g>
    <!-- Song name overlay -->
    <rect x="0" y="90" width="300" height="30" fill="rgba(0,128,128,0.9)"/>
    <text x="150" y="108" text-anchor="middle" fill="white" font-size="12" font-family="system-ui">
        Hát ru em 276
    </text>
</svg>