<svg width="200" height="100" xmlns="http://www.w3.org/2000/svg"><rect width="200" height="100" fill="#f8f9fa"/><circle cx="2.272727272727273" cy="54" r="2" fill="#4dabf7"/><circle cx="6.818181818181818" cy="42" r="2" fill="#4dabf7"/><circle cx="11.363636363636365" cy="30" r="2" fill="#4dabf7"/><circle cx="15.90909090909091" cy="54" r="2" fill="#4dabf7"/><circle cx="20.454545454545457" cy="54" r="2" fill="#4dabf7"/><circle cx="25.000000000000004" cy="66" r="2" fill="#4dabf7"/><circle cx="29.545454545454547" cy="54" r="2" fill="#4dabf7"/><circle cx="34.09090909090909" cy="42" r="2" fill="#4dabf7"/><circle cx="38.63636363636364" cy="54" r="2" fill="#4dabf7"/><circle cx="43.18181818181819" cy="30" r="2" fill="#4dabf7"/><circle cx="47.727272727272734" cy="42" r="2" fill="#4dabf7"/><circle cx="52.27272727272728" cy="30" r="2" fill="#4dabf7"/><circle cx="56.81818181818182" cy="54" r="2" fill="#4dabf7"/><circle cx="61.36363636363637" cy="54" r="2" fill="#4dabf7"/><circle cx="65.9090909090909" cy="66" r="2" fill="#4dabf7"/><circle cx="70.45454545454545" cy="54" r="2" fill="#4dabf7"/><circle cx="75" cy="42" r="2" fill="#4dabf7"/><circle cx="79.54545454545455" cy="42" r="2" fill="#4dabf7"/><circle cx="84.0909090909091" cy="30" r="2" fill="#4dabf7"/><circle cx="88.63636363636364" cy="42" r="2" fill="#4dabf7"/><circle cx="93.18181818181819" cy="30" r="2" fill="#4dabf7"/><circle cx="97.72727272727273" cy="42" r="2" fill="#4dabf7"/><circle cx="102.27272727272728" cy="54" r="2" fill="#4dabf7"/><circle cx="106.81818181818183" cy="66" r="2" fill="#4dabf7"/><circle cx="111.36363636363636" cy="54" r="2" fill="#4dabf7"/><circle cx="115.9090909090909" cy="30" r="2" fill="#4dabf7"/><circle cx="120.45454545454545" cy="42" r="2" fill="#4dabf7"/><circle cx="125" cy="30" r="2" fill="#4dabf7"/><circle cx="129.54545454545456" cy="30" r="2" fill="#4dabf7"/><circle cx="134.09090909090912" cy="30" r="2" fill="#4dabf7"/><circle cx="138.63636363636365" cy="54" r="2" fill="#4dabf7"/><circle cx="143.18181818181822" cy="66" r="2" fill="#4dabf7"/><circle cx="147.72727272727275" cy="90" r="2" fill="#4dabf7"/><circle cx="152.27272727272728" cy="30" r="2" fill="#4dabf7"/><circle cx="156.81818181818184" cy="42" r="2" fill="#4dabf7"/><circle cx="161.36363636363637" cy="30" r="2" fill="#4dabf7"/><circle cx="165.90909090909093" cy="42" r="2" fill="#4dabf7"/><circle cx="170.45454545454547" cy="30" r="2" fill="#4dabf7"/><circle cx="175.00000000000003" cy="42" r="2" fill="#4dabf7"/><circle cx="179.54545454545456" cy="54" r="2" fill="#4dabf7"/><circle cx="184.09090909090912" cy="66" r="2" fill="#4dabf7"/><circle cx="188.63636363636365" cy="54" r="2" fill="#4dabf7"/><circle cx="193.18181818181822" cy="42" r="2" fill="#4dabf7"/><circle cx="197.72727272727275" cy="30" r="2" fill="#4dabf7"/></svg>