<?xml version="1.0" encoding="UTF-8"?>
<svg width="2560" height="800" xmlns="http://www.w3.org/2000/svg">
    <defs>
        <style>
            .string-line { stroke: #333; stroke-width: 3; }
            .string-label { font-family: Arial; font-size: 14px; font-weight: bold; fill: #2c3e50; }
            .note-circle { fill: #008080; stroke: #005959; stroke-width: 2; }
            .note-text { font-family: Arial; font-size: 10px; font-weight: bold; fill: white; text-anchor: middle; }
            .grace-note { fill: #999999; stroke: #000000; }
            .bent-note { fill: #E67E22; stroke: #D35400; }
            .lyric-text { font-family: Arial; font-size: 12px; fill: #2c3e50; }
            .resonance-band { fill: #008080; opacity: 0.3; }
        </style>
    </defs>

    <!-- Title -->
    <text x="10" y="30" style="font-size: 20px; font-weight: bold; fill: #2c3e50;">LÝ CON CUA</text>
    <text x="10" y="50" style="font-size: 14px; fill: #666;">Tuning: C-D-F-G-A | 59 notes | Lý</text>

    <!-- String Lines -->
    <line x1="100" y1="100" x2="2540" y2="100" class="string-line"/>
    <line x1="100" y1="125" x2="2540" y2="125" class="string-line"/>
    <line x1="100" y1="162.5" x2="2540" y2="162.5" class="string-line"/>
    <line x1="100" y1="187.5" x2="2540" y2="187.5" class="string-line"/>
    <line x1="100" y1="212.5" x2="2540" y2="212.5" class="string-line"/>
    <line x1="100" y1="250" x2="2540" y2="250" class="string-line"/>
    <line x1="100" y1="275" x2="2540" y2="275" class="string-line"/>
    <line x1="100" y1="312.5" x2="2540" y2="312.5" class="string-line"/>
    <line x1="100" y1="337.5" x2="2540" y2="337.5" class="string-line"/>
    <line x1="100" y1="362.5" x2="2540" y2="362.5" class="string-line"/>
    <line x1="100" y1="400" x2="2540" y2="400" class="string-line"/>
    <line x1="100" y1="425" x2="2540" y2="425" class="string-line"/>
    <line x1="100" y1="462.5" x2="2540" y2="462.5" class="string-line"/>
    <line x1="100" y1="487.5" x2="2540" y2="487.5" class="string-line"/>
    <line x1="100" y1="512.5" x2="2540" y2="512.5" class="string-line"/>
    <line x1="100" y1="550" x2="2540" y2="550" class="string-line"/>
    <line x1="100" y1="575" x2="2540" y2="575" class="string-line"/>

    <!-- String Labels -->
    <text x="50" y="105" class="string-label">C3</text>
    <text x="50" y="130" class="string-label">D3</text>
    <text x="50" y="167.5" class="string-label">F3</text>
    <text x="50" y="192.5" class="string-label">G3</text>
    <text x="50" y="217.5" class="string-label">A3</text>
    <text x="50" y="255" class="string-label">C4</text>
    <text x="50" y="280" class="string-label">D4</text>
    <text x="50" y="317.5" class="string-label">F4</text>
    <text x="50" y="342.5" class="string-label">G4</text>
    <text x="50" y="367.5" class="string-label">A4</text>
    <text x="50" y="405" class="string-label">C5</text>
    <text x="50" y="430" class="string-label">D5</text>
    <text x="50" y="467.5" class="string-label">F5</text>
    <text x="50" y="492.5" class="string-label">G5</text>
    <text x="50" y="517.5" class="string-label">A5</text>
    <text x="50" y="555" class="string-label">C6</text>
    <text x="50" y="580" class="string-label">D6</text>

    <!-- Notes -->
    <rect x="-10" y="423.5" width="320" height="3" class="resonance-band"/>
    <circle cx="150" cy="425" r="12" class="note-circle"/>
    <text x="150" y="429" class="note-text">12</text>
    <rect x="30" y="423.5" width="320" height="3" class="resonance-band"/>
    <circle cx="190" cy="425" r="12" class="note-circle"/>
    <text x="190" y="429" class="note-text">12</text>
    <rect x="70" y="398.5" width="320" height="3" class="resonance-band"/>
    <circle cx="230" cy="400" r="12" class="note-circle"/>
    <text x="230" y="404" class="note-text">11</text>
    <rect x="110" y="361" width="320" height="3" class="resonance-band"/>
    <circle cx="270" cy="362.5" r="12" class="note-circle"/>
    <text x="270" y="366.5" class="note-text">10</text>
    <rect x="150" y="461" width="320" height="3" class="resonance-band"/>
    <circle cx="310" cy="462.5" r="12" class="note-circle"/>
    <text x="310" y="466.5" class="note-text">13</text>
    <rect x="190" y="361" width="320" height="3" class="resonance-band"/>
    <circle cx="350" cy="362.5" r="12" class="note-circle"/>
    <text x="350" y="366.5" class="note-text">10</text>
    <rect x="230" y="461" width="320" height="3" class="resonance-band"/>
    <circle cx="390" cy="462.5" r="12" class="note-circle"/>
    <text x="390" y="466.5" class="note-text">13</text>
    <rect x="270" y="423.5" width="320" height="3" class="resonance-band"/>
    <circle cx="430" cy="425" r="12" class="note-circle"/>
    <text x="430" y="429" class="note-text">12</text>
    <rect x="310" y="423.5" width="320" height="3" class="resonance-band"/>
    <circle cx="470" cy="425" r="12" class="note-circle"/>
    <text x="470" y="429" class="note-text">12</text>
    <rect x="350" y="423.5" width="320" height="3" class="resonance-band"/>
    <circle cx="510" cy="425" r="12" class="note-circle"/>
    <text x="510" y="429" class="note-text">12</text>
    <rect x="390" y="461" width="320" height="3" class="resonance-band"/>
    <circle cx="550" cy="462.5" r="12" class="note-circle"/>
    <text x="550" y="466.5" class="note-text">13</text>
    <rect x="430" y="423.5" width="320" height="3" class="resonance-band"/>
    <circle cx="590" cy="425" r="12" class="note-circle"/>
    <text x="590" y="429" class="note-text">12</text>
    <rect x="470" y="398.5" width="320" height="3" class="resonance-band"/>
    <circle cx="630" cy="400" r="12" class="note-circle"/>
    <text x="630" y="404" class="note-text">11</text>
    <rect x="510" y="361" width="320" height="3" class="resonance-band"/>
    <circle cx="670" cy="362.5" r="12" class="note-circle"/>
    <text x="670" y="366.5" class="note-text">10</text>
    <rect x="550" y="398.5" width="320" height="3" class="resonance-band"/>
    <circle cx="710" cy="400" r="12" class="note-circle"/>
    <text x="710" y="404" class="note-text">11</text>
    <rect x="590" y="461" width="320" height="3" class="resonance-band"/>
    <circle cx="750" cy="462.5" r="12" class="note-circle"/>
    <text x="750" y="466.5" class="note-text">13</text>
    <rect x="630" y="423.5" width="320" height="3" class="resonance-band"/>
    <circle cx="790" cy="425" r="12" class="note-circle"/>
    <text x="790" y="429" class="note-text">12</text>
    <rect x="670" y="423.5" width="320" height="3" class="resonance-band"/>
    <circle cx="830" cy="425" r="6" class="grace-note"/>
    <rect x="710" y="461" width="320" height="3" class="resonance-band"/>
    <circle cx="870" cy="462.5" r="12" class="note-circle"/>
    <text x="870" y="466.5" class="note-text">13</text>
    <rect x="750" y="361" width="320" height="3" class="resonance-band"/>
    <circle cx="910" cy="362.5" r="12" class="note-circle"/>
    <text x="910" y="366.5" class="note-text">10</text>
    <rect x="790" y="398.5" width="320" height="3" class="resonance-band"/>
    <circle cx="950" cy="400" r="12" class="note-circle"/>
    <text x="950" y="404" class="note-text">11</text>
    <rect x="830" y="361" width="320" height="3" class="resonance-band"/>
    <circle cx="990" cy="362.5" r="12" class="note-circle"/>
    <text x="990" y="366.5" class="note-text">10</text>
    <rect x="870" y="361" width="320" height="3" class="resonance-band"/>
    <circle cx="1030" cy="362.5" r="12" class="note-circle"/>
    <text x="1030" y="366.5" class="note-text">10</text>
    <rect x="910" y="423.5" width="320" height="3" class="resonance-band"/>
    <circle cx="1070" cy="425" r="6" class="grace-note"/>
    <rect x="950" y="461" width="320" height="3" class="resonance-band"/>
    <circle cx="1110" cy="462.5" r="12" class="note-circle"/>
    <text x="1110" y="466.5" class="note-text">13</text>
    <rect x="990" y="361" width="320" height="3" class="resonance-band"/>
    <circle cx="1150" cy="362.5" r="12" class="note-circle"/>
    <text x="1150" y="366.5" class="note-text">10</text>
    <rect x="1030" y="398.5" width="320" height="3" class="resonance-band"/>
    <circle cx="1190" cy="400" r="12" class="note-circle"/>
    <text x="1190" y="404" class="note-text">11</text>
    <rect x="1070" y="361" width="320" height="3" class="resonance-band"/>
    <circle cx="1230" cy="362.5" r="12" class="note-circle"/>
    <text x="1230" y="366.5" class="note-text">10</text>
    <rect x="1110" y="423.5" width="320" height="3" class="resonance-band"/>
    <circle cx="1270" cy="425" r="12" class="note-circle"/>
    <text x="1270" y="429" class="note-text">12</text>
    <rect x="1150" y="423.5" width="320" height="3" class="resonance-band"/>
    <circle cx="1310" cy="425" r="12" class="note-circle"/>
    <text x="1310" y="429" class="note-text">12</text>
    <rect x="1190" y="461" width="320" height="3" class="resonance-band"/>
    <circle cx="1350" cy="462.5" r="12" class="note-circle"/>
    <text x="1350" y="466.5" class="note-text">13</text>
    <rect x="1230" y="423.5" width="320" height="3" class="resonance-band"/>
    <circle cx="1390" cy="425" r="12" class="note-circle"/>
    <text x="1390" y="429" class="note-text">12</text>
    <rect x="1270" y="398.5" width="320" height="3" class="resonance-band"/>
    <circle cx="1430" cy="400" r="12" class="note-circle"/>
    <text x="1430" y="404" class="note-text">11</text>
    <rect x="1310" y="361" width="320" height="3" class="resonance-band"/>
    <circle cx="1470" cy="362.5" r="12" class="note-circle"/>
    <text x="1470" y="366.5" class="note-text">10</text>
    <rect x="1350" y="398.5" width="320" height="3" class="resonance-band"/>
    <circle cx="1510" cy="400" r="12" class="note-circle"/>
    <text x="1510" y="404" class="note-text">11</text>
    <rect x="1390" y="423.5" width="320" height="3" class="resonance-band"/>
    <circle cx="1550" cy="425" r="12" class="note-circle"/>
    <text x="1550" y="429" class="note-text">12</text>
    <rect x="1430" y="423.5" width="320" height="3" class="resonance-band"/>
    <circle cx="1590" cy="425" r="12" class="note-circle"/>
    <text x="1590" y="429" class="note-text">12</text>
    <rect x="1470" y="461" width="320" height="3" class="resonance-band"/>
    <circle cx="1630" cy="462.5" r="12" class="note-circle"/>
    <text x="1630" y="466.5" class="note-text">13</text>
    <rect x="1510" y="461" width="320" height="3" class="resonance-band"/>
    <circle cx="1670" cy="462.5" r="12" class="note-circle"/>
    <text x="1670" y="466.5" class="note-text">13</text>
    <rect x="1550" y="423.5" width="320" height="3" class="resonance-band"/>
    <circle cx="1710" cy="425" r="12" class="note-circle"/>
    <text x="1710" y="429" class="note-text">12</text>
    <rect x="1590" y="361" width="320" height="3" class="resonance-band"/>
    <circle cx="1750" cy="362.5" r="12" class="note-circle"/>
    <text x="1750" y="366.5" class="note-text">10</text>
    <rect x="1630" y="361" width="320" height="3" class="resonance-band"/>
    <circle cx="1790" cy="362.5" r="12" class="note-circle"/>
    <text x="1790" y="366.5" class="note-text">10</text>
    <rect x="1670" y="398.5" width="320" height="3" class="resonance-band"/>
    <circle cx="1830" cy="400" r="12" class="note-circle"/>
    <text x="1830" y="404" class="note-text">11</text>
    <rect x="1710" y="361" width="320" height="3" class="resonance-band"/>
    <circle cx="1870" cy="362.5" r="12" class="note-circle"/>
    <text x="1870" y="366.5" class="note-text">10</text>
    <rect x="1750" y="398.5" width="320" height="3" class="resonance-band"/>
    <circle cx="1910" cy="400" r="12" class="note-circle"/>
    <text x="1910" y="404" class="note-text">11</text>
    <rect x="1790" y="423.5" width="320" height="3" class="resonance-band"/>
    <circle cx="1950" cy="425" r="12" class="note-circle"/>
    <text x="1950" y="429" class="note-text">12</text>
    <rect x="1830" y="423.5" width="320" height="3" class="resonance-band"/>
    <circle cx="1990" cy="425" r="6" class="grace-note"/>
    <rect x="1870" y="461" width="320" height="3" class="resonance-band"/>
    <circle cx="2030" cy="462.5" r="12" class="note-circle"/>
    <text x="2030" y="466.5" class="note-text">13</text>
    <rect x="1910" y="361" width="320" height="3" class="resonance-band"/>
    <circle cx="2070" cy="362.5" r="12" class="note-circle"/>
    <text x="2070" y="366.5" class="note-text">10</text>
    <rect x="1950" y="398.5" width="320" height="3" class="resonance-band"/>
    <circle cx="2110" cy="400" r="12" class="note-circle"/>
    <text x="2110" y="404" class="note-text">11</text>
    <rect x="1990" y="361" width="320" height="3" class="resonance-band"/>
    <circle cx="2150" cy="362.5" r="12" class="note-circle"/>
    <text x="2150" y="366.5" class="note-text">10</text>
    <rect x="2030" y="398.5" width="320" height="3" class="resonance-band"/>
    <circle cx="2190" cy="400" r="12" class="note-circle"/>
    <text x="2190" y="404" class="note-text">11</text>
    <rect x="2070" y="423.5" width="320" height="3" class="resonance-band"/>
    <circle cx="2230" cy="425" r="12" class="note-circle"/>
    <text x="2230" y="429" class="note-text">12</text>
    <rect x="2110" y="423.5" width="320" height="3" class="resonance-band"/>
    <circle cx="2270" cy="425" r="12" class="note-circle"/>
    <text x="2270" y="429" class="note-text">12</text>
    <rect x="2150" y="461" width="320" height="3" class="resonance-band"/>
    <circle cx="2310" cy="462.5" r="12" class="note-circle"/>
    <text x="2310" y="466.5" class="note-text">13</text>
    <rect x="2190" y="423.5" width="320" height="3" class="resonance-band"/>
    <circle cx="2350" cy="425" r="12" class="note-circle"/>
    <text x="2350" y="429" class="note-text">12</text>
    <rect x="2230" y="398.5" width="320" height="3" class="resonance-band"/>
    <circle cx="2390" cy="400" r="12" class="note-circle"/>
    <text x="2390" y="404" class="note-text">11</text>
    <rect x="2270" y="361" width="320" height="3" class="resonance-band"/>
    <circle cx="2430" cy="362.5" r="12" class="note-circle"/>
    <text x="2430" y="366.5" class="note-text">10</text>
    <rect x="2310" y="398.5" width="320" height="3" class="resonance-band"/>
    <circle cx="2470" cy="400" r="12" class="note-circle"/>
    <text x="2470" y="404" class="note-text">11</text>
    

    <!-- Lyrics -->
    <text x="150" y="465" class="lyric-text">Con</text>
    <text x="190" y="465" class="lyric-text">cua</text>
    <text x="270" y="402.5" class="lyric-text">quẫy</text>
    <text x="310" y="502.5" class="lyric-text">nó</text>
    <text x="350" y="402.5" class="lyric-text">ở</text>
    <text x="430" y="465" class="lyric-text">trong</text>
    <text x="470" y="465" class="lyric-text">hang</text>
    <text x="510" y="465" class="lyric-text">quẫy</text>
    <text x="590" y="465" class="lyric-text">a</text>
    <text x="670" y="402.5" class="lyric-text">rượng</text>
    <text x="710" y="440" class="lyric-text">a.</text>
    <text x="750" y="502.5" class="lyric-text">Nó</text>
    <text x="790" y="465" class="lyric-text">kêu</text>
    <text x="870" y="502.5" class="lyric-text">ớ</text>
    <text x="910" y="402.5" class="lyric-text">rịnh</text>
    <text x="990" y="402.5" class="lyric-text">boong</text>
    <text x="1030" y="402.5" class="lyric-text">rinh</text>
    <text x="1110" y="502.5" class="lyric-text">ớ</text>
    <text x="1150" y="402.5" class="lyric-text">rịnh</text>
    <text x="1230" y="402.5" class="lyric-text">boong</text>
    <text x="1270" y="465" class="lyric-text">ơi</text>
    <text x="1310" y="465" class="lyric-text">quẫy</text>
    <text x="1390" y="465" class="lyric-text">a</text>
    <text x="1470" y="402.5" class="lyric-text">rượng</text>
    <text x="1510" y="440" class="lyric-text">a.</text>
    <text x="1550" y="465" class="lyric-text">Lang</text>
    <text x="1590" y="465" class="lyric-text">tang</text>
    <text x="1630" y="502.5" class="lyric-text">tính</text>
    <text x="1670" y="502.5" class="lyric-text">lính</text>
    <text x="1710" y="465" class="lyric-text">tinh</text>
    <text x="1750" y="402.5" class="lyric-text">tang,</text>
    <text x="1790" y="402.5" class="lyric-text">linh</text>
    <text x="1870" y="402.5" class="lyric-text">tính</text>
    <text x="1950" y="465" class="lyric-text">tang,</text>
    <text x="2030" y="502.5" class="lyric-text">giã</text>
    <text x="2070" y="402.5" class="lyric-text">gạo</text>
    <text x="2150" y="402.5" class="lyric-text">chày</text>
    <text x="2230" y="465" class="lyric-text">ba</text>
    <text x="2270" y="465" class="lyric-text">quẫy</text>
    <text x="2350" y="465" class="lyric-text">a</text>
    <text x="2430" y="402.5" class="lyric-text">rượng</text>
    <text x="2470" y="440" class="lyric-text">a.</text>
    
</svg>