<svg width="300" height="120" viewBox="0 0 600 400" xmlns="http://www.w3.org/2000/svg">
    <rect width="600" height="400" fill="#ffffff"/>
    <g transform="scale(0.5)">
                                        stroke-dasharray="3,2" fill="none"/><circle cx="100" cy="350" r="8" fill="#666666"
                                stroke-dasharray="3,2" fill="none"/><circle cx="227.5" cy="387.5" r="8" fill="#666666"
                                stroke-dasharray="3,2" fill="none"/><circle cx="270" cy="412.5" r="8" fill="#666666"
                                stroke-dasharray="3,2" fill="none"/><circle cx="397.5" cy="387.5" r="8" fill="#666666"
                                stroke-dasharray="3,2" fill="none"/><circle cx="440" cy="412.5" r="8" fill="#666666"
                                stroke-dasharray="3,2" fill="none"/><circle cx="567.5" cy="387.5" r="8" fill="#666666"
                                stroke-dasharray="3,2" fill="none"/><circle cx="610" cy="412.5" r="8" fill="#666666"
                                stroke-dasharray="3,2" fill="none"/><circle cx="780" cy="350" r="8" fill="#666666"
                            fill="#333">khoan</text><circle cx="865" cy="375" r="8" fill="#666666"
                                stroke-dasharray="3,2" fill="none"/><circle cx="907.5" cy="350" r="8" fill="#666666"
                                stroke-dasharray="3,2" fill="none"/><circle cx="950" cy="325" r="8" fill="#666666"
                            fill="#333">khoan</text><circle cx="1107.5" cy="262.5" r="5" fill="#FFD700"
<circle cx="1120" cy="287.5" r="8" fill="#666666"
                            fill="#FFD700">♪</text><circle cx="1192.5" cy="325" r="5" fill="#FFD700"
                                stroke-dasharray="3,2" fill="none"/><circle cx="1205" cy="350" r="8" fill="#666666"
                                stroke-dasharray="3,2" fill="none"/><circle cx="1290" cy="350" r="8" fill="#666666"
                                stroke-dasharray="3,2" fill="none"/><circle cx="1460" cy="350" r="8" fill="#666666"
                                stroke-dasharray="3,2" fill="none"/><circle cx="2140" cy="350" r="8" fill="#666666"
                                stroke-dasharray="3,2" fill="none"/><circle cx="2267.5" cy="350" r="8" fill="#666666"
                                stroke-dasharray="3,2" fill="none"/><circle cx="2310" cy="325" r="8" fill="#666666"
                                stroke-dasharray="3,2" fill="none"/><circle cx="2395" cy="262.5" r="8" fill="#666666"
                                stroke-dasharray="3,2" fill="none"/><circle cx="2480" cy="325" r="8" fill="#666666"
                                stroke-dasharray="3,2" fill="none"/><circle cx="2565" cy="337.5" r="8" fill="#666666"
                                stroke-dasharray="3,2" fill="none"/><circle cx="2650" cy="325" r="8" fill="#666666"
                                stroke-dasharray="3,2" fill="none"/><circle cx="2820" cy="337.5" r="8" fill="#666666"
                                stroke-dasharray="3,2" fill="none"/><circle cx="2905" cy="337.5" r="8" fill="#666666"
                                stroke-dasharray="3,2" fill="none"/><circle cx="3160" cy="350" r="8" fill="#666666"
                                stroke-dasharray="3,2" fill="none"/><circle cx="3330" cy="350" r="8" fill="#666666"
                                stroke-dasharray="3,2" fill="none"/><circle cx="3500" cy="350" r="8" fill="#666666"
                                stroke-dasharray="3,2" fill="none"/><circle cx="3585" cy="350" r="8" fill="#666666"
                                stroke-dasharray="3,2" fill="none"/><circle cx="3840" cy="362.5" r="8" fill="#666666"
                                stroke-dasharray="3,2" fill="none"/><circle cx="4180" cy="350" r="8" fill="#666666"
                                stroke-dasharray="3,2" fill="none"/><circle cx="4307.5" cy="387.5" r="8" fill="#666666"
                                stroke-dasharray="3,2" fill="none"/><circle cx="4350" cy="412.5" r="8" fill="#666666"
                                stroke-dasharray="3,2" fill="none"/><circle cx="4477.5" cy="387.5" r="8" fill="#666666"
                                stroke-dasharray="3,2" fill="none"/><circle cx="4520" cy="412.5" r="8" fill="#666666"
                                stroke-dasharray="3,2" fill="none"/><circle cx="4647.5" cy="387.5" r="8" fill="#666666"
                                stroke-dasharray="3,2" fill="none"/><circle cx="4690" cy="412.5" r="8" fill="#666666"
                                stroke-dasharray="3,2" fill="none"/><circle cx="4860" cy="350" r="8" fill="#666666"
                                stroke-dasharray="3,2" fill="none"/><circle cx="4945" cy="362.5" r="8" fill="#666666"
                                stroke-dasharray="3,2" fill="none"/><circle cx="4987.5" cy="350" r="8" fill="#666666"
                                stroke-dasharray="3,2" fill="none"/><circle cx="5030" cy="325" r="8" fill="#666666"
                                stroke-dasharray="3,2" fill="none"/><circle cx="5200" cy="337.5" r="8" fill="#666666"
                                stroke-dasharray="3,2" fill="none"/><circle cx="5370" cy="350" r="8" fill="#666666"
                                stroke-dasharray="3,2" fill="none"/><circle cx="5540" cy="350" r="8" fill="#666666"
                                stroke-dasharray="3,2" fill="none"/><circle cx="5625" cy="350" r="8" fill="#666666"
                                stroke-dasharray="3,2" fill="none"/><circle cx="5710" cy="350" r="8" fill="#666666"
                                stroke-dasharray="3,2" fill="none"/><circle cx="5880" cy="337.5" r="8" fill="#666666"
                                stroke-dasharray="3,2" fill="none"/><circle cx="5965" cy="337.5" r="8" fill="#666666"
                                stroke-dasharray="3,2" fill="none"/><circle cx="6050" cy="350" r="8" fill="#666666"
                                stroke-dasharray="3,2" fill="none"/><circle cx="6220" cy="325" r="8" fill="#666666"
                                stroke-dasharray="3,2" fill="none"/><circle cx="6390" cy="325" r="8" fill="#666666"
                                stroke-dasharray="3,2" fill="none"/><circle cx="6475" cy="262.5" r="8" fill="#666666"
                                stroke-dasharray="3,2" fill="none"/><circle cx="6560" cy="325" r="8" fill="#666666"
                                stroke-dasharray="3,2" fill="none"/><circle cx="6645" cy="350" r="8" fill="#666666"
                                stroke-dasharray="3,2" fill="none"/><circle cx="6730" cy="325" r="8" fill="#666666"
                                stroke-dasharray="3,2" fill="none"/><circle cx="6900" cy="337.5" r="8" fill="#666666"
                                stroke-dasharray="3,2" fill="none"/><circle cx="6985" cy="325" r="8" fill="#666666"
                                stroke-dasharray="3,2" fill="none"/><circle cx="7070" cy="325" r="8" fill="#666666"
                                stroke-dasharray="3,2" fill="none"/><circle cx="7240" cy="350" r="8" fill="#666666"
                                stroke-dasharray="3,2" fill="none"/><circle cx="7410" cy="350" r="8" fill="#666666"
                                stroke-dasharray="3,2" fill="none"/><circle cx="7665" cy="350" r="8" fill="#666666"
                                stroke-dasharray="3,2" fill="none"/><circle cx="7750" cy="325" r="8" fill="#666666"
                                stroke-dasharray="3,2" fill="none"/><circle cx="7920" cy="337.5" r="8" fill="#666666"
                                stroke-dasharray="3,2" fill="none"/><circle cx="8090" cy="350" r="8" fill="#666666"
                                stroke-dasharray="3,2" fill="none"/><circle cx="8345" cy="350" r="8" fill="#666666"
                                stroke-dasharray="3,2" fill="none"/><circle cx="8430" cy="325" r="8" fill="#666666"
                                stroke-dasharray="3,2" fill="none"/><circle cx="8600" cy="350" r="8" fill="#666666"
                                stroke-dasharray="3,2" fill="none"/><circle cx="8770" cy="325" r="8" fill="#666666"
                                stroke-dasharray="3,2" fill="none"/><circle cx="8940" cy="350" r="8" fill="#666666"
                                stroke-dasharray="3,2" fill="none"/><circle cx="9025" cy="350" r="8" fill="#666666"
                                stroke-dasharray="3,2" fill="none"/><circle cx="9110" cy="325" r="8" fill="#666666"
                                stroke-dasharray="3,2" fill="none"/><circle cx="9280" cy="350" r="8" fill="#666666"
                                stroke-dasharray="3,2" fill="none"/><circle cx="9450" cy="325" r="8" fill="#666666"
    </g>
    <!-- Song name overlay -->
    <rect x="0" y="90" width="300" height="30" fill="rgba(0,128,128,0.9)"/>
    <text x="150" y="108" text-anchor="middle" fill="white" font-size="12" font-family="system-ui">
        Hò Bơi thuyền
    </text>
</svg>