<?xml version="1.0" encoding="UTF-8" standalone="no"?>
<!DOCTYPE score-partwise PUBLIC "-//Recordare//DTD MusicXML 4.0 Partwise//EN" "http://www.musicxml.org/dtds/partwise.dtd">
<score-partwise version="4.0">
  <movement-title>GIẶM ĐỨC SƠN</movement-title>
  <identification>
    <creator type="composer">Người hát: Trần Đức Duy
(Hà Tĩnh)</creator>
    <creator type="arranger">Lời mới: Trần Hữu Pháp</creator>
    <rights>©</rights>
    <encoding>
      <software>Finale v27.2 for Windows</software>
      <encoding-date>2025-08-18</encoding-date>
      <supports attribute="new-system" element="print" type="yes" value="yes"/>
      <supports attribute="new-page" element="print" type="yes" value="yes"/>
      <supports element="accidental" type="yes"/>
      <supports element="beam" type="yes"/>
      <supports element="stem" type="yes"/>
    </encoding>
  </identification>
  <defaults>
    <scaling>
      <millimeters>7.2319</millimeters>
      <tenths>40</tenths>
    </scaling>
    <page-layout>
      <page-height>1545</page-height>
      <page-width>1194</page-width>
      <page-margins type="both">
        <left-margin>140</left-margin>
        <right-margin>70</right-margin>
        <top-margin>70</top-margin>
        <bottom-margin>70</bottom-margin>
      </page-margins>
    </page-layout>
    <system-layout>
      <system-margins>
        <left-margin>0</left-margin>
        <right-margin>0</right-margin>
      </system-margins>
      <system-distance>121</system-distance>
      <top-system-distance>70</top-system-distance>
    </system-layout>
    <appearance>
      <line-width type="stem">0.9115</line-width>
      <line-width type="beam">5</line-width>
      <line-width type="staff">0.9115</line-width>
      <line-width type="light barline">1.0026</line-width>
      <line-width type="heavy barline">5</line-width>
      <line-width type="leger">1.1003</line-width>
      <line-width type="ending">1.3021</line-width>
      <line-width type="wedge">1.0026</line-width>
      <line-width type="enclosure">1.3021</line-width>
      <line-width type="tuplet bracket">1.0026</line-width>
      <note-size type="grace">60</note-size>
      <note-size type="cue">60</note-size>
      <distance type="hyphen">120</distance>
      <distance type="beam">7.5</distance>
    </appearance>
    <music-font font-family="Finale Maestro,engraved" font-size="20.5"/>
    <word-font font-family="Times New Roman" font-size="10.25"/>
    <lyric-font font-family="Arial" font-size="12"/>
  </defaults>
  <credit page="1">
    <credit-type>title</credit-type>
    <credit-words default-x="636" default-y="1493" font-family="Arial" font-size="24" justify="center" valign="top">GIẶM ĐỨC SƠN</credit-words>
  </credit>
  <credit page="1">
    <credit-type>composer</credit-type>
    <credit-words default-x="1124" default-y="1413" font-family="Arial" font-size="12" justify="right" valign="top" xml:space="preserve">Người hát: Trần Đức Duy
(Hà Tĩnh)</credit-words>
  </credit>
  <credit page="1">
    <credit-type>rights</credit-type>
    <credit-words default-x="632" default-y="53" font-size="10" justify="center" valign="bottom">©</credit-words>
  </credit>
  <credit page="1">
    <credit-type>arranger</credit-type>
    <credit-words default-x="1125" default-y="1353" font-family="Arial" font-size="12" halign="right" valign="top">Lời mới: Trần Hữu Pháp</credit-words>
  </credit>
  <credit page="1">
    <credit-words default-x="306" default-y="1357" font-size="12" valign="top">Vừa phải </credit-words>
  </credit>
  <part-list>
    <score-part id="P1">
      <part-name print-object="no">MusicXML Part</part-name>
      <group>score</group>
      <score-instrument id="P1-I1">
        <instrument-name>SmartMusic SoftSynth</instrument-name>
        <virtual-instrument/>
      </score-instrument>
      <midi-device>SmartMusic SoftSynth</midi-device>
      <midi-instrument id="P1-I1">
        <midi-channel>1</midi-channel>
        <midi-bank>15489</midi-bank>
        <midi-program>1</midi-program>
        <volume>80</volume>
        <pan>0</pan>
      </midi-instrument>
    </score-part>
  </part-list>
  <!--=========================================================-->
  <part id="P1">
    <measure number="1" width="246">
      <print>
        <system-layout>
          <system-margins>
            <left-margin>70</left-margin>
            <right-margin>0</right-margin>
          </system-margins>
          <top-system-distance>177</top-system-distance>
        </system-layout>
        <measure-numbering multiple-rest-always="no" multiple-rest-range="no" system="only-top">system</measure-numbering>
      </print>
      <attributes>
        <divisions>4</divisions>
        <key>
          <fifths>0</fifths>
          <mode>major</mode>
        </key>
        <time>
          <beats>2</beats>
          <beat-type>4</beat-type>
        </time>
        <clef>
          <sign>G</sign>
          <line>2</line>
        </clef>
      </attributes>
      <sound tempo="120">
        <swing>
          <straight/>
        </swing>
      </sound>
      <note default-x="83">
        <pitch>
          <step>D</step>
          <octave>4</octave>
        </pitch>
        <duration>2</duration>
        <voice>1</voice>
        <type>eighth</type>
        <stem default-y="0">up</stem>
        <beam number="1">begin</beam>
        <notations>
          <slur bezier-x="28" bezier-y="-21" default-x="6" default-y="-55" number="1" placement="below" type="start"/>
        </notations>
        <lyric default-y="-102" number="1">
          <syllabic>single</syllabic>
          <text>Hỡi</text>
        </lyric>
      </note>
      <note default-x="122">
        <pitch>
          <step>G</step>
          <octave>4</octave>
        </pitch>
        <duration>2</duration>
        <voice>1</voice>
        <type>eighth</type>
        <stem default-y="5">up</stem>
        <beam number="1">end</beam>
        <notations>
          <slur bezier-x="11" bezier-y="-11" default-x="6" default-y="-43" number="2" placement="below" type="start"/>
        </notations>
      </note>
      <note default-x="160">
        <pitch>
          <step>G</step>
          <octave>4</octave>
        </pitch>
        <duration>3</duration>
        <voice>1</voice>
        <type>eighth</type>
        <dot/>
        <stem default-y="5">up</stem>
        <notations>
          <slur bezier-x="-11" bezier-y="-11" default-x="6" default-y="-43" number="2" type="stop"/>
        </notations>
      </note>
      <note default-x="216">
        <pitch>
          <step>F</step>
          <octave>4</octave>
        </pitch>
        <duration>1</duration>
        <voice>1</voice>
        <type>16th</type>
        <stem default-y="0">up</stem>
        <notations>
          <slur bezier-x="-20" bezier-y="-28" default-x="-28" default-y="-40" number="1" type="stop"/>
        </notations>
        <lyric default-y="-102" number="1">
          <syllabic>single</syllabic>
          <text>hà</text>
        </lyric>
      </note>
    </measure>
    <!--=======================================================-->
    <measure number="2" width="190">
      <note default-x="13">
        <pitch>
          <step>G</step>
          <octave>4</octave>
        </pitch>
        <duration>4</duration>
        <voice>1</voice>
        <type>quarter</type>
        <stem default-y="5">up</stem>
        <notations>
          <fermata default-x="-6" default-y="11" type="upright"/>
        </notations>
        <lyric default-y="-102" number="1">
          <syllabic>single</syllabic>
          <text>ai</text>
        </lyric>
      </note>
      <note default-x="75">
        <pitch>
          <step>G</step>
          <octave>4</octave>
        </pitch>
        <duration>2</duration>
        <voice>1</voice>
        <type>eighth</type>
        <stem default-y="5">up</stem>
        <lyric default-y="-102" number="1">
          <syllabic>single</syllabic>
          <text>duyên</text>
        </lyric>
      </note>
      <note default-x="144">
        <pitch>
          <step>D</step>
          <octave>4</octave>
        </pitch>
        <duration>2</duration>
        <voice>1</voice>
        <type>eighth</type>
        <stem default-y="-10">up</stem>
        <lyric default-y="-102" number="1">
          <syllabic>single</syllabic>
          <text>tình</text>
        </lyric>
      </note>
    </measure>
    <!--=======================================================-->
    <measure number="3" width="197">
      <note default-x="26">
        <grace/>
        <pitch>
          <step>G</step>
          <octave>4</octave>
        </pitch>
        <voice>1</voice>
        <type>16th</type>
        <stem default-y="-7">up</stem>
        <beam number="1">begin</beam>
        <beam number="2">begin</beam>
        <notations>
          <slur bezier-x="8" bezier-y="-9" default-x="4" default-y="-43" number="1" placement="below" type="start"/>
        </notations>
      </note>
      <note default-x="39">
        <grace/>
        <pitch>
          <step>A</step>
          <octave>4</octave>
        </pitch>
        <voice>1</voice>
        <type>16th</type>
        <stem default-y="-4">up</stem>
        <beam number="1">end</beam>
        <beam number="2">end</beam>
      </note>
      <note default-x="52">
        <pitch>
          <step>G</step>
          <octave>4</octave>
        </pitch>
        <duration>4</duration>
        <voice>1</voice>
        <type>quarter</type>
        <stem default-y="5">up</stem>
        <notations>
          <slur bezier-x="-8" bezier-y="-9" default-x="7" default-y="-43" number="1" type="stop"/>
        </notations>
        <lyric default-y="-102" number="1">
          <syllabic>single</syllabic>
          <text>về</text>
        </lyric>
      </note>
      <note default-x="96">
        <pitch>
          <step>G</step>
          <octave>4</octave>
        </pitch>
        <duration>1</duration>
        <voice>1</voice>
        <type>16th</type>
        <stem default-y="5">up</stem>
        <beam number="1">begin</beam>
        <beam number="2">begin</beam>
        <notations>
          <slur bezier-x="5" bezier-y="-13" default-x="6" default-y="-43" number="1" placement="below" type="start"/>
        </notations>
        <lyric default-y="-102" justify="left" number="1" relative-x="8">
          <syllabic>single</syllabic>
          <text>đi</text>
          <extend type="start"/>
        </lyric>
      </note>
      <note default-x="126">
        <pitch>
          <step>D</step>
          <octave>4</octave>
        </pitch>
        <duration>1</duration>
        <voice>1</voice>
        <type>16th</type>
        <stem default-y="0">up</stem>
        <beam number="1">end</beam>
        <beam number="2">end</beam>
        <notations>
          <slur bezier-x="-12" bezier-y="-6" default-x="7" default-y="-55" number="1" type="stop"/>
        </notations>
        <lyric number="1">
          <extend type="stop"/>
        </lyric>
      </note>
      <note default-x="160">
        <pitch>
          <step>D</step>
          <octave>4</octave>
        </pitch>
        <duration>2</duration>
        <voice>1</voice>
        <type>eighth</type>
        <stem default-y="-10">up</stem>
        <lyric default-y="-102" number="1">
          <syllabic>single</syllabic>
          <text>à</text>
        </lyric>
      </note>
    </measure>
    <!--=======================================================-->
    <measure number="4" width="280">
      <note default-x="28">
        <pitch>
          <step>D</step>
          <octave>4</octave>
        </pitch>
        <duration>2</duration>
        <voice>1</voice>
        <type>eighth</type>
        <stem default-y="-10">up</stem>
        <lyric default-y="-102" number="1">
          <syllabic>single</syllabic>
          <text>về</text>
        </lyric>
      </note>
      <note default-x="83">
        <pitch>
          <step>G</step>
          <octave>3</octave>
        </pitch>
        <duration>1</duration>
        <voice>1</voice>
        <type>16th</type>
        <stem default-y="-20">up</stem>
        <lyric default-y="-102" number="1">
          <syllabic>single</syllabic>
          <text>rứa</text>
        </lyric>
      </note>
      <note default-x="133">
        <pitch>
          <step>G</step>
          <octave>3</octave>
        </pitch>
        <duration>1</duration>
        <voice>1</voice>
        <type>16th</type>
        <stem default-y="-20">up</stem>
        <lyric default-y="-102" number="1">
          <syllabic>single</syllabic>
          <text>mà</text>
        </lyric>
      </note>
      <note default-x="182">
        <pitch>
          <step>G</step>
          <octave>4</octave>
        </pitch>
        <duration>2</duration>
        <voice>1</voice>
        <type>eighth</type>
        <stem default-y="5">up</stem>
        <lyric default-y="-102" number="1">
          <syllabic>single</syllabic>
          <text>về</text>
        </lyric>
      </note>
      <note default-x="238">
        <pitch>
          <step>D</step>
          <octave>4</octave>
        </pitch>
        <duration>2</duration>
        <voice>1</voice>
        <type>eighth</type>
        <stem default-y="-10">up</stem>
        <lyric default-y="-102" number="1">
          <syllabic>single</syllabic>
          <text>chợ</text>
        </lyric>
      </note>
    </measure>
    <!--=======================================================-->
    <measure number="5" width="204">
      <print new-system="yes">
        <system-layout>
          <system-distance>114</system-distance>
        </system-layout>
      </print>
      <note default-x="72">
        <pitch>
          <step>D</step>
          <octave>4</octave>
        </pitch>
        <duration>4</duration>
        <voice>1</voice>
        <type>quarter</type>
        <stem default-y="-10">up</stem>
        <lyric default-y="-102" number="1">
          <syllabic>single</syllabic>
          <text>Trộ</text>
        </lyric>
      </note>
      <note default-x="107">
        <rest/>
        <duration>2</duration>
        <voice>1</voice>
        <type>eighth</type>
      </note>
      <note default-x="133">
        <grace slash="yes"/>
        <pitch>
          <step>G</step>
          <octave>4</octave>
        </pitch>
        <voice>1</voice>
        <type>eighth</type>
        <stem default-y="-9">up</stem>
        <notations>
          <slur bezier-x="10" bezier-y="-6" default-x="4" default-y="-43" number="1" placement="below" type="start"/>
        </notations>
      </note>
      <note default-x="155">
        <pitch>
          <step>A</step>
          <octave>4</octave>
        </pitch>
        <duration>2</duration>
        <voice>1</voice>
        <type>eighth</type>
        <stem default-y="10">up</stem>
        <notations>
          <slur bezier-x="-5" bezier-y="-11" default-x="6" default-y="-35" number="1" type="stop"/>
        </notations>
        <lyric default-y="-102" number="1">
          <syllabic>single</syllabic>
          <text>cho</text>
        </lyric>
      </note>
    </measure>
    <!--=======================================================-->
    <measure number="6" width="227">
      <note default-x="13">
        <pitch>
          <step>A</step>
          <octave>4</octave>
        </pitch>
        <duration>2</duration>
        <voice>1</voice>
        <type>eighth</type>
        <stem default-y="10">up</stem>
        <lyric default-y="-102" number="1">
          <syllabic>single</syllabic>
          <text>em</text>
        </lyric>
      </note>
      <note default-x="66">
        <pitch>
          <step>G</step>
          <octave>4</octave>
        </pitch>
        <duration>2</duration>
        <voice>1</voice>
        <type>eighth</type>
        <stem default-y="5">up</stem>
        <lyric default-y="-102" number="1">
          <syllabic>single</syllabic>
          <text>mà</text>
        </lyric>
      </note>
      <note default-x="128">
        <pitch>
          <step>D</step>
          <octave>4</octave>
        </pitch>
        <duration>2</duration>
        <voice>1</voice>
        <type>eighth</type>
        <stem default-y="-10">up</stem>
        <lyric default-y="-102" number="1">
          <syllabic>single</syllabic>
          <text>gửi</text>
        </lyric>
      </note>
      <note default-x="181">
        <pitch>
          <step>D</step>
          <octave>4</octave>
        </pitch>
        <duration>2</duration>
        <voice>1</voice>
        <type>eighth</type>
        <stem default-y="-10">up</stem>
        <lyric default-y="-102" number="1">
          <syllabic>single</syllabic>
          <text>đợ</text>
        </lyric>
      </note>
    </measure>
    <!--=======================================================-->
    <measure number="7" width="289">
      <note default-x="33">
        <grace slash="yes"/>
        <pitch>
          <step>D</step>
          <octave>4</octave>
        </pitch>
        <voice>1</voice>
        <type>eighth</type>
        <stem default-y="-24">up</stem>
        <notations>
          <slur bezier-x="10" bezier-y="-5" default-x="4" default-y="-53" number="1" placement="below" type="start"/>
        </notations>
      </note>
      <note default-x="55">
        <pitch>
          <step>G</step>
          <octave>4</octave>
        </pitch>
        <duration>2</duration>
        <voice>1</voice>
        <type>eighth</type>
        <stem default-y="5">up</stem>
        <notations>
          <slur bezier-x="-4" bezier-y="-11" default-x="6" default-y="-43" number="1" type="stop"/>
        </notations>
        <lyric default-y="-102" number="1">
          <syllabic>single</syllabic>
          <text>chứ</text>
        </lyric>
      </note>
      <note default-x="118">
        <pitch>
          <step>D</step>
          <octave>4</octave>
        </pitch>
        <duration>1</duration>
        <voice>1</voice>
        <type>16th</type>
        <stem default-y="-10">up</stem>
        <lyric default-y="-102" number="1">
          <syllabic>single</syllabic>
          <text>rứa</text>
        </lyric>
      </note>
      <note default-x="180">
        <pitch>
          <step>D</step>
          <octave>4</octave>
        </pitch>
        <duration>1</duration>
        <voice>1</voice>
        <type>16th</type>
        <stem default-y="-10">up</stem>
        <lyric default-y="-102" number="1">
          <syllabic>single</syllabic>
          <text>mà</text>
        </lyric>
      </note>
      <note default-x="217">
        <grace slash="yes"/>
        <pitch>
          <step>G</step>
          <octave>4</octave>
        </pitch>
        <voice>1</voice>
        <type>eighth</type>
        <stem default-y="-9">up</stem>
        <notations>
          <slur bezier-x="10" bezier-y="-6" default-x="4" default-y="-43" number="1" placement="below" type="start"/>
        </notations>
      </note>
      <note default-x="239">
        <pitch>
          <step>A</step>
          <octave>4</octave>
        </pitch>
        <duration>4</duration>
        <voice>1</voice>
        <type>quarter</type>
        <stem default-y="10">up</stem>
        <notations>
          <slur bezier-x="-5" bezier-y="-11" default-x="6" default-y="-35" number="1" type="stop"/>
        </notations>
        <lyric default-y="-102" number="1">
          <syllabic>single</syllabic>
          <text>điều</text>
        </lyric>
      </note>
    </measure>
    <!--=======================================================-->
    <measure number="8" width="263">
      <note default-x="29">
        <pitch>
          <step>A</step>
          <octave>4</octave>
        </pitch>
        <duration>2</duration>
        <voice>1</voice>
        <type>eighth</type>
        <stem default-y="10">up</stem>
        <lyric default-y="-102" number="1">
          <syllabic>single</syllabic>
          <text>ni</text>
        </lyric>
      </note>
      <note default-x="71">
        <pitch>
          <step>A</step>
          <octave>4</octave>
        </pitch>
        <duration>1</duration>
        <voice>1</voice>
        <type>16th</type>
        <stem default-y="10">up</stem>
        <beam number="1">begin</beam>
        <beam number="2">begin</beam>
        <notations>
          <slur bezier-x="10" bezier-y="-13" default-x="6" default-y="-35" number="1" placement="below" type="start"/>
        </notations>
        <lyric default-y="-102" justify="left" number="1">
          <syllabic>single</syllabic>
          <text>nhớ</text>
          <extend type="start"/>
        </lyric>
      </note>
      <note default-x="112">
        <pitch>
          <step>G</step>
          <octave>4</octave>
        </pitch>
        <duration>1</duration>
        <voice>1</voice>
        <type>16th</type>
        <stem default-y="5">up</stem>
        <beam number="1">end</beam>
        <beam number="2">end</beam>
        <notations>
          <slur bezier-x="-14" bezier-y="-9" default-x="7" default-y="-43" number="1" type="stop"/>
        </notations>
        <lyric number="1">
          <extend type="stop"/>
        </lyric>
      </note>
      <note default-x="158">
        <pitch>
          <step>D</step>
          <octave>4</octave>
        </pitch>
        <duration>2</duration>
        <voice>1</voice>
        <type>eighth</type>
        <stem default-y="-10">up</stem>
        <lyric default-y="-102" number="1">
          <syllabic>single</syllabic>
          <text>lòng</text>
        </lyric>
      </note>
      <note default-x="220">
        <pitch>
          <step>D</step>
          <octave>4</octave>
        </pitch>
        <duration>2</duration>
        <voice>1</voice>
        <type>eighth</type>
        <stem default-y="-10">up</stem>
        <lyric default-y="-102" number="1">
          <syllabic>single</syllabic>
          <text>dặn</text>
        </lyric>
      </note>
    </measure>
    <!--=======================================================-->
    <measure number="9" width="312">
      <print new-system="yes">
        <system-layout>
          <system-distance>114</system-distance>
        </system-layout>
      </print>
      <note default-x="65">
        <pitch>
          <step>D</step>
          <octave>4</octave>
        </pitch>
        <duration>2</duration>
        <voice>1</voice>
        <type>eighth</type>
        <stem default-y="-10">up</stem>
        <lyric default-y="-102" number="1">
          <syllabic>single</syllabic>
          <text>lòng</text>
        </lyric>
      </note>
      <note default-x="125">
        <pitch>
          <step>G</step>
          <octave>3</octave>
        </pitch>
        <duration>1</duration>
        <voice>1</voice>
        <type>16th</type>
        <stem default-y="-20">up</stem>
        <lyric default-y="-102" number="1">
          <syllabic>single</syllabic>
          <text>rứa</text>
        </lyric>
      </note>
      <note default-x="178">
        <pitch>
          <step>G</step>
          <octave>4</octave>
        </pitch>
        <duration>1</duration>
        <voice>1</voice>
        <type>16th</type>
        <stem default-y="5">up</stem>
        <lyric default-y="-102" number="1" relative-x="7">
          <syllabic>single</syllabic>
          <text>mà</text>
        </lyric>
      </note>
      <note default-x="229">
        <pitch>
          <step>F</step>
          <octave>4</octave>
        </pitch>
        <duration>2</duration>
        <voice>1</voice>
        <type>eighth</type>
        <stem default-y="0">up</stem>
        <beam number="1">begin</beam>
        <notations>
          <slur bezier-x="11" bezier-y="-15" default-x="7" default-y="-45" number="1" placement="below" type="start"/>
        </notations>
        <lyric default-y="-102" number="1" relative-x="22">
          <syllabic>single</syllabic>
          <text>tình</text>
        </lyric>
      </note>
      <note default-x="277">
        <pitch>
          <step>D</step>
          <octave>4</octave>
        </pitch>
        <duration>2</duration>
        <voice>1</voice>
        <type>eighth</type>
        <stem default-y="-5">up</stem>
        <beam number="1">end</beam>
        <notations>
          <slur bezier-x="-16" bezier-y="-9" default-x="6" default-y="-55" number="1" type="stop"/>
        </notations>
      </note>
    </measure>
    <!--=======================================================-->
    <measure number="10" width="275">
      <note default-x="13">
        <grace slash="yes"/>
        <pitch>
          <step>D</step>
          <octave>4</octave>
        </pitch>
        <voice>1</voice>
        <type>eighth</type>
        <stem default-y="-24">up</stem>
        <notations>
          <slur bezier-x="11" bezier-y="-5" default-x="4" default-y="-53" number="1" placement="below" type="start"/>
        </notations>
      </note>
      <note default-x="35">
        <pitch>
          <step>G</step>
          <octave>4</octave>
        </pitch>
        <duration>2</duration>
        <voice>1</voice>
        <type>eighth</type>
        <stem default-y="5">up</stem>
        <notations>
          <slur bezier-x="-4" bezier-y="-11" default-x="6" default-y="-43" number="1" type="stop"/>
        </notations>
        <lyric default-y="-102" number="1">
          <syllabic>single</syllabic>
          <text>duyên</text>
        </lyric>
      </note>
      <note default-x="90">
        <rest/>
        <duration>2</duration>
        <voice>1</voice>
        <type>eighth</type>
      </note>
      <note default-x="125">
        <grace slash="yes"/>
        <pitch>
          <step>G</step>
          <octave>4</octave>
        </pitch>
        <voice>1</voice>
        <type>eighth</type>
        <stem default-y="-9">up</stem>
        <notations>
          <slur bezier-x="10" bezier-y="-5" default-x="4" default-y="-43" number="1" placement="below" type="start"/>
        </notations>
      </note>
      <note default-x="147">
        <pitch>
          <step>A</step>
          <octave>4</octave>
        </pitch>
        <duration>2</duration>
        <voice>1</voice>
        <type>eighth</type>
        <stem default-y="10">up</stem>
        <notations>
          <slur bezier-x="-5" bezier-y="-10" default-x="6" default-y="-35" number="1" type="stop"/>
        </notations>
        <lyric default-y="-102" number="1">
          <syllabic>single</syllabic>
          <text>đây</text>
        </lyric>
      </note>
      <note default-x="202">
        <pitch>
          <step>A</step>
          <octave>4</octave>
        </pitch>
        <duration>1</duration>
        <voice>1</voice>
        <type>16th</type>
        <stem default-y="10">up</stem>
        <beam number="1">begin</beam>
        <beam number="2">begin</beam>
        <notations>
          <slur bezier-x="9" bezier-y="-13" default-x="6" default-y="-35" number="1" placement="below" type="start"/>
        </notations>
        <lyric default-y="-102" justify="left" number="1" relative-x="10">
          <syllabic>single</syllabic>
          <text>vốn</text>
          <extend type="start"/>
        </lyric>
      </note>
      <note default-x="240">
        <pitch>
          <step>G</step>
          <octave>4</octave>
        </pitch>
        <duration>1</duration>
        <voice>1</voice>
        <type>16th</type>
        <stem default-y="5">up</stem>
        <beam number="1">end</beam>
        <beam number="2">end</beam>
        <notations>
          <slur bezier-x="-13" bezier-y="-8" default-x="7" default-y="-43" number="1" type="stop"/>
        </notations>
        <lyric number="1">
          <extend type="stop"/>
        </lyric>
      </note>
    </measure>
    <!--=======================================================-->
    <measure number="11" width="243">
      <note default-x="40">
        <pitch>
          <step>D</step>
          <octave>4</octave>
        </pitch>
        <duration>2</duration>
        <voice>1</voice>
        <type>eighth</type>
        <stem default-y="-10">up</stem>
        <lyric default-y="-102" number="1">
          <syllabic>single</syllabic>
          <text>đó</text>
        </lyric>
      </note>
      <note default-x="95">
        <pitch>
          <step>D</step>
          <octave>4</octave>
        </pitch>
        <duration>2</duration>
        <voice>1</voice>
        <type>eighth</type>
        <stem default-y="-10">up</stem>
        <lyric default-y="-102" number="1">
          <syllabic>single</syllabic>
          <text>ta</text>
        </lyric>
      </note>
      <note default-x="157">
        <grace slash="yes"/>
        <pitch>
          <step>G</step>
          <octave>4</octave>
        </pitch>
        <voice>1</voice>
        <type>eighth</type>
        <stem default-y="-9">up</stem>
        <notations>
          <slur bezier-x="10" bezier-y="-5" default-x="4" default-y="-43" number="1" placement="below" type="start"/>
        </notations>
      </note>
      <note default-x="179">
        <pitch>
          <step>A</step>
          <octave>4</octave>
        </pitch>
        <duration>4</duration>
        <voice>1</voice>
        <type>quarter</type>
        <stem default-y="10">up</stem>
        <notations>
          <slur bezier-x="-5" bezier-y="-10" default-x="6" default-y="-35" number="1" type="stop"/>
        </notations>
        <lyric default-y="-102" number="1">
          <syllabic>single</syllabic>
          <text>không</text>
        </lyric>
      </note>
    </measure>
    <!--=======================================================-->
    <measure number="12" width="153">
      <note default-x="28">
        <grace slash="yes"/>
        <pitch>
          <step>G</step>
          <octave>4</octave>
        </pitch>
        <voice>1</voice>
        <type>eighth</type>
        <stem default-y="-9">up</stem>
        <notations>
          <slur bezier-x="10" bezier-y="-6" default-x="4" default-y="-43" number="1" placement="below" type="start"/>
        </notations>
      </note>
      <note default-x="51">
        <pitch>
          <step>A</step>
          <octave>4</octave>
        </pitch>
        <duration>6</duration>
        <voice>1</voice>
        <type>quarter</type>
        <dot/>
        <stem default-y="10">up</stem>
        <notations>
          <slur bezier-x="-5" bezier-y="-11" default-x="6" default-y="-35" number="1" type="stop"/>
        </notations>
        <lyric default-y="-102" number="1">
          <syllabic>single</syllabic>
          <text>suy.</text>
        </lyric>
      </note>
      <note default-x="115">
        <rest/>
        <duration>2</duration>
        <voice>1</voice>
        <type>eighth</type>
      </note>
    </measure>
    <!--=======================================================-->
    <measure number="13" width="331">
      <print new-system="yes">
        <system-layout>
          <system-distance>114</system-distance>
        </system-layout>
      </print>
      <note default-x="72">
        <pitch>
          <step>A</step>
          <octave>4</octave>
        </pitch>
        <duration>2</duration>
        <voice>1</voice>
        <type>eighth</type>
        <stem default-y="10">up</stem>
        <lyric default-y="-102" number="1">
          <syllabic>single</syllabic>
          <text>Em</text>
        </lyric>
      </note>
      <note default-x="132">
        <pitch>
          <step>G</step>
          <octave>3</octave>
        </pitch>
        <duration>1</duration>
        <voice>1</voice>
        <type>16th</type>
        <stem default-y="-20">up</stem>
        <lyric default-y="-102" number="1">
          <syllabic>single</syllabic>
          <text>góp</text>
        </lyric>
      </note>
      <note default-x="200">
        <pitch>
          <step>G</step>
          <octave>4</octave>
        </pitch>
        <duration>1</duration>
        <voice>1</voice>
        <type>16th</type>
        <stem default-y="5">up</stem>
        <lyric default-y="-102" number="1">
          <syllabic>single</syllabic>
          <text>công</text>
        </lyric>
      </note>
      <note default-x="261">
        <grace slash="yes"/>
        <pitch>
          <step>G</step>
          <octave>4</octave>
        </pitch>
        <voice>1</voice>
        <type>eighth</type>
        <stem default-y="-9">up</stem>
        <notations>
          <slur bezier-x="10" bezier-y="-6" default-x="4" default-y="-43" number="1" placement="below" type="start"/>
        </notations>
      </note>
      <note default-x="283">
        <pitch>
          <step>A</step>
          <octave>4</octave>
        </pitch>
        <duration>4</duration>
        <voice>1</voice>
        <type>quarter</type>
        <stem default-y="10">up</stem>
        <notations>
          <slur bezier-x="-5" bezier-y="-11" default-x="7" default-y="-35" number="1" type="stop"/>
        </notations>
        <lyric default-y="-102" number="1">
          <syllabic>single</syllabic>
          <text>chung</text>
        </lyric>
      </note>
    </measure>
    <!--=======================================================-->
    <measure number="14" width="177">
      <note default-x="17">
        <pitch>
          <step>A</step>
          <octave>4</octave>
        </pitch>
        <duration>2</duration>
        <voice>1</voice>
        <type>eighth</type>
        <stem default-y="10">up</stem>
        <beam number="1">begin</beam>
        <notations>
          <slur bezier-x="10" bezier-y="-14" default-x="6" default-y="-35" number="1" placement="below" type="start"/>
        </notations>
        <lyric default-y="-102" number="1" relative-x="13">
          <syllabic>single</syllabic>
          <text>tay</text>
        </lyric>
      </note>
      <note default-x="59">
        <pitch>
          <step>G</step>
          <octave>4</octave>
        </pitch>
        <duration>2</duration>
        <voice>1</voice>
        <type>eighth</type>
        <stem default-y="5">up</stem>
        <beam number="1">end</beam>
        <notations>
          <slur bezier-x="-15" bezier-y="-9" default-x="6" default-y="-43" number="1" type="stop"/>
        </notations>
      </note>
      <note default-x="91">
        <pitch>
          <step>D</step>
          <octave>4</octave>
        </pitch>
        <duration>2</duration>
        <voice>1</voice>
        <type>eighth</type>
        <stem default-y="-10">up</stem>
        <lyric default-y="-102" number="1">
          <syllabic>single</syllabic>
          <text>để</text>
        </lyric>
      </note>
      <note default-x="142">
        <pitch>
          <step>D</step>
          <octave>4</octave>
        </pitch>
        <duration>2</duration>
        <voice>1</voice>
        <type>eighth</type>
        <stem default-y="-10">up</stem>
        <lyric default-y="-102" number="1">
          <syllabic>single</syllabic>
          <text>mà</text>
        </lyric>
      </note>
    </measure>
    <!--=======================================================-->
    <measure number="15" width="283">
      <note default-x="27">
        <pitch>
          <step>D</step>
          <octave>4</octave>
        </pitch>
        <duration>2</duration>
        <voice>1</voice>
        <type>eighth</type>
        <stem default-y="-10">up</stem>
        <lyric default-y="-102" number="1" relative-x="7">
          <syllabic>single</syllabic>
          <text>dựng</text>
        </lyric>
      </note>
      <note default-x="94">
        <pitch>
          <step>G</step>
          <octave>3</octave>
        </pitch>
        <duration>1</duration>
        <voice>1</voice>
        <type>16th</type>
        <stem default-y="-20">up</stem>
        <lyric default-y="-102" number="1">
          <syllabic>single</syllabic>
          <text>rứa</text>
        </lyric>
      </note>
      <note default-x="150">
        <pitch>
          <step>G</step>
          <octave>4</octave>
        </pitch>
        <duration>1</duration>
        <voice>1</voice>
        <type>16th</type>
        <stem default-y="5">up</stem>
        <lyric default-y="-102" number="1">
          <syllabic>single</syllabic>
          <text>mà</text>
        </lyric>
      </note>
      <note default-x="207">
        <pitch>
          <step>D</step>
          <octave>4</octave>
        </pitch>
        <duration>2</duration>
        <voice>1</voice>
        <type>eighth</type>
        <stem default-y="-10">up</stem>
        <lyric default-y="-102" number="1">
          <syllabic>single</syllabic>
          <text>dựng</text>
        </lyric>
      </note>
      <note default-x="249">
        <rest/>
        <duration>2</duration>
        <voice>1</voice>
        <type>eighth</type>
      </note>
    </measure>
    <!--=======================================================-->
    <measure number="16" width="192">
      <note default-x="17">
        <pitch>
          <step>G</step>
          <octave>3</octave>
        </pitch>
        <duration>2</duration>
        <voice>1</voice>
        <type>eighth</type>
        <stem default-y="-20">up</stem>
        <lyric default-y="-102" number="1">
          <syllabic>single</syllabic>
          <text>à</text>
        </lyric>
      </note>
      <note default-x="63">
        <pitch>
          <step>A</step>
          <octave>4</octave>
        </pitch>
        <duration>1</duration>
        <voice>1</voice>
        <type>16th</type>
        <stem default-y="10">up</stem>
        <beam number="1">begin</beam>
        <beam number="2">begin</beam>
        <notations>
          <slur bezier-x="8" bezier-y="-12" default-x="6" default-y="-35" number="1" placement="below" type="start"/>
        </notations>
        <lyric default-y="-102" justify="left" number="1">
          <syllabic>single</syllabic>
          <text>xây</text>
          <extend type="start"/>
        </lyric>
      </note>
      <note default-x="97">
        <pitch>
          <step>G</step>
          <octave>4</octave>
        </pitch>
        <duration>1</duration>
        <voice>1</voice>
        <type>16th</type>
        <stem default-y="5">up</stem>
        <beam number="1">end</beam>
        <beam number="2">end</beam>
        <notations>
          <slur bezier-x="-12" bezier-y="-7" default-x="6" default-y="-43" number="1" type="stop"/>
        </notations>
        <lyric number="1">
          <extend type="stop"/>
        </lyric>
      </note>
      <note default-x="131">
        <pitch>
          <step>E</step>
          <octave>4</octave>
        </pitch>
        <duration>2</duration>
        <voice>1</voice>
        <type>eighth</type>
        <stem default-y="-5">up</stem>
        <beam number="1">begin</beam>
        <notations>
          <slur bezier-x="9" bezier-y="-12" default-x="6" default-y="-50" number="1" placement="below" type="start"/>
        </notations>
        <lyric default-y="-102" justify="left" number="1">
          <syllabic>single</syllabic>
          <text>một</text>
          <extend type="start"/>
        </lyric>
      </note>
      <note default-x="166">
        <pitch>
          <step>D</step>
          <octave>4</octave>
        </pitch>
        <duration>2</duration>
        <voice>1</voice>
        <type>eighth</type>
        <stem default-y="-10">up</stem>
        <beam number="1">end</beam>
        <notations>
          <slur bezier-x="-12" bezier-y="-9" default-x="7" default-y="-55" number="1" type="stop"/>
        </notations>
        <lyric number="1">
          <extend type="stop"/>
        </lyric>
      </note>
    </measure>
    <!--=======================================================-->
    <measure number="17" width="285">
      <print new-system="yes">
        <system-layout>
          <system-distance>114</system-distance>
        </system-layout>
      </print>
      <note default-x="53">
        <pitch>
          <step>G</step>
          <octave>3</octave>
        </pitch>
        <duration>2</duration>
        <voice>1</voice>
        <type>eighth</type>
        <stem default-y="-20">up</stem>
        <lyric default-y="-102" number="1">
          <syllabic>single</syllabic>
          <text>nhà</text>
        </lyric>
      </note>
      <note default-x="114">
        <pitch>
          <step>G</step>
          <octave>4</octave>
        </pitch>
        <duration>1</duration>
        <voice>1</voice>
        <type>16th</type>
        <stem default-y="5">up</stem>
        <lyric default-y="-102" number="1">
          <syllabic>single</syllabic>
          <text>rứa</text>
        </lyric>
      </note>
      <note default-x="166">
        <pitch>
          <step>G</step>
          <octave>4</octave>
        </pitch>
        <duration>1</duration>
        <voice>1</voice>
        <type>16th</type>
        <stem default-y="5">up</stem>
        <lyric default-y="-102" number="1">
          <syllabic>single</syllabic>
          <text>mà</text>
        </lyric>
      </note>
      <note default-x="211">
        <pitch>
          <step>E</step>
          <octave>4</octave>
        </pitch>
        <duration>2</duration>
        <voice>1</voice>
        <type>eighth</type>
        <stem default-y="-5">up</stem>
        <beam number="1">begin</beam>
        <notations>
          <slur bezier-x="11" bezier-y="-13" default-x="6" default-y="-50" number="1" placement="below" type="start"/>
        </notations>
        <lyric default-y="-102" number="1" relative-x="16">
          <syllabic>single</syllabic>
          <text>đồng</text>
        </lyric>
      </note>
      <note default-x="253">
        <pitch>
          <step>D</step>
          <octave>4</octave>
        </pitch>
        <duration>2</duration>
        <voice>1</voice>
        <type>eighth</type>
        <stem default-y="-10">up</stem>
        <beam number="1">end</beam>
        <notations>
          <slur bezier-x="-13" bezier-y="-10" default-x="6" default-y="-55" number="1" type="stop"/>
        </notations>
      </note>
    </measure>
    <!--=======================================================-->
    <measure number="18" width="246">
      <note default-x="9">
        <grace slash="yes"/>
        <pitch>
          <step>D</step>
          <octave>4</octave>
        </pitch>
        <voice>1</voice>
        <type>eighth</type>
        <stem default-y="-24">up</stem>
        <notations>
          <slur bezier-x="11" bezier-y="-5" default-x="4" default-y="-53" number="1" placement="below" type="start"/>
        </notations>
      </note>
      <note default-x="31">
        <pitch>
          <step>G</step>
          <octave>4</octave>
        </pitch>
        <duration>2</duration>
        <voice>1</voice>
        <type>eighth</type>
        <stem default-y="5">up</stem>
        <notations>
          <slur bezier-x="-4" bezier-y="-11" default-x="6" default-y="-43" number="1" type="stop"/>
        </notations>
        <lyric default-y="-102" number="1">
          <syllabic>single</syllabic>
          <text>lòng</text>
        </lyric>
      </note>
      <note default-x="76">
        <rest/>
        <duration>2</duration>
        <voice>1</voice>
        <type>eighth</type>
      </note>
      <note default-x="105">
        <grace slash="yes"/>
        <pitch>
          <step>G</step>
          <octave>4</octave>
        </pitch>
        <voice>1</voice>
        <type>eighth</type>
        <stem default-y="-9">up</stem>
        <notations>
          <slur bezier-x="10" bezier-y="-6" default-x="4" default-y="-43" number="1" placement="below" type="start"/>
        </notations>
      </note>
      <note default-x="127">
        <pitch>
          <step>A</step>
          <octave>4</octave>
        </pitch>
        <duration>2</duration>
        <voice>1</voice>
        <type>eighth</type>
        <stem default-y="10">up</stem>
        <notations>
          <slur bezier-x="-5" bezier-y="-11" default-x="7" default-y="-35" number="1" type="stop"/>
        </notations>
        <lyric default-y="-102" number="1">
          <syllabic>single</syllabic>
          <text>em</text>
        </lyric>
      </note>
      <note default-x="184">
        <pitch>
          <step>A</step>
          <octave>4</octave>
        </pitch>
        <duration>1</duration>
        <voice>1</voice>
        <type>16th</type>
        <stem default-y="10">up</stem>
        <beam number="1">begin</beam>
        <beam number="2">begin</beam>
        <notations>
          <slur bezier-x="6" bezier-y="-12" default-x="6" default-y="-35" number="1" placement="below" type="start"/>
        </notations>
        <lyric default-y="-102" number="1" relative-x="8">
          <syllabic>single</syllabic>
          <text>mong</text>
        </lyric>
      </note>
      <note default-x="214">
        <pitch>
          <step>G</step>
          <octave>4</octave>
        </pitch>
        <duration>1</duration>
        <voice>1</voice>
        <type>16th</type>
        <stem default-y="5">up</stem>
        <beam number="1">end</beam>
        <beam number="2">end</beam>
        <notations>
          <slur bezier-x="-11" bezier-y="-7" default-x="6" default-y="-43" number="1" type="stop"/>
        </notations>
      </note>
    </measure>
    <!--=======================================================-->
    <measure number="19" width="216">
      <note default-x="19">
        <grace slash="yes"/>
        <pitch>
          <step>E</step>
          <octave>4</octave>
        </pitch>
        <voice>1</voice>
        <type>eighth</type>
        <stem default-y="-19">up</stem>
        <notations>
          <slur bezier-x="5" bezier-y="-10" default-x="4" default-y="-48" number="1" placement="below" type="start"/>
        </notations>
      </note>
      <note default-x="42">
        <pitch>
          <step>D</step>
          <octave>4</octave>
        </pitch>
        <duration>2</duration>
        <voice>1</voice>
        <type>eighth</type>
        <stem default-y="-10">up</stem>
        <notations>
          <slur bezier-x="-10" bezier-y="-7" default-x="7" default-y="-55" number="1" type="stop"/>
        </notations>
        <lyric default-y="-102" number="1">
          <syllabic>single</syllabic>
          <text>muốn</text>
        </lyric>
      </note>
      <note default-x="118">
        <pitch>
          <step>D</step>
          <octave>4</octave>
        </pitch>
        <duration>2</duration>
        <voice>1</voice>
        <type>eighth</type>
        <stem default-y="-10">up</stem>
        <lyric default-y="-102" number="1">
          <syllabic>single</syllabic>
          <text>cùng</text>
        </lyric>
      </note>
      <note default-x="156">
        <grace slash="yes"/>
        <pitch>
          <step>G</step>
          <octave>4</octave>
        </pitch>
        <voice>1</voice>
        <type>eighth</type>
        <stem default-y="-9">up</stem>
        <notations>
          <slur bezier-x="10" bezier-y="-6" default-x="4" default-y="-43" number="1" placement="below" type="start"/>
        </notations>
      </note>
      <note default-x="178">
        <pitch>
          <step>A</step>
          <octave>4</octave>
        </pitch>
        <duration>4</duration>
        <voice>1</voice>
        <type>quarter</type>
        <stem default-y="10">up</stem>
        <notations>
          <slur bezier-x="-4" bezier-y="-11" default-x="6" default-y="-35" number="1" type="stop"/>
        </notations>
        <lyric default-y="-102" number="1">
          <syllabic>single</syllabic>
          <text>ai</text>
        </lyric>
      </note>
    </measure>
    <!--=======================================================-->
    <measure number="20" width="237">
      <note default-x="13">
        <grace slash="yes"/>
        <pitch>
          <step>G</step>
          <octave>4</octave>
        </pitch>
        <voice>1</voice>
        <type>eighth</type>
        <stem default-y="-9">up</stem>
        <notations>
          <slur bezier-x="10" bezier-y="-5" default-x="4" default-y="-43" number="1" placement="below" type="start"/>
        </notations>
      </note>
      <note default-x="35">
        <pitch>
          <step>A</step>
          <octave>4</octave>
        </pitch>
        <duration>2</duration>
        <voice>1</voice>
        <type>eighth</type>
        <stem default-y="10">up</stem>
        <notations>
          <slur bezier-x="-4" bezier-y="-10" default-x="6" default-y="-35" number="1" type="stop"/>
        </notations>
        <lyric default-y="-102" number="1">
          <syllabic>single</syllabic>
          <text>lo</text>
        </lyric>
      </note>
      <note default-x="85">
        <pitch>
          <step>A</step>
          <octave>4</octave>
        </pitch>
        <duration>2</duration>
        <voice>1</voice>
        <type>eighth</type>
        <stem default-y="10">up</stem>
        <lyric default-y="-102" number="1">
          <syllabic>single</syllabic>
          <text>cho</text>
        </lyric>
      </note>
      <note default-x="136">
        <pitch>
          <step>A</step>
          <octave>4</octave>
        </pitch>
        <duration>2</duration>
        <voice>1</voice>
        <type>eighth</type>
        <stem default-y="10">up</stem>
        <lyric default-y="-102" number="1">
          <syllabic>single</syllabic>
          <text>đôi</text>
        </lyric>
      </note>
      <note default-x="185">
        <pitch>
          <step>G</step>
          <octave>4</octave>
        </pitch>
        <duration>2</duration>
        <voice>1</voice>
        <type>eighth</type>
        <stem default-y="5">up</stem>
        <lyric default-y="-102" number="1">
          <syllabic>single</syllabic>
          <text>lứa</text>
        </lyric>
      </note>
    </measure>
    <!--=======================================================-->
    <measure number="21" width="258">
      <print new-system="yes">
        <system-layout>
          <system-distance>114</system-distance>
        </system-layout>
      </print>
      <note default-x="51">
        <pitch>
          <step>A</step>
          <octave>4</octave>
        </pitch>
        <duration>2</duration>
        <voice>1</voice>
        <type>eighth</type>
        <stem default-y="10">up</stem>
        <lyric default-y="-102" number="1">
          <syllabic>single</syllabic>
          <text>a</text>
        </lyric>
      </note>
      <note default-x="91">
        <pitch>
          <step>G</step>
          <octave>4</octave>
        </pitch>
        <duration>2</duration>
        <voice>1</voice>
        <type>eighth</type>
        <stem default-y="5">up</stem>
        <lyric default-y="-102" number="1">
          <syllabic>single</syllabic>
          <text>ta</text>
        </lyric>
      </note>
      <note default-x="148">
        <pitch>
          <step>D</step>
          <octave>4</octave>
        </pitch>
        <duration>2</duration>
        <voice>1</voice>
        <type>eighth</type>
        <stem default-y="-10">up</stem>
        <lyric default-y="-102" number="1">
          <syllabic>single</syllabic>
          <text>ngày</text>
        </lyric>
      </note>
      <note default-x="206">
        <pitch>
          <step>D</step>
          <octave>4</octave>
        </pitch>
        <duration>2</duration>
        <voice>1</voice>
        <type>eighth</type>
        <stem default-y="-10">up</stem>
        <lyric default-y="-102" number="1">
          <syllabic>single</syllabic>
          <text>một</text>
        </lyric>
      </note>
    </measure>
    <!--=======================================================-->
    <measure number="22" width="224">
      <note default-x="13">
        <pitch>
          <step>D</step>
          <octave>4</octave>
        </pitch>
        <duration>2</duration>
        <voice>1</voice>
        <type>eighth</type>
        <stem default-y="-10">up</stem>
        <lyric default-y="-102" number="1">
          <syllabic>single</syllabic>
          <text>gần</text>
        </lyric>
      </note>
      <note default-x="77">
        <pitch>
          <step>G</step>
          <octave>4</octave>
        </pitch>
        <duration>2</duration>
        <voice>1</voice>
        <type>eighth</type>
        <stem default-y="5">up</stem>
        <lyric default-y="-102" number="1">
          <syllabic>single</syllabic>
          <text>thêm</text>
        </lyric>
      </note>
      <note default-x="123">
        <grace slash="yes"/>
        <pitch>
          <step>E</step>
          <octave>4</octave>
        </pitch>
        <voice>1</voice>
        <type>eighth</type>
        <stem default-y="-19">up</stem>
        <notations>
          <slur bezier-x="5" bezier-y="-11" default-x="4" default-y="-48" number="1" placement="below" type="start"/>
        </notations>
      </note>
      <note default-x="146">
        <pitch>
          <step>D</step>
          <octave>4</octave>
        </pitch>
        <duration>2</duration>
        <voice>1</voice>
        <type>eighth</type>
        <stem default-y="-10">up</stem>
        <notations>
          <slur bezier-x="-10" bezier-y="-6" default-x="6" default-y="-55" number="1" type="stop"/>
        </notations>
        <lyric default-y="-102" number="1">
          <syllabic>single</syllabic>
          <text>gần</text>
        </lyric>
      </note>
      <note default-x="188">
        <pitch>
          <step>D</step>
          <octave>4</octave>
        </pitch>
        <duration>2</duration>
        <voice>1</voice>
        <type>eighth</type>
        <stem default-y="-10">up</stem>
        <lyric default-y="-102" number="1">
          <syllabic>single</syllabic>
          <text>à</text>
        </lyric>
      </note>
    </measure>
    <!--=======================================================-->
    <measure number="23" width="166">
      <note default-x="20">
        <grace slash="yes"/>
        <pitch>
          <step>D</step>
          <octave>4</octave>
        </pitch>
        <voice>1</voice>
        <type>eighth</type>
        <stem default-y="-24">up</stem>
        <notations>
          <slur bezier-x="10" bezier-y="-5" default-x="4" default-y="-53" number="1" placement="below" type="start"/>
        </notations>
      </note>
      <note default-x="42">
        <pitch>
          <step>G</step>
          <octave>4</octave>
        </pitch>
        <duration>4</duration>
        <voice>1</voice>
        <type>quarter</type>
        <stem default-y="5">up</stem>
        <notations>
          <slur bezier-x="-4" bezier-y="-11" default-x="6" default-y="-43" number="1" type="stop"/>
        </notations>
        <lyric default-y="-102" number="1">
          <syllabic>single</syllabic>
          <text>với</text>
        </lyric>
      </note>
      <note default-x="98">
        <grace slash="yes"/>
        <pitch>
          <step>G</step>
          <octave>4</octave>
        </pitch>
        <voice>1</voice>
        <type>eighth</type>
        <stem default-y="-9">up</stem>
        <notations>
          <slur bezier-x="10" bezier-y="-5" default-x="4" default-y="-43" number="1" placement="below" type="start"/>
        </notations>
      </note>
      <note default-x="120">
        <pitch>
          <step>A</step>
          <octave>4</octave>
        </pitch>
        <duration>4</duration>
        <voice>1</voice>
        <type>quarter</type>
        <stem default-y="10">up</stem>
        <notations>
          <slur bezier-x="-5" bezier-y="-10" default-x="6" default-y="-35" number="1" type="stop"/>
          <slur bezier-x="22" bezier-y="-22" default-x="6" default-y="-35" number="1" placement="below" type="start"/>
          <slur bezier-x="17" bezier-y="-15" default-x="6" default-y="-35" number="2" placement="below" type="start"/>
        </notations>
        <lyric default-y="-102" number="1">
          <syllabic>single</syllabic>
          <text>nhau</text>
        </lyric>
      </note>
    </measure>
    <!--=======================================================-->
    <measure number="24" width="218">
      <note default-x="13">
        <pitch>
          <step>A</step>
          <octave>4</octave>
        </pitch>
        <duration>1</duration>
        <voice>1</voice>
        <type>16th</type>
        <stem default-y="10">up</stem>
        <beam number="1">begin</beam>
        <beam number="2">begin</beam>
        <notations>
          <slur bezier-x="-17" bezier-y="-15" default-x="6" default-y="-35" number="2" type="stop"/>
        </notations>
      </note>
      <note default-x="42">
        <pitch>
          <step>G</step>
          <octave>4</octave>
        </pitch>
        <duration>1</duration>
        <voice>1</voice>
        <type>16th</type>
        <stem default-y="5">up</stem>
        <beam number="1">end</beam>
        <beam number="2">end</beam>
        <notations>
          <slur bezier-x="-25" bezier-y="-17" default-x="6" default-y="-43" number="1" type="stop"/>
        </notations>
      </note>
      <note default-x="70">
        <pitch>
          <step>D</step>
          <octave>4</octave>
        </pitch>
        <duration>2</duration>
        <voice>1</voice>
        <type>eighth</type>
        <stem default-y="-10">up</stem>
        <notations>
          <slur bezier-x="11" bezier-y="-5" default-x="6" default-y="-55" number="1" placement="below" type="start"/>
        </notations>
        <lyric default-y="-102" number="1">
          <syllabic>single</syllabic>
          <text>mà</text>
        </lyric>
      </note>
      <note default-x="99">
        <grace slash="yes"/>
        <pitch>
          <step>G</step>
          <octave>4</octave>
        </pitch>
        <voice>1</voice>
        <type>eighth</type>
        <stem default-y="-9">up</stem>
        <notations>
          <slur bezier-x="-4" bezier-y="-12" default-x="4" default-y="-43" number="1" type="stop"/>
          <slur bezier-x="10" bezier-y="-6" default-x="4" default-y="-43" number="1" placement="below" type="start"/>
        </notations>
      </note>
      <note default-x="121">
        <pitch>
          <step>A</step>
          <octave>4</octave>
        </pitch>
        <duration>2</duration>
        <voice>1</voice>
        <type>eighth</type>
        <stem default-y="10">up</stem>
        <beam number="1">begin</beam>
        <notations>
          <slur bezier-x="-5" bezier-y="-11" default-x="6" default-y="-35" number="1" type="stop"/>
          <slur bezier-x="12" bezier-y="-15" default-x="6" default-y="-35" number="1" placement="below" type="start"/>
        </notations>
      </note>
      <note default-x="170">
        <pitch>
          <step>G</step>
          <octave>4</octave>
        </pitch>
        <duration>2</duration>
        <voice>1</voice>
        <type>eighth</type>
        <stem default-y="5">up</stem>
        <beam number="1">end</beam>
        <notations>
          <slur bezier-x="-16" bezier-y="-10" default-x="7" default-y="-43" number="1" type="stop"/>
        </notations>
        <lyric default-y="-102" number="1" relative-x="-7">
          <syllabic>single</syllabic>
          <text>thêm</text>
        </lyric>
      </note>
    </measure>
    <!--=======================================================-->
    <measure number="25" width="117">
      <note default-x="25">
        <grace/>
        <pitch>
          <step>G</step>
          <octave>4</octave>
        </pitch>
        <voice>1</voice>
        <type>16th</type>
        <stem default-y="-9">up</stem>
        <beam number="1">begin</beam>
        <beam number="2">begin</beam>
        <notations>
          <slur bezier-x="6" bezier-y="-11" default-x="4" default-y="-43" number="1" placement="below" type="start"/>
        </notations>
      </note>
      <note default-x="38">
        <grace/>
        <pitch>
          <step>E</step>
          <octave>4</octave>
        </pitch>
        <voice>1</voice>
        <type>16th</type>
        <stem default-y="-12">up</stem>
        <beam number="1">end</beam>
        <beam number="2">end</beam>
      </note>
      <note default-x="50">
        <pitch>
          <step>D</step>
          <octave>4</octave>
        </pitch>
        <duration>8</duration>
        <voice>1</voice>
        <type>half</type>
        <stem default-y="-10">up</stem>
        <notations>
          <slur bezier-x="-10" bezier-y="-7" default-x="6" default-y="-50" number="1" type="stop"/>
        </notations>
        <lyric default-y="-102" number="1">
          <syllabic>single</syllabic>
          <text>gần.</text>
        </lyric>
      </note>
      <barline location="right">
        <bar-style>light-heavy</bar-style>
      </barline>
    </measure>
  </part>
  <!--=========================================================-->
</score-partwise>
