<svg width="200" height="100" xmlns="http://www.w3.org/2000/svg"><rect width="200" height="100" fill="#f8f9fa"/><circle cx="4.761904761904762" cy="42" r="2" fill="#4dabf7"/><circle cx="14.285714285714285" cy="42" r="2" fill="#4dabf7"/><circle cx="23.80952380952381" cy="42" r="2" fill="#4dabf7"/><circle cx="33.33333333333333" cy="42" r="2" fill="#4dabf7"/><circle cx="42.857142857142854" cy="66" r="2" fill="#4dabf7"/><circle cx="52.38095238095238" cy="66" r="2" fill="#4dabf7"/><circle cx="61.9047619047619" cy="54" r="2" fill="#ff6b6b"/><circle cx="71.42857142857143" cy="66" r="2" fill="#4dabf7"/><circle cx="80.95238095238095" cy="66" r="2" fill="#4dabf7"/><circle cx="90.47619047619047" cy="42" r="2" fill="#4dabf7"/><circle cx="100" cy="90" r="2" fill="#4dabf7"/><circle cx="109.52380952380952" cy="42" r="2" fill="#4dabf7"/><circle cx="119.04761904761904" cy="42" r="2" fill="#4dabf7"/><circle cx="128.57142857142858" cy="42" r="2" fill="#4dabf7"/><circle cx="138.0952380952381" cy="42" r="2" fill="#4dabf7"/><circle cx="147.61904761904762" cy="42" r="2" fill="#4dabf7"/><circle cx="157.14285714285714" cy="42" r="2" fill="#4dabf7"/><circle cx="166.66666666666666" cy="42" r="2" fill="#4dabf7"/><circle cx="176.19047619047618" cy="42" r="2" fill="#4dabf7"/><circle cx="185.71428571428572" cy="42" r="2" fill="#4dabf7"/><circle cx="195.23809523809524" cy="42" r="2" fill="#4dabf7"/></svg>