<?xml version="1.0" encoding="UTF-8" standalone="no"?>
<!DOCTYPE score-partwise PUBLIC "-//Recordare//DTD MusicXML 4.0 Partwise//EN" "http://www.musicxml.org/dtds/partwise.dtd">
<score-partwise version="4.0">
  <movement-title>TRỐNG CƠM</movement-title>
  <identification>
    <creator type="composer">Dân ca Quan Họ</creator>
    <rights>©</rights>
    <encoding>
      <software>Finale v27.2 for Windows</software>
      <encoding-date>2025-08-18</encoding-date>
      <supports attribute="new-system" element="print" type="yes" value="yes"/>
      <supports attribute="new-page" element="print" type="yes" value="yes"/>
      <supports element="accidental" type="yes"/>
      <supports element="beam" type="yes"/>
      <supports element="stem" type="yes"/>
    </encoding>
  </identification>
  <defaults>
    <scaling>
      <millimeters>7.2319</millimeters>
      <tenths>40</tenths>
    </scaling>
    <page-layout>
      <page-height>1545</page-height>
      <page-width>1194</page-width>
      <page-margins type="both">
        <left-margin>140</left-margin>
        <right-margin>70</right-margin>
        <top-margin>70</top-margin>
        <bottom-margin>70</bottom-margin>
      </page-margins>
    </page-layout>
    <system-layout>
      <system-margins>
        <left-margin>0</left-margin>
        <right-margin>0</right-margin>
      </system-margins>
      <system-distance>121</system-distance>
      <top-system-distance>70</top-system-distance>
    </system-layout>
    <appearance>
      <line-width type="stem">0.9115</line-width>
      <line-width type="beam">5</line-width>
      <line-width type="staff">0.9115</line-width>
      <line-width type="light barline">1.0026</line-width>
      <line-width type="heavy barline">5</line-width>
      <line-width type="leger">1.1003</line-width>
      <line-width type="ending">1.3021</line-width>
      <line-width type="wedge">1.0026</line-width>
      <line-width type="enclosure">1.3021</line-width>
      <line-width type="tuplet bracket">1.0026</line-width>
      <note-size type="grace">60</note-size>
      <note-size type="cue">60</note-size>
      <distance type="hyphen">120</distance>
      <distance type="beam">7.5</distance>
    </appearance>
    <music-font font-family="Finale Maestro,engraved" font-size="20.5"/>
    <word-font font-family="Times New Roman" font-size="10.25"/>
    <lyric-font font-family="Arial" font-size="12"/>
  </defaults>
  <credit page="1">
    <credit-type>title</credit-type>
    <credit-words default-x="632" default-y="1475" font-family="Arial" font-size="24" justify="center" valign="top">TRỐNG CƠM</credit-words>
  </credit>
  <credit page="1">
    <credit-type>composer</credit-type>
    <credit-words default-x="1124" default-y="1365" font-family="Arial" font-size="12" justify="right" valign="top">Dân ca Quan Họ</credit-words>
  </credit>
  <credit page="1">
    <credit-type>rights</credit-type>
    <credit-words default-x="632" default-y="53" font-size="10" justify="center" valign="bottom">©</credit-words>
  </credit>
  <part-list>
    <score-part id="P1">
      <part-name print-object="no">MusicXML Part</part-name>
      <group>score</group>
      <score-instrument id="P1-I1">
        <instrument-name>SmartMusic SoftSynth</instrument-name>
        <virtual-instrument/>
      </score-instrument>
      <midi-device>SmartMusic SoftSynth</midi-device>
      <midi-instrument id="P1-I1">
        <midi-channel>1</midi-channel>
        <midi-bank>15489</midi-bank>
        <midi-program>1</midi-program>
        <volume>80</volume>
        <pan>0</pan>
      </midi-instrument>
    </score-part>
  </part-list>
  <!--=========================================================-->
  <part id="P1">
    <measure implicit="yes" number="0" width="135">
      <print>
        <system-layout>
          <system-margins>
            <left-margin>70</left-margin>
            <right-margin>0</right-margin>
          </system-margins>
          <top-system-distance>177</top-system-distance>
        </system-layout>
        <measure-numbering multiple-rest-always="no" multiple-rest-range="no" system="only-top">system</measure-numbering>
      </print>
      <attributes>
        <divisions>4</divisions>
        <key>
          <fifths>0</fifths>
          <mode>major</mode>
        </key>
        <time>
          <beats>2</beats>
          <beat-type>4</beat-type>
        </time>
        <clef>
          <sign>G</sign>
          <line>2</line>
        </clef>
      </attributes>
      <sound>
        <swing>
          <straight/>
        </swing>
      </sound>
      <direction directive="yes" placement="above" system="only-top">
        <direction-type>
          <words default-y="40" font-size="12" font-weight="bold">Nhanh vừa - dí dỏm</words>
        </direction-type>
        <sound tempo="120"/>
      </direction>
      <note default-x="83">
        <pitch>
          <step>G</step>
          <octave>4</octave>
        </pitch>
        <duration>2</duration>
        <voice>1</voice>
        <type>eighth</type>
        <stem default-y="5">up</stem>
        <lyric default-y="-95" number="1">
          <syllabic>single</syllabic>
          <text>Tình</text>
        </lyric>
      </note>
    </measure>
    <!--=======================================================-->
    <measure number="1" width="228">
      <note default-x="13">
        <pitch>
          <step>G</step>
          <octave>4</octave>
        </pitch>
        <duration>2</duration>
        <voice>1</voice>
        <type>eighth</type>
        <stem default-y="5">up</stem>
        <lyric default-y="-95" number="1" relative-x="5">
          <syllabic>single</syllabic>
          <text>bằng</text>
        </lyric>
      </note>
      <note default-x="70">
        <pitch>
          <step>C</step>
          <octave>5</octave>
        </pitch>
        <duration>2</duration>
        <voice>1</voice>
        <type>eighth</type>
        <stem default-y="-50">down</stem>
        <lyric default-y="-95" number="1">
          <syllabic>single</syllabic>
          <text>có</text>
        </lyric>
      </note>
      <note default-x="115">
        <pitch>
          <step>C</step>
          <octave>5</octave>
        </pitch>
        <duration>2</duration>
        <voice>1</voice>
        <type>eighth</type>
        <stem default-y="-50">down</stem>
        <lyric default-y="-95" number="1">
          <syllabic>single</syllabic>
          <text>cái</text>
        </lyric>
      </note>
      <note default-x="158">
        <pitch>
          <step>D</step>
          <octave>5</octave>
        </pitch>
        <duration>1</duration>
        <voice>1</voice>
        <type>16th</type>
        <stem default-y="-45">down</stem>
        <beam number="1">begin</beam>
        <beam number="2">begin</beam>
        <notations>
          <slur bezier-x="15" bezier-y="9" default-x="7" default-y="3" number="1" placement="above" type="start"/>
        </notations>
        <lyric default-y="-95" justify="left" number="1">
          <syllabic>single</syllabic>
          <text>trống</text>
          <extend type="start"/>
        </lyric>
      </note>
      <note default-x="201">
        <pitch>
          <step>C</step>
          <octave>5</octave>
        </pitch>
        <duration>1</duration>
        <voice>1</voice>
        <type>16th</type>
        <stem default-y="-50">down</stem>
        <beam number="1">end</beam>
        <beam number="2">end</beam>
        <notations>
          <slur bezier-x="-10" bezier-y="14" default-x="6" default-y="-5" number="1" type="stop"/>
        </notations>
        <lyric number="1">
          <extend type="stop"/>
        </lyric>
      </note>
    </measure>
    <!--=======================================================-->
    <measure number="2" width="241">
      <note default-x="13">
        <pitch>
          <step>G</step>
          <octave>4</octave>
        </pitch>
        <duration>2</duration>
        <voice>1</voice>
        <type>eighth</type>
        <stem default-y="5">up</stem>
        <lyric default-y="-95" number="1" relative-x="3">
          <syllabic>single</syllabic>
          <text>cơm</text>
        </lyric>
      </note>
      <note default-x="71">
        <pitch>
          <step>G</step>
          <octave>4</octave>
        </pitch>
        <duration>2</duration>
        <voice>1</voice>
        <type>eighth</type>
        <stem default-y="5">up</stem>
        <lyric default-y="-95" number="1">
          <syllabic>single</syllabic>
          <text>khen</text>
        </lyric>
      </note>
      <note default-x="128">
        <pitch>
          <step>G</step>
          <octave>4</octave>
        </pitch>
        <duration>2</duration>
        <voice>1</voice>
        <type>eighth</type>
        <stem default-y="5">up</stem>
        <lyric default-y="-95" number="1">
          <syllabic>single</syllabic>
          <text>ai</text>
        </lyric>
      </note>
      <note default-x="184">
        <pitch>
          <step>C</step>
          <octave>5</octave>
        </pitch>
        <duration>2</duration>
        <voice>1</voice>
        <type>eighth</type>
        <stem default-y="-50">down</stem>
        <lyric default-y="-95" number="1">
          <syllabic>single</syllabic>
          <text>khéo</text>
        </lyric>
      </note>
    </measure>
    <!--=======================================================-->
    <measure number="3" width="308">
      <note default-x="13">
        <grace slash="yes"/>
        <pitch>
          <step>A</step>
          <octave>4</octave>
        </pitch>
        <voice>1</voice>
        <type>eighth</type>
        <stem default-y="-4">up</stem>
        <notations>
          <slur bezier-x="8" bezier-y="-3" default-x="4" default-y="-33" number="1" placement="below" type="start"/>
        </notations>
      </note>
      <note default-x="35">
        <pitch>
          <step>C</step>
          <octave>5</octave>
        </pitch>
        <duration>2</duration>
        <voice>1</voice>
        <type>eighth</type>
        <stem default-y="-50">down</stem>
        <notations>
          <slur bezier-x="0" bezier-y="-9" default-x="-4" default-y="-23" number="1" type="stop"/>
        </notations>
        <lyric default-y="-95" number="1">
          <syllabic>single</syllabic>
          <text>vỗ</text>
        </lyric>
      </note>
      <note default-x="85">
        <pitch>
          <step>C</step>
          <octave>5</octave>
        </pitch>
        <duration>1</duration>
        <voice>1</voice>
        <type>16th</type>
        <stem default-y="-50">down</stem>
        <lyric default-y="-95" number="1">
          <syllabic>single</syllabic>
          <text>ấy</text>
        </lyric>
      </note>
      <note default-x="132">
        <pitch>
          <step>C</step>
          <octave>5</octave>
        </pitch>
        <duration>1</duration>
        <voice>1</voice>
        <type>16th</type>
        <stem default-y="-50">down</stem>
        <lyric default-y="-95" number="1">
          <syllabic>single</syllabic>
          <text>mấy</text>
        </lyric>
      </note>
      <note default-x="189">
        <pitch>
          <step>G</step>
          <octave>4</octave>
        </pitch>
        <duration>2</duration>
        <voice>1</voice>
        <type>eighth</type>
        <stem default-y="5">up</stem>
        <lyric default-y="-95" number="1">
          <syllabic>single</syllabic>
          <text>bông</text>
        </lyric>
      </note>
      <note default-x="242">
        <pitch>
          <step>G</step>
          <octave>4</octave>
        </pitch>
        <duration>1</duration>
        <voice>1</voice>
        <type>16th</type>
        <stem default-y="5">up</stem>
        <beam number="1">begin</beam>
        <beam number="2">begin</beam>
        <notations>
          <slur bezier-x="10" bezier-y="-11" default-x="6" default-y="-43" number="1" placement="below" type="start"/>
        </notations>
        <lyric default-y="-95" justify="left" number="1">
          <syllabic>single</syllabic>
          <text>nên</text>
          <extend type="start"/>
        </lyric>
      </note>
      <note default-x="279">
        <pitch>
          <step>F</step>
          <octave>4</octave>
        </pitch>
        <duration>1</duration>
        <voice>1</voice>
        <type>16th</type>
        <stem default-y="0">up</stem>
        <beam number="1">end</beam>
        <beam number="2">end</beam>
        <notations>
          <slur bezier-x="-11" bezier-y="-10" default-x="6" default-y="-45" number="1" type="stop"/>
        </notations>
        <lyric number="1">
          <extend type="stop"/>
        </lyric>
      </note>
    </measure>
    <!--=======================================================-->
    <measure number="4" width="393">
      <print new-system="yes">
        <system-layout>
          <system-distance>114</system-distance>
        </system-layout>
      </print>
      <note default-x="51">
        <pitch>
          <step>G</step>
          <octave>4</octave>
        </pitch>
        <duration>2</duration>
        <voice>1</voice>
        <type>eighth</type>
        <stem default-y="5">up</stem>
        <lyric default-y="-95" number="1" relative-x="5">
          <syllabic>single</syllabic>
          <text>bông</text>
        </lyric>
      </note>
      <note default-x="126">
        <pitch>
          <step>C</step>
          <octave>5</octave>
        </pitch>
        <duration>1</duration>
        <voice>1</voice>
        <type>16th</type>
        <stem default-y="-50">down</stem>
        <lyric default-y="-95" number="1">
          <syllabic>single</syllabic>
          <text>ấy</text>
        </lyric>
      </note>
      <note default-x="178">
        <pitch>
          <step>C</step>
          <octave>5</octave>
        </pitch>
        <duration>1</duration>
        <voice>1</voice>
        <type>16th</type>
        <stem default-y="-50">down</stem>
        <lyric default-y="-95" number="1">
          <syllabic>single</syllabic>
          <text>mấy</text>
        </lyric>
      </note>
      <note default-x="234">
        <pitch>
          <step>G</step>
          <octave>4</octave>
        </pitch>
        <duration>2</duration>
        <voice>1</voice>
        <type>eighth</type>
        <stem default-y="5">up</stem>
        <lyric default-y="-95" number="1">
          <syllabic>single</syllabic>
          <text>bông</text>
        </lyric>
      </note>
      <note default-x="302">
        <pitch>
          <step>G</step>
          <octave>4</octave>
        </pitch>
        <duration>1</duration>
        <voice>1</voice>
        <type>16th</type>
        <stem default-y="5">up</stem>
        <beam number="1">begin</beam>
        <beam number="2">begin</beam>
        <notations>
          <slur bezier-x="13" bezier-y="-13" default-x="6" default-y="-43" number="1" placement="below" type="start"/>
        </notations>
        <lyric default-y="-95" number="1" relative-x="20">
          <syllabic>single</syllabic>
          <text>nên</text>
        </lyric>
      </note>
      <note default-x="350">
        <pitch>
          <step>F</step>
          <octave>4</octave>
        </pitch>
        <duration>1</duration>
        <voice>1</voice>
        <type>16th</type>
        <stem default-y="0">up</stem>
        <beam number="1">end</beam>
        <beam number="2">end</beam>
        <notations>
          <slur bezier-x="-14" bezier-y="-12" default-x="6" default-y="-45" number="1" type="stop"/>
        </notations>
      </note>
    </measure>
    <!--=======================================================-->
    <measure number="5" width="159">
      <note default-x="13">
        <pitch>
          <step>G</step>
          <octave>4</octave>
        </pitch>
        <duration>4</duration>
        <voice>1</voice>
        <type>quarter</type>
        <stem default-y="5">up</stem>
        <lyric default-y="-95" number="1" relative-x="5">
          <syllabic>single</syllabic>
          <text>bông.</text>
        </lyric>
      </note>
      <note default-x="78">
        <rest/>
        <duration>2</duration>
        <voice>1</voice>
        <type>eighth</type>
      </note>
      <note default-x="118">
        <pitch>
          <step>C</step>
          <octave>5</octave>
        </pitch>
        <duration>2</duration>
        <voice>1</voice>
        <type>eighth</type>
        <stem default-y="-50">down</stem>
        <lyric default-y="-95" number="1">
          <syllabic>single</syllabic>
          <text>Một</text>
        </lyric>
      </note>
    </measure>
    <!--=======================================================-->
    <measure number="6" width="274">
      <note default-x="13">
        <pitch>
          <step>C</step>
          <octave>5</octave>
        </pitch>
        <duration>3</duration>
        <voice>1</voice>
        <type>eighth</type>
        <dot/>
        <stem default-y="-50">down</stem>
        <lyric default-y="-95" number="1">
          <syllabic>single</syllabic>
          <text>bầy</text>
        </lyric>
      </note>
      <note default-x="96">
        <pitch>
          <step>D</step>
          <octave>5</octave>
        </pitch>
        <duration>1</duration>
        <voice>1</voice>
        <type>16th</type>
        <stem default-y="-45">down</stem>
        <lyric default-y="-95" number="1">
          <syllabic>single</syllabic>
          <text>tang</text>
        </lyric>
      </note>
      <note default-x="146">
        <pitch>
          <step>C</step>
          <octave>5</octave>
        </pitch>
        <duration>2</duration>
        <voice>1</voice>
        <type>eighth</type>
        <stem default-y="-50">down</stem>
        <lyric default-y="-95" number="1">
          <syllabic>single</syllabic>
          <text>tình</text>
        </lyric>
      </note>
      <note default-x="212">
        <pitch>
          <step>D</step>
          <octave>5</octave>
        </pitch>
        <duration>2</duration>
        <voice>1</voice>
        <type>eighth</type>
        <stem default-y="-45">down</stem>
        <lyric default-y="-95" number="1">
          <syllabic>single</syllabic>
          <text>con</text>
        </lyric>
      </note>
    </measure>
    <!--=======================================================-->
    <measure number="7" width="157">
      <note default-x="13">
        <pitch>
          <step>E</step>
          <octave>5</octave>
        </pitch>
        <duration>4</duration>
        <voice>1</voice>
        <type>quarter</type>
        <stem default-y="-40">down</stem>
        <lyric default-y="-95" number="1">
          <syllabic>single</syllabic>
          <text>nít,</text>
        </lyric>
      </note>
      <note default-x="77">
        <rest/>
        <duration>2</duration>
        <voice>1</voice>
        <type>eighth</type>
      </note>
      <note default-x="117">
        <pitch>
          <step>C</step>
          <octave>5</octave>
        </pitch>
        <duration>2</duration>
        <voice>1</voice>
        <type>eighth</type>
        <stem default-y="-50">down</stem>
        <lyric default-y="-95" number="1">
          <syllabic>single</syllabic>
          <text>một</text>
        </lyric>
      </note>
    </measure>
    <!--=======================================================-->
    <measure number="8" width="312">
      <print new-system="yes">
        <system-layout>
          <system-distance>114</system-distance>
        </system-layout>
      </print>
      <note default-x="51">
        <pitch>
          <step>C</step>
          <octave>5</octave>
        </pitch>
        <duration>3</duration>
        <voice>1</voice>
        <type>eighth</type>
        <dot/>
        <stem default-y="-50">down</stem>
        <lyric default-y="-95" number="1">
          <syllabic>single</syllabic>
          <text>bầy</text>
        </lyric>
      </note>
      <note default-x="134">
        <pitch>
          <step>D</step>
          <octave>5</octave>
        </pitch>
        <duration>1</duration>
        <voice>1</voice>
        <type>16th</type>
        <stem default-y="-45">down</stem>
        <lyric default-y="-95" number="1">
          <syllabic>single</syllabic>
          <text>tang</text>
        </lyric>
      </note>
      <note default-x="184">
        <pitch>
          <step>C</step>
          <octave>5</octave>
        </pitch>
        <duration>2</duration>
        <voice>1</voice>
        <type>eighth</type>
        <stem default-y="-50">down</stem>
        <lyric default-y="-95" number="1">
          <syllabic>single</syllabic>
          <text>tình</text>
        </lyric>
      </note>
      <note default-x="250">
        <pitch>
          <step>D</step>
          <octave>5</octave>
        </pitch>
        <duration>2</duration>
        <voice>1</voice>
        <type>eighth</type>
        <stem default-y="-45">down</stem>
        <lyric default-y="-95" number="1">
          <syllabic>single</syllabic>
          <text>con</text>
        </lyric>
      </note>
    </measure>
    <!--=======================================================-->
    <measure number="9" width="227">
      <note default-x="13">
        <pitch>
          <step>E</step>
          <octave>5</octave>
        </pitch>
        <duration>2</duration>
        <voice>1</voice>
        <type>eighth</type>
        <stem default-y="-40">down</stem>
        <lyric default-y="-95" number="1">
          <syllabic>single</syllabic>
          <text>nít</text>
        </lyric>
      </note>
      <note default-x="64">
        <pitch>
          <step>E</step>
          <octave>5</octave>
        </pitch>
        <duration>1</duration>
        <voice>1</voice>
        <type>16th</type>
        <stem default-y="-40">down</stem>
        <lyric default-y="-95" number="1">
          <syllabic>single</syllabic>
          <text>ấy</text>
        </lyric>
      </note>
      <note default-x="107">
        <pitch>
          <step>E</step>
          <octave>5</octave>
        </pitch>
        <duration>1</duration>
        <voice>1</voice>
        <type>16th</type>
        <stem default-y="-40">down</stem>
        <lyric default-y="-95" number="1">
          <syllabic>single</syllabic>
          <text>mấy</text>
        </lyric>
      </note>
      <note default-x="138">
        <pitch>
          <step>G</step>
          <octave>4</octave>
        </pitch>
        <duration>3</duration>
        <voice>1</voice>
        <type>eighth</type>
        <dot/>
        <stem default-y="5">up</stem>
        <beam number="1">begin</beam>
        <notations>
          <slur bezier-x="18" bezier-y="-12" default-x="6" default-y="-43" number="1" placement="below" type="start"/>
        </notations>
        <lyric default-y="-95" number="1" relative-x="23">
          <syllabic>single</syllabic>
          <text>lội</text>
        </lyric>
      </note>
      <note default-x="197">
        <pitch>
          <step>A</step>
          <octave>4</octave>
        </pitch>
        <duration>1</duration>
        <voice>1</voice>
        <type>16th</type>
        <stem default-y="10">up</stem>
        <beam number="1">end</beam>
        <beam number="2">backward hook</beam>
        <notations>
          <slur bezier-x="-15" bezier-y="-17" default-x="6" default-y="-35" number="1" type="stop"/>
        </notations>
      </note>
    </measure>
    <!--=======================================================-->
    <measure number="10" width="187">
      <note default-x="13">
        <pitch>
          <step>G</step>
          <octave>4</octave>
        </pitch>
        <duration>3</duration>
        <voice>1</voice>
        <type>eighth</type>
        <dot/>
        <stem default-y="5">up</stem>
        <beam number="1">begin</beam>
        <notations>
          <slur bezier-x="16" bezier-y="-11" default-x="7" default-y="-43" number="1" placement="below" type="start"/>
        </notations>
        <lyric default-y="-95" number="1" relative-x="19">
          <syllabic>single</syllabic>
          <text>lội</text>
        </lyric>
      </note>
      <note default-x="65">
        <pitch>
          <step>A</step>
          <octave>4</octave>
        </pitch>
        <duration>1</duration>
        <voice>1</voice>
        <type>16th</type>
        <stem default-y="10">up</stem>
        <beam number="1">end</beam>
        <beam number="2">backward hook</beam>
        <notations>
          <slur bezier-x="-12" bezier-y="-15" default-x="6" default-y="-35" number="1" type="stop"/>
        </notations>
      </note>
      <note default-x="89">
        <pitch>
          <step>G</step>
          <octave>4</octave>
        </pitch>
        <duration>1</duration>
        <voice>1</voice>
        <type>16th</type>
        <stem default-y="5">up</stem>
        <beam number="1">begin</beam>
        <beam number="2">begin</beam>
        <notations>
          <slur bezier-x="10" bezier-y="-6" default-x="6" default-y="-43" number="1" placement="below" type="start"/>
        </notations>
        <lyric default-y="-95" justify="left" number="1">
          <syllabic>single</syllabic>
          <text>lội</text>
          <extend type="start"/>
        </lyric>
      </note>
      <note default-x="114">
        <pitch>
          <step>A</step>
          <octave>4</octave>
        </pitch>
        <duration>1</duration>
        <voice>1</voice>
        <type>16th</type>
        <stem default-y="10">up</stem>
        <beam number="1">end</beam>
        <beam number="2">end</beam>
        <notations>
          <slur bezier-x="-5" bezier-y="-11" default-x="6" default-y="-35" number="1" type="stop"/>
        </notations>
        <lyric number="1">
          <extend type="stop"/>
        </lyric>
      </note>
      <note default-x="138">
        <pitch>
          <step>G</step>
          <octave>4</octave>
        </pitch>
        <duration>1</duration>
        <voice>1</voice>
        <type>16th</type>
        <stem default-y="5">up</stem>
        <beam number="1">begin</beam>
        <beam number="2">begin</beam>
        <notations>
          <slur bezier-x="10" bezier-y="-5" default-x="7" default-y="-43" number="1" placement="below" type="start"/>
        </notations>
        <lyric default-y="-95" justify="left" number="1">
          <syllabic>single</syllabic>
          <text>lội</text>
          <extend type="start"/>
        </lyric>
      </note>
      <note default-x="162">
        <pitch>
          <step>A</step>
          <octave>4</octave>
        </pitch>
        <duration>1</duration>
        <voice>1</voice>
        <type>16th</type>
        <stem default-y="10">up</stem>
        <beam number="1">end</beam>
        <beam number="2">end</beam>
        <notations>
          <slur bezier-x="-5" bezier-y="-10" default-x="6" default-y="-35" number="1" type="stop"/>
        </notations>
        <lyric number="1">
          <extend type="stop"/>
        </lyric>
      </note>
    </measure>
    <!--=======================================================-->
    <measure number="11" width="257">
      <note default-x="13">
        <pitch>
          <step>C</step>
          <octave>5</octave>
        </pitch>
        <duration>2</duration>
        <voice>1</voice>
        <type>eighth</type>
        <stem default-y="-50">down</stem>
        <lyric default-y="-95" number="1" relative-x="5">
          <syllabic>single</syllabic>
          <text>sông</text>
        </lyric>
      </note>
      <note default-x="65">
        <pitch>
          <step>C</step>
          <octave>5</octave>
        </pitch>
        <duration>1</duration>
        <voice>1</voice>
        <type>16th</type>
        <stem default-y="-50">down</stem>
        <lyric default-y="-95" number="1">
          <syllabic>single</syllabic>
          <text>ấy</text>
        </lyric>
      </note>
      <note default-x="97">
        <pitch>
          <step>C</step>
          <octave>5</octave>
        </pitch>
        <duration>1</duration>
        <voice>1</voice>
        <type>16th</type>
        <stem default-y="-50">down</stem>
        <lyric default-y="-95" justify="left" number="1">
          <syllabic>single</syllabic>
          <text>mấy</text>
          <extend type="start"/>
        </lyric>
      </note>
      <note default-x="128">
        <pitch>
          <step>A</step>
          <octave>4</octave>
        </pitch>
        <duration>1</duration>
        <voice>1</voice>
        <type>16th</type>
        <stem default-y="15">up</stem>
        <beam number="1">begin</beam>
        <beam number="2">begin</beam>
        <notations>
          <slur bezier-x="27" bezier-y="-18" default-x="7" default-y="-35" number="1" placement="below" type="start"/>
        </notations>
        <lyric number="1">
          <extend type="stop"/>
        </lyric>
      </note>
      <note default-x="160">
        <pitch>
          <step>G</step>
          <octave>4</octave>
        </pitch>
        <duration>1</duration>
        <voice>1</voice>
        <type>16th</type>
        <stem default-y="17">up</stem>
        <beam number="1">continue</beam>
        <beam number="2">continue</beam>
        <lyric default-y="-95" number="1" relative-x="11">
          <syllabic>single</syllabic>
          <text>đi</text>
        </lyric>
      </note>
      <note default-x="192">
        <pitch>
          <step>A</step>
          <octave>4</octave>
        </pitch>
        <duration>1</duration>
        <voice>1</voice>
        <type>16th</type>
        <stem default-y="18.5">up</stem>
        <beam number="1">continue</beam>
        <beam number="2">continue</beam>
      </note>
      <note default-x="224">
        <pitch>
          <step>C</step>
          <octave>5</octave>
        </pitch>
        <duration>1</duration>
        <voice>1</voice>
        <type>16th</type>
        <stem default-y="20">up</stem>
        <beam number="1">end</beam>
        <beam number="2">end</beam>
        <notations>
          <slur bezier-x="-22" bezier-y="-23" default-x="6" default-y="-25" number="1" type="stop"/>
        </notations>
      </note>
    </measure>
    <!--=======================================================-->
    <measure number="12" width="356">
      <print new-system="yes">
        <system-layout>
          <system-distance>114</system-distance>
        </system-layout>
      </print>
      <note default-x="51">
        <pitch>
          <step>G</step>
          <octave>4</octave>
        </pitch>
        <duration>2</duration>
        <voice>1</voice>
        <type>eighth</type>
        <stem default-y="5">up</stem>
        <lyric default-y="-95" number="1">
          <syllabic>single</syllabic>
          <text>tìm,</text>
        </lyric>
      </note>
      <note default-x="127">
        <pitch>
          <step>A</step>
          <octave>4</octave>
        </pitch>
        <duration>2</duration>
        <voice>1</voice>
        <type>eighth</type>
        <stem default-y="10">up</stem>
        <lyric default-y="-95" number="1" relative-x="6">
          <syllabic>single</syllabic>
          <text>em</text>
        </lyric>
      </note>
      <note default-x="181">
        <grace slash="yes"/>
        <pitch>
          <step>G</step>
          <octave>4</octave>
        </pitch>
        <voice>1</voice>
        <type>eighth</type>
        <stem default-y="-9">up</stem>
        <notations>
          <slur bezier-x="9" bezier-y="-2" default-x="4" default-y="-34" number="1" placement="below" type="start"/>
        </notations>
      </note>
      <note default-x="203">
        <pitch>
          <step>C</step>
          <octave>5</octave>
        </pitch>
        <duration>2</duration>
        <voice>1</voice>
        <type>eighth</type>
        <stem default-y="-50">down</stem>
        <notations>
          <slur bezier-x="0" bezier-y="-9" default-x="-4" default-y="-23" number="1" type="stop"/>
        </notations>
        <lyric default-y="-95" number="1">
          <syllabic>single</syllabic>
          <text>nhớ</text>
        </lyric>
      </note>
      <note default-x="279">
        <pitch>
          <step>A</step>
          <octave>4</octave>
        </pitch>
        <duration>2</duration>
        <voice>1</voice>
        <type>eighth</type>
        <stem default-y="10">up</stem>
        <lyric default-y="-95" number="1">
          <syllabic>single</syllabic>
          <text>thương</text>
        </lyric>
      </note>
    </measure>
    <!--=======================================================-->
    <measure number="13" width="191">
      <note default-x="13">
        <pitch>
          <step>G</step>
          <octave>4</octave>
        </pitch>
        <duration>6</duration>
        <voice>1</voice>
        <type>quarter</type>
        <dot/>
        <stem default-y="5">up</stem>
        <lyric default-y="-95" number="1">
          <syllabic>single</syllabic>
          <text>ai</text>
        </lyric>
      </note>
      <note default-x="110">
        <pitch>
          <step>G</step>
          <octave>4</octave>
        </pitch>
        <duration>1</duration>
        <voice>1</voice>
        <type>16th</type>
        <stem default-y="5">up</stem>
        <lyric default-y="-95" number="1">
          <syllabic>single</syllabic>
          <text>đôi</text>
        </lyric>
      </note>
      <note default-x="152">
        <pitch>
          <step>G</step>
          <octave>4</octave>
        </pitch>
        <duration>1</duration>
        <voice>1</voice>
        <type>16th</type>
        <stem default-y="5">up</stem>
        <lyric default-y="-95" number="1">
          <syllabic>single</syllabic>
          <text>con</text>
        </lyric>
      </note>
    </measure>
    <!--=======================================================-->
    <measure number="14" width="243">
      <note default-x="13">
        <pitch>
          <step>C</step>
          <octave>5</octave>
        </pitch>
        <duration>2</duration>
        <voice>1</voice>
        <type>eighth</type>
        <stem default-y="-50">down</stem>
        <lyric default-y="-95" number="1">
          <syllabic>single</syllabic>
          <text>mắt</text>
        </lyric>
      </note>
      <note default-x="62">
        <pitch>
          <step>C</step>
          <octave>5</octave>
        </pitch>
        <duration>1</duration>
        <voice>1</voice>
        <type>16th</type>
        <stem default-y="-50">down</stem>
        <lyric default-y="-95" number="1">
          <syllabic>single</syllabic>
          <text>ấy</text>
        </lyric>
      </note>
      <note default-x="92">
        <pitch>
          <step>C</step>
          <octave>5</octave>
        </pitch>
        <duration>1</duration>
        <voice>1</voice>
        <type>16th</type>
        <stem default-y="-50">down</stem>
        <lyric default-y="-95" justify="left" number="1">
          <syllabic>single</syllabic>
          <text>mấy</text>
          <extend type="start"/>
        </lyric>
      </note>
      <note default-x="122">
        <pitch>
          <step>G</step>
          <octave>4</octave>
        </pitch>
        <duration>1</duration>
        <voice>1</voice>
        <type>16th</type>
        <stem default-y="10">up</stem>
        <beam number="1">begin</beam>
        <beam number="2">begin</beam>
        <notations>
          <slur bezier-x="25" bezier-y="-15" default-x="6" default-y="-43" number="1" placement="below" type="start"/>
        </notations>
        <lyric number="1">
          <extend type="stop"/>
        </lyric>
      </note>
      <note default-x="152">
        <pitch>
          <step>A</step>
          <octave>4</octave>
        </pitch>
        <duration>1</duration>
        <voice>1</voice>
        <type>16th</type>
        <stem default-y="10">up</stem>
        <beam number="1">continue</beam>
        <beam number="2">continue</beam>
        <lyric default-y="-95" number="1" relative-x="7">
          <syllabic>single</syllabic>
          <text>lim</text>
        </lyric>
      </note>
      <note default-x="182">
        <pitch>
          <step>G</step>
          <octave>4</octave>
        </pitch>
        <duration>1</duration>
        <voice>1</voice>
        <type>16th</type>
        <stem default-y="10">up</stem>
        <beam number="1">continue</beam>
        <beam number="2">continue</beam>
      </note>
      <note default-x="212">
        <pitch>
          <step>A</step>
          <octave>4</octave>
        </pitch>
        <duration>1</duration>
        <voice>1</voice>
        <type>16th</type>
        <stem default-y="10">up</stem>
        <beam number="1">end</beam>
        <beam number="2">end</beam>
        <notations>
          <slur bezier-x="-22" bezier-y="-19" default-x="6" default-y="-35" number="1" type="stop"/>
        </notations>
      </note>
    </measure>
    <!--=======================================================-->
    <measure number="15" width="194">
      <note default-x="13">
        <pitch>
          <step>C</step>
          <octave>5</octave>
        </pitch>
        <duration>6</duration>
        <voice>1</voice>
        <type>quarter</type>
        <dot/>
        <stem default-y="-50">down</stem>
        <lyric default-y="-95" number="1">
          <syllabic>single</syllabic>
          <text>dim,</text>
        </lyric>
      </note>
      <note default-x="113">
        <pitch>
          <step>G</step>
          <octave>4</octave>
        </pitch>
        <duration>1</duration>
        <voice>1</voice>
        <type>16th</type>
        <stem default-y="5">up</stem>
        <lyric default-y="-95" number="1">
          <syllabic>single</syllabic>
          <text>đôi</text>
        </lyric>
      </note>
      <note default-x="155">
        <pitch>
          <step>G</step>
          <octave>4</octave>
        </pitch>
        <duration>1</duration>
        <voice>1</voice>
        <type>16th</type>
        <stem default-y="5">up</stem>
        <lyric default-y="-95" number="1">
          <syllabic>single</syllabic>
          <text>con</text>
        </lyric>
      </note>
    </measure>
    <!--=======================================================-->
    <measure number="16" width="326">
      <print new-system="yes">
        <system-layout>
          <system-distance>114</system-distance>
        </system-layout>
      </print>
      <note default-x="51">
        <pitch>
          <step>C</step>
          <octave>5</octave>
        </pitch>
        <duration>2</duration>
        <voice>1</voice>
        <type>eighth</type>
        <stem default-y="-50">down</stem>
        <lyric default-y="-95" number="1">
          <syllabic>single</syllabic>
          <text>mắt</text>
        </lyric>
      </note>
      <note default-x="109">
        <pitch>
          <step>C</step>
          <octave>5</octave>
        </pitch>
        <duration>1</duration>
        <voice>1</voice>
        <type>16th</type>
        <stem default-y="-50">down</stem>
        <lyric default-y="-95" number="1">
          <syllabic>single</syllabic>
          <text>ấy</text>
        </lyric>
      </note>
      <note default-x="145">
        <pitch>
          <step>C</step>
          <octave>5</octave>
        </pitch>
        <duration>1</duration>
        <voice>1</voice>
        <type>16th</type>
        <stem default-y="-50">down</stem>
        <lyric default-y="-95" justify="left" number="1">
          <syllabic>single</syllabic>
          <text>mấy</text>
          <extend type="start"/>
        </lyric>
      </note>
      <note default-x="181">
        <pitch>
          <step>G</step>
          <octave>4</octave>
        </pitch>
        <duration>1</duration>
        <voice>1</voice>
        <type>16th</type>
        <stem default-y="10">up</stem>
        <beam number="1">begin</beam>
        <beam number="2">begin</beam>
        <notations>
          <slur bezier-x="29" bezier-y="-17" default-x="6" default-y="-43" number="1" placement="below" type="start"/>
        </notations>
        <lyric number="1">
          <extend type="stop"/>
        </lyric>
      </note>
      <note default-x="217">
        <pitch>
          <step>A</step>
          <octave>4</octave>
        </pitch>
        <duration>1</duration>
        <voice>1</voice>
        <type>16th</type>
        <stem default-y="10">up</stem>
        <beam number="1">continue</beam>
        <beam number="2">continue</beam>
        <lyric default-y="-95" number="1" relative-x="16">
          <syllabic>single</syllabic>
          <text>lim</text>
        </lyric>
      </note>
      <note default-x="253">
        <pitch>
          <step>G</step>
          <octave>4</octave>
        </pitch>
        <duration>1</duration>
        <voice>1</voice>
        <type>16th</type>
        <stem default-y="10">up</stem>
        <beam number="1">continue</beam>
        <beam number="2">continue</beam>
      </note>
      <note default-x="289">
        <pitch>
          <step>A</step>
          <octave>4</octave>
        </pitch>
        <duration>1</duration>
        <voice>1</voice>
        <type>16th</type>
        <stem default-y="10">up</stem>
        <beam number="1">end</beam>
        <beam number="2">end</beam>
        <notations>
          <slur bezier-x="-27" bezier-y="-22" default-x="7" default-y="-35" number="1" type="stop"/>
        </notations>
      </note>
    </measure>
    <!--=======================================================-->
    <measure number="17" width="168">
      <note default-x="13">
        <pitch>
          <step>C</step>
          <octave>5</octave>
        </pitch>
        <duration>6</duration>
        <voice>1</voice>
        <type>quarter</type>
        <dot/>
        <stem default-y="-50">down</stem>
        <lyric default-y="-95" number="1">
          <syllabic>single</syllabic>
          <text>dim.</text>
        </lyric>
      </note>
      <note default-x="118">
        <pitch>
          <step>C</step>
          <octave>5</octave>
        </pitch>
        <duration>2</duration>
        <voice>1</voice>
        <type>eighth</type>
        <stem default-y="-50">down</stem>
        <lyric default-y="-95" number="1">
          <syllabic>single</syllabic>
          <text>Một</text>
        </lyric>
      </note>
    </measure>
    <!--=======================================================-->
    <measure number="18" width="325">
      <note default-x="13">
        <pitch>
          <step>C</step>
          <octave>5</octave>
        </pitch>
        <duration>3</duration>
        <voice>1</voice>
        <type>eighth</type>
        <dot/>
        <stem default-y="-50">down</stem>
        <lyric default-y="-95" number="1">
          <syllabic>single</syllabic>
          <text>bầy</text>
        </lyric>
      </note>
      <note default-x="117">
        <pitch>
          <step>D</step>
          <octave>5</octave>
        </pitch>
        <duration>1</duration>
        <voice>1</voice>
        <type>16th</type>
        <stem default-y="-45">down</stem>
        <lyric default-y="-95" number="1">
          <syllabic>single</syllabic>
          <text>tang</text>
        </lyric>
      </note>
      <note default-x="167">
        <pitch>
          <step>C</step>
          <octave>5</octave>
        </pitch>
        <duration>2</duration>
        <voice>1</voice>
        <type>eighth</type>
        <stem default-y="-50">down</stem>
        <lyric default-y="-95" number="1">
          <syllabic>single</syllabic>
          <text>tình</text>
        </lyric>
      </note>
      <note default-x="246">
        <pitch>
          <step>D</step>
          <octave>5</octave>
        </pitch>
        <duration>2</duration>
        <voice>1</voice>
        <type>eighth</type>
        <stem default-y="-45">down</stem>
        <lyric default-y="-95" number="1">
          <syllabic>single</syllabic>
          <text>con</text>
        </lyric>
      </note>
    </measure>
    <!--=======================================================-->
    <measure number="19" width="165">
      <note default-x="13">
        <pitch>
          <step>G</step>
          <octave>4</octave>
        </pitch>
        <duration>4</duration>
        <voice>1</voice>
        <type>quarter</type>
        <stem default-y="5">up</stem>
        <lyric default-y="-95" number="1" relative-x="5">
          <syllabic>single</syllabic>
          <text>nhện</text>
        </lyric>
      </note>
      <note default-x="82">
        <pitch>
          <step>G</step>
          <octave>5</octave>
        </pitch>
        <duration>3</duration>
        <voice>1</voice>
        <type>eighth</type>
        <dot/>
        <stem default-y="-30">down</stem>
        <beam number="1">begin</beam>
        <notations>
          <slur bezier-x="15" bezier-y="15" default-x="7" default-y="15" number="1" placement="above" type="start"/>
        </notations>
        <lyric default-y="-95" number="1" relative-x="13">
          <syllabic>single</syllabic>
          <text>ơ</text>
        </lyric>
      </note>
      <note default-x="138">
        <pitch>
          <step>A</step>
          <octave>5</octave>
        </pitch>
        <duration>1</duration>
        <voice>1</voice>
        <type>16th</type>
        <stem default-y="-25">down</stem>
        <beam number="1">end</beam>
        <beam number="2">backward hook</beam>
        <notations>
          <slur bezier-x="-17" bezier-y="12" default-x="6" default-y="20" number="1" type="stop"/>
        </notations>
      </note>
    </measure>
    <!--=======================================================-->
    <measure number="20" width="299">
      <print new-system="yes">
        <system-layout>
          <system-distance>114</system-distance>
        </system-layout>
      </print>
      <note default-x="51">
        <pitch>
          <step>G</step>
          <octave>5</octave>
        </pitch>
        <duration>3</duration>
        <voice>1</voice>
        <type>eighth</type>
        <dot/>
        <stem default-y="-30">down</stem>
        <lyric default-y="-95" number="1">
          <syllabic>single</syllabic>
          <text>ơ</text>
        </lyric>
      </note>
      <note default-x="112">
        <pitch>
          <step>G</step>
          <octave>5</octave>
        </pitch>
        <duration>1</duration>
        <voice>1</voice>
        <type>16th</type>
        <stem default-y="-30">down</stem>
        <lyric default-y="-95" number="1">
          <syllabic>single</syllabic>
          <text>ấy</text>
        </lyric>
      </note>
      <note default-x="159">
        <pitch>
          <step>G</step>
          <octave>5</octave>
        </pitch>
        <duration>2</duration>
        <voice>1</voice>
        <type>eighth</type>
        <stem default-y="-30">down</stem>
        <lyric default-y="-95" number="1">
          <syllabic>single</syllabic>
          <text>mấy</text>
        </lyric>
      </note>
      <note default-x="213">
        <pitch>
          <step>E</step>
          <octave>5</octave>
        </pitch>
        <duration>1</duration>
        <voice>1</voice>
        <type>16th</type>
        <stem default-y="-40">down</stem>
        <beam number="1">begin</beam>
        <beam number="2">begin</beam>
        <notations>
          <slur bezier-x="16" bezier-y="13" default-x="6" default-y="5" number="1" placement="above" type="start"/>
        </notations>
        <lyric default-y="-95" justify="left" number="1">
          <syllabic>single</syllabic>
          <text>chăng</text>
          <extend type="start"/>
        </lyric>
      </note>
      <note default-x="267">
        <pitch>
          <step>D</step>
          <octave>5</octave>
        </pitch>
        <duration>1</duration>
        <voice>1</voice>
        <type>16th</type>
        <stem default-y="-45">down</stem>
        <beam number="1">end</beam>
        <beam number="2">end</beam>
        <notations>
          <slur bezier-x="-15" bezier-y="14" default-x="6" default-y="3" number="1" type="stop"/>
        </notations>
        <lyric number="1">
          <extend type="stop"/>
        </lyric>
      </note>
    </measure>
    <!--=======================================================-->
    <measure number="21" width="174">
      <note default-x="13">
        <pitch>
          <step>E</step>
          <octave>5</octave>
        </pitch>
        <duration>6</duration>
        <voice>1</voice>
        <type>quarter</type>
        <dot/>
        <stem default-y="-40">down</stem>
        <lyric default-y="-95" number="1">
          <syllabic>single</syllabic>
          <text>tơ</text>
        </lyric>
      </note>
      <note default-x="92">
        <pitch>
          <step>E</step>
          <octave>5</octave>
        </pitch>
        <duration>1</duration>
        <voice>1</voice>
        <type>16th</type>
        <stem default-y="-40">down</stem>
        <beam number="1">begin</beam>
        <beam number="2">begin</beam>
        <notations>
          <slur bezier-x="16" bezier-y="13" default-x="6" default-y="5" number="1" placement="above" type="start"/>
        </notations>
        <lyric default-y="-95" justify="left" number="1">
          <syllabic>single</syllabic>
          <text>chăng</text>
          <extend type="start"/>
        </lyric>
      </note>
      <note default-x="146">
        <pitch>
          <step>D</step>
          <octave>5</octave>
        </pitch>
        <duration>1</duration>
        <voice>1</voice>
        <type>16th</type>
        <stem default-y="-45">down</stem>
        <beam number="1">end</beam>
        <beam number="2">end</beam>
        <notations>
          <slur bezier-x="-15" bezier-y="14" default-x="6" default-y="3" number="1" type="stop"/>
        </notations>
        <lyric number="1">
          <extend type="stop"/>
        </lyric>
      </note>
    </measure>
    <!--=======================================================-->
    <measure number="22" width="215">
      <note default-x="13">
        <pitch>
          <step>E</step>
          <octave>5</octave>
        </pitch>
        <duration>3</duration>
        <voice>1</voice>
        <type>eighth</type>
        <dot/>
        <stem default-y="-40">down</stem>
        <lyric default-y="-95" number="1">
          <syllabic>single</syllabic>
          <text>tơ</text>
        </lyric>
      </note>
      <note default-x="68">
        <pitch>
          <step>G</step>
          <octave>5</octave>
        </pitch>
        <duration>1</duration>
        <voice>1</voice>
        <type>16th</type>
        <stem default-y="-30">down</stem>
        <lyric default-y="-95" number="1">
          <syllabic>single</syllabic>
          <text>ấy</text>
        </lyric>
      </note>
      <note default-x="111">
        <pitch>
          <step>G</step>
          <octave>5</octave>
        </pitch>
        <duration>2</duration>
        <voice>1</voice>
        <type>eighth</type>
        <stem default-y="-30">down</stem>
        <lyric default-y="-95" number="1">
          <syllabic>single</syllabic>
          <text>mấy</text>
        </lyric>
      </note>
      <note default-x="160">
        <pitch>
          <step>E</step>
          <octave>5</octave>
        </pitch>
        <duration>1</duration>
        <voice>1</voice>
        <type>16th</type>
        <stem default-y="-40">down</stem>
        <beam number="1">begin</beam>
        <beam number="2">begin</beam>
        <notations>
          <slur bezier-x="8" bezier-y="8" default-x="6" default-y="5" number="1" placement="above" type="start"/>
        </notations>
        <lyric default-y="-95" number="1" relative-x="3">
          <syllabic>single</syllabic>
          <text>đi</text>
        </lyric>
      </note>
      <note default-x="187">
        <pitch>
          <step>D</step>
          <octave>5</octave>
        </pitch>
        <duration>1</duration>
        <voice>1</voice>
        <type>16th</type>
        <stem default-y="-45">down</stem>
        <beam number="1">end</beam>
        <beam number="2">end</beam>
        <notations>
          <slur bezier-x="-7" bezier-y="9" default-x="6" default-y="3" number="1" type="stop"/>
        </notations>
      </note>
    </measure>
    <!--=======================================================-->
    <measure number="23" width="295">
      <note default-x="13">
        <pitch>
          <step>C</step>
          <octave>5</octave>
        </pitch>
        <duration>2</duration>
        <voice>1</voice>
        <type>eighth</type>
        <stem default-y="-50">down</stem>
        <lyric default-y="-95" number="1">
          <syllabic>single</syllabic>
          <text>tìm,</text>
        </lyric>
      </note>
      <note default-x="84">
        <pitch>
          <step>A</step>
          <octave>4</octave>
        </pitch>
        <duration>2</duration>
        <voice>1</voice>
        <type>eighth</type>
        <stem default-y="10">up</stem>
        <lyric default-y="-95" number="1">
          <syllabic>single</syllabic>
          <text>em</text>
        </lyric>
      </note>
      <note default-x="154">
        <pitch>
          <step>C</step>
          <octave>5</octave>
        </pitch>
        <duration>2</duration>
        <voice>1</voice>
        <type>eighth</type>
        <stem default-y="-50">down</stem>
        <lyric default-y="-95" number="1">
          <syllabic>single</syllabic>
          <text>nhớ</text>
        </lyric>
      </note>
      <note default-x="224">
        <pitch>
          <step>A</step>
          <octave>4</octave>
        </pitch>
        <duration>2</duration>
        <voice>1</voice>
        <type>eighth</type>
        <stem default-y="10">up</stem>
        <lyric default-y="-95" number="1">
          <syllabic>single</syllabic>
          <text>thương</text>
        </lyric>
      </note>
    </measure>
    <!--=======================================================-->
    <measure number="24" width="223">
      <print new-system="yes">
        <system-layout>
          <system-distance>114</system-distance>
        </system-layout>
      </print>
      <note default-x="51">
        <pitch>
          <step>G</step>
          <octave>4</octave>
        </pitch>
        <duration>6</duration>
        <voice>1</voice>
        <type>quarter</type>
        <dot/>
        <stem default-y="5">up</stem>
        <lyric default-y="-95" number="1">
          <syllabic>single</syllabic>
          <text>ai,</text>
        </lyric>
      </note>
      <note default-x="140">
        <pitch>
          <step>A</step>
          <octave>4</octave>
        </pitch>
        <duration>1</duration>
        <voice>1</voice>
        <type>16th</type>
        <stem default-y="10">up</stem>
        <beam number="1">begin</beam>
        <beam number="2">begin</beam>
        <notations>
          <slur bezier-x="13" bezier-y="-16" default-x="6" default-y="-35" number="1" placement="below" type="start"/>
        </notations>
        <lyric default-y="-95" justify="left" number="1">
          <syllabic>single</syllabic>
          <text>duyên</text>
          <extend type="start"/>
        </lyric>
      </note>
      <note default-x="194">
        <pitch>
          <step>G</step>
          <octave>4</octave>
        </pitch>
        <duration>1</duration>
        <voice>1</voice>
        <type>16th</type>
        <stem default-y="5">up</stem>
        <beam number="1">end</beam>
        <beam number="2">end</beam>
        <notations>
          <slur bezier-x="-17" bezier-y="-11" default-x="6" default-y="-43" number="1" type="stop"/>
        </notations>
        <lyric number="1">
          <extend type="stop"/>
        </lyric>
      </note>
    </measure>
    <!--=======================================================-->
    <measure number="25" width="235">
      <note default-x="13">
        <pitch>
          <step>E</step>
          <octave>4</octave>
        </pitch>
        <duration>2</duration>
        <voice>1</voice>
        <type>eighth</type>
        <stem default-y="-5">up</stem>
        <lyric default-y="-95" number="1">
          <syllabic>single</syllabic>
          <text>nợ</text>
        </lyric>
      </note>
      <note default-x="61">
        <pitch>
          <step>G</step>
          <octave>4</octave>
        </pitch>
        <duration>2</duration>
        <voice>1</voice>
        <type>eighth</type>
        <stem default-y="5">up</stem>
        <lyric default-y="-95" justify="left" number="1">
          <syllabic>single</syllabic>
          <text>khách</text>
          <extend type="start"/>
        </lyric>
      </note>
      <note default-x="115">
        <pitch>
          <step>E</step>
          <octave>4</octave>
        </pitch>
        <duration>1</duration>
        <voice>1</voice>
        <type>16th</type>
        <stem default-y="5">up</stem>
        <beam number="1">begin</beam>
        <beam number="2">begin</beam>
        <notations>
          <slur bezier-x="23" bezier-y="-18" default-x="6" default-y="-50" number="1" placement="below" type="start"/>
        </notations>
        <lyric number="1">
          <extend type="stop"/>
        </lyric>
      </note>
      <note default-x="144">
        <pitch>
          <step>G</step>
          <octave>4</octave>
        </pitch>
        <duration>1</duration>
        <voice>1</voice>
        <type>16th</type>
        <stem default-y="5">up</stem>
        <beam number="1">continue</beam>
        <beam number="2">continue</beam>
        <lyric default-y="-95" number="1" relative-x="16">
          <syllabic>single</syllabic>
          <text>tang</text>
        </lyric>
      </note>
      <note default-x="175">
        <pitch>
          <step>E</step>
          <octave>4</octave>
        </pitch>
        <duration>1</duration>
        <voice>1</voice>
        <type>16th</type>
        <stem default-y="5">up</stem>
        <beam number="1">continue</beam>
        <beam number="2">continue</beam>
      </note>
      <note default-x="204">
        <pitch>
          <step>D</step>
          <octave>4</octave>
        </pitch>
        <duration>1</duration>
        <voice>1</voice>
        <type>16th</type>
        <stem default-y="5">up</stem>
        <beam number="1">end</beam>
        <beam number="2">end</beam>
        <notations>
          <slur bezier-x="-24" bezier-y="-16" default-x="6" default-y="-55" number="1" type="stop"/>
        </notations>
      </note>
    </measure>
    <!--=======================================================-->
    <measure number="26" width="192">
      <note default-x="13">
        <pitch>
          <step>G</step>
          <octave>4</octave>
        </pitch>
        <duration>6</duration>
        <voice>1</voice>
        <type>quarter</type>
        <dot/>
        <stem default-y="5">up</stem>
        <lyric default-y="-95" number="1" relative-x="5">
          <syllabic>single</syllabic>
          <text>bồng,</text>
        </lyric>
      </note>
      <note default-x="107">
        <pitch>
          <step>A</step>
          <octave>4</octave>
        </pitch>
        <duration>1</duration>
        <voice>1</voice>
        <type>16th</type>
        <stem default-y="10">up</stem>
        <beam number="1">begin</beam>
        <beam number="2">begin</beam>
        <lyric default-y="-95" justify="left" number="1">
          <syllabic>single</syllabic>
          <text>duyên</text>
          <extend type="start"/>
        </lyric>
      </note>
      <note default-x="161">
        <pitch>
          <step>G</step>
          <octave>4</octave>
        </pitch>
        <duration>1</duration>
        <voice>1</voice>
        <type>16th</type>
        <stem default-y="5">up</stem>
        <beam number="1">end</beam>
        <beam number="2">end</beam>
        <lyric number="1">
          <extend type="stop"/>
        </lyric>
      </note>
    </measure>
    <!--=======================================================-->
    <measure number="27" width="230">
      <note default-x="13">
        <pitch>
          <step>E</step>
          <octave>4</octave>
        </pitch>
        <duration>2</duration>
        <voice>1</voice>
        <type>eighth</type>
        <stem default-y="-5">up</stem>
        <lyric default-y="-95" number="1">
          <syllabic>single</syllabic>
          <text>nợ</text>
        </lyric>
      </note>
      <note default-x="62">
        <pitch>
          <step>G</step>
          <octave>4</octave>
        </pitch>
        <duration>2</duration>
        <voice>1</voice>
        <type>eighth</type>
        <stem default-y="5">up</stem>
        <lyric default-y="-95" justify="left" number="1" relative-x="-4">
          <syllabic>single</syllabic>
          <text>khách</text>
          <extend type="start"/>
        </lyric>
      </note>
      <note default-x="110">
        <pitch>
          <step>E</step>
          <octave>4</octave>
        </pitch>
        <duration>1</duration>
        <voice>1</voice>
        <type>16th</type>
        <stem default-y="5">up</stem>
        <beam number="1">begin</beam>
        <beam number="2">begin</beam>
        <notations>
          <slur bezier-x="23" bezier-y="-16" default-x="7" default-y="-50" number="1" placement="below" type="start"/>
        </notations>
        <lyric number="1">
          <extend type="stop"/>
        </lyric>
      </note>
      <note default-x="140">
        <pitch>
          <step>G</step>
          <octave>4</octave>
        </pitch>
        <duration>1</duration>
        <voice>1</voice>
        <type>16th</type>
        <stem default-y="5">up</stem>
        <beam number="1">continue</beam>
        <beam number="2">continue</beam>
        <lyric default-y="-95" number="1" relative-x="17">
          <syllabic>single</syllabic>
          <text>tang</text>
        </lyric>
      </note>
      <note default-x="170">
        <pitch>
          <step>E</step>
          <octave>4</octave>
        </pitch>
        <duration>1</duration>
        <voice>1</voice>
        <type>16th</type>
        <stem default-y="5">up</stem>
        <beam number="1">continue</beam>
        <beam number="2">continue</beam>
      </note>
      <note default-x="200">
        <pitch>
          <step>D</step>
          <octave>4</octave>
        </pitch>
        <duration>1</duration>
        <voice>1</voice>
        <type>16th</type>
        <stem default-y="5">up</stem>
        <beam number="1">end</beam>
        <beam number="2">end</beam>
        <notations>
          <slur bezier-x="-24" bezier-y="-13" default-x="6" default-y="-55" number="1" type="stop"/>
        </notations>
      </note>
    </measure>
    <!--=======================================================-->
    <measure number="28" width="103">
      <note default-x="16">
        <pitch>
          <step>C</step>
          <octave>4</octave>
        </pitch>
        <duration>8</duration>
        <voice>1</voice>
        <type>half</type>
        <stem default-y="-15">up</stem>
        <lyric default-y="-95" number="1">
          <syllabic>single</syllabic>
          <text>bồng.</text>
        </lyric>
      </note>
      <barline location="right">
        <bar-style>light-heavy</bar-style>
      </barline>
    </measure>
  </part>
  <!--=========================================================-->
</score-partwise>
