<svg width="200" height="100" xmlns="http://www.w3.org/2000/svg"><rect width="200" height="100" fill="#f8f9fa"/><circle cx="2.0833333333333335" cy="42" r="2" fill="#4dabf7"/><circle cx="6.25" cy="30" r="2" fill="#4dabf7"/><circle cx="10.416666666666668" cy="18" r="2" fill="#4dabf7"/><circle cx="14.583333333333334" cy="30" r="2" fill="#4dabf7"/><circle cx="18.75" cy="42" r="2" fill="#4dabf7"/><circle cx="22.916666666666668" cy="66" r="2" fill="#4dabf7"/><circle cx="27.083333333333332" cy="54" r="2" fill="#4dabf7"/><circle cx="31.25" cy="66" r="2" fill="#ff6b6b"/><circle cx="35.41666666666667" cy="54" r="2" fill="#ff6b6b"/><circle cx="39.583333333333336" cy="42" r="2" fill="#4dabf7"/><circle cx="43.75000000000001" cy="66" r="2" fill="#4dabf7"/><circle cx="47.91666666666667" cy="42" r="2" fill="#4dabf7"/><circle cx="52.083333333333336" cy="66" r="2" fill="#4dabf7"/><circle cx="56.25000000000001" cy="54" r="2" fill="#4dabf7"/><circle cx="60.41666666666667" cy="42" r="2" fill="#4dabf7"/><circle cx="64.58333333333334" cy="42" r="2" fill="#4dabf7"/><circle cx="68.75" cy="90" r="2" fill="#ff6b6b"/><circle cx="72.91666666666667" cy="42" r="2" fill="#ff6b6b"/><circle cx="77.08333333333333" cy="66" r="2" fill="#4dabf7"/><circle cx="81.25" cy="54" r="2" fill="#4dabf7"/><circle cx="85.41666666666667" cy="54" r="2" fill="#ff6b6b"/><circle cx="89.58333333333333" cy="42" r="2" fill="#4dabf7"/><circle cx="93.75" cy="42" r="2" fill="#4dabf7"/><circle cx="97.91666666666667" cy="90" r="2" fill="#ff6b6b"/><circle cx="102.08333333333333" cy="42" r="2" fill="#ff6b6b"/><circle cx="106.25" cy="66" r="2" fill="#4dabf7"/><circle cx="110.41666666666667" cy="66" r="2" fill="#4dabf7"/><circle cx="114.58333333333334" cy="42" r="2" fill="#4dabf7"/><circle cx="118.75" cy="30" r="2" fill="#4dabf7"/><circle cx="122.91666666666667" cy="30" r="2" fill="#4dabf7"/><circle cx="127.08333333333334" cy="42" r="2" fill="#4dabf7"/><circle cx="131.25000000000003" cy="18" r="2" fill="#4dabf7"/><circle cx="135.41666666666669" cy="30" r="2" fill="#4dabf7"/><circle cx="139.58333333333334" cy="30" r="2" fill="#4dabf7"/><circle cx="143.75000000000003" cy="42" r="2" fill="#ff6b6b"/><circle cx="147.91666666666669" cy="30" r="2" fill="#4dabf7"/><circle cx="152.08333333333334" cy="30" r="2" fill="#4dabf7"/><circle cx="156.25000000000003" cy="18" r="2" fill="#4dabf7"/><circle cx="160.41666666666669" cy="30" r="2" fill="#4dabf7"/><circle cx="164.58333333333334" cy="42" r="2" fill="#4dabf7"/><circle cx="168.75000000000003" cy="66" r="2" fill="#4dabf7"/><circle cx="172.91666666666669" cy="54" r="2" fill="#4dabf7"/><circle cx="177.08333333333334" cy="66" r="2" fill="#ff6b6b"/><circle cx="181.25000000000003" cy="54" r="2" fill="#ff6b6b"/><circle cx="185.41666666666669" cy="42" r="2" fill="#4dabf7"/><circle cx="189.58333333333334" cy="66" r="2" fill="#4dabf7"/><circle cx="193.75000000000003" cy="90" r="2" fill="#4dabf7"/><circle cx="197.91666666666669" cy="66" r="2" fill="#4dabf7"/></svg>