<?xml version="1.0" encoding="UTF-8"?>
<svg width="4600" height="800" xmlns="http://www.w3.org/2000/svg">
    <defs>
        <style>
            .string-line { stroke: #333; stroke-width: 3; }
            .string-label { font-family: Arial; font-size: 14px; font-weight: bold; fill: #2c3e50; }
            .note-circle { fill: #008080; stroke: #005959; stroke-width: 2; }
            .note-text { font-family: Arial; font-size: 10px; font-weight: bold; fill: white; text-anchor: middle; }
            .grace-note { fill: #999999; stroke: #000000; }
            .bent-note { fill: #E67E22; stroke: #D35400; }
            .lyric-text { font-family: Arial; font-size: 12px; fill: #2c3e50; }
            .resonance-band { fill: #008080; opacity: 0.3; }
        </style>
    </defs>

    <!-- Title -->
    <text x="10" y="30" style="font-size: 20px; font-weight: bold; fill: #2c3e50;">HÒ BƠI THUYỀN</text>
    <text x="10" y="50" style="font-size: 14px; fill: #666;">Tuning: C-D-E-G-A | 110 notes | Hò</text>

    <!-- String Lines -->
    <line x1="100" y1="100" x2="4580" y2="100" class="string-line"/>
    <line x1="100" y1="125" x2="4580" y2="125" class="string-line"/>
    <line x1="100" y1="150" x2="4580" y2="150" class="string-line"/>
    <line x1="100" y1="187.5" x2="4580" y2="187.5" class="string-line"/>
    <line x1="100" y1="212.5" x2="4580" y2="212.5" class="string-line"/>
    <line x1="100" y1="250" x2="4580" y2="250" class="string-line"/>
    <line x1="100" y1="275" x2="4580" y2="275" class="string-line"/>
    <line x1="100" y1="300" x2="4580" y2="300" class="string-line"/>
    <line x1="100" y1="337.5" x2="4580" y2="337.5" class="string-line"/>
    <line x1="100" y1="362.5" x2="4580" y2="362.5" class="string-line"/>
    <line x1="100" y1="400" x2="4580" y2="400" class="string-line"/>
    <line x1="100" y1="425" x2="4580" y2="425" class="string-line"/>
    <line x1="100" y1="450" x2="4580" y2="450" class="string-line"/>
    <line x1="100" y1="487.5" x2="4580" y2="487.5" class="string-line"/>
    <line x1="100" y1="512.5" x2="4580" y2="512.5" class="string-line"/>
    <line x1="100" y1="550" x2="4580" y2="550" class="string-line"/>
    <line x1="100" y1="575" x2="4580" y2="575" class="string-line"/>

    <!-- String Labels -->
    <text x="50" y="105" class="string-label">C3</text>
    <text x="50" y="130" class="string-label">D3</text>
    <text x="50" y="155" class="string-label">E3</text>
    <text x="50" y="192.5" class="string-label">G3</text>
    <text x="50" y="217.5" class="string-label">A3</text>
    <text x="50" y="255" class="string-label">C4</text>
    <text x="50" y="280" class="string-label">D4</text>
    <text x="50" y="305" class="string-label">E4</text>
    <text x="50" y="342.5" class="string-label">G4</text>
    <text x="50" y="367.5" class="string-label">A4</text>
    <text x="50" y="405" class="string-label">C5</text>
    <text x="50" y="430" class="string-label">D5</text>
    <text x="50" y="455" class="string-label">E5</text>
    <text x="50" y="492.5" class="string-label">G5</text>
    <text x="50" y="517.5" class="string-label">A5</text>
    <text x="50" y="555" class="string-label">C6</text>
    <text x="50" y="580" class="string-label">D6</text>

    <!-- Notes -->
    <rect x="-10" y="348.5" width="320" height="3" class="resonance-band"/>
    <circle cx="150" cy="350" r="12" class="bent-note"/>
    <rect x="30" y="386" width="320" height="3" class="resonance-band"/>
    <circle cx="190" cy="387.5" r="12" class="bent-note"/>
    <rect x="70" y="411" width="320" height="3" class="resonance-band"/>
    <circle cx="230" cy="412.5" r="12" class="bent-note"/>
    <rect x="110" y="386" width="320" height="3" class="resonance-band"/>
    <circle cx="270" cy="387.5" r="12" class="bent-note"/>
    <rect x="150" y="411" width="320" height="3" class="resonance-band"/>
    <circle cx="310" cy="412.5" r="12" class="bent-note"/>
    <rect x="190" y="386" width="320" height="3" class="resonance-band"/>
    <circle cx="350" cy="387.5" r="12" class="bent-note"/>
    <rect x="230" y="411" width="320" height="3" class="resonance-band"/>
    <circle cx="390" cy="412.5" r="12" class="bent-note"/>
    <rect x="270" y="348.5" width="320" height="3" class="resonance-band"/>
    <circle cx="430" cy="350" r="12" class="bent-note"/>
    <rect x="310" y="373.5" width="320" height="3" class="resonance-band"/>
    <circle cx="470" cy="375" r="12" class="bent-note"/>
    <rect x="350" y="348.5" width="320" height="3" class="resonance-band"/>
    <circle cx="510" cy="350" r="12" class="bent-note"/>
    <rect x="390" y="323.5" width="320" height="3" class="resonance-band"/>
    <circle cx="550" cy="325" r="12" class="bent-note"/>
    <rect x="430" y="261" width="320" height="3" class="resonance-band"/>
    <circle cx="590" cy="262.5" r="6" class="grace-note"/>
    <rect x="470" y="286" width="320" height="3" class="resonance-band"/>
    <circle cx="630" cy="287.5" r="12" class="bent-note"/>
    <rect x="510" y="323.5" width="320" height="3" class="resonance-band"/>
    <circle cx="670" cy="325" r="6" class="grace-note"/>
    <rect x="550" y="348.5" width="320" height="3" class="resonance-band"/>
    <circle cx="710" cy="350" r="12" class="bent-note"/>
    <rect x="590" y="323.5" width="320" height="3" class="resonance-band"/>
    <circle cx="750" cy="325" r="6" class="grace-note"/>
    <rect x="630" y="348.5" width="320" height="3" class="resonance-band"/>
    <circle cx="790" cy="350" r="12" class="bent-note"/>
    <rect x="670" y="323.5" width="320" height="3" class="resonance-band"/>
    <circle cx="830" cy="325" r="6" class="grace-note"/>
    <rect x="710" y="348.5" width="320" height="3" class="resonance-band"/>
    <circle cx="870" cy="350" r="12" class="bent-note"/>
    <rect x="750" y="323.5" width="320" height="3" class="resonance-band"/>
    <circle cx="910" cy="325" r="6" class="grace-note"/>
    <rect x="790" y="261" width="320" height="3" class="resonance-band"/>
    <circle cx="950" cy="262.5" r="6" class="grace-note"/>
    <rect x="830" y="286" width="320" height="3" class="resonance-band"/>
    <circle cx="990" cy="287.5" r="12" class="bent-note"/>
    <rect x="870" y="261" width="320" height="3" class="resonance-band"/>
    <circle cx="1030" cy="262.5" r="6" class="grace-note"/>
    <rect x="910" y="311" width="320" height="3" class="resonance-band"/>
    <circle cx="1070" cy="312.5" r="12" class="bent-note"/>
    <rect x="950" y="261" width="320" height="3" class="resonance-band"/>
    <circle cx="1110" cy="262.5" r="6" class="grace-note"/>
    <rect x="990" y="286" width="320" height="3" class="resonance-band"/>
    <circle cx="1150" cy="287.5" r="12" class="bent-note"/>
    <rect x="1030" y="261" width="320" height="3" class="resonance-band"/>
    <circle cx="1190" cy="262.5" r="6" class="grace-note"/>
    <rect x="1070" y="286" width="320" height="3" class="resonance-band"/>
    <circle cx="1230" cy="287.5" r="12" class="bent-note"/>
    <rect x="1110" y="348.5" width="320" height="3" class="resonance-band"/>
    <circle cx="1270" cy="350" r="12" class="bent-note"/>
    <rect x="1150" y="373.5" width="320" height="3" class="resonance-band"/>
    <circle cx="1310" cy="375" r="12" class="bent-note"/>
    <rect x="1190" y="348.5" width="320" height="3" class="resonance-band"/>
    <circle cx="1350" cy="350" r="12" class="bent-note"/>
    <rect x="1230" y="323.5" width="320" height="3" class="resonance-band"/>
    <circle cx="1390" cy="325" r="12" class="bent-note"/>
    <rect x="1270" y="261" width="320" height="3" class="resonance-band"/>
    <circle cx="1430" cy="262.5" r="12" class="bent-note"/>
    <rect x="1310" y="323.5" width="320" height="3" class="resonance-band"/>
    <circle cx="1470" cy="325" r="12" class="bent-note"/>
    <rect x="1350" y="336" width="320" height="3" class="resonance-band"/>
    <circle cx="1510" cy="337.5" r="12" class="note-circle"/>
    <text x="1510" y="341.5" class="note-text">9</text>
    <rect x="1390" y="323.5" width="320" height="3" class="resonance-band"/>
    <circle cx="1550" cy="325" r="12" class="bent-note"/>
    <rect x="1430" y="323.5" width="320" height="3" class="resonance-band"/>
    <circle cx="1590" cy="325" r="6" class="grace-note"/>
    <rect x="1470" y="336" width="320" height="3" class="resonance-band"/>
    <circle cx="1630" cy="337.5" r="12" class="note-circle"/>
    <text x="1630" y="341.5" class="note-text">9</text>
    <rect x="1510" y="336" width="320" height="3" class="resonance-band"/>
    <circle cx="1670" cy="337.5" r="12" class="note-circle"/>
    <text x="1670" y="341.5" class="note-text">9</text>
    <rect x="1550" y="261" width="320" height="3" class="resonance-band"/>
    <circle cx="1710" cy="262.5" r="6" class="grace-note"/>
    <rect x="1590" y="286" width="320" height="3" class="resonance-band"/>
    <circle cx="1750" cy="287.5" r="12" class="bent-note"/>
    <rect x="1630" y="323.5" width="320" height="3" class="resonance-band"/>
    <circle cx="1790" cy="325" r="6" class="grace-note"/>
    <rect x="1670" y="348.5" width="320" height="3" class="resonance-band"/>
    <circle cx="1830" cy="350" r="12" class="bent-note"/>
    <rect x="1710" y="323.5" width="320" height="3" class="resonance-band"/>
    <circle cx="1870" cy="325" r="6" class="grace-note"/>
    <rect x="1750" y="348.5" width="320" height="3" class="resonance-band"/>
    <circle cx="1910" cy="350" r="12" class="bent-note"/>
    <rect x="1790" y="323.5" width="320" height="3" class="resonance-band"/>
    <circle cx="1950" cy="325" r="6" class="grace-note"/>
    <rect x="1830" y="348.5" width="320" height="3" class="resonance-band"/>
    <circle cx="1990" cy="350" r="12" class="bent-note"/>
    <rect x="1870" y="348.5" width="320" height="3" class="resonance-band"/>
    <circle cx="2030" cy="350" r="12" class="bent-note"/>
    <rect x="1910" y="311" width="320" height="3" class="resonance-band"/>
    <circle cx="2070" cy="312.5" r="12" class="bent-note"/>
    <rect x="1950" y="361" width="320" height="3" class="resonance-band"/>
    <circle cx="2110" cy="362.5" r="12" class="note-circle"/>
    <text x="2110" y="366.5" class="note-text">10</text>
    <rect x="1990" y="261" width="320" height="3" class="resonance-band"/>
    <circle cx="2150" cy="262.5" r="6" class="grace-note"/>
    <rect x="2030" y="286" width="320" height="3" class="resonance-band"/>
    <circle cx="2190" cy="287.5" r="12" class="bent-note"/>
    <rect x="2070" y="348.5" width="320" height="3" class="resonance-band"/>
    <circle cx="2230" cy="350" r="12" class="bent-note"/>
    <rect x="2110" y="386" width="320" height="3" class="resonance-band"/>
    <circle cx="2270" cy="387.5" r="12" class="bent-note"/>
    <rect x="2150" y="411" width="320" height="3" class="resonance-band"/>
    <circle cx="2310" cy="412.5" r="12" class="bent-note"/>
    <rect x="2190" y="386" width="320" height="3" class="resonance-band"/>
    <circle cx="2350" cy="387.5" r="12" class="bent-note"/>
    <rect x="2230" y="411" width="320" height="3" class="resonance-band"/>
    <circle cx="2390" cy="412.5" r="12" class="bent-note"/>
    <rect x="2270" y="386" width="320" height="3" class="resonance-band"/>
    <circle cx="2430" cy="387.5" r="12" class="bent-note"/>
    <rect x="2310" y="411" width="320" height="3" class="resonance-band"/>
    <circle cx="2470" cy="412.5" r="12" class="bent-note"/>
    <rect x="2350" y="348.5" width="320" height="3" class="resonance-band"/>
    <circle cx="2510" cy="350" r="12" class="bent-note"/>
    <rect x="2390" y="361" width="320" height="3" class="resonance-band"/>
    <circle cx="2550" cy="362.5" r="12" class="note-circle"/>
    <text x="2550" y="366.5" class="note-text">10</text>
    <rect x="2430" y="348.5" width="320" height="3" class="resonance-band"/>
    <circle cx="2590" cy="350" r="12" class="bent-note"/>
    <rect x="2470" y="323.5" width="320" height="3" class="resonance-band"/>
    <circle cx="2630" cy="325" r="12" class="bent-note"/>
    <rect x="2510" y="311" width="320" height="3" class="resonance-band"/>
    <circle cx="2670" cy="312.5" r="6" class="grace-note"/>
    <rect x="2550" y="336" width="320" height="3" class="resonance-band"/>
    <circle cx="2710" cy="337.5" r="12" class="note-circle"/>
    <text x="2710" y="341.5" class="note-text">9</text>
    <rect x="2590" y="348.5" width="320" height="3" class="resonance-band"/>
    <circle cx="2750" cy="350" r="12" class="bent-note"/>
    <rect x="2630" y="348.5" width="320" height="3" class="resonance-band"/>
    <circle cx="2790" cy="350" r="12" class="bent-note"/>
    <rect x="2670" y="348.5" width="320" height="3" class="resonance-band"/>
    <circle cx="2830" cy="350" r="12" class="bent-note"/>
    <rect x="2710" y="286" width="320" height="3" class="resonance-band"/>
    <circle cx="2870" cy="287.5" r="6" class="grace-note"/>
    <rect x="2750" y="348.5" width="320" height="3" class="resonance-band"/>
    <circle cx="2910" cy="350" r="12" class="bent-note"/>
    <rect x="2790" y="336" width="320" height="3" class="resonance-band"/>
    <circle cx="2950" cy="337.5" r="12" class="note-circle"/>
    <text x="2950" y="341.5" class="note-text">9</text>
    <rect x="2830" y="336" width="320" height="3" class="resonance-band"/>
    <circle cx="2990" cy="337.5" r="12" class="note-circle"/>
    <text x="2990" y="341.5" class="note-text">9</text>
    <rect x="2870" y="261" width="320" height="3" class="resonance-band"/>
    <circle cx="3030" cy="262.5" r="6" class="grace-note"/>
    <rect x="2910" y="348.5" width="320" height="3" class="resonance-band"/>
    <circle cx="3070" cy="350" r="12" class="bent-note"/>
    <rect x="2950" y="323.5" width="320" height="3" class="resonance-band"/>
    <circle cx="3110" cy="325" r="12" class="bent-note"/>
    <rect x="2990" y="323.5" width="320" height="3" class="resonance-band"/>
    <circle cx="3150" cy="325" r="12" class="bent-note"/>
    <rect x="3030" y="261" width="320" height="3" class="resonance-band"/>
    <circle cx="3190" cy="262.5" r="12" class="bent-note"/>
    <rect x="3070" y="323.5" width="320" height="3" class="resonance-band"/>
    <circle cx="3230" cy="325" r="12" class="bent-note"/>
    <rect x="3110" y="348.5" width="320" height="3" class="resonance-band"/>
    <circle cx="3270" cy="350" r="12" class="bent-note"/>
    <rect x="3150" y="323.5" width="320" height="3" class="resonance-band"/>
    <circle cx="3310" cy="325" r="12" class="bent-note"/>
    <rect x="3190" y="336" width="320" height="3" class="resonance-band"/>
    <circle cx="3350" cy="337.5" r="12" class="note-circle"/>
    <text x="3350" y="341.5" class="note-text">9</text>
    <rect x="3230" y="323.5" width="320" height="3" class="resonance-band"/>
    <circle cx="3390" cy="325" r="12" class="bent-note"/>
    <rect x="3270" y="261" width="320" height="3" class="resonance-band"/>
    <circle cx="3430" cy="262.5" r="6" class="grace-note"/>
    <rect x="3310" y="323.5" width="320" height="3" class="resonance-band"/>
    <circle cx="3470" cy="325" r="12" class="bent-note"/>
    <rect x="3350" y="323.5" width="320" height="3" class="resonance-band"/>
    <circle cx="3510" cy="325" r="6" class="grace-note"/>
    <rect x="3390" y="348.5" width="320" height="3" class="resonance-band"/>
    <circle cx="3550" cy="350" r="12" class="bent-note"/>
    <rect x="3430" y="348.5" width="320" height="3" class="resonance-band"/>
    <circle cx="3590" cy="350" r="12" class="bent-note"/>
    <rect x="3470" y="248.5" width="320" height="3" class="resonance-band"/>
    <circle cx="3630" cy="250" r="6" class="grace-note"/>
    <rect x="3510" y="311" width="320" height="3" class="resonance-band"/>
    <circle cx="3670" cy="312.5" r="12" class="bent-note"/>
    <rect x="3550" y="311" width="320" height="3" class="resonance-band"/>
    <circle cx="3710" cy="312.5" r="6" class="grace-note"/>
    <rect x="3590" y="348.5" width="320" height="3" class="resonance-band"/>
    <circle cx="3750" cy="350" r="12" class="bent-note"/>
    <rect x="3630" y="261" width="320" height="3" class="resonance-band"/>
    <circle cx="3790" cy="262.5" r="6" class="grace-note"/>
    <rect x="3670" y="323.5" width="320" height="3" class="resonance-band"/>
    <circle cx="3830" cy="325" r="12" class="bent-note"/>
    <rect x="3710" y="323.5" width="320" height="3" class="resonance-band"/>
    <circle cx="3870" cy="325" r="6" class="grace-note"/>
    <rect x="3750" y="336" width="320" height="3" class="resonance-band"/>
    <circle cx="3910" cy="337.5" r="12" class="note-circle"/>
    <text x="3910" y="341.5" class="note-text">9</text>
    <rect x="3790" y="348.5" width="320" height="3" class="resonance-band"/>
    <circle cx="3950" cy="350" r="12" class="bent-note"/>
    <rect x="3830" y="261" width="320" height="3" class="resonance-band"/>
    <circle cx="3990" cy="262.5" r="6" class="grace-note"/>
    <rect x="3870" y="311" width="320" height="3" class="resonance-band"/>
    <circle cx="4030" cy="312.5" r="12" class="bent-note"/>
    <rect x="3910" y="311" width="320" height="3" class="resonance-band"/>
    <circle cx="4070" cy="312.5" r="6" class="grace-note"/>
    <rect x="3950" y="348.5" width="320" height="3" class="resonance-band"/>
    <circle cx="4110" cy="350" r="12" class="bent-note"/>
    <rect x="3990" y="323.5" width="320" height="3" class="resonance-band"/>
    <circle cx="4150" cy="325" r="12" class="bent-note"/>
    <rect x="4030" y="348.5" width="320" height="3" class="resonance-band"/>
    <circle cx="4190" cy="350" r="12" class="bent-note"/>
    <rect x="4070" y="261" width="320" height="3" class="resonance-band"/>
    <circle cx="4230" cy="262.5" r="6" class="grace-note"/>
    <rect x="4110" y="323.5" width="320" height="3" class="resonance-band"/>
    <circle cx="4270" cy="325" r="12" class="bent-note"/>
    <rect x="4150" y="348.5" width="320" height="3" class="resonance-band"/>
    <circle cx="4310" cy="350" r="12" class="bent-note"/>
    <rect x="4190" y="348.5" width="320" height="3" class="resonance-band"/>
    <circle cx="4350" cy="350" r="12" class="bent-note"/>
    <rect x="4230" y="323.5" width="320" height="3" class="resonance-band"/>
    <circle cx="4390" cy="325" r="12" class="bent-note"/>
    <rect x="4270" y="348.5" width="320" height="3" class="resonance-band"/>
    <circle cx="4430" cy="350" r="12" class="bent-note"/>
    <rect x="4310" y="261" width="320" height="3" class="resonance-band"/>
    <circle cx="4470" cy="262.5" r="6" class="grace-note"/>
    <rect x="4350" y="323.5" width="320" height="3" class="resonance-band"/>
    <circle cx="4510" cy="325" r="12" class="bent-note"/>
    

    <!-- Lyrics -->
    <text x="150" y="390" class="lyric-text">Xô:</text>
    <text x="230" y="452.5" class="lyric-text">ơ</text>
    <text x="310" y="452.5" class="lyric-text">ơ</text>
    <text x="390" y="452.5" class="lyric-text">là</text>
    <text x="430" y="390" class="lyric-text">khoan</text>
    <text x="470" y="415" class="lyric-text">dô</text>
    <text x="550" y="365" class="lyric-text">khoan</text>
    <text x="590" y="302.5" class="lyric-text">Kể:</text>
    <text x="630" y="327.5" class="lyric-text">Nước</text>
    <text x="710" y="390" class="lyric-text">sông</text>
    <text x="790" y="390" class="lyric-text">Lam</text>
    <text x="870" y="390" class="lyric-text">dào</text>
    <text x="990" y="327.5" class="lyric-text">dạt.</text>
    <text x="1070" y="352.5" class="lyric-text">Đây</text>
    <text x="1150" y="327.5" class="lyric-text">cảnh</text>
    <text x="1230" y="327.5" class="lyric-text">đẹp</text>
    <text x="1310" y="415" class="lyric-text">Nam</text>
    <text x="1390" y="365" class="lyric-text">Xô:</text>
    <text x="1430" y="302.5" class="lyric-text">là</text>
    <text x="1470" y="365" class="lyric-text">khoan</text>
    <text x="1510" y="377.5" class="lyric-text">dô</text>
    <text x="1550" y="365" class="lyric-text">khoan.</text>
    <text x="1590" y="365" class="lyric-text">Kể:</text>
    <text x="1630" y="377.5" class="lyric-text">Ai</text>
    <text x="1670" y="377.5" class="lyric-text">đi</text>
    <text x="1750" y="327.5" class="lyric-text">trợ</text>
    <text x="1830" y="390" class="lyric-text">xa</text>
    <text x="1910" y="390" class="lyric-text">Nam</text>
    <text x="1990" y="390" class="lyric-text">mà</text>
    <text x="2030" y="390" class="lyric-text">xem</text>
    <text x="2070" y="352.5" class="lyric-text">thuyền</text>
    <text x="2110" y="402.5" class="lyric-text">xem</text>
    <text x="2190" y="327.5" class="lyric-text">bến.</text>
    <text x="2230" y="390" class="lyric-text">Xô:</text>
    <text x="2310" y="452.5" class="lyric-text">ơ</text>
    <text x="2390" y="452.5" class="lyric-text">ơ</text>
    <text x="2470" y="452.5" class="lyric-text">ơ.</text>
    <text x="2510" y="390" class="lyric-text">Khoan</text>
    <text x="2550" y="402.5" class="lyric-text">dô</text>
    <text x="2630" y="365" class="lyric-text">khoan</text>
    <text x="2670" y="352.5" class="lyric-text">Kể:</text>
    <text x="2710" y="377.5" class="lyric-text">Thuyền</text>
    <text x="2750" y="390" class="lyric-text">xưa</text>
    <text x="2790" y="390" class="lyric-text">nay</text>
    <text x="2830" y="390" class="lyric-text">còn</text>
    <text x="2910" y="390" class="lyric-text">nhớ</text>
    <text x="2950" y="377.5" class="lyric-text">nơi</text>
    <text x="2990" y="377.5" class="lyric-text">bến</text>
    <text x="3070" y="390" class="lyric-text">cũ</text>
    <text x="3110" y="365" class="lyric-text">sông</text>
    <text x="3150" y="365" class="lyric-text">Lam</text>
    <text x="3190" y="302.5" class="lyric-text">Xô:</text>
    <text x="3230" y="365" class="lyric-text">khoan</text>
    <text x="3270" y="390" class="lyric-text">dô</text>
    <text x="3310" y="365" class="lyric-text">khoan.</text>
    <text x="3350" y="377.5" class="lyric-text">Kể:</text>
    <text x="3390" y="365" class="lyric-text">thuyền</text>
    <text x="3470" y="365" class="lyric-text">có</text>
    <text x="3550" y="390" class="lyric-text">đi</text>
    <text x="3590" y="390" class="lyric-text">xa.</text>
    <text x="3670" y="352.5" class="lyric-text">Dù</text>
    <text x="3750" y="390" class="lyric-text">thuyền</text>
    <text x="3830" y="365" class="lyric-text">có</text>
    <text x="3910" y="377.5" class="lyric-text">đi</text>
    <text x="3950" y="390" class="lyric-text">xa.</text>
    <text x="4030" y="352.5" class="lyric-text">Bến</text>
    <text x="4110" y="390" class="lyric-text">vẫn</text>
    <text x="4150" y="365" class="lyric-text">chờ</text>
    <text x="4190" y="390" class="lyric-text">vẫn</text>
    <text x="4270" y="365" class="lyric-text">đợi,</text>
    <text x="4310" y="390" class="lyric-text">bến</text>
    <text x="4350" y="390" class="lyric-text">hôm</text>
    <text x="4390" y="365" class="lyric-text">nay</text>
    <text x="4430" y="390" class="lyric-text">vẫn</text>
    <text x="4510" y="365" class="lyric-text">đợi...</text>
    
</svg>