<svg width="300" height="120" viewBox="0 0 600 400" xmlns="http://www.w3.org/2000/svg">
    <rect width="600" height="400" fill="#ffffff"/>
    <g transform="scale(0.5)">
        <circle cx="100" cy="275" r="8" fill="#666666"
                            fill="#333">À</text><circle cx="257.5" cy="337.5" r="5" fill="#FFD700"
                                stroke-dasharray="3,2" fill="none"/><circle cx="270" cy="362.5" r="8" fill="#666666"
                                stroke-dasharray="3,2" fill="none"/><circle cx="610" cy="362.5" r="8" fill="#666666"
                                stroke-dasharray="3,2" fill="none"/><circle cx="865" cy="387.5" r="8" fill="#666666"
                                stroke-dasharray="3,2" fill="none"/><circle cx="907.5" cy="362.5" r="8" fill="#666666"
                                stroke-dasharray="3,2" fill="none"/><circle cx="950" cy="337.5" r="8" fill="#666666"
                                stroke-dasharray="3,2" fill="none"/><circle cx="1290" cy="337.5" r="8" fill="#666666"
                        fill="#333">8</text><circle cx="1447.5" cy="337.5" r="5" fill="#FFD700"
                                stroke-dasharray="3,2" fill="none"/><circle cx="1460" cy="362.5" r="8" fill="#666666"
                            fill="#FFD700">♪</text><circle cx="1617.5" cy="362.5" r="5" fill="#FFD700"
<circle cx="1630" cy="400" r="8" fill="#666666"
                            fill="#FFD700">♪</text><circle cx="1885" cy="275" r="8" fill="#666666"
                                stroke-dasharray="3,2" fill="none"/><circle cx="1927.5" cy="300" r="8" fill="#666666"
                        fill="#333">14</text><circle cx="1970" cy="275" r="8" fill="#666666"
                                stroke-dasharray="3,2" fill="none"/><circle cx="2480" cy="362.5" r="8" fill="#666666"
                                stroke-dasharray="3,2" fill="none"/><circle cx="2565" cy="387.5" r="8" fill="#666666"
                                stroke-dasharray="3,2" fill="none"/><circle cx="2607.5" cy="362.5" r="8" fill="#666666"
                                stroke-dasharray="3,2" fill="none"/><circle cx="2650" cy="337.5" r="8" fill="#666666"
                                stroke-dasharray="3,2" fill="none"/><circle cx="2990" cy="337.5" r="8" fill="#666666"
                                stroke-dasharray="3,2" fill="none"/><circle cx="3330" cy="362.5" r="8" fill="#666666"
                                stroke-dasharray="3,2" fill="none"/><circle cx="3670" cy="362.5" r="8" fill="#666666"
                                stroke-dasharray="3,2" fill="none"/><circle cx="3925" cy="387.5" r="8" fill="#666666"
                                stroke-dasharray="3,2" fill="none"/><circle cx="3967.5" cy="362.5" r="8" fill="#666666"
                                stroke-dasharray="3,2" fill="none"/><circle cx="4010" cy="337.5" r="8" fill="#666666"
                                stroke-dasharray="3,2" fill="none"/><circle cx="4350" cy="337.5" r="8" fill="#666666"
                                stroke-dasharray="3,2" fill="none"/><circle cx="4520" cy="362.5" r="8" fill="#666666"
                                stroke-dasharray="3,2" fill="none"/><circle cx="4987.5" cy="300" r="8" fill="#666666"
                                stroke-dasharray="3,2" fill="none"/><circle cx="5540" cy="337.5" r="8" fill="#666666"
                                stroke-dasharray="3,2" fill="none"/><circle cx="5710" cy="337.5" r="8" fill="#666666"
                                stroke-dasharray="3,2" fill="none"/><circle cx="6050" cy="337.5" r="8" fill="#666666"
                                stroke-dasharray="3,2" fill="none"/><circle cx="6305" cy="337.5" r="8" fill="#666666"
                                stroke-dasharray="3,2" fill="none"/><circle cx="6347.5" cy="362.5" r="8" fill="#666666"
                                stroke-dasharray="3,2" fill="none"/><circle cx="7070" cy="362.5" r="8" fill="#666666"
                                stroke-dasharray="3,2" fill="none"/><circle cx="7410" cy="362.5" r="8" fill="#666666"
                                stroke-dasharray="3,2" fill="none"/><circle cx="7665" cy="387.5" r="8" fill="#666666"
                                stroke-dasharray="3,2" fill="none"/><circle cx="7707.5" cy="362.5" r="8" fill="#666666"
                                stroke-dasharray="3,2" fill="none"/><circle cx="7750" cy="337.5" r="8" fill="#666666"
    </g>
    <!-- Song name overlay -->
    <rect x="0" y="90" width="300" height="30" fill="rgba(0,128,128,0.9)"/>
    <text x="150" y="108" text-anchor="middle" fill="white" font-size="12" font-family="system-ui">
        Ru con (Quảng Trị)
    </text>
</svg>