<?xml version="1.0" encoding="UTF-8" standalone="no"?>
<!DOCTYPE score-partwise PUBLIC "-//Recordare//DTD MusicXML 4.0 Partwise//EN" "http://www.musicxml.org/dtds/partwise.dtd">
<score-partwise version="4.0">
  <movement-title>Hò Cống Chùa</movement-title>
  <identification>
    <creator type="composer">Bà Hồ Thị Đành</creator>
    <creator type="arranger">(Tân Phú Trung - Bình Đại)</creator>
    <rights>©</rights>
    <encoding>
      <software>Finale v27.2 for Windows</software>
      <encoding-date>2025-08-18</encoding-date>
      <supports attribute="new-system" element="print" type="yes" value="yes"/>
      <supports attribute="new-page" element="print" type="yes" value="yes"/>
      <supports element="accidental" type="yes"/>
      <supports element="beam" type="yes"/>
      <supports element="stem" type="yes"/>
    </encoding>
  </identification>
  <defaults>
    <scaling>
      <millimeters>7.2319</millimeters>
      <tenths>40</tenths>
    </scaling>
    <page-layout>
      <page-height>1545</page-height>
      <page-width>1194</page-width>
      <page-margins type="both">
        <left-margin>140</left-margin>
        <right-margin>70</right-margin>
        <top-margin>70</top-margin>
        <bottom-margin>70</bottom-margin>
      </page-margins>
    </page-layout>
    <system-layout>
      <system-margins>
        <left-margin>0</left-margin>
        <right-margin>0</right-margin>
      </system-margins>
      <system-distance>121</system-distance>
      <top-system-distance>70</top-system-distance>
    </system-layout>
    <appearance>
      <line-width type="stem">0.9115</line-width>
      <line-width type="beam">5</line-width>
      <line-width type="staff">0.9115</line-width>
      <line-width type="light barline">1.0026</line-width>
      <line-width type="heavy barline">5</line-width>
      <line-width type="leger">1.1003</line-width>
      <line-width type="ending">1.3021</line-width>
      <line-width type="wedge">1.0026</line-width>
      <line-width type="enclosure">1.3021</line-width>
      <line-width type="tuplet bracket">1.0026</line-width>
      <note-size type="grace">60</note-size>
      <note-size type="cue">60</note-size>
      <distance type="hyphen">120</distance>
      <distance type="beam">7.5</distance>
    </appearance>
    <music-font font-family="Finale Maestro,engraved" font-size="20.5"/>
    <word-font font-family="Times New Roman" font-size="10.25"/>
    <lyric-font font-family="Arial" font-size="12"/>
  </defaults>
  <credit page="1">
    <credit-type>title</credit-type>
    <credit-words default-x="632" default-y="1475" font-family="Arial" font-size="24" justify="center" valign="top">Hò Cống Chùa</credit-words>
  </credit>
  <credit page="1">
    <credit-type>composer</credit-type>
    <credit-words default-x="1122" default-y="1407" font-family="Arial" font-size="12" justify="right" valign="top">Bà Hồ Thị Đành</credit-words>
  </credit>
  <credit page="1">
    <credit-type>rights</credit-type>
    <credit-words default-x="632" default-y="53" font-size="10" justify="center" valign="bottom">©</credit-words>
  </credit>
  <credit page="1">
    <credit-type>arranger</credit-type>
    <credit-words default-x="1122" default-y="1372" font-family="Arial" font-size="12" halign="right" valign="top">(Tân Phú Trung - Bình Đại)</credit-words>
  </credit>
  <part-list>
    <score-part id="P1">
      <part-name print-object="no">MusicXML Part</part-name>
      <group>score</group>
      <score-instrument id="P1-I1">
        <instrument-name>SmartMusic SoftSynth</instrument-name>
        <virtual-instrument/>
      </score-instrument>
      <midi-device>SmartMusic SoftSynth</midi-device>
      <midi-instrument id="P1-I1">
        <midi-channel>1</midi-channel>
        <midi-bank>15489</midi-bank>
        <midi-program>1</midi-program>
        <volume>80</volume>
        <pan>0</pan>
      </midi-instrument>
    </score-part>
  </part-list>
  <!--=========================================================-->
  <part id="P1">
    <measure number="1" width="263">
      <print>
        <system-layout>
          <system-margins>
            <left-margin>70</left-margin>
            <right-margin>0</right-margin>
          </system-margins>
          <top-system-distance>177</top-system-distance>
        </system-layout>
        <measure-numbering multiple-rest-always="no" multiple-rest-range="no" system="only-top">system</measure-numbering>
      </print>
      <attributes>
        <divisions>4</divisions>
        <key>
          <fifths>1</fifths>
          <mode>major</mode>
        </key>
        <time>
          <beats>2</beats>
          <beat-type>4</beat-type>
        </time>
        <clef>
          <sign>G</sign>
          <line>2</line>
        </clef>
      </attributes>
      <sound>
        <swing>
          <straight/>
        </swing>
      </sound>
      <direction directive="yes" placement="above" system="only-top">
        <direction-type>
          <words default-y="40" font-size="12" font-weight="bold">Andantino </words>
        </direction-type>
        <direction-type>
          <metronome font-family="Finale Maestro" font-size="15.4" font-weight="normal">
            <beat-unit>quarter</beat-unit>
            <per-minute font-family="Times New Roman" font-size="12" font-weight="bold">88</per-minute>
          </metronome>
        </direction-type>
        <sound tempo="88"/>
      </direction>
      <note default-x="111">
        <pitch>
          <step>D</step>
          <octave>4</octave>
        </pitch>
        <duration>2</duration>
        <voice>1</voice>
        <type>eighth</type>
        <stem default-y="-5">up</stem>
        <beam number="1">begin</beam>
        <notations>
          <slur bezier-x="15" bezier-y="-9" default-x="6" default-y="-55" number="1" placement="below" type="start"/>
        </notations>
        <lyric default-y="-85" justify="left" number="1">
          <syllabic>single</syllabic>
          <text>Ngộ</text>
          <extend type="start"/>
        </lyric>
      </note>
      <note default-x="152">
        <pitch>
          <step>F</step>
          <octave>4</octave>
        </pitch>
        <duration>2</duration>
        <voice>1</voice>
        <type>eighth</type>
        <accidental>natural</accidental>
        <stem default-y="0">up</stem>
        <beam number="1">end</beam>
        <notations>
          <slur bezier-x="-9" bezier-y="-14" default-x="6" default-y="-45" number="1" type="stop"/>
        </notations>
        <lyric number="1">
          <extend type="stop"/>
        </lyric>
      </note>
      <note default-x="212">
        <pitch>
          <step>D</step>
          <octave>4</octave>
        </pitch>
        <duration>4</duration>
        <voice>1</voice>
        <type>quarter</type>
        <stem default-y="-10">up</stem>
        <lyric default-y="-85" number="1">
          <syllabic>single</syllabic>
          <text>kỳ</text>
        </lyric>
      </note>
    </measure>
    <!--=======================================================-->
    <measure number="2" width="147">
      <note default-x="13">
        <pitch>
          <step>D</step>
          <octave>4</octave>
        </pitch>
        <duration>6</duration>
        <voice>1</voice>
        <type>quarter</type>
        <dot/>
        <stem default-y="-10">up</stem>
        <lyric default-y="-85" number="1">
          <syllabic>single</syllabic>
          <text>thời</text>
        </lyric>
      </note>
      <note default-x="104">
        <pitch>
          <step>A</step>
          <octave>4</octave>
        </pitch>
        <duration>2</duration>
        <voice>1</voice>
        <type>eighth</type>
        <stem default-y="10">up</stem>
        <lyric default-y="-85" number="1">
          <syllabic>single</syllabic>
          <text>con</text>
        </lyric>
      </note>
    </measure>
    <!--=======================================================-->
    <measure number="3" width="303">
      <note default-x="23">
        <pitch>
          <step>B</step>
          <octave>4</octave>
        </pitch>
        <duration>2</duration>
        <voice>1</voice>
        <type>eighth</type>
        <stem default-y="15">up</stem>
        <beam number="1">begin</beam>
        <notations>
          <slur bezier-x="17" bezier-y="-15" default-x="7" default-y="-33" number="1" placement="below" type="start"/>
        </notations>
        <lyric default-y="-85" justify="left" number="1" relative-x="19">
          <syllabic>single</syllabic>
          <text>kiến</text>
          <extend type="start"/>
        </lyric>
      </note>
      <note default-x="86">
        <pitch>
          <step>A</step>
          <octave>4</octave>
        </pitch>
        <duration>2</duration>
        <voice>1</voice>
        <type>eighth</type>
        <stem default-y="10">up</stem>
        <beam number="1">end</beam>
        <notations>
          <slur bezier-x="-18" bezier-y="-15" default-x="7" default-y="-35" number="1" type="stop"/>
        </notations>
        <lyric number="1">
          <extend type="stop"/>
        </lyric>
      </note>
      <note default-x="157">
        <pitch>
          <step>B</step>
          <octave>4</octave>
        </pitch>
        <duration>2</duration>
        <voice>1</voice>
        <type>eighth</type>
        <stem default-y="-55">down</stem>
        <lyric default-y="-85" number="1">
          <syllabic>single</syllabic>
          <text>mới</text>
        </lyric>
      </note>
      <note default-x="227">
        <pitch>
          <step>A</step>
          <octave>4</octave>
        </pitch>
        <duration>2</duration>
        <voice>1</voice>
        <type>eighth</type>
        <stem default-y="10">up</stem>
        <notations>
          <slur bezier-x="13" bezier-y="-15" default-x="6" default-y="-35" number="1" placement="below" type="start"/>
        </notations>
        <lyric default-y="-85" number="1" relative-x="22">
          <syllabic>single</syllabic>
          <text>leo</text>
        </lyric>
      </note>
      <note default-x="280">
        <grace slash="yes"/>
        <pitch>
          <step>F</step>
          <alter>1</alter>
          <octave>4</octave>
        </pitch>
        <voice>1</voice>
        <type>eighth</type>
        <stem default-y="-14">up</stem>
        <notations>
          <slur bezier-x="-17" bezier-y="-10" default-x="4" default-y="-43" number="1" type="stop"/>
          <accidental-mark default-x="-7" default-y="-35" smufl="accidentalBakiyeSharp">sharp</accidental-mark>
        </notations>
      </note>
    </measure>
    <!--=======================================================-->
    <measure number="4" width="200">
      <note default-x="35">
        <pitch>
          <step>G</step>
          <octave>4</octave>
        </pitch>
        <duration>4</duration>
        <voice>1</voice>
        <type>quarter</type>
        <stem default-y="5">up</stem>
        <lyric default-y="-85" number="1">
          <syllabic>single</syllabic>
          <text>dây</text>
        </lyric>
      </note>
      <note default-x="96">
        <rest/>
        <duration>2</duration>
        <voice>1</voice>
        <type>eighth</type>
      </note>
      <note default-x="148">
        <pitch>
          <step>A</step>
          <octave>4</octave>
        </pitch>
        <duration>2</duration>
        <voice>1</voice>
        <type>eighth</type>
        <stem default-y="10">up</stem>
        <lyric default-y="-85" number="1">
          <syllabic>single</syllabic>
          <text>(Nam</text>
        </lyric>
      </note>
    </measure>
    <!--=======================================================-->
    <measure number="5" width="268">
      <print new-system="yes">
        <system-layout>
          <system-distance>114</system-distance>
        </system-layout>
      </print>
      <note default-x="91">
        <pitch>
          <step>A</step>
          <octave>4</octave>
        </pitch>
        <duration>2</duration>
        <voice>1</voice>
        <type>eighth</type>
        <stem default-y="10">up</stem>
        <lyric default-y="-85" number="1">
          <syllabic>single</syllabic>
          <text>mô</text>
        </lyric>
      </note>
      <note default-x="155">
        <pitch>
          <step>A</step>
          <octave>4</octave>
        </pitch>
        <duration>2</duration>
        <voice>1</voice>
        <type>eighth</type>
        <stem default-y="10">up</stem>
        <lyric default-y="-85" number="1">
          <syllabic>single</syllabic>
          <text>di</text>
        </lyric>
      </note>
      <note default-x="195">
        <grace slash="yes"/>
        <pitch>
          <step>A</step>
          <octave>4</octave>
        </pitch>
        <voice>1</voice>
        <type>eighth</type>
        <stem default-y="-4">up</stem>
        <notations>
          <slur bezier-x="7" bezier-y="-4" default-x="4" default-y="-33" number="1" placement="below" type="start"/>
        </notations>
      </note>
      <note default-x="217">
        <pitch>
          <step>B</step>
          <octave>4</octave>
        </pitch>
        <duration>4</duration>
        <voice>1</voice>
        <type>quarter</type>
        <stem default-y="-55">down</stem>
        <notations>
          <slur bezier-x="-1" bezier-y="-8" default-x="-4" default-y="-27" number="1" type="stop"/>
        </notations>
        <lyric default-y="-85" number="1">
          <syllabic>single</syllabic>
          <text>bố</text>
        </lyric>
      </note>
    </measure>
    <!--=======================================================-->
    <measure number="6" width="193">
      <note default-x="26">
        <pitch>
          <step>D</step>
          <octave>4</octave>
        </pitch>
        <duration>4</duration>
        <voice>1</voice>
        <type>quarter</type>
        <stem default-y="-10">up</stem>
        <lyric default-y="-85" number="1">
          <syllabic>single</syllabic>
          <text>phù</text>
        </lyric>
      </note>
      <note default-x="84">
        <rest/>
        <duration>2</duration>
        <voice>1</voice>
        <type>eighth</type>
        <lyric default-y="-85" number="1">
          <syllabic>single</syllabic>
          <text>)</text>
        </lyric>
      </note>
      <note default-x="127">
        <pitch>
          <step>F</step>
          <alter>1</alter>
          <octave>4</octave>
        </pitch>
        <duration>1</duration>
        <voice>1</voice>
        <type>16th</type>
        <stem default-y="10">up</stem>
        <beam number="1">begin</beam>
        <beam number="2">begin</beam>
        <notations>
          <slur bezier-x="13" bezier-y="-7" default-x="6" default-y="-45" number="1" placement="below" type="start"/>
          <accidental-mark default-x="-12" default-y="-36" smufl="accidentalBakiyeSharp">sharp</accidental-mark>
        </notations>
        <lyric default-y="-85" justify="left" number="1">
          <syllabic>single</syllabic>
          <text>Hữu</text>
          <extend type="start"/>
        </lyric>
      </note>
      <note default-x="163">
        <pitch>
          <step>B</step>
          <octave>4</octave>
        </pitch>
        <duration>1</duration>
        <voice>1</voice>
        <type>16th</type>
        <stem default-y="15">up</stem>
        <beam number="1">end</beam>
        <beam number="2">end</beam>
        <notations>
          <slur bezier-x="-7" bezier-y="-13" default-x="6" default-y="-33" number="1" type="stop"/>
        </notations>
        <lyric number="1">
          <extend type="stop"/>
        </lyric>
      </note>
    </measure>
    <!--=======================================================-->
    <measure number="7" width="305">
      <note default-x="39">
        <pitch>
          <step>A</step>
          <octave>4</octave>
        </pitch>
        <duration>2</duration>
        <voice>1</voice>
        <type>eighth</type>
        <stem default-y="10">up</stem>
        <lyric default-y="-85" number="1" relative-x="11">
          <syllabic>single</syllabic>
          <text>duyên</text>
        </lyric>
      </note>
      <note default-x="118">
        <pitch>
          <step>F</step>
          <alter>1</alter>
          <octave>4</octave>
        </pitch>
        <duration>2</duration>
        <voice>1</voice>
        <type>eighth</type>
        <stem default-y="0">up</stem>
        <lyric default-y="-85" number="1">
          <syllabic>single</syllabic>
          <text>mà</text>
        </lyric>
      </note>
      <note default-x="188">
        <pitch>
          <step>A</step>
          <octave>4</octave>
        </pitch>
        <duration>2</duration>
        <voice>1</voice>
        <type>eighth</type>
        <stem default-y="10">up</stem>
        <lyric default-y="-85" number="1">
          <syllabic>single</syllabic>
          <text>thiên</text>
        </lyric>
      </note>
      <note default-x="253">
        <pitch>
          <step>B</step>
          <octave>4</octave>
        </pitch>
        <duration>2</duration>
        <voice>1</voice>
        <type>eighth</type>
        <stem default-y="-55">down</stem>
        <lyric default-y="-85" number="1">
          <syllabic>single</syllabic>
          <text>lý</text>
        </lyric>
      </note>
    </measure>
    <!--=======================================================-->
    <measure number="8" width="217">
      <note default-x="35">
        <pitch>
          <step>D</step>
          <octave>4</octave>
        </pitch>
        <duration>2</duration>
        <voice>1</voice>
        <type>eighth</type>
        <stem default-y="-10">up</stem>
        <notations>
          <slur bezier-x="18" bezier-y="-10" default-x="6" default-y="-55" number="1" placement="below" type="start"/>
        </notations>
        <lyric default-y="-86" number="1" relative-x="26">
          <syllabic>single</syllabic>
          <text>ngộ</text>
        </lyric>
      </note>
      <note default-x="89">
        <pitch>
          <step>F</step>
          <octave>4</octave>
        </pitch>
        <duration>4</duration>
        <voice>1</voice>
        <type>quarter</type>
        <accidental>natural</accidental>
        <stem default-y="0">up</stem>
        <notations>
          <slur bezier-x="-12" bezier-y="-16" default-x="7" default-y="-45" number="1" type="stop"/>
        </notations>
      </note>
      <note default-x="160">
        <pitch>
          <step>A</step>
          <octave>4</octave>
        </pitch>
        <duration>2</duration>
        <voice>1</voice>
        <type>eighth</type>
        <stem default-y="10">up</stem>
        <lyric default-y="-85" number="1">
          <syllabic>single</syllabic>
          <text>(Nam</text>
        </lyric>
      </note>
    </measure>
    <!--=======================================================-->
    <measure number="9" width="308">
      <print new-system="yes">
        <system-layout>
          <system-distance>114</system-distance>
        </system-layout>
      </print>
      <note default-x="107">
        <pitch>
          <step>A</step>
          <octave>4</octave>
        </pitch>
        <duration>2</duration>
        <voice>1</voice>
        <type>eighth</type>
        <stem default-y="10">up</stem>
        <lyric default-y="-85" number="1">
          <syllabic>single</syllabic>
          <text>mô</text>
        </lyric>
      </note>
      <note default-x="173">
        <pitch>
          <step>A</step>
          <octave>4</octave>
        </pitch>
        <duration>2</duration>
        <voice>1</voice>
        <type>eighth</type>
        <stem default-y="10">up</stem>
        <lyric default-y="-85" number="1">
          <syllabic>single</syllabic>
          <text>di</text>
        </lyric>
      </note>
      <note default-x="227">
        <grace slash="yes"/>
        <pitch>
          <step>A</step>
          <octave>4</octave>
        </pitch>
        <voice>1</voice>
        <type>eighth</type>
        <stem default-y="-4">up</stem>
        <notations>
          <slur bezier-x="8" bezier-y="-5" default-x="4" default-y="-33" number="1" placement="below" type="start"/>
        </notations>
      </note>
      <note default-x="249">
        <pitch>
          <step>B</step>
          <octave>4</octave>
        </pitch>
        <duration>4</duration>
        <voice>1</voice>
        <type>quarter</type>
        <stem default-y="-55">down</stem>
        <notations>
          <slur bezier-x="-2" bezier-y="-8" default-x="-3" default-y="-27" number="1" type="stop"/>
        </notations>
        <lyric default-y="-85" number="1">
          <syllabic>single</syllabic>
          <text>bố</text>
        </lyric>
      </note>
    </measure>
    <!--=======================================================-->
    <measure number="10" width="152">
      <note default-x="13">
        <pitch>
          <step>D</step>
          <octave>4</octave>
        </pitch>
        <duration>6</duration>
        <voice>1</voice>
        <type>quarter</type>
        <dot/>
        <stem default-y="-10">up</stem>
        <lyric default-y="-85" number="1">
          <syllabic>single</syllabic>
          <text>phù</text>
        </lyric>
      </note>
      <note default-x="107">
        <rest/>
        <duration>2</duration>
        <voice>1</voice>
        <type>eighth</type>
        <lyric default-y="-85" number="1">
          <syllabic>single</syllabic>
          <text>)</text>
        </lyric>
      </note>
    </measure>
    <!--=======================================================-->
    <measure number="11" width="310">
      <note default-x="13">
        <rest/>
        <duration>2</duration>
        <voice>1</voice>
        <type>eighth</type>
      </note>
      <note default-x="87">
        <pitch>
          <step>A</step>
          <octave>4</octave>
        </pitch>
        <duration>2</duration>
        <voice>1</voice>
        <type>eighth</type>
        <stem default-y="10">up</stem>
        <lyric default-y="-85" number="1">
          <syllabic>single</syllabic>
          <text>Gặp</text>
        </lyric>
      </note>
      <note default-x="161">
        <pitch>
          <step>A</step>
          <octave>4</octave>
        </pitch>
        <duration>2</duration>
        <voice>1</voice>
        <type>eighth</type>
        <stem default-y="10">up</stem>
        <lyric default-y="-85" number="1">
          <syllabic>single</syllabic>
          <text>mặt</text>
        </lyric>
      </note>
      <note default-x="235">
        <pitch>
          <step>D</step>
          <octave>5</octave>
        </pitch>
        <duration>2</duration>
        <voice>1</voice>
        <type>eighth</type>
        <stem default-y="-45">down</stem>
        <lyric default-y="-85" number="1">
          <syllabic>single</syllabic>
          <text>anh</text>
        </lyric>
      </note>
    </measure>
    <!--=======================================================-->
    <measure number="12" width="214">
      <note default-x="13">
        <pitch>
          <step>D</step>
          <octave>5</octave>
        </pitch>
        <duration>4</duration>
        <voice>1</voice>
        <type>quarter</type>
        <stem default-y="-45">down</stem>
        <lyric default-y="-85" number="1">
          <syllabic>single</syllabic>
          <text>đây</text>
        </lyric>
      </note>
      <note default-x="91">
        <grace slash="yes"/>
        <pitch>
          <step>D</step>
          <octave>5</octave>
        </pitch>
        <voice>1</voice>
        <type>eighth</type>
        <stem default-y="11">up</stem>
        <notations>
          <slur bezier-x="6" bezier-y="-6" default-x="3" default-y="-16" number="1" placement="below" type="start"/>
        </notations>
      </note>
      <note default-x="113">
        <pitch>
          <step>F</step>
          <alter>1</alter>
          <octave>5</octave>
        </pitch>
        <duration>4</duration>
        <voice>1</voice>
        <type>quarter</type>
        <stem default-y="-35">down</stem>
        <notations>
          <slur bezier-x="-4" bezier-y="-8" default-x="-3" default-y="-13" number="1" type="stop"/>
          <accidental-mark default-x="-10" default-y="-1" smufl="accidentalBakiyeSharp">sharp</accidental-mark>
        </notations>
        <lyric default-y="-85" number="1" relative-x="-13">
          <syllabic>single</syllabic>
          <text>chốn</text>
        </lyric>
      </note>
    </measure>
    <!--=======================================================-->
    <measure number="13" width="327">
      <print new-system="yes">
        <system-layout>
          <system-distance>114</system-distance>
        </system-layout>
      </print>
      <note default-x="76">
        <pitch>
          <step>A</step>
          <octave>4</octave>
        </pitch>
        <duration>2</duration>
        <voice>1</voice>
        <type>eighth</type>
        <stem default-y="10">up</stem>
        <lyric default-y="-85" number="1">
          <syllabic>single</syllabic>
          <text>này</text>
        </lyric>
      </note>
      <note default-x="130">
        <pitch>
          <step>F</step>
          <alter>1</alter>
          <octave>4</octave>
        </pitch>
        <duration>2</duration>
        <voice>1</voice>
        <type>eighth</type>
        <stem default-y="0">up</stem>
        <lyric default-y="-85" number="1">
          <syllabic>single</syllabic>
          <text>là</text>
        </lyric>
      </note>
      <note default-x="180">
        <grace slash="yes"/>
        <pitch>
          <step>F</step>
          <alter>1</alter>
          <octave>4</octave>
        </pitch>
        <voice>1</voice>
        <type>eighth</type>
        <stem default-y="-14">up</stem>
        <notations>
          <slur bezier-x="10" bezier-y="-5" default-x="4" default-y="-43" number="1" placement="below" type="start"/>
        </notations>
      </note>
      <note default-x="202">
        <pitch>
          <step>A</step>
          <octave>4</octave>
        </pitch>
        <duration>2</duration>
        <voice>1</voice>
        <type>eighth</type>
        <stem default-y="10">up</stem>
        <notations>
          <slur bezier-x="-4" bezier-y="-10" default-x="6" default-y="-35" number="1" type="stop"/>
        </notations>
        <lyric default-y="-85" number="1" relative-x="-11">
          <syllabic>single</syllabic>
          <text>địa</text>
        </lyric>
      </note>
      <note default-x="253">
        <pitch>
          <step>A</step>
          <octave>4</octave>
        </pitch>
        <duration>1</duration>
        <voice>1</voice>
        <type>16th</type>
        <stem default-y="-60">down</stem>
        <beam number="1">begin</beam>
        <beam number="2">begin</beam>
        <notations>
          <slur bezier-x="4" bezier-y="17" default-x="6" default-y="-15" number="1" placement="above" type="start"/>
        </notations>
        <lyric default-y="-85" justify="left" number="1" relative-x="3">
          <syllabic>single</syllabic>
          <text>tổng</text>
          <extend type="start"/>
        </lyric>
      </note>
      <note default-x="290">
        <pitch>
          <step>F</step>
          <alter>1</alter>
          <octave>5</octave>
        </pitch>
        <duration>1</duration>
        <voice>1</voice>
        <type>16th</type>
        <stem default-y="-55">down</stem>
        <beam number="1">end</beam>
        <beam number="2">end</beam>
        <notations>
          <slur bezier-x="-17" bezier-y="3" default-x="6" default-y="10" number="1" type="stop"/>
        </notations>
        <lyric number="1">
          <extend type="stop"/>
        </lyric>
      </note>
    </measure>
    <!--=======================================================-->
    <measure number="14" width="333">
      <note default-x="13">
        <pitch>
          <step>D</step>
          <octave>5</octave>
        </pitch>
        <duration>2</duration>
        <voice>1</voice>
        <type>eighth</type>
        <stem default-y="-45">down</stem>
        <lyric default-y="-85" number="1">
          <syllabic>single</syllabic>
          <text>Di</text>
        </lyric>
      </note>
      <note default-x="77">
        <pitch>
          <step>A</step>
          <octave>4</octave>
        </pitch>
        <duration>1</duration>
        <voice>1</voice>
        <type>16th</type>
        <stem default-y="-60">down</stem>
        <beam number="1">begin</beam>
        <beam number="2">begin</beam>
        <notations>
          <slur bezier-x="7" bezier-y="18" default-x="6" default-y="-15" number="1" placement="above" type="start"/>
        </notations>
        <lyric default-y="-85" justify="left" number="1">
          <syllabic>single</syllabic>
          <text>tổng</text>
          <extend type="start"/>
        </lyric>
      </note>
      <note default-x="122">
        <pitch>
          <step>F</step>
          <alter>1</alter>
          <octave>5</octave>
        </pitch>
        <duration>1</duration>
        <voice>1</voice>
        <type>16th</type>
        <stem default-y="-55">down</stem>
        <beam number="1">end</beam>
        <beam number="2">end</beam>
        <notations>
          <slur bezier-x="-19" bezier-y="4" default-x="7" default-y="10" number="1" type="stop"/>
        </notations>
        <lyric number="1">
          <extend type="stop"/>
        </lyric>
      </note>
      <note default-x="185">
        <pitch>
          <step>D</step>
          <octave>5</octave>
        </pitch>
        <duration>2</duration>
        <voice>1</voice>
        <type>eighth</type>
        <stem default-y="-45">down</stem>
        <lyric default-y="-85" number="1">
          <syllabic>single</syllabic>
          <text>Dương</text>
        </lyric>
      </note>
      <note default-x="270">
        <pitch>
          <step>B</step>
          <octave>4</octave>
        </pitch>
        <duration>2</duration>
        <voice>1</voice>
        <type>eighth</type>
        <stem default-y="-55">down</stem>
        <lyric default-y="-85" number="1">
          <syllabic>single</syllabic>
          <text>(nam</text>
        </lyric>
      </note>
    </measure>
    <!--=======================================================-->
    <measure number="15" width="185">
      <note default-x="13">
        <pitch>
          <step>B</step>
          <octave>4</octave>
        </pitch>
        <duration>2</duration>
        <voice>1</voice>
        <type>eighth</type>
        <stem default-y="-55">down</stem>
        <lyric default-y="-85" number="1">
          <syllabic>single</syllabic>
          <text>mô</text>
        </lyric>
      </note>
      <note default-x="56">
        <pitch>
          <step>A</step>
          <octave>4</octave>
        </pitch>
        <duration>2</duration>
        <voice>1</voice>
        <type>eighth</type>
        <stem default-y="10">up</stem>
        <lyric default-y="-85" number="1">
          <syllabic>single</syllabic>
          <text>di</text>
        </lyric>
      </note>
      <note default-x="98">
        <pitch>
          <step>B</step>
          <octave>4</octave>
        </pitch>
        <duration>2</duration>
        <voice>1</voice>
        <type>eighth</type>
        <stem default-y="15">up</stem>
        <beam number="1">begin</beam>
        <notations>
          <slur bezier-x="12" bezier-y="-12" default-x="6" default-y="-33" number="1" placement="below" type="start"/>
        </notations>
        <lyric default-y="-85" number="1" relative-x="21">
          <syllabic>single</syllabic>
          <text>bố</text>
        </lyric>
      </note>
      <note default-x="141">
        <pitch>
          <step>A</step>
          <octave>4</octave>
        </pitch>
        <duration>2</duration>
        <voice>1</voice>
        <type>eighth</type>
        <stem default-y="10">up</stem>
        <beam number="1">end</beam>
        <notations>
          <slur bezier-x="-13" bezier-y="-11" default-x="6" default-y="-35" number="1" type="stop"/>
        </notations>
      </note>
    </measure>
    <!--=======================================================-->
    <measure number="16" width="138">
      <note default-x="13">
        <grace slash="yes"/>
        <pitch>
          <step>F</step>
          <alter>1</alter>
          <octave>4</octave>
        </pitch>
        <voice>1</voice>
        <type>eighth</type>
        <stem default-y="-14">up</stem>
        <notations>
          <slur bezier-x="9" bezier-y="-7" default-x="4" default-y="-43" number="1" placement="below" type="start"/>
        </notations>
      </note>
      <note default-x="35">
        <pitch>
          <step>G</step>
          <octave>4</octave>
        </pitch>
        <duration>8</duration>
        <voice>1</voice>
        <type>half</type>
        <stem default-y="5">up</stem>
        <notations>
          <slur bezier-x="-6" bezier-y="-10" default-x="7" default-y="-38" number="1" type="stop"/>
        </notations>
        <lyric default-y="-85" number="1" relative-x="-7">
          <syllabic>single</syllabic>
          <text>phan...</text>
        </lyric>
      </note>
      <barline location="right">
        <bar-style>light-light</bar-style>
      </barline>
    </measure>
  </part>
  <!--=========================================================-->
</score-partwise>
