<?xml version="1.0" encoding="UTF-8" standalone="no"?>
<!DOCTYPE score-partwise PUBLIC "-//Recordare//DTD MusicXML 4.0 Partwise//EN" "http://www.musicxml.org/dtds/partwise.dtd">
<score-partwise version="4.0">
  <movement-title>bài giải 2</movement-title>
  <identification>
    <rights>©</rights>
    <encoding>
      <software>Finale v27.2 for Windows</software>
      <encoding-date>2025-08-18</encoding-date>
      <supports attribute="new-system" element="print" type="yes" value="yes"/>
      <supports attribute="new-page" element="print" type="yes" value="yes"/>
      <supports element="accidental" type="yes"/>
      <supports element="beam" type="yes"/>
      <supports element="stem" type="yes"/>
    </encoding>
  </identification>
  <defaults>
    <scaling>
      <millimeters>7.2319</millimeters>
      <tenths>40</tenths>
    </scaling>
    <page-layout>
      <page-height>1545</page-height>
      <page-width>1194</page-width>
      <page-margins type="both">
        <left-margin>140</left-margin>
        <right-margin>70</right-margin>
        <top-margin>70</top-margin>
        <bottom-margin>70</bottom-margin>
      </page-margins>
    </page-layout>
    <system-layout>
      <system-margins>
        <left-margin>0</left-margin>
        <right-margin>0</right-margin>
      </system-margins>
      <system-distance>121</system-distance>
      <top-system-distance>70</top-system-distance>
    </system-layout>
    <appearance>
      <line-width type="stem">0.9115</line-width>
      <line-width type="beam">5</line-width>
      <line-width type="staff">0.9115</line-width>
      <line-width type="light barline">1.0026</line-width>
      <line-width type="heavy barline">5</line-width>
      <line-width type="leger">1.1003</line-width>
      <line-width type="ending">1.3021</line-width>
      <line-width type="wedge">1.0026</line-width>
      <line-width type="enclosure">1.3021</line-width>
      <line-width type="tuplet bracket">1.0026</line-width>
      <note-size type="grace">60</note-size>
      <note-size type="cue">60</note-size>
      <distance type="hyphen">120</distance>
      <distance type="beam">7.5</distance>
    </appearance>
    <music-font font-family="Finale Maestro,engraved" font-size="20.5"/>
    <word-font font-family="Times New Roman" font-size="10.25"/>
  </defaults>
  <credit page="1">
    <credit-type>title</credit-type>
    <credit-words default-x="626" default-y="1497" font-size="24" justify="center" valign="top">bài giải 2</credit-words>
  </credit>
  <credit page="1">
    <credit-type>rights</credit-type>
    <credit-words default-x="632" default-y="53" font-size="10" justify="center" valign="bottom">©</credit-words>
  </credit>
  <credit page="1">
    <credit-words default-x="136" default-y="1350" font-size="12" valign="top">Câu 1</credit-words>
  </credit>
  <credit page="1">
    <credit-words default-x="209" default-y="155" font-size="14" font-weight="bold" valign="top">3t</credit-words>
  </credit>
  <credit page="1">
    <credit-words default-x="691" default-y="154" font-size="14" font-weight="bold" valign="top">4Đ</credit-words>
  </credit>
  <credit page="2">
    <credit-words default-x="411" default-y="1408" font-weight="bold" valign="top">b</credit-words>
  </credit>
  <credit page="2">
    <credit-words default-x="520" default-y="1407" font-weight="bold" valign="top">b</credit-words>
  </credit>
  <credit page="2">
    <credit-words default-x="247" default-y="1406" font-size="16" font-weight="bold" valign="top">=</credit-words>
  </credit>
  <credit page="2">
    <credit-words default-x="361" default-y="1405" font-size="16" font-weight="bold" valign="top">=</credit-words>
  </credit>
  <credit page="2">
    <credit-words default-x="469" default-y="1405" font-size="16" font-weight="bold" valign="top">=</credit-words>
  </credit>
  <credit page="2">
    <credit-words default-x="188" default-y="409" font-size="14" font-weight="bold" valign="top">A Dur</credit-words>
  </credit>
  <credit page="2">
    <credit-words default-x="409" default-y="407" font-size="14" font-weight="bold" valign="top">H Dur</credit-words>
  </credit>
  <credit page="2">
    <credit-words default-x="640" default-y="410" font-size="14" font-weight="bold" valign="top">c moll</credit-words>
  </credit>
  <credit page="2">
    <credit-words default-x="885" default-y="415" font-size="14" font-weight="bold" valign="top">f moll</credit-words>
  </credit>
  <credit page="2">
    <credit-words default-x="339" default-y="409" font-size="14" font-weight="bold" valign="top">V7</credit-words>
  </credit>
  <credit page="2">
    <credit-words default-x="582" default-y="408" font-size="14" font-weight="bold" valign="top">V7</credit-words>
  </credit>
  <credit page="2">
    <credit-words default-x="808" default-y="416" font-size="14" font-weight="bold" valign="top">V7</credit-words>
  </credit>
  <credit page="2">
    <credit-words default-x="1041" default-y="414" font-size="14" font-weight="bold" valign="top">V7</credit-words>
  </credit>
  <part-list>
    <score-part id="P1">
      <part-name print-object="no">MusicXML Part</part-name>
      <group>score</group>
      <score-instrument id="P1-I1">
        <instrument-name>SmartMusic SoftSynth</instrument-name>
        <virtual-instrument/>
      </score-instrument>
      <midi-device>SmartMusic SoftSynth</midi-device>
      <midi-instrument id="P1-I1">
        <midi-channel>1</midi-channel>
        <midi-bank>15489</midi-bank>
        <midi-program>1</midi-program>
        <volume>80</volume>
        <pan>0</pan>
      </midi-instrument>
    </score-part>
  </part-list>
  <!--=========================================================-->
  <part id="P1">
    <measure number="1" width="179">
      <print>
        <system-layout>
          <system-margins>
            <left-margin>70</left-margin>
            <right-margin>0</right-margin>
          </system-margins>
          <top-system-distance>177</top-system-distance>
        </system-layout>
        <measure-numbering multiple-rest-always="no" multiple-rest-range="no" system="only-top">system</measure-numbering>
      </print>
      <attributes>
        <divisions>2</divisions>
        <key print-object="no">
          <fifths>0</fifths>
          <mode>major</mode>
        </key>
        <time print-object="no">
          <senza-misura/>
        </time>
        <clef>
          <sign>F</sign>
          <line>4</line>
        </clef>
      </attributes>
      <sound tempo="120">
        <swing>
          <straight/>
        </swing>
      </sound>
      <direction>
        <direction-type>
          <words default-x="39" default-y="-64" font-size="14" font-weight="bold" valign="top">A</words>
        </direction-type>
      </direction>
      <note default-x="50">
        <pitch>
          <step>A</step>
          <octave>3</octave>
        </pitch>
        <duration>8</duration>
        <voice>1</voice>
        <type>whole</type>
      </note>
    </measure>
    <!--=======================================================-->
    <measure number="2" width="182">
      <attributes>
        <clef after-barline="yes">
          <sign>C</sign>
          <line>5</line>
        </clef>
      </attributes>
      <direction>
        <direction-type>
          <words default-x="42" default-y="-61" font-size="14" font-weight="bold" valign="top">D</words>
        </direction-type>
      </direction>
      <note default-x="42">
        <pitch>
          <step>D</step>
          <octave>4</octave>
        </pitch>
        <duration>8</duration>
        <voice>1</voice>
        <type>whole</type>
      </note>
    </measure>
    <!--=======================================================-->
    <measure number="3" width="183">
      <attributes>
        <clef after-barline="yes">
          <sign>F</sign>
          <line>4</line>
        </clef>
      </attributes>
      <direction>
        <direction-type>
          <words default-x="43" default-y="-58" font-size="14" font-weight="bold" valign="top">F</words>
        </direction-type>
      </direction>
      <note default-x="43">
        <pitch>
          <step>F</step>
          <octave>2</octave>
        </pitch>
        <duration>8</duration>
        <voice>1</voice>
        <type>whole</type>
      </note>
    </measure>
    <!--=======================================================-->
    <measure number="4" width="186">
      <attributes>
        <clef after-barline="yes">
          <sign>C</sign>
          <line>5</line>
        </clef>
      </attributes>
      <direction>
        <direction-type>
          <words default-x="46" default-y="-59" font-size="14" font-weight="bold" valign="top">E</words>
        </direction-type>
      </direction>
      <note default-x="45">
        <pitch>
          <step>E</step>
          <octave>4</octave>
        </pitch>
        <duration>8</duration>
        <voice>1</voice>
        <type>whole</type>
      </note>
    </measure>
    <!--=======================================================-->
    <measure number="5" width="182">
      <attributes>
        <clef after-barline="yes">
          <sign>C</sign>
          <line>3</line>
        </clef>
      </attributes>
      <direction>
        <direction-type>
          <words default-x="43" default-y="-58" font-size="14" font-weight="bold" valign="top">A</words>
        </direction-type>
      </direction>
      <note default-x="43">
        <pitch>
          <step>A</step>
          <octave>4</octave>
        </pitch>
        <duration>8</duration>
        <voice>1</voice>
        <type>whole</type>
      </note>
    </measure>
    <!--=======================================================-->
    <measure number="6" width="983">
      <print new-system="yes">
        <system-layout>
          <system-distance>114</system-distance>
        </system-layout>
      </print>
      <attributes>
        <clef after-barline="yes">
          <sign>G</sign>
          <line>2</line>
        </clef>
      </attributes>
      <note>
        <rest measure="yes"/>
        <duration>8</duration>
        <voice>1</voice>
      </note>
    </measure>
    <!--=======================================================-->
    <measure number="7" width="276">
      <print new-system="yes">
        <system-layout>
          <system-distance>114</system-distance>
        </system-layout>
      </print>
      <direction>
        <direction-type>
          <words default-x="-45" default-y="73" font-size="12" valign="top">Câu 3</words>
        </direction-type>
      </direction>
      <direction>
        <direction-type>
          <words default-x="77" default-y="-69" font-size="14" font-weight="bold" valign="top">3T</words>
        </direction-type>
      </direction>
      <direction>
        <direction-type>
          <words default-x="134" default-y="-62" font-size="18" font-weight="bold" valign="top">―</words>
        </direction-type>
      </direction>
      <note default-x="80">
        <pitch>
          <step>C</step>
          <octave>4</octave>
        </pitch>
        <duration>8</duration>
        <voice>1</voice>
        <type>whole</type>
      </note>
      <note default-x="80">
        <chord/>
        <pitch>
          <step>E</step>
          <octave>4</octave>
        </pitch>
        <duration>8</duration>
        <voice>1</voice>
        <type>whole</type>
      </note>
      <note default-x="208">
        <pitch>
          <step>E</step>
          <octave>4</octave>
        </pitch>
        <duration>8</duration>
        <voice>1</voice>
        <type>whole</type>
      </note>
      <note default-x="208">
        <chord/>
        <pitch>
          <step>C</step>
          <octave>5</octave>
        </pitch>
        <duration>8</duration>
        <voice>1</voice>
        <type>whole</type>
      </note>
    </measure>
    <!--=======================================================-->
    <measure number="8" width="236">
      <direction>
        <direction-type>
          <words default-x="18" default-y="-69" font-size="14" font-weight="bold" valign="top">4Đ</words>
        </direction-type>
      </direction>
      <direction>
        <direction-type>
          <words default-x="87" default-y="-61" font-size="18" font-weight="bold" valign="top">―</words>
        </direction-type>
      </direction>
      <direction>
        <direction-type>
          <words default-x="106" default-y="-63" font-size="18" font-weight="bold" valign="top">&gt;</words>
        </direction-type>
        <offset>8</offset>
      </direction>
      <note default-x="26">
        <pitch>
          <step>D</step>
          <octave>4</octave>
        </pitch>
        <duration>8</duration>
        <voice>1</voice>
        <type>whole</type>
      </note>
      <note default-x="26">
        <chord/>
        <pitch>
          <step>G</step>
          <octave>4</octave>
        </pitch>
        <duration>8</duration>
        <voice>1</voice>
        <type>whole</type>
      </note>
      <note default-x="180">
        <pitch>
          <step>G</step>
          <octave>4</octave>
        </pitch>
        <duration>8</duration>
        <voice>1</voice>
        <type>whole</type>
      </note>
      <note default-x="180">
        <chord/>
        <pitch>
          <step>D</step>
          <octave>5</octave>
        </pitch>
        <duration>8</duration>
        <voice>1</voice>
        <type>whole</type>
      </note>
    </measure>
    <!--=======================================================-->
    <measure number="9" width="236">
      <direction>
        <direction-type>
          <words default-x="26" default-y="-69" font-size="14" font-weight="bold" valign="top">5Đ</words>
        </direction-type>
      </direction>
      <direction>
        <direction-type>
          <words default-x="84" default-y="-62" font-size="18" font-weight="bold" valign="top">―</words>
        </direction-type>
      </direction>
      <direction>
        <direction-type>
          <words default-x="103" default-y="-64" font-size="18" font-weight="bold" valign="top">&gt;</words>
        </direction-type>
        <offset>8</offset>
      </direction>
      <note default-x="33">
        <pitch>
          <step>F</step>
          <octave>4</octave>
        </pitch>
        <duration>8</duration>
        <voice>1</voice>
        <type>whole</type>
      </note>
      <note default-x="33">
        <chord/>
        <pitch>
          <step>C</step>
          <octave>5</octave>
        </pitch>
        <duration>8</duration>
        <voice>1</voice>
        <type>whole</type>
      </note>
      <note default-x="156">
        <pitch>
          <step>C</step>
          <octave>5</octave>
        </pitch>
        <duration>8</duration>
        <voice>1</voice>
        <type>whole</type>
      </note>
      <note default-x="156">
        <chord/>
        <pitch>
          <step>F</step>
          <octave>5</octave>
        </pitch>
        <duration>8</duration>
        <voice>1</voice>
        <type>whole</type>
      </note>
    </measure>
    <!--=======================================================-->
    <measure number="10" width="235">
      <direction>
        <direction-type>
          <words default-x="34" default-y="-70" font-size="14" font-weight="bold" valign="top">8Đ</words>
        </direction-type>
      </direction>
      <direction>
        <direction-type>
          <words default-x="165" default-y="-71" font-size="14" font-weight="bold" valign="top">1Đ</words>
        </direction-type>
        <offset>8</offset>
      </direction>
      <direction>
        <direction-type>
          <words default-x="91" default-y="-63" font-size="18" font-weight="bold" valign="top">―</words>
        </direction-type>
      </direction>
      <direction>
        <direction-type>
          <words default-x="110" default-y="-65" font-size="18" font-weight="bold" valign="top">&gt;</words>
        </direction-type>
        <offset>8</offset>
      </direction>
      <note default-x="36">
        <pitch>
          <step>E</step>
          <octave>4</octave>
        </pitch>
        <duration>8</duration>
        <voice>1</voice>
        <type>whole</type>
      </note>
      <note default-x="36">
        <chord/>
        <pitch>
          <step>E</step>
          <octave>5</octave>
        </pitch>
        <duration>8</duration>
        <voice>1</voice>
        <type>whole</type>
      </note>
      <note default-x="170">
        <pitch>
          <step>E</step>
          <octave>5</octave>
        </pitch>
        <duration>8</duration>
        <voice>1</voice>
        <type>whole</type>
      </note>
    </measure>
    <!--=======================================================-->
    <measure number="11" width="273">
      <print new-system="yes">
        <system-layout>
          <system-distance>114</system-distance>
        </system-layout>
      </print>
      <direction>
        <direction-type>
          <words default-x="63" default-y="-67" font-size="14" font-weight="bold" valign="top">3t</words>
        </direction-type>
      </direction>
      <direction>
        <direction-type>
          <words default-x="201" default-y="-67" font-size="14" font-weight="bold" valign="top">6T</words>
        </direction-type>
        <offset>8</offset>
      </direction>
      <direction>
        <direction-type>
          <words default-x="125" default-y="-60" font-size="18" font-weight="bold" valign="top">―</words>
        </direction-type>
      </direction>
      <direction>
        <direction-type>
          <words default-x="143" default-y="-63" font-size="18" font-weight="bold" valign="top">&gt;</words>
        </direction-type>
        <offset>8</offset>
      </direction>
      <direction>
        <direction-type>
          <words default-x="193" default-y="6" font-weight="bold" valign="top">b</words>
        </direction-type>
        <offset>8</offset>
      </direction>
      <note default-x="62">
        <pitch>
          <step>G</step>
          <octave>4</octave>
        </pitch>
        <duration>8</duration>
        <voice>1</voice>
        <type>whole</type>
      </note>
      <note default-x="62">
        <chord/>
        <pitch>
          <step>B</step>
          <alter>-1</alter>
          <octave>4</octave>
        </pitch>
        <duration>8</duration>
        <voice>1</voice>
        <type>whole</type>
        <accidental>flat</accidental>
      </note>
      <note default-x="210">
        <pitch>
          <step>B</step>
          <alter>-1</alter>
          <octave>4</octave>
        </pitch>
        <duration>8</duration>
        <voice>1</voice>
        <type>whole</type>
      </note>
      <note default-x="210">
        <chord/>
        <pitch>
          <step>G</step>
          <octave>5</octave>
        </pitch>
        <duration>8</duration>
        <voice>1</voice>
        <type>whole</type>
      </note>
    </measure>
    <!--=======================================================-->
    <measure number="12" width="237">
      <direction>
        <direction-type>
          <words default-x="-63" default-y="83" font-size="14" font-weight="bold" valign="top">6t</words>
        </direction-type>
      </direction>
      <direction>
        <direction-type>
          <words default-x="20" default-y="-66" font-size="14" font-weight="bold" valign="top">4Đ</words>
        </direction-type>
      </direction>
      <direction>
        <direction-type>
          <words default-x="177" default-y="-69" font-size="14" font-weight="bold" valign="top">5Đ</words>
        </direction-type>
        <offset>8</offset>
      </direction>
      <direction>
        <direction-type>
          <words default-x="95" default-y="-61" font-size="18" font-weight="bold" valign="top">―</words>
        </direction-type>
      </direction>
      <direction>
        <direction-type>
          <words default-x="-121" default-y="90" font-size="18" font-weight="bold" valign="top">&gt;</words>
        </direction-type>
      </direction>
      <direction>
        <direction-type>
          <words default-x="115" default-y="-64" font-size="18" font-weight="bold" valign="top">&gt;</words>
        </direction-type>
        <offset>8</offset>
      </direction>
      <note default-x="27">
        <pitch>
          <step>F</step>
          <alter>1</alter>
          <octave>4</octave>
        </pitch>
        <duration>8</duration>
        <voice>1</voice>
        <type>whole</type>
        <accidental>sharp</accidental>
      </note>
      <note default-x="27">
        <chord/>
        <pitch>
          <step>B</step>
          <octave>4</octave>
        </pitch>
        <duration>8</duration>
        <voice>1</voice>
        <type>whole</type>
      </note>
      <note default-x="179">
        <pitch>
          <step>B</step>
          <octave>4</octave>
        </pitch>
        <duration>8</duration>
        <voice>1</voice>
        <type>whole</type>
      </note>
      <note default-x="179">
        <chord/>
        <pitch>
          <step>F</step>
          <alter>1</alter>
          <octave>5</octave>
        </pitch>
        <duration>8</duration>
        <voice>1</voice>
        <type>whole</type>
        <accidental>sharp</accidental>
      </note>
    </measure>
    <!--=======================================================-->
    <measure number="13" width="236">
      <direction>
        <direction-type>
          <words default-x="-56" default-y="85" font-size="14" font-weight="bold" valign="top">5Đ</words>
        </direction-type>
      </direction>
      <direction>
        <direction-type>
          <words default-x="28" default-y="-68" font-size="14" font-weight="bold" valign="top">7T</words>
        </direction-type>
      </direction>
      <direction>
        <direction-type>
          <words default-x="174" default-y="-68" font-size="14" font-weight="bold" valign="top">2t</words>
        </direction-type>
        <offset>8</offset>
      </direction>
      <direction>
        <direction-type>
          <words default-x="100" default-y="-62" font-size="18" font-weight="bold" valign="top">―</words>
        </direction-type>
        <offset>8</offset>
      </direction>
      <direction>
        <direction-type>
          <words default-x="119" default-y="-64" font-size="18" font-weight="bold" valign="top">&gt;</words>
        </direction-type>
        <offset>8</offset>
      </direction>
      <note default-x="27">
        <pitch>
          <step>A</step>
          <alter>-1</alter>
          <octave>4</octave>
        </pitch>
        <duration>8</duration>
        <voice>1</voice>
        <type>whole</type>
        <accidental>flat</accidental>
      </note>
      <note default-x="27">
        <chord/>
        <pitch>
          <step>G</step>
          <octave>5</octave>
        </pitch>
        <duration>8</duration>
        <voice>1</voice>
        <type>whole</type>
      </note>
      <note default-x="163">
        <pitch>
          <step>G</step>
          <octave>5</octave>
        </pitch>
        <duration>8</duration>
        <voice>1</voice>
        <type>whole</type>
      </note>
      <note default-x="177">
        <chord/>
        <pitch>
          <step>A</step>
          <alter>-1</alter>
          <octave>5</octave>
        </pitch>
        <duration>8</duration>
        <voice>1</voice>
        <type>whole</type>
        <accidental>flat</accidental>
      </note>
    </measure>
    <!--=======================================================-->
    <measure number="14" width="237">
      <direction>
        <direction-type>
          <words default-x="-82" default-y="85" font-size="14" font-weight="bold" valign="top">4Đ</words>
        </direction-type>
      </direction>
      <direction>
        <direction-type>
          <words default-x="20" default-y="-67" font-size="14" font-weight="bold" valign="top">6T</words>
        </direction-type>
      </direction>
      <direction>
        <direction-type>
          <words default-x="185" default-y="-69" font-size="14" font-weight="bold" valign="top">3t</words>
        </direction-type>
        <offset>8</offset>
      </direction>
      <direction>
        <direction-type>
          <words default-x="92" default-y="-61" font-size="18" font-weight="bold" valign="top">―</words>
        </direction-type>
      </direction>
      <direction>
        <direction-type>
          <words default-x="110" default-y="-63" font-size="18" font-weight="bold" valign="top">&gt;</words>
        </direction-type>
        <offset>8</offset>
      </direction>
      <direction>
        <direction-type>
          <words default-x="166" default-y="-9" valign="top">#</words>
        </direction-type>
        <offset>8</offset>
      </direction>
      <note default-x="26">
        <pitch>
          <step>B</step>
          <octave>3</octave>
        </pitch>
        <duration>8</duration>
        <voice>1</voice>
        <type>whole</type>
      </note>
      <note default-x="26">
        <chord/>
        <pitch>
          <step>G</step>
          <alter>1</alter>
          <octave>4</octave>
        </pitch>
        <duration>8</duration>
        <voice>1</voice>
        <type>whole</type>
        <accidental>sharp</accidental>
      </note>
      <note default-x="182">
        <pitch>
          <step>G</step>
          <alter>1</alter>
          <octave>4</octave>
        </pitch>
        <duration>8</duration>
        <voice>1</voice>
        <type>whole</type>
      </note>
      <note default-x="182">
        <chord/>
        <pitch>
          <step>B</step>
          <octave>4</octave>
        </pitch>
        <duration>8</duration>
        <voice>1</voice>
        <type>whole</type>
      </note>
    </measure>
    <!--=======================================================-->
    <measure number="15" width="983">
      <print new-system="yes">
        <system-layout>
          <system-distance>114</system-distance>
        </system-layout>
      </print>
      <note>
        <rest measure="yes"/>
        <duration>16</duration>
        <voice>1</voice>
      </note>
    </measure>
    <!--=======================================================-->
    <measure number="16" width="512">
      <print new-system="yes">
        <system-layout>
          <system-distance>114</system-distance>
        </system-layout>
      </print>
      <direction>
        <direction-type>
          <words default-x="-57" default-y="69" font-size="12" valign="top">Câu 4</words>
        </direction-type>
      </direction>
      <direction>
        <direction-type>
          <words default-x="92" default-y="-30" font-size="16" font-weight="bold" valign="top">=</words>
        </direction-type>
        <offset>8</offset>
      </direction>
      <direction>
        <direction-type>
          <words default-x="185" default-y="-32" font-size="16" font-weight="bold" valign="top">=</words>
        </direction-type>
        <offset>16</offset>
      </direction>
      <direction>
        <direction-type>
          <words default-x="280" default-y="-31" font-size="16" font-weight="bold" valign="top">=</words>
        </direction-type>
        <offset>24</offset>
      </direction>
      <direction>
        <direction-type>
          <words default-x="384" default-y="-31" font-size="16" font-weight="bold" valign="top">=</words>
        </direction-type>
        <offset>32</offset>
      </direction>
      <note default-x="53">
        <pitch>
          <step>C</step>
          <octave>4</octave>
        </pitch>
        <duration>8</duration>
        <voice>1</voice>
        <type>whole</type>
      </note>
      <note default-x="53">
        <chord/>
        <pitch>
          <step>E</step>
          <octave>4</octave>
        </pitch>
        <duration>8</duration>
        <voice>1</voice>
        <type>whole</type>
      </note>
      <note default-x="145">
        <pitch>
          <step>B</step>
          <alter>1</alter>
          <octave>3</octave>
        </pitch>
        <duration>8</duration>
        <voice>1</voice>
        <type>whole</type>
        <accidental>sharp</accidental>
      </note>
      <note default-x="145">
        <chord/>
        <pitch>
          <step>E</step>
          <octave>4</octave>
        </pitch>
        <duration>8</duration>
        <voice>1</voice>
        <type>whole</type>
      </note>
      <note default-x="237">
        <pitch>
          <step>C</step>
          <octave>4</octave>
        </pitch>
        <duration>8</duration>
        <voice>1</voice>
        <type>whole</type>
      </note>
      <note default-x="237">
        <chord/>
        <pitch>
          <step>F</step>
          <alter>-1</alter>
          <octave>4</octave>
        </pitch>
        <duration>8</duration>
        <voice>1</voice>
        <type>whole</type>
        <accidental>flat</accidental>
      </note>
      <note default-x="328">
        <pitch>
          <step>C</step>
          <octave>4</octave>
        </pitch>
        <duration>8</duration>
        <voice>1</voice>
        <type>whole</type>
      </note>
      <note default-x="342">
        <chord/>
        <pitch>
          <step>D</step>
          <alter>2</alter>
          <octave>4</octave>
        </pitch>
        <duration>8</duration>
        <voice>1</voice>
        <type>whole</type>
        <accidental>double-sharp</accidental>
      </note>
      <note default-x="440">
        <pitch>
          <step>D</step>
          <alter>-2</alter>
          <octave>4</octave>
        </pitch>
        <duration>8</duration>
        <voice>1</voice>
        <type>whole</type>
        <accidental>flat-flat</accidental>
      </note>
      <note default-x="455">
        <chord/>
        <pitch>
          <step>E</step>
          <octave>4</octave>
        </pitch>
        <duration>8</duration>
        <voice>1</voice>
        <type>whole</type>
      </note>
    </measure>
    <!--=======================================================-->
    <measure number="17" width="471">
      <direction>
        <direction-type>
          <words default-x="49" default-y="-20" font-size="16" font-weight="bold" valign="top">=</words>
        </direction-type>
        <offset>8</offset>
      </direction>
      <direction>
        <direction-type>
          <words default-x="140" default-y="-19" font-size="16" font-weight="bold" valign="top">=</words>
        </direction-type>
        <offset>8</offset>
      </direction>
      <direction>
        <direction-type>
          <words default-x="230" default-y="-20" font-size="16" font-weight="bold" valign="top">=</words>
        </direction-type>
        <offset>16</offset>
      </direction>
      <direction>
        <direction-type>
          <words default-x="326" default-y="-20" font-size="16" font-weight="bold" valign="top">=</words>
        </direction-type>
        <offset>24</offset>
      </direction>
      <note default-x="13">
        <pitch>
          <step>D</step>
          <octave>4</octave>
        </pitch>
        <duration>8</duration>
        <voice>1</voice>
        <type>whole</type>
      </note>
      <note default-x="13">
        <chord/>
        <pitch>
          <step>G</step>
          <octave>4</octave>
        </pitch>
        <duration>8</duration>
        <voice>1</voice>
        <type>whole</type>
      </note>
      <note default-x="104">
        <pitch>
          <step>D</step>
          <octave>4</octave>
        </pitch>
        <duration>8</duration>
        <voice>1</voice>
        <type>whole</type>
      </note>
      <note default-x="104">
        <chord/>
        <pitch>
          <step>A</step>
          <alter>-2</alter>
          <octave>4</octave>
        </pitch>
        <duration>8</duration>
        <voice>1</voice>
        <type>whole</type>
        <accidental>flat-flat</accidental>
      </note>
      <note default-x="196">
        <pitch>
          <step>C</step>
          <alter>2</alter>
          <octave>4</octave>
        </pitch>
        <duration>8</duration>
        <voice>1</voice>
        <type>whole</type>
        <accidental>double-sharp</accidental>
      </note>
      <note default-x="196">
        <chord/>
        <pitch>
          <step>G</step>
          <octave>4</octave>
        </pitch>
        <duration>8</duration>
        <voice>1</voice>
        <type>whole</type>
      </note>
      <note default-x="287">
        <pitch>
          <step>E</step>
          <alter>-2</alter>
          <octave>4</octave>
        </pitch>
        <duration>8</duration>
        <voice>1</voice>
        <type>whole</type>
        <accidental>flat-flat</accidental>
      </note>
      <note default-x="287">
        <chord/>
        <pitch>
          <step>G</step>
          <octave>4</octave>
        </pitch>
        <duration>8</duration>
        <voice>1</voice>
        <type>whole</type>
      </note>
      <note default-x="379">
        <pitch>
          <step>D</step>
          <octave>4</octave>
        </pitch>
        <duration>8</duration>
        <voice>1</voice>
        <type>whole</type>
      </note>
      <note default-x="379">
        <chord/>
        <pitch>
          <step>F</step>
          <alter>2</alter>
          <octave>4</octave>
        </pitch>
        <duration>8</duration>
        <voice>1</voice>
        <type>whole</type>
        <accidental>double-sharp</accidental>
      </note>
    </measure>
    <!--=======================================================-->
    <measure number="18" width="511">
      <print new-system="yes">
        <system-layout>
          <system-distance>114</system-distance>
        </system-layout>
      </print>
      <direction>
        <direction-type>
          <words default-x="53" default-y="75" font-size="14" font-weight="bold" valign="top">3T</words>
        </direction-type>
      </direction>
      <direction>
        <direction-type>
          <words default-x="55" default-y="-72" font-size="14" font-weight="bold" valign="top">5Đ</words>
        </direction-type>
      </direction>
      <direction>
        <direction-type>
          <words default-x="356" default-y="-10" font-size="16" font-weight="bold" valign="top">=</words>
        </direction-type>
        <offset>24</offset>
      </direction>
      <direction>
        <direction-type>
          <words default-x="270" default-y="-10" font-size="16" font-weight="bold" valign="top">=</words>
        </direction-type>
        <offset>16</offset>
      </direction>
      <direction>
        <direction-type>
          <words default-x="177" default-y="-10" font-size="16" font-weight="bold" valign="top">=</words>
        </direction-type>
        <offset>8</offset>
      </direction>
      <direction>
        <direction-type>
          <words default-x="86" default-y="-10" font-size="16" font-weight="bold" valign="top">=</words>
        </direction-type>
        <offset>8</offset>
      </direction>
      <note default-x="51">
        <pitch>
          <step>F</step>
          <octave>4</octave>
        </pitch>
        <duration>8</duration>
        <voice>1</voice>
        <type>whole</type>
      </note>
      <note default-x="51">
        <chord/>
        <pitch>
          <step>C</step>
          <octave>5</octave>
        </pitch>
        <duration>8</duration>
        <voice>1</voice>
        <type>whole</type>
      </note>
      <note default-x="142">
        <pitch>
          <step>E</step>
          <alter>1</alter>
          <octave>4</octave>
        </pitch>
        <duration>8</duration>
        <voice>1</voice>
        <type>whole</type>
        <accidental>sharp</accidental>
      </note>
      <note default-x="142">
        <chord/>
        <pitch>
          <step>C</step>
          <octave>5</octave>
        </pitch>
        <duration>8</duration>
        <voice>1</voice>
        <type>whole</type>
      </note>
      <note default-x="234">
        <pitch>
          <step>G</step>
          <alter>-2</alter>
          <octave>4</octave>
        </pitch>
        <duration>8</duration>
        <voice>1</voice>
        <type>whole</type>
        <accidental>flat-flat</accidental>
      </note>
      <note default-x="234">
        <chord/>
        <pitch>
          <step>C</step>
          <octave>5</octave>
        </pitch>
        <duration>8</duration>
        <voice>1</voice>
        <type>whole</type>
      </note>
      <note default-x="326">
        <pitch>
          <step>F</step>
          <octave>4</octave>
        </pitch>
        <duration>8</duration>
        <voice>1</voice>
        <type>whole</type>
      </note>
      <note default-x="326">
        <chord/>
        <pitch>
          <step>B</step>
          <alter>1</alter>
          <octave>4</octave>
        </pitch>
        <duration>8</duration>
        <voice>1</voice>
        <type>whole</type>
        <accidental>sharp</accidental>
      </note>
      <note default-x="418">
        <pitch>
          <step>F</step>
          <octave>4</octave>
        </pitch>
        <duration>8</duration>
        <voice>1</voice>
        <type>whole</type>
      </note>
      <note default-x="418">
        <chord/>
        <pitch>
          <step>D</step>
          <alter>-2</alter>
          <octave>5</octave>
        </pitch>
        <duration>8</duration>
        <voice>1</voice>
        <type>whole</type>
        <accidental>flat-flat</accidental>
      </note>
    </measure>
    <!--=======================================================-->
    <measure number="19" width="473">
      <direction>
        <direction-type>
          <words default-x="12" default-y="72" font-size="14" font-weight="bold" valign="top">4Đ</words>
        </direction-type>
      </direction>
      <direction>
        <direction-type>
          <words default-x="9" default-y="-67" font-size="14" font-weight="bold" valign="top">8Đ</words>
        </direction-type>
      </direction>
      <direction>
        <direction-type>
          <words default-x="331" default-y="-10" font-size="16" font-weight="bold" valign="top">=</words>
        </direction-type>
        <offset>32</offset>
      </direction>
      <direction>
        <direction-type>
          <words default-x="232" default-y="-10" font-size="16" font-weight="bold" valign="top">=</words>
        </direction-type>
        <offset>16</offset>
      </direction>
      <direction>
        <direction-type>
          <words default-x="143" default-y="-10" font-size="16" font-weight="bold" valign="top">=</words>
        </direction-type>
        <offset>16</offset>
      </direction>
      <direction>
        <direction-type>
          <words default-x="47" default-y="-10" font-size="16" font-weight="bold" valign="top">=</words>
        </direction-type>
      </direction>
      <note default-x="13">
        <pitch>
          <step>E</step>
          <octave>4</octave>
        </pitch>
        <duration>8</duration>
        <voice>1</voice>
        <type>whole</type>
      </note>
      <note default-x="13">
        <chord/>
        <pitch>
          <step>E</step>
          <octave>5</octave>
        </pitch>
        <duration>8</duration>
        <voice>1</voice>
        <type>whole</type>
      </note>
      <note default-x="105">
        <pitch>
          <step>F</step>
          <alter>-1</alter>
          <octave>4</octave>
        </pitch>
        <duration>8</duration>
        <voice>1</voice>
        <type>whole</type>
        <accidental>flat</accidental>
      </note>
      <note default-x="105">
        <chord/>
        <pitch>
          <step>E</step>
          <octave>5</octave>
        </pitch>
        <duration>8</duration>
        <voice>1</voice>
        <type>whole</type>
      </note>
      <note default-x="196">
        <pitch>
          <step>E</step>
          <octave>4</octave>
        </pitch>
        <duration>8</duration>
        <voice>1</voice>
        <type>whole</type>
      </note>
      <note default-x="196">
        <chord/>
        <pitch>
          <step>F</step>
          <alter>-1</alter>
          <octave>5</octave>
        </pitch>
        <duration>8</duration>
        <voice>1</voice>
        <type>whole</type>
        <accidental>flat</accidental>
      </note>
      <note default-x="288">
        <pitch>
          <step>D</step>
          <alter>2</alter>
          <octave>4</octave>
        </pitch>
        <duration>8</duration>
        <voice>1</voice>
        <type>whole</type>
        <accidental>double-sharp</accidental>
      </note>
      <note default-x="288">
        <chord/>
        <pitch>
          <step>E</step>
          <octave>5</octave>
        </pitch>
        <duration>8</duration>
        <voice>1</voice>
        <type>whole</type>
      </note>
      <note default-x="380">
        <pitch>
          <step>E</step>
          <octave>4</octave>
        </pitch>
        <duration>8</duration>
        <voice>1</voice>
        <type>whole</type>
      </note>
      <note default-x="380">
        <chord/>
        <pitch>
          <step>D</step>
          <alter>2</alter>
          <octave>5</octave>
        </pitch>
        <duration>8</duration>
        <voice>1</voice>
        <type>whole</type>
        <accidental>double-sharp</accidental>
      </note>
    </measure>
    <!--=======================================================-->
    <measure number="20" width="402">
      <print new-system="yes">
        <system-layout>
          <system-distance>114</system-distance>
        </system-layout>
      </print>
      <direction>
        <direction-type>
          <words default-x="345" default-y="6" font-weight="bold" valign="top">b</words>
        </direction-type>
        <offset>24</offset>
      </direction>
      <direction>
        <direction-type>
          <words default-x="112" default-y="-8" font-size="16" font-weight="bold" valign="top">=</words>
        </direction-type>
        <offset>8</offset>
      </direction>
      <direction>
        <direction-type>
          <words default-x="210" default-y="-9" font-size="16" font-weight="bold" valign="top">=</words>
        </direction-type>
        <offset>16</offset>
      </direction>
      <direction>
        <direction-type>
          <words default-x="307" default-y="-10" font-size="16" font-weight="bold" valign="top">=</words>
        </direction-type>
        <offset>24</offset>
      </direction>
      <direction>
        <direction-type>
          <words default-x="397" default-y="-9" font-size="16" font-weight="bold" valign="top">=</words>
        </direction-type>
        <offset>32</offset>
      </direction>
      <note default-x="62">
        <pitch>
          <step>G</step>
          <octave>4</octave>
        </pitch>
        <duration>8</duration>
        <voice>1</voice>
        <type>whole</type>
      </note>
      <note default-x="62">
        <chord/>
        <pitch>
          <step>B</step>
          <alter>-1</alter>
          <octave>4</octave>
        </pitch>
        <duration>8</duration>
        <voice>1</voice>
        <type>whole</type>
        <accidental>flat</accidental>
      </note>
      <note default-x="170">
        <pitch>
          <step>G</step>
          <octave>4</octave>
        </pitch>
        <duration>8</duration>
        <voice>1</voice>
        <type>whole</type>
      </note>
      <note default-x="170">
        <chord/>
        <pitch>
          <step>C</step>
          <alter>-2</alter>
          <octave>5</octave>
        </pitch>
        <duration>8</duration>
        <voice>1</voice>
        <type>whole</type>
        <accidental>flat-flat</accidental>
      </note>
      <note default-x="260">
        <pitch>
          <step>G</step>
          <octave>4</octave>
        </pitch>
        <duration>8</duration>
        <voice>1</voice>
        <type>whole</type>
      </note>
      <note default-x="274">
        <chord/>
        <pitch>
          <step>A</step>
          <alter>1</alter>
          <octave>4</octave>
        </pitch>
        <duration>8</duration>
        <voice>1</voice>
        <type>whole</type>
        <accidental>sharp</accidental>
      </note>
      <note default-x="361">
        <pitch>
          <step>F</step>
          <alter>2</alter>
          <octave>4</octave>
        </pitch>
        <duration>8</duration>
        <voice>1</voice>
        <type>whole</type>
        <accidental>double-sharp</accidental>
      </note>
      <note default-x="361">
        <chord/>
        <pitch>
          <step>B</step>
          <alter>-1</alter>
          <octave>4</octave>
        </pitch>
        <duration>8</duration>
        <voice>1</voice>
        <type>whole</type>
      </note>
      <barline location="right">
        <bar-style>none</bar-style>
      </barline>
    </measure>
    <!--=======================================================-->
    <measure number="21" width="129">
      <note default-x="66">
        <pitch>
          <step>A</step>
          <alter>-2</alter>
          <octave>4</octave>
        </pitch>
        <duration>8</duration>
        <voice>1</voice>
        <type>whole</type>
        <accidental>flat-flat</accidental>
      </note>
      <note default-x="80">
        <chord/>
        <pitch>
          <step>B</step>
          <alter>-1</alter>
          <octave>4</octave>
        </pitch>
        <duration>8</duration>
        <voice>1</voice>
        <type>whole</type>
        <accidental>flat</accidental>
      </note>
    </measure>
    <!--=======================================================-->
    <measure number="22" width="452">
      <direction>
        <direction-type>
          <words default-x="266" default-y="-15" valign="top">#</words>
        </direction-type>
        <offset>24</offset>
      </direction>
      <direction>
        <direction-type>
          <words default-x="340" default-y="-14" valign="top">#</words>
        </direction-type>
        <offset>32</offset>
      </direction>
      <direction>
        <direction-type>
          <words default-x="59" default-y="-10" font-size="16" font-weight="bold" valign="top">=</words>
        </direction-type>
        <offset>8</offset>
      </direction>
      <direction>
        <direction-type>
          <words default-x="145" default-y="-9" font-size="16" font-weight="bold" valign="top">=</words>
        </direction-type>
        <offset>8</offset>
      </direction>
      <direction>
        <direction-type>
          <words default-x="229" default-y="-9" font-size="16" font-weight="bold" valign="top">=</words>
        </direction-type>
        <offset>16</offset>
      </direction>
      <direction>
        <direction-type>
          <words default-x="309" default-y="-9" font-size="16" font-weight="bold" valign="top">=</words>
        </direction-type>
        <offset>24</offset>
      </direction>
      <note default-x="26">
        <pitch>
          <step>F</step>
          <alter>1</alter>
          <octave>4</octave>
        </pitch>
        <duration>8</duration>
        <voice>1</voice>
        <type>whole</type>
        <accidental>sharp</accidental>
      </note>
      <note default-x="26">
        <chord/>
        <pitch>
          <step>B</step>
          <octave>4</octave>
        </pitch>
        <duration>8</duration>
        <voice>1</voice>
        <type>whole</type>
      </note>
      <note default-x="111">
        <pitch>
          <step>E</step>
          <alter>2</alter>
          <octave>4</octave>
        </pitch>
        <duration>8</duration>
        <voice>1</voice>
        <type>whole</type>
        <accidental>double-sharp</accidental>
      </note>
      <note default-x="111">
        <chord/>
        <pitch>
          <step>B</step>
          <octave>4</octave>
        </pitch>
        <duration>8</duration>
        <voice>1</voice>
        <type>whole</type>
      </note>
      <note default-x="196">
        <pitch>
          <step>G</step>
          <alter>-1</alter>
          <octave>4</octave>
        </pitch>
        <duration>8</duration>
        <voice>1</voice>
        <type>whole</type>
        <accidental>flat</accidental>
      </note>
      <note default-x="196">
        <chord/>
        <pitch>
          <step>B</step>
          <octave>4</octave>
        </pitch>
        <duration>8</duration>
        <voice>1</voice>
        <type>whole</type>
      </note>
      <note default-x="281">
        <pitch>
          <step>F</step>
          <alter>1</alter>
          <octave>4</octave>
        </pitch>
        <duration>8</duration>
        <voice>1</voice>
        <type>whole</type>
      </note>
      <note default-x="281">
        <chord/>
        <pitch>
          <step>C</step>
          <alter>-1</alter>
          <octave>5</octave>
        </pitch>
        <duration>8</duration>
        <voice>1</voice>
        <type>whole</type>
        <accidental>flat</accidental>
      </note>
      <note default-x="367">
        <pitch>
          <step>F</step>
          <alter>1</alter>
          <octave>4</octave>
        </pitch>
        <duration>8</duration>
        <voice>1</voice>
        <type>whole</type>
      </note>
      <note default-x="367">
        <chord/>
        <pitch>
          <step>A</step>
          <alter>2</alter>
          <octave>4</octave>
        </pitch>
        <duration>8</duration>
        <voice>1</voice>
        <type>whole</type>
        <accidental>double-sharp</accidental>
      </note>
    </measure>
    <!--=======================================================-->
    <measure number="23" width="510">
      <print new-page="yes"/>
      <direction>
        <direction-type>
          <words default-x="59" default-y="-69" font-size="14" font-weight="bold" valign="top">7T</words>
        </direction-type>
      </direction>
      <note default-x="62">
        <pitch>
          <step>A</step>
          <alter>-1</alter>
          <octave>4</octave>
        </pitch>
        <duration>8</duration>
        <voice>1</voice>
        <type>whole</type>
        <accidental>flat</accidental>
      </note>
      <note default-x="62">
        <chord/>
        <pitch>
          <step>G</step>
          <octave>5</octave>
        </pitch>
        <duration>8</duration>
        <voice>1</voice>
        <type>whole</type>
      </note>
      <note default-x="174">
        <pitch>
          <step>G</step>
          <alter>1</alter>
          <octave>4</octave>
        </pitch>
        <duration>8</duration>
        <voice>1</voice>
        <type>whole</type>
        <accidental>sharp</accidental>
      </note>
      <note default-x="174">
        <chord/>
        <pitch>
          <step>G</step>
          <octave>5</octave>
        </pitch>
        <duration>8</duration>
        <voice>1</voice>
        <type>whole</type>
      </note>
      <note default-x="286">
        <pitch>
          <step>A</step>
          <alter>-1</alter>
          <octave>4</octave>
        </pitch>
        <duration>8</duration>
        <voice>1</voice>
        <type>whole</type>
      </note>
      <note default-x="286">
        <chord/>
        <pitch>
          <step>F</step>
          <alter>2</alter>
          <octave>5</octave>
        </pitch>
        <duration>8</duration>
        <voice>1</voice>
        <type>whole</type>
        <accidental>double-sharp</accidental>
      </note>
      <note default-x="398">
        <pitch>
          <step>A</step>
          <alter>-1</alter>
          <octave>4</octave>
        </pitch>
        <duration>8</duration>
        <voice>1</voice>
        <type>whole</type>
      </note>
      <note default-x="398">
        <chord/>
        <pitch>
          <step>A</step>
          <alter>-2</alter>
          <octave>5</octave>
        </pitch>
        <duration>8</duration>
        <voice>1</voice>
        <type>whole</type>
        <accidental>flat-flat</accidental>
      </note>
    </measure>
    <!--=======================================================-->
    <measure number="24" width="473">
      <direction>
        <direction-type>
          <words default-x="17" default-y="-71" font-size="14" font-weight="bold" valign="top">6T</words>
        </direction-type>
      </direction>
      <direction>
        <direction-type>
          <words default-x="113" default-y="-9" valign="top">#</words>
        </direction-type>
        <offset>8</offset>
      </direction>
      <direction>
        <direction-type>
          <words default-x="233" default-y="-9" valign="top">#</words>
        </direction-type>
        <offset>16</offset>
      </direction>
      <direction>
        <direction-type>
          <words default-x="64" default-y="-16" font-size="16" font-weight="bold" valign="top">=</words>
        </direction-type>
        <offset>8</offset>
      </direction>
      <direction>
        <direction-type>
          <words default-x="180" default-y="-16" font-size="16" font-weight="bold" valign="top">=</words>
        </direction-type>
        <offset>16</offset>
      </direction>
      <direction>
        <direction-type>
          <words default-x="296" default-y="-16" font-size="16" font-weight="bold" valign="top">=</words>
        </direction-type>
        <offset>24</offset>
      </direction>
      <note default-x="26">
        <pitch>
          <step>B</step>
          <octave>3</octave>
        </pitch>
        <duration>8</duration>
        <voice>1</voice>
        <type>whole</type>
      </note>
      <note default-x="26">
        <chord/>
        <pitch>
          <step>G</step>
          <alter>1</alter>
          <octave>4</octave>
        </pitch>
        <duration>8</duration>
        <voice>1</voice>
        <type>whole</type>
        <accidental>sharp</accidental>
      </note>
      <note default-x="138">
        <pitch>
          <step>C</step>
          <alter>-1</alter>
          <octave>4</octave>
        </pitch>
        <duration>8</duration>
        <voice>1</voice>
        <type>whole</type>
        <accidental>flat</accidental>
      </note>
      <note default-x="138">
        <chord/>
        <pitch>
          <step>G</step>
          <alter>1</alter>
          <octave>4</octave>
        </pitch>
        <duration>8</duration>
        <voice>1</voice>
        <type>whole</type>
      </note>
      <note default-x="249">
        <pitch>
          <step>A</step>
          <alter>2</alter>
          <octave>3</octave>
        </pitch>
        <duration>8</duration>
        <voice>1</voice>
        <type>whole</type>
        <accidental>double-sharp</accidental>
      </note>
      <note default-x="249">
        <chord/>
        <pitch>
          <step>G</step>
          <alter>1</alter>
          <octave>4</octave>
        </pitch>
        <duration>8</duration>
        <voice>1</voice>
        <type>whole</type>
      </note>
      <note default-x="361">
        <pitch>
          <step>B</step>
          <octave>3</octave>
        </pitch>
        <duration>8</duration>
        <voice>1</voice>
        <type>whole</type>
      </note>
      <note default-x="361">
        <chord/>
        <pitch>
          <step>A</step>
          <alter>-1</alter>
          <octave>4</octave>
        </pitch>
        <duration>8</duration>
        <voice>1</voice>
        <type>whole</type>
        <accidental>flat</accidental>
      </note>
    </measure>
    <!--=======================================================-->
    <measure number="25" width="983">
      <print new-system="yes">
        <system-layout>
          <system-distance>114</system-distance>
        </system-layout>
      </print>
      <note>
        <rest measure="yes"/>
        <duration>40</duration>
        <voice>1</voice>
      </note>
    </measure>
    <!--=======================================================-->
    <measure number="26" width="450">
      <print new-system="yes">
        <system-layout>
          <system-distance>114</system-distance>
        </system-layout>
      </print>
      <direction>
        <direction-type>
          <words default-x="-64" default-y="57" font-size="12" valign="top">Câu 5</words>
        </direction-type>
      </direction>
      <direction>
        <direction-type>
          <words default-x="235" default-y="-67" font-size="12" valign="top">hoặc</words>
        </direction-type>
        <offset>8</offset>
      </direction>
      <direction>
        <direction-type>
          <words default-x="106" default-y="-72" font-size="18" font-weight="bold" valign="top">―</words>
        </direction-type>
        <offset>8</offset>
      </direction>
      <direction>
        <direction-type>
          <words default-x="126" default-y="-75" font-size="18" font-weight="bold" valign="top">&gt;</words>
        </direction-type>
        <offset>8</offset>
      </direction>
      <note default-x="53">
        <pitch>
          <step>C</step>
          <octave>4</octave>
        </pitch>
        <duration>8</duration>
        <voice>1</voice>
        <type>whole</type>
      </note>
      <note default-x="53">
        <chord/>
        <pitch>
          <step>E</step>
          <octave>4</octave>
        </pitch>
        <duration>8</duration>
        <voice>1</voice>
        <type>whole</type>
      </note>
      <note default-x="183">
        <pitch>
          <step>C</step>
          <octave>4</octave>
        </pitch>
        <duration>8</duration>
        <voice>1</voice>
        <type>whole</type>
      </note>
      <note default-x="183">
        <chord/>
        <pitch>
          <step>E</step>
          <alter>1</alter>
          <octave>4</octave>
        </pitch>
        <duration>8</duration>
        <voice>1</voice>
        <type>whole</type>
        <accidental>sharp</accidental>
      </note>
      <note default-x="312">
        <pitch>
          <step>C</step>
          <alter>-1</alter>
          <octave>4</octave>
        </pitch>
        <duration>8</duration>
        <voice>1</voice>
        <type>whole</type>
        <accidental>flat</accidental>
      </note>
      <note default-x="312">
        <chord/>
        <pitch>
          <step>E</step>
          <alter>1</alter>
          <octave>4</octave>
        </pitch>
        <duration>8</duration>
        <voice>1</voice>
        <type>whole</type>
      </note>
      <barline location="right">
        <bar-style>light-light</bar-style>
      </barline>
    </measure>
    <!--=======================================================-->
    <measure number="27" width="534">
      <direction>
        <direction-type>
          <words default-x="17" default-y="-79" font-size="14" font-weight="bold" valign="top">4Đ</words>
        </direction-type>
      </direction>
      <note default-x="12">
        <pitch>
          <step>D</step>
          <octave>4</octave>
        </pitch>
        <duration>8</duration>
        <voice>1</voice>
        <type>whole</type>
      </note>
      <note default-x="12">
        <chord/>
        <pitch>
          <step>G</step>
          <octave>4</octave>
        </pitch>
        <duration>8</duration>
        <voice>1</voice>
        <type>whole</type>
      </note>
      <note default-x="141">
        <pitch>
          <step>D</step>
          <octave>4</octave>
        </pitch>
        <duration>8</duration>
        <voice>1</voice>
        <type>whole</type>
      </note>
      <note default-x="141">
        <chord/>
        <pitch>
          <step>G</step>
          <alter>1</alter>
          <octave>4</octave>
        </pitch>
        <duration>8</duration>
        <voice>1</voice>
        <type>whole</type>
        <accidental>sharp</accidental>
      </note>
      <note default-x="269">
        <pitch>
          <step>D</step>
          <alter>-1</alter>
          <octave>4</octave>
        </pitch>
        <duration>8</duration>
        <voice>1</voice>
        <type>whole</type>
        <accidental>flat</accidental>
      </note>
      <note default-x="269">
        <chord/>
        <pitch>
          <step>G</step>
          <alter>1</alter>
          <octave>4</octave>
        </pitch>
        <duration>8</duration>
        <voice>1</voice>
        <type>whole</type>
      </note>
      <note default-x="398">
        <pitch>
          <step>D</step>
          <alter>1</alter>
          <octave>4</octave>
        </pitch>
        <duration>8</duration>
        <voice>1</voice>
        <type>whole</type>
        <accidental>sharp</accidental>
      </note>
      <note default-x="398">
        <chord/>
        <pitch>
          <step>G</step>
          <alter>1</alter>
          <octave>4</octave>
        </pitch>
        <duration>8</duration>
        <voice>1</voice>
        <type>whole</type>
      </note>
      <barline location="right">
        <bar-style>light-light</bar-style>
      </barline>
    </measure>
    <!--=======================================================-->
    <measure number="28" width="512">
      <print new-system="yes">
        <system-layout>
          <system-distance>114</system-distance>
        </system-layout>
      </print>
      <direction>
        <direction-type>
          <words default-x="54" default-y="75" font-size="14" font-weight="bold" valign="top">3T</words>
        </direction-type>
      </direction>
      <direction>
        <direction-type>
          <words default-x="180" default-y="74" font-size="14" font-weight="bold" valign="top">3tg</words>
        </direction-type>
        <offset>16</offset>
      </direction>
      <direction>
        <direction-type>
          <words default-x="310" default-y="74" font-size="14" font-weight="bold" valign="top">3tg</words>
        </direction-type>
        <offset>24</offset>
      </direction>
      <direction>
        <direction-type>
          <words default-x="49" default-y="-76" font-size="14" font-weight="bold" valign="top">5Đ</words>
        </direction-type>
      </direction>
      <direction>
        <direction-type>
          <words default-x="149" default-y="-75" font-size="14" font-weight="bold" valign="top">5tg</words>
        </direction-type>
        <offset>8</offset>
      </direction>
      <direction>
        <direction-type>
          <words default-x="192" default-y="-50" font-size="12" valign="top">hoặc</words>
        </direction-type>
        <offset>16</offset>
      </direction>
      <direction>
        <direction-type>
          <words default-x="95" default-y="-69" font-size="18" font-weight="bold" valign="top">―</words>
        </direction-type>
        <offset>8</offset>
      </direction>
      <direction>
        <direction-type>
          <words default-x="113" default-y="-71" font-size="18" font-weight="bold" valign="top">&gt;</words>
        </direction-type>
        <offset>8</offset>
      </direction>
      <note default-x="51">
        <pitch>
          <step>F</step>
          <octave>4</octave>
        </pitch>
        <duration>8</duration>
        <voice>1</voice>
        <type>whole</type>
      </note>
      <note default-x="51">
        <chord/>
        <pitch>
          <step>C</step>
          <octave>5</octave>
        </pitch>
        <duration>8</duration>
        <voice>1</voice>
        <type>whole</type>
      </note>
      <note default-x="141">
        <pitch>
          <step>F</step>
          <octave>4</octave>
        </pitch>
        <duration>8</duration>
        <voice>1</voice>
        <type>whole</type>
      </note>
      <note default-x="141">
        <chord/>
        <pitch>
          <step>C</step>
          <alter>1</alter>
          <octave>5</octave>
        </pitch>
        <duration>8</duration>
        <voice>1</voice>
        <type>whole</type>
        <accidental>sharp</accidental>
      </note>
      <note default-x="232">
        <pitch>
          <step>F</step>
          <alter>-1</alter>
          <octave>4</octave>
        </pitch>
        <duration>8</duration>
        <voice>1</voice>
        <type>whole</type>
        <accidental>flat</accidental>
      </note>
      <note default-x="232">
        <chord/>
        <pitch>
          <step>C</step>
          <alter>1</alter>
          <octave>5</octave>
        </pitch>
        <duration>8</duration>
        <voice>1</voice>
        <type>whole</type>
      </note>
      <note default-x="322">
        <pitch>
          <step>F</step>
          <alter>1</alter>
          <octave>4</octave>
        </pitch>
        <duration>8</duration>
        <voice>1</voice>
        <type>whole</type>
        <accidental>sharp</accidental>
      </note>
      <note default-x="322">
        <chord/>
        <pitch>
          <step>C</step>
          <alter>1</alter>
          <octave>5</octave>
        </pitch>
        <duration>8</duration>
        <voice>1</voice>
        <type>whole</type>
      </note>
      <note default-x="413">
        <pitch>
          <step>F</step>
          <alter>1</alter>
          <octave>4</octave>
        </pitch>
        <duration>8</duration>
        <voice>1</voice>
        <type>whole</type>
      </note>
      <note default-x="413">
        <chord/>
        <pitch>
          <step>C</step>
          <alter>-1</alter>
          <octave>5</octave>
        </pitch>
        <duration>8</duration>
        <voice>1</voice>
        <type>whole</type>
        <accidental>flat</accidental>
      </note>
      <barline location="right">
        <bar-style>light-light</bar-style>
      </barline>
    </measure>
    <!--=======================================================-->
    <measure number="29" width="472">
      <direction>
        <direction-type>
          <words default-x="205" default-y="78" font-size="14" font-weight="bold" valign="top">4tg</words>
        </direction-type>
        <offset>16</offset>
      </direction>
      <direction>
        <direction-type>
          <words default-x="76" default-y="77" font-size="14" font-weight="bold" valign="top">4g</words>
        </direction-type>
        <offset>8</offset>
      </direction>
      <direction>
        <direction-type>
          <words default-x="333" default-y="76" font-size="14" font-weight="bold" valign="top">4g</words>
        </direction-type>
        <offset>32</offset>
      </direction>
      <direction>
        <direction-type>
          <words default-x="-57" default-y="-70" font-size="14" font-weight="bold" valign="top">5g</words>
        </direction-type>
      </direction>
      <direction>
        <direction-type>
          <words default-x="16" default-y="-75" font-size="14" font-weight="bold" valign="top">8Đ</words>
        </direction-type>
      </direction>
      <direction>
        <direction-type>
          <words default-x="116" default-y="-74" font-size="14" font-weight="bold" valign="top">8tg</words>
        </direction-type>
        <offset>8</offset>
      </direction>
      <direction>
        <direction-type>
          <words default-x="220" default-y="-72" font-size="14" font-weight="bold" valign="top">8tg</words>
        </direction-type>
        <offset>16</offset>
      </direction>
      <direction>
        <direction-type>
          <words default-x="325" default-y="-72" font-size="14" font-weight="bold" valign="top">8g</words>
        </direction-type>
        <offset>24</offset>
      </direction>
      <direction>
        <direction-type>
          <words default-x="422" default-y="-70" font-size="14" font-weight="bold" valign="top">8g</words>
        </direction-type>
        <offset>40</offset>
      </direction>
      <direction>
        <direction-type>
          <words default-x="133" default-y="93" font-size="12" valign="top">hoặc</words>
        </direction-type>
        <offset>8</offset>
      </direction>
      <direction>
        <direction-type>
          <words default-x="263" default-y="85" font-size="12" valign="top">hoặc</words>
        </direction-type>
        <offset>24</offset>
      </direction>
      <direction>
        <direction-type>
          <words default-x="159" default-y="-54" font-size="12" valign="top">hoặc</words>
        </direction-type>
        <offset>16</offset>
      </direction>
      <direction>
        <direction-type>
          <words default-x="263" default-y="-54" font-size="12" valign="top">hoặc</words>
        </direction-type>
        <offset>24</offset>
      </direction>
      <direction>
        <direction-type>
          <words default-x="362" default-y="-55" font-size="12" valign="top">hoặc</words>
        </direction-type>
        <offset>32</offset>
      </direction>
      <direction>
        <direction-type>
          <words default-x="3" default-y="82" font-size="18" font-weight="bold" valign="top">―</words>
        </direction-type>
      </direction>
      <direction>
        <direction-type>
          <words default-x="56" default-y="-67" font-size="18" font-weight="bold" valign="top">―</words>
        </direction-type>
        <offset>8</offset>
      </direction>
      <direction>
        <direction-type>
          <words default-x="21" default-y="79" font-size="18" font-weight="bold" valign="top">&gt;</words>
        </direction-type>
      </direction>
      <direction>
        <direction-type>
          <words default-x="74" default-y="-70" font-size="18" font-weight="bold" valign="top">&gt;</words>
        </direction-type>
        <offset>8</offset>
      </direction>
      <note default-x="12">
        <pitch>
          <step>E</step>
          <octave>4</octave>
        </pitch>
        <duration>8</duration>
        <voice>1</voice>
        <type>whole</type>
      </note>
      <note default-x="12">
        <chord/>
        <pitch>
          <step>E</step>
          <octave>5</octave>
        </pitch>
        <duration>8</duration>
        <voice>1</voice>
        <type>whole</type>
      </note>
      <note default-x="103">
        <pitch>
          <step>E</step>
          <octave>4</octave>
        </pitch>
        <duration>8</duration>
        <voice>1</voice>
        <type>whole</type>
      </note>
      <note default-x="103">
        <chord/>
        <pitch>
          <step>E</step>
          <alter>1</alter>
          <octave>5</octave>
        </pitch>
        <duration>8</duration>
        <voice>1</voice>
        <type>whole</type>
        <accidental>sharp</accidental>
      </note>
      <note default-x="193">
        <pitch>
          <step>E</step>
          <alter>-1</alter>
          <octave>4</octave>
        </pitch>
        <duration>8</duration>
        <voice>1</voice>
        <type>whole</type>
        <accidental>flat</accidental>
      </note>
      <note default-x="193">
        <chord/>
        <pitch>
          <step>E</step>
          <alter>1</alter>
          <octave>5</octave>
        </pitch>
        <duration>8</duration>
        <voice>1</voice>
        <type>whole</type>
      </note>
      <note default-x="283">
        <pitch>
          <step>E</step>
          <alter>1</alter>
          <octave>4</octave>
        </pitch>
        <duration>8</duration>
        <voice>1</voice>
        <type>whole</type>
        <accidental>sharp</accidental>
      </note>
      <note default-x="283">
        <chord/>
        <pitch>
          <step>E</step>
          <alter>1</alter>
          <octave>5</octave>
        </pitch>
        <duration>8</duration>
        <voice>1</voice>
        <type>whole</type>
      </note>
      <note default-x="374">
        <pitch>
          <step>E</step>
          <alter>1</alter>
          <octave>4</octave>
        </pitch>
        <duration>8</duration>
        <voice>1</voice>
        <type>whole</type>
      </note>
      <note default-x="374">
        <chord/>
        <pitch>
          <step>E</step>
          <alter>-1</alter>
          <octave>5</octave>
        </pitch>
        <duration>8</duration>
        <voice>1</voice>
        <type>whole</type>
        <accidental>flat</accidental>
      </note>
      <barline location="right">
        <bar-style>light-light</bar-style>
      </barline>
    </measure>
    <!--=======================================================-->
    <measure number="30" width="402">
      <print new-system="yes">
        <system-layout>
          <system-distance>114</system-distance>
        </system-layout>
      </print>
      <direction>
        <direction-type>
          <words default-x="68" default-y="-65" font-size="14" font-weight="bold" valign="top">3t</words>
        </direction-type>
      </direction>
      <direction>
        <direction-type>
          <words default-x="193" default-y="-66" font-size="14" font-weight="bold" valign="top">3g</words>
        </direction-type>
        <offset>8</offset>
      </direction>
      <direction>
        <direction-type>
          <words default-x="180" default-y="7" font-weight="bold" valign="top">b</words>
        </direction-type>
        <offset>8</offset>
      </direction>
      <direction>
        <direction-type>
          <words default-x="245" default-y="-53" font-size="12" valign="top">hoặc</words>
        </direction-type>
        <offset>16</offset>
      </direction>
      <direction>
        <direction-type>
          <words default-x="111" default-y="-57" font-size="18" font-weight="bold" valign="top">―</words>
        </direction-type>
        <offset>8</offset>
      </direction>
      <direction>
        <direction-type>
          <words default-x="130" default-y="-60" font-size="18" font-weight="bold" valign="top">&gt;</words>
        </direction-type>
        <offset>8</offset>
      </direction>
      <note default-x="62">
        <pitch>
          <step>G</step>
          <octave>4</octave>
        </pitch>
        <duration>8</duration>
        <voice>1</voice>
        <type>whole</type>
      </note>
      <note default-x="62">
        <chord/>
        <pitch>
          <step>B</step>
          <alter>-1</alter>
          <octave>4</octave>
        </pitch>
        <duration>8</duration>
        <voice>1</voice>
        <type>whole</type>
        <accidental>flat</accidental>
      </note>
      <note default-x="173">
        <pitch>
          <step>G</step>
          <alter>1</alter>
          <octave>4</octave>
        </pitch>
        <duration>8</duration>
        <voice>1</voice>
        <type>whole</type>
        <accidental>sharp</accidental>
      </note>
      <note default-x="173">
        <chord/>
        <pitch>
          <step>B</step>
          <alter>-1</alter>
          <octave>4</octave>
        </pitch>
        <duration>8</duration>
        <voice>1</voice>
        <type>whole</type>
      </note>
      <note default-x="283">
        <pitch>
          <step>G</step>
          <alter>1</alter>
          <octave>4</octave>
        </pitch>
        <duration>8</duration>
        <voice>1</voice>
        <type>whole</type>
      </note>
      <note default-x="283">
        <chord/>
        <pitch>
          <step>B</step>
          <alter>-2</alter>
          <octave>4</octave>
        </pitch>
        <duration>8</duration>
        <voice>1</voice>
        <type>whole</type>
        <accidental>flat-flat</accidental>
      </note>
      <barline location="right">
        <bar-style>light-light</bar-style>
      </barline>
    </measure>
    <!--=======================================================-->
    <measure number="31" width="582">
      <direction>
        <direction-type>
          <words default-x="-153" default-y="81" font-size="14" font-weight="bold" valign="top">5tg</words>
        </direction-type>
      </direction>
      <direction>
        <direction-type>
          <words default-x="-48" default-y="80" font-size="14" font-weight="bold" valign="top">5g</words>
        </direction-type>
      </direction>
      <direction>
        <direction-type>
          <words default-x="17" default-y="-69" font-size="14" font-weight="bold" valign="top">4Đ</words>
        </direction-type>
      </direction>
      <direction>
        <direction-type>
          <words default-x="132" default-y="-65" font-size="14" font-weight="bold" valign="top">4g</words>
        </direction-type>
        <offset>8</offset>
      </direction>
      <direction>
        <direction-type>
          <words default-x="229" default-y="-64" font-size="14" font-weight="bold" valign="top">4tg</words>
        </direction-type>
        <offset>16</offset>
      </direction>
      <direction>
        <direction-type>
          <words default-x="-104" default-y="102" font-size="12" valign="top">hoặc</words>
        </direction-type>
      </direction>
      <direction>
        <direction-type>
          <words default-x="-6" default-y="99" font-size="12" valign="top">hoặc</words>
        </direction-type>
      </direction>
      <direction>
        <direction-type>
          <words default-x="172" default-y="-50" font-size="12" valign="top">hoặc</words>
        </direction-type>
        <offset>8</offset>
      </direction>
      <direction>
        <direction-type>
          <words default-x="66" default-y="-61" font-size="18" font-weight="bold" valign="top">―</words>
        </direction-type>
        <offset>8</offset>
      </direction>
      <direction>
        <direction-type>
          <words default-x="85" default-y="-63" font-size="18" font-weight="bold" valign="top">&gt;</words>
        </direction-type>
        <offset>8</offset>
      </direction>
      <note default-x="25">
        <pitch>
          <step>F</step>
          <alter>1</alter>
          <octave>4</octave>
        </pitch>
        <duration>8</duration>
        <voice>1</voice>
        <type>whole</type>
        <accidental>sharp</accidental>
      </note>
      <note default-x="25">
        <chord/>
        <pitch>
          <step>B</step>
          <octave>4</octave>
        </pitch>
        <duration>8</duration>
        <voice>1</voice>
        <type>whole</type>
      </note>
      <note default-x="135">
        <pitch>
          <step>F</step>
          <alter>2</alter>
          <octave>4</octave>
        </pitch>
        <duration>8</duration>
        <voice>1</voice>
        <type>whole</type>
        <accidental>double-sharp</accidental>
      </note>
      <note default-x="135">
        <chord/>
        <pitch>
          <step>B</step>
          <octave>4</octave>
        </pitch>
        <duration>8</duration>
        <voice>1</voice>
        <type>whole</type>
      </note>
      <note default-x="245">
        <pitch>
          <step>F</step>
          <alter>1</alter>
          <octave>4</octave>
        </pitch>
        <duration>8</duration>
        <voice>1</voice>
        <type>whole</type>
        <accidental>sharp</accidental>
      </note>
      <note default-x="245">
        <chord/>
        <pitch>
          <step>B</step>
          <alter>1</alter>
          <octave>4</octave>
        </pitch>
        <duration>8</duration>
        <voice>1</voice>
        <type>whole</type>
        <accidental>sharp</accidental>
      </note>
      <note default-x="355">
        <pitch>
          <step>F</step>
          <alter>2</alter>
          <octave>4</octave>
        </pitch>
        <duration>8</duration>
        <voice>1</voice>
        <type>whole</type>
        <accidental>double-sharp</accidental>
      </note>
      <note default-x="355">
        <chord/>
        <pitch>
          <step>B</step>
          <alter>1</alter>
          <octave>4</octave>
        </pitch>
        <duration>8</duration>
        <voice>1</voice>
        <type>whole</type>
      </note>
      <note default-x="465">
        <pitch>
          <step>F</step>
          <alter>1</alter>
          <octave>4</octave>
        </pitch>
        <duration>8</duration>
        <voice>1</voice>
        <type>whole</type>
        <accidental>sharp</accidental>
      </note>
      <note default-x="465">
        <chord/>
        <pitch>
          <step>B</step>
          <alter>-1</alter>
          <octave>4</octave>
        </pitch>
        <duration>8</duration>
        <voice>1</voice>
        <type>whole</type>
        <accidental>flat</accidental>
      </note>
      <barline location="right">
        <bar-style>light-light</bar-style>
      </barline>
    </measure>
    <!--=======================================================-->
    <measure number="32" width="983">
      <print new-system="yes">
        <system-layout>
          <system-distance>114</system-distance>
        </system-layout>
      </print>
      <note>
        <rest measure="yes"/>
        <duration>40</duration>
        <voice>1</voice>
      </note>
      <barline location="right">
        <bar-style>light-light</bar-style>
      </barline>
    </measure>
    <!--=======================================================-->
    <measure number="33" width="253">
      <print new-system="yes">
        <system-layout>
          <system-distance>114</system-distance>
        </system-layout>
      </print>
      <attributes>
        <key>
          <fifths>3</fifths>
          <mode>major</mode>
        </key>
      </attributes>
      <direction>
        <direction-type>
          <words default-x="-43" default-y="71" font-size="12" valign="top">Câu 8</words>
        </direction-type>
      </direction>
      <note default-x="204">
        <pitch>
          <step>E</step>
          <octave>4</octave>
        </pitch>
        <duration>8</duration>
        <voice>1</voice>
        <type>whole</type>
      </note>
      <note default-x="204">
        <chord/>
        <pitch>
          <step>G</step>
          <alter>1</alter>
          <octave>4</octave>
        </pitch>
        <duration>8</duration>
        <voice>1</voice>
        <type>whole</type>
      </note>
      <note default-x="204">
        <chord/>
        <pitch>
          <step>B</step>
          <octave>4</octave>
        </pitch>
        <duration>8</duration>
        <voice>1</voice>
        <type>whole</type>
      </note>
      <note default-x="204">
        <chord/>
        <pitch>
          <step>D</step>
          <octave>5</octave>
        </pitch>
        <duration>8</duration>
        <voice>1</voice>
        <type>whole</type>
      </note>
      <barline location="right">
        <bar-style>light-light</bar-style>
      </barline>
    </measure>
    <!--=======================================================-->
    <measure number="34" width="246">
      <attributes>
        <key>
          <fifths>5</fifths>
          <mode>major</mode>
        </key>
      </attributes>
      <direction>
        <direction-type>
          <words default-x="69" default-y="240" font-size="14" font-weight="bold" valign="top">3g</words>
        </direction-type>
      </direction>
      <note default-x="197">
        <pitch>
          <step>F</step>
          <alter>1</alter>
          <octave>4</octave>
        </pitch>
        <duration>8</duration>
        <voice>1</voice>
        <type>whole</type>
      </note>
      <note default-x="197">
        <chord/>
        <pitch>
          <step>A</step>
          <alter>1</alter>
          <octave>4</octave>
        </pitch>
        <duration>8</duration>
        <voice>1</voice>
        <type>whole</type>
      </note>
      <note default-x="197">
        <chord/>
        <pitch>
          <step>C</step>
          <alter>1</alter>
          <octave>5</octave>
        </pitch>
        <duration>8</duration>
        <voice>1</voice>
        <type>whole</type>
      </note>
      <note default-x="197">
        <chord/>
        <pitch>
          <step>E</step>
          <octave>5</octave>
        </pitch>
        <duration>8</duration>
        <voice>1</voice>
        <type>whole</type>
      </note>
      <barline location="right">
        <bar-style>light-light</bar-style>
      </barline>
    </measure>
    <!--=======================================================-->
    <measure number="35" width="236">
      <attributes>
        <key>
          <fifths>-3</fifths>
          <mode>major</mode>
        </key>
      </attributes>
      <note default-x="179">
        <pitch>
          <step>G</step>
          <octave>4</octave>
        </pitch>
        <duration>8</duration>
        <voice>1</voice>
        <type>whole</type>
      </note>
      <note default-x="179">
        <chord/>
        <pitch>
          <step>B</step>
          <octave>4</octave>
        </pitch>
        <duration>8</duration>
        <voice>1</voice>
        <type>whole</type>
        <accidental>natural</accidental>
      </note>
      <note default-x="179">
        <chord/>
        <pitch>
          <step>D</step>
          <octave>5</octave>
        </pitch>
        <duration>8</duration>
        <voice>1</voice>
        <type>whole</type>
      </note>
      <note default-x="179">
        <chord/>
        <pitch>
          <step>F</step>
          <octave>5</octave>
        </pitch>
        <duration>8</duration>
        <voice>1</voice>
        <type>whole</type>
      </note>
    </measure>
    <!--=======================================================-->
    <measure number="36" width="248">
      <attributes>
        <key>
          <fifths>-4</fifths>
          <mode>major</mode>
        </key>
      </attributes>
      <direction>
        <direction-type>
          <words default-x="15" default-y="244" font-size="14" font-weight="bold" valign="top">4g</words>
        </direction-type>
      </direction>
      <direction>
        <direction-type>
          <words default-x="128" default-y="247" font-size="14" font-weight="bold" valign="top">4g</words>
        </direction-type>
      </direction>
      <direction>
        <direction-type>
          <words default-x="-50" default-y="258" font-size="12" valign="top">hoặc</words>
        </direction-type>
      </direction>
      <direction>
        <direction-type>
          <words default-x="61" default-y="251" font-size="18" font-weight="bold" valign="top">―</words>
        </direction-type>
      </direction>
      <direction>
        <direction-type>
          <words default-x="79" default-y="248" font-size="18" font-weight="bold" valign="top">&gt;</words>
        </direction-type>
      </direction>
      <note default-x="179">
        <pitch>
          <step>C</step>
          <octave>4</octave>
        </pitch>
        <duration>8</duration>
        <voice>1</voice>
        <type>whole</type>
      </note>
      <note default-x="179">
        <chord/>
        <pitch>
          <step>E</step>
          <octave>4</octave>
        </pitch>
        <duration>8</duration>
        <voice>1</voice>
        <type>whole</type>
        <accidental>natural</accidental>
      </note>
      <note default-x="179">
        <chord/>
        <pitch>
          <step>G</step>
          <octave>4</octave>
        </pitch>
        <duration>8</duration>
        <voice>1</voice>
        <type>whole</type>
      </note>
      <note default-x="179">
        <chord/>
        <pitch>
          <step>B</step>
          <alter>-1</alter>
          <octave>4</octave>
        </pitch>
        <duration>8</duration>
        <voice>1</voice>
        <type>whole</type>
      </note>
      <barline location="right">
        <bar-style>light-light</bar-style>
      </barline>
    </measure>
  </part>
  <!--=========================================================-->
</score-partwise>
