<svg width="300" height="120" viewBox="0 0 600 400" xmlns="http://www.w3.org/2000/svg">
    <rect width="600" height="400" fill="#ffffff"/>
    <g transform="scale(0.5)">
                                        stroke-dasharray="3,2" fill="none"/><circle cx="100" cy="337.5" r="8" fill="#666666"
                                stroke-dasharray="3,2" fill="none"/><circle cx="185" cy="337.5" r="8" fill="#666666"
                            fill="#333">bằng</text><circle cx="270" cy="400" r="8" fill="#666666"
                            fill="#333">có</text><circle cx="355" cy="400" r="8" fill="#666666"
                            fill="#333">cái</text><circle cx="440" cy="425" r="8" fill="#666666"
                                stroke-dasharray="2,2"/><circle cx="482.5" cy="400" r="8" fill="#666666"
                                stroke-dasharray="3,2" fill="none"/><circle cx="525" cy="337.5" r="8" fill="#666666"
                                stroke-dasharray="3,2" fill="none"/><circle cx="610" cy="337.5" r="8" fill="#666666"
                                stroke-dasharray="3,2" fill="none"/><circle cx="695" cy="337.5" r="8" fill="#666666"
                            fill="#333">ai</text><circle cx="780" cy="400" r="8" fill="#666666"
                            fill="#333">khéo</text><circle cx="852.5" cy="362.5" r="5" fill="#FFD700"
<circle cx="865" cy="400" r="8" fill="#666666"
                            fill="#FFD700">♪</text><circle cx="950" cy="400" r="8" fill="#666666"
                            fill="#333">ấy</text><circle cx="992.5" cy="400" r="8" fill="#666666"
                                stroke-dasharray="3,2" fill="none"/><circle cx="1035" cy="337.5" r="8" fill="#666666"
                                stroke-dasharray="3,2" fill="none"/><circle cx="1120" cy="337.5" r="8" fill="#666666"
                                stroke-dasharray="3,2" fill="none"/><circle cx="1205" cy="337.5" r="8" fill="#666666"
                                stroke-dasharray="3,2" fill="none"/><circle cx="1375" cy="337.5" r="8" fill="#666666"
                                stroke-dasharray="3,2" fill="none"/><circle cx="1460" cy="337.5" r="8" fill="#666666"
                                stroke-dasharray="3,2" fill="none"/><circle cx="1545" cy="337.5" r="8" fill="#666666"
                                stroke-dasharray="3,2" fill="none"/><circle cx="2225" cy="450" r="8" fill="#666666"
                                stroke-dasharray="3,2" fill="none"/><circle cx="2905" cy="450" r="8" fill="#666666"
                                stroke-dasharray="3,2" fill="none"/><circle cx="2990" cy="450" r="8" fill="#666666"
                                stroke-dasharray="3,2" fill="none"/><circle cx="3032.5" cy="450" r="8" fill="#666666"
                                stroke-dasharray="3,2" fill="none"/><circle cx="3075" cy="337.5" r="8" fill="#666666"
                                stroke-dasharray="3,2" fill="none"/><circle cx="3202.5" cy="362.5" r="8" fill="#666666"
                                stroke-dasharray="3,2" fill="none"/><circle cx="3245" cy="337.5" r="8" fill="#666666"
                                stroke-dasharray="3,2" fill="none"/><circle cx="3372.5" cy="362.5" r="8" fill="#666666"
                                stroke-dasharray="3,2" fill="none"/><circle cx="3415" cy="337.5" r="8" fill="#666666"
                                stroke-dasharray="3,2" fill="none"/><circle cx="3457.5" cy="362.5" r="8" fill="#666666"
                                stroke-dasharray="3,2" fill="none"/><circle cx="3500" cy="337.5" r="8" fill="#666666"
                                stroke-dasharray="3,2" fill="none"/><circle cx="3542.5" cy="362.5" r="8" fill="#666666"
                                stroke-dasharray="3,2" fill="none"/><circle cx="3755" cy="362.5" r="8" fill="#666666"
                                stroke-dasharray="3,2" fill="none"/><circle cx="3797.5" cy="337.5" r="8" fill="#666666"
                                stroke-dasharray="3,2" fill="none"/><circle cx="3840" cy="362.5" r="8" fill="#666666"
                                stroke-dasharray="3,2" fill="none"/><circle cx="3925" cy="337.5" r="8" fill="#666666"
                                stroke-dasharray="3,2" fill="none"/><circle cx="4010" cy="362.5" r="8" fill="#666666"
                                stroke-dasharray="3,2" fill="none"/><circle cx="4180" cy="362.5" r="8" fill="#666666"
                                stroke-dasharray="3,2" fill="none"/><circle cx="4265" cy="337.5" r="8" fill="#666666"
                                stroke-dasharray="3,2" fill="none"/><circle cx="4520" cy="337.5" r="8" fill="#666666"
                                stroke-dasharray="3,2" fill="none"/><circle cx="4562.5" cy="337.5" r="8" fill="#666666"
                                stroke-dasharray="3,2" fill="none"/><circle cx="4775" cy="337.5" r="8" fill="#666666"
                                stroke-dasharray="3,2" fill="none"/><circle cx="4817.5" cy="362.5" r="8" fill="#666666"
                                stroke-dasharray="3,2" fill="none"/><circle cx="4860" cy="337.5" r="8" fill="#666666"
                                stroke-dasharray="3,2" fill="none"/><circle cx="4902.5" cy="362.5" r="8" fill="#666666"
                                stroke-dasharray="3,2" fill="none"/><circle cx="5200" cy="337.5" r="8" fill="#666666"
                                stroke-dasharray="3,2" fill="none"/><circle cx="5242.5" cy="337.5" r="8" fill="#666666"
                                stroke-dasharray="3,2" fill="none"/><circle cx="5455" cy="337.5" r="8" fill="#666666"
                                stroke-dasharray="3,2" fill="none"/><circle cx="5497.5" cy="362.5" r="8" fill="#666666"
                                stroke-dasharray="3,2" fill="none"/><circle cx="5540" cy="337.5" r="8" fill="#666666"
                                stroke-dasharray="3,2" fill="none"/><circle cx="5582.5" cy="362.5" r="8" fill="#666666"
                                stroke-dasharray="3,2" fill="none"/><circle cx="6305" cy="337.5" r="8" fill="#666666"
                                stroke-dasharray="3,2" fill="none"/><circle cx="6475" cy="487.5" r="8" fill="#666666"
                                stroke-dasharray="3,2" fill="none"/><circle cx="6602.5" cy="512.5" r="8" fill="#666666"
                                stroke-dasharray="3,2" fill="none"/><circle cx="6645" cy="487.5" r="8" fill="#666666"
                                stroke-dasharray="3,2" fill="none"/><circle cx="6772.5" cy="487.5" r="8" fill="#666666"
                                stroke-dasharray="3,2" fill="none"/><circle cx="6815" cy="487.5" r="8" fill="#666666"
                                stroke-dasharray="3,2" fill="none"/><circle cx="6900" cy="450" r="8" fill="#666666"
                                stroke-dasharray="3,2" fill="none"/><circle cx="6985" cy="450" r="8" fill="#666666"
                                stroke-dasharray="3,2" fill="none"/><circle cx="7240" cy="450" r="8" fill="#666666"
                                stroke-dasharray="3,2" fill="none"/><circle cx="7325" cy="450" r="8" fill="#666666"
                                stroke-dasharray="3,2" fill="none"/><circle cx="7452.5" cy="487.5" r="8" fill="#666666"
                                stroke-dasharray="3,2" fill="none"/><circle cx="7495" cy="487.5" r="8" fill="#666666"
                                stroke-dasharray="3,2" fill="none"/><circle cx="7580" cy="450" r="8" fill="#666666"
                                stroke-dasharray="3,2" fill="none"/><circle cx="7750" cy="362.5" r="8" fill="#666666"
                                stroke-dasharray="3,2" fill="none"/><circle cx="7920" cy="362.5" r="8" fill="#666666"
                                stroke-dasharray="3,2" fill="none"/><circle cx="8005" cy="337.5" r="8" fill="#666666"
                                stroke-dasharray="3,2" fill="none"/><circle cx="8260" cy="362.5" r="8" fill="#666666"
                                stroke-dasharray="3,2" fill="none"/><circle cx="8302.5" cy="337.5" r="8" fill="#666666"
                                stroke-dasharray="3,2" fill="none"/><circle cx="8345" cy="300" r="8" fill="#666666"
                                stroke-dasharray="3,2" fill="none"/><circle cx="8430" cy="337.5" r="8" fill="#666666"
                                stroke-dasharray="3,2" fill="none"/><circle cx="8515" cy="300" r="8" fill="#666666"
                                stroke-dasharray="3,2" fill="none"/><circle cx="8557.5" cy="337.5" r="8" fill="#666666"
                                stroke-dasharray="3,2" fill="none"/><circle cx="8600" cy="300" r="8" fill="#666666"
                                stroke-dasharray="3,2" fill="none"/><circle cx="8685" cy="337.5" r="8" fill="#666666"
                                stroke-dasharray="3,2" fill="none"/><circle cx="8940" cy="362.5" r="8" fill="#666666"
                                stroke-dasharray="3,2" fill="none"/><circle cx="8982.5" cy="337.5" r="8" fill="#666666"
                                stroke-dasharray="3,2" fill="none"/><circle cx="9025" cy="300" r="8" fill="#666666"
                                stroke-dasharray="3,2" fill="none"/><circle cx="9110" cy="337.5" r="8" fill="#666666"
                                stroke-dasharray="3,2" fill="none"/><circle cx="9195" cy="300" r="8" fill="#666666"
                                stroke-dasharray="3,2" fill="none"/><circle cx="9237.5" cy="337.5" r="8" fill="#666666"
                                stroke-dasharray="3,2" fill="none"/><circle cx="9280" cy="300" r="8" fill="#666666"
    </g>
    <!-- Song name overlay -->
    <rect x="0" y="90" width="300" height="30" fill="rgba(0,128,128,0.9)"/>
    <text x="150" y="108" text-anchor="middle" fill="white" font-size="12" font-family="system-ui">
        Trống cơm
    </text>
</svg>