<?xml version="1.0" encoding="UTF-8" standalone="no"?>
<!DOCTYPE score-partwise PUBLIC "-//Recordare//DTD MusicXML 4.0 Partwise//EN" "http://www.musicxml.org/dtds/partwise.dtd">
<score-partwise version="4.0">
  <movement-title>LÝ CON SÁO QUẢNG</movement-title>
  <identification>
    <creator type="composer">dân ca các tỉnh Nam Trung Bộ</creator>
    <creator type="arranger">ký âm: Nguyễn Hữu Ba</creator>
    <rights>©</rights>
    <encoding>
      <software>Finale v27.2 for Windows</software>
      <encoding-date>2025-08-18</encoding-date>
      <supports attribute="new-system" element="print" type="yes" value="yes"/>
      <supports attribute="new-page" element="print" type="yes" value="yes"/>
      <supports element="accidental" type="yes"/>
      <supports element="beam" type="yes"/>
      <supports element="stem" type="yes"/>
    </encoding>
  </identification>
  <defaults>
    <scaling>
      <millimeters>7.2319</millimeters>
      <tenths>40</tenths>
    </scaling>
    <page-layout>
      <page-height>1545</page-height>
      <page-width>1194</page-width>
      <page-margins type="both">
        <left-margin>140</left-margin>
        <right-margin>70</right-margin>
        <top-margin>70</top-margin>
        <bottom-margin>70</bottom-margin>
      </page-margins>
    </page-layout>
    <system-layout>
      <system-margins>
        <left-margin>0</left-margin>
        <right-margin>0</right-margin>
      </system-margins>
      <system-distance>126</system-distance>
      <top-system-distance>70</top-system-distance>
    </system-layout>
    <appearance>
      <line-width type="stem">0.9115</line-width>
      <line-width type="beam">5</line-width>
      <line-width type="staff">0.9115</line-width>
      <line-width type="light barline">1.0026</line-width>
      <line-width type="heavy barline">5</line-width>
      <line-width type="leger">1.1003</line-width>
      <line-width type="ending">1.3021</line-width>
      <line-width type="wedge">1.0026</line-width>
      <line-width type="enclosure">1.3021</line-width>
      <line-width type="tuplet bracket">1.0026</line-width>
      <note-size type="grace">60</note-size>
      <note-size type="cue">60</note-size>
      <distance type="hyphen">120</distance>
      <distance type="beam">7.5</distance>
    </appearance>
    <music-font font-family="Finale Maestro,engraved" font-size="20.5"/>
    <word-font font-family="Times New Roman" font-size="10.25"/>
    <lyric-font font-family="Arial" font-size="12"/>
  </defaults>
  <credit page="1">
    <credit-type>title</credit-type>
    <credit-words default-x="634" default-y="1505" font-family="Arial" font-size="24" justify="center" valign="top">LÝ CON SÁO QUẢNG</credit-words>
  </credit>
  <credit page="1">
    <credit-type>composer</credit-type>
    <credit-words default-x="1123" default-y="1403" font-family="Arial" font-size="12" justify="right" valign="top">dân ca các tỉnh Nam Trung Bộ</credit-words>
  </credit>
  <credit page="1">
    <credit-type>rights</credit-type>
    <credit-words default-x="632" default-y="53" font-size="10" justify="center" valign="bottom">©</credit-words>
  </credit>
  <credit page="1">
    <credit-type>arranger</credit-type>
    <credit-words default-x="1125" default-y="1370" font-family="Arial" font-size="12" halign="right" valign="top">ký âm: Nguyễn Hữu Ba</credit-words>
  </credit>
  <part-list>
    <score-part id="P1">
      <part-name print-object="no">MusicXML Part</part-name>
      <group>score</group>
      <score-instrument id="P1-I1">
        <instrument-name>SmartMusic SoftSynth</instrument-name>
        <virtual-instrument/>
      </score-instrument>
      <midi-device>Bank 2</midi-device>
      <midi-instrument id="P1-I1">
        <midi-channel>1</midi-channel>
        <midi-bank>15489</midi-bank>
        <midi-program>1</midi-program>
        <volume>80</volume>
        <pan>0</pan>
      </midi-instrument>
    </score-part>
  </part-list>
  <!--=========================================================-->
  <part id="P1">
    <measure number="1" width="274">
      <print>
        <system-layout>
          <system-margins>
            <left-margin>70</left-margin>
            <right-margin>0</right-margin>
          </system-margins>
          <top-system-distance>177</top-system-distance>
        </system-layout>
        <measure-numbering multiple-rest-always="no" multiple-rest-range="no" system="only-top">system</measure-numbering>
      </print>
      <attributes>
        <divisions>2</divisions>
        <key>
          <fifths>0</fifths>
          <mode>major</mode>
        </key>
        <time symbol="common">
          <beats>4</beats>
          <beat-type>4</beat-type>
        </time>
        <clef>
          <sign>G</sign>
          <line>2</line>
        </clef>
      </attributes>
      <sound>
        <swing>
          <straight/>
        </swing>
      </sound>
      <direction directive="yes" placement="above" system="only-top">
        <direction-type>
          <words default-y="40" font-size="12" font-weight="bold">Vui </words>
        </direction-type>
        <direction-type>
          <metronome font-family="Finale Maestro" font-size="15.4" font-weight="normal">
            <beat-unit>quarter</beat-unit>
            <per-minute font-family="Times New Roman" font-size="12" font-weight="bold">116</per-minute>
          </metronome>
        </direction-type>
        <sound tempo="116"/>
      </direction>
      <note default-x="83">
        <rest/>
        <duration>2</duration>
        <voice>1</voice>
        <type>quarter</type>
      </note>
      <note default-x="120">
        <pitch>
          <step>G</step>
          <octave>4</octave>
        </pitch>
        <duration>2</duration>
        <voice>1</voice>
        <type>quarter</type>
        <stem default-y="5">up</stem>
        <lyric default-y="-97" number="1">
          <syllabic>single</syllabic>
          <text>Ai</text>
        </lyric>
        <lyric default-y="-127" number="2" relative-x="-9">
          <syllabic>single</syllabic>
          <text>(Hai</text>
        </lyric>
      </note>
      <note default-x="168">
        <pitch>
          <step>G</step>
          <octave>4</octave>
        </pitch>
        <duration>2</duration>
        <voice>1</voice>
        <type>quarter</type>
        <stem default-y="5">up</stem>
        <lyric default-y="-97" number="1">
          <syllabic>single</syllabic>
          <text>đem</text>
        </lyric>
        <lyric default-y="-127" number="2">
          <syllabic>single</syllabic>
          <text>tay</text>
        </lyric>
      </note>
      <note default-x="222">
        <pitch>
          <step>G</step>
          <octave>4</octave>
        </pitch>
        <duration>2</duration>
        <voice>1</voice>
        <type>quarter</type>
        <stem default-y="5">up</stem>
        <lyric default-y="-97" number="1">
          <syllabic>single</syllabic>
          <text>con</text>
        </lyric>
        <lyric default-y="-127" number="2">
          <syllabic>single</syllabic>
          <text>ôm)</text>
        </lyric>
      </note>
      <direction placement="above" system="only-top">
        <direction-type>
          <segno default-x="259" default-y="4"/>
        </direction-type>
        <sound divisions="2" segno="1"/>
      </direction>
      <barline location="right">
        <bar-style>light-light</bar-style>
      </barline>
    </measure>
    <!--=======================================================-->
    <measure number="2" width="249">
      <note default-x="20">
        <pitch>
          <step>A</step>
          <octave>4</octave>
        </pitch>
        <duration>2</duration>
        <voice>1</voice>
        <type>quarter</type>
        <stem default-y="10">up</stem>
        <lyric default-y="-97" number="1">
          <syllabic>single</syllabic>
          <text>sáo</text>
        </lyric>
        <lyric default-y="-127" number="2" relative-x="5">
          <syllabic>single</syllabic>
          <text>xoác</text>
        </lyric>
      </note>
      <note default-x="83">
        <pitch>
          <step>C</step>
          <octave>4</octave>
        </pitch>
        <duration>2</duration>
        <voice>1</voice>
        <type>quarter</type>
        <stem default-y="-15">up</stem>
        <lyric default-y="-97" number="1">
          <syllabic>single</syllabic>
          <text>tình</text>
        </lyric>
        <lyric default-y="-127" number="2">
          <syllabic>single</syllabic>
          <text>tình</text>
        </lyric>
      </note>
      <note default-x="138">
        <pitch>
          <step>D</step>
          <octave>4</octave>
        </pitch>
        <duration>2</duration>
        <voice>1</voice>
        <type>quarter</type>
        <stem default-y="-10">up</stem>
        <lyric default-y="-97" number="1">
          <syllabic>single</syllabic>
          <text>bạn</text>
        </lyric>
        <lyric default-y="-127" number="2">
          <syllabic>single</syllabic>
          <text>bạn</text>
        </lyric>
      </note>
      <note default-x="202">
        <pitch>
          <step>F</step>
          <octave>4</octave>
        </pitch>
        <duration>2</duration>
        <voice>1</voice>
        <type>quarter</type>
        <stem default-y="0">up</stem>
        <lyric default-y="-97" number="1">
          <syllabic>single</syllabic>
          <text>sang</text>
        </lyric>
        <lyric default-y="-127" number="2">
          <syllabic>single</syllabic>
          <text>ngang</text>
        </lyric>
      </note>
    </measure>
    <!--=======================================================-->
    <measure number="3" width="205">
      <note default-x="13">
        <pitch>
          <step>G</step>
          <octave>4</octave>
        </pitch>
        <duration>2</duration>
        <voice>1</voice>
        <type>quarter</type>
        <stem default-y="5">up</stem>
        <lyric default-y="-97" justify="left" number="1">
          <syllabic>single</syllabic>
          <text>sông</text>
          <extend type="start"/>
        </lyric>
        <lyric default-y="-127" justify="left" number="2">
          <syllabic>single</syllabic>
          <text>lưng</text>
          <extend type="start"/>
        </lyric>
      </note>
      <note default-x="54">
        <pitch>
          <step>A</step>
          <octave>4</octave>
        </pitch>
        <duration>1</duration>
        <voice>1</voice>
        <type>eighth</type>
        <stem default-y="15">up</stem>
        <beam number="1">begin</beam>
        <notations>
          <slur bezier-x="20" bezier-y="-13" default-x="5" default-y="-35" number="1" placement="below" type="start"/>
        </notations>
        <lyric number="1">
          <extend type="stop"/>
        </lyric>
        <lyric number="2">
          <extend type="stop"/>
        </lyric>
      </note>
      <note default-x="79">
        <pitch>
          <step>C</step>
          <octave>5</octave>
        </pitch>
        <duration>1</duration>
        <voice>1</voice>
        <type>eighth</type>
        <stem default-y="20">up</stem>
        <beam number="1">end</beam>
        <lyric default-y="-97" number="1" relative-x="8">
          <syllabic>single</syllabic>
          <text>ư</text>
        </lyric>
        <lyric default-y="-126" number="2" relative-x="8">
          <syllabic>single</syllabic>
          <text>ư</text>
        </lyric>
      </note>
      <note default-x="104">
        <pitch>
          <step>A</step>
          <octave>4</octave>
        </pitch>
        <duration>1</duration>
        <voice>1</voice>
        <type>eighth</type>
        <stem default-y="10">up</stem>
        <beam number="1">begin</beam>
      </note>
      <note default-x="129">
        <pitch>
          <step>G</step>
          <octave>4</octave>
        </pitch>
        <duration>1</duration>
        <voice>1</voice>
        <type>eighth</type>
        <stem default-y="5">up</stem>
        <beam number="1">end</beam>
        <notations>
          <slur bezier-x="-23" bezier-y="-10" default-x="5" default-y="-42" number="1" type="stop"/>
        </notations>
      </note>
      <note default-x="162">
        <pitch>
          <step>F</step>
          <octave>4</octave>
        </pitch>
        <duration>2</duration>
        <voice>1</voice>
        <type>quarter</type>
        <stem default-y="0">up</stem>
        <lyric default-y="-97" number="1">
          <syllabic>single</syllabic>
          <text>(làm</text>
        </lyric>
        <lyric default-y="-127" number="2">
          <syllabic>single</syllabic>
          <text>(làm</text>
        </lyric>
      </note>
    </measure>
    <!--=======================================================-->
    <measure number="4" width="185">
      <note default-x="13">
        <pitch>
          <step>G</step>
          <octave>4</octave>
        </pitch>
        <duration>3</duration>
        <voice>1</voice>
        <type>quarter</type>
        <dot/>
        <stem default-y="5">up</stem>
        <lyric default-y="-97" number="1" relative-x="6">
          <syllabic>single</syllabic>
          <text>răng)</text>
        </lyric>
        <lyric default-y="-127" number="2" relative-x="6">
          <syllabic>single</syllabic>
          <text>răng)</text>
        </lyric>
      </note>
      <note default-x="79">
        <pitch>
          <step>A</step>
          <octave>4</octave>
        </pitch>
        <duration>3</duration>
        <voice>1</voice>
        <type>quarter</type>
        <dot/>
        <stem default-y="10">up</stem>
        <lyric default-y="-97" number="1">
          <syllabic>single</syllabic>
          <text>để</text>
        </lyric>
        <lyric default-y="-127" number="2">
          <syllabic>single</syllabic>
          <text>chao</text>
        </lyric>
      </note>
      <note default-x="140">
        <pitch>
          <step>G</step>
          <octave>4</octave>
        </pitch>
        <duration>2</duration>
        <voice>1</voice>
        <type>quarter</type>
        <stem default-y="5">up</stem>
        <lyric default-y="-97" number="1">
          <syllabic>single</syllabic>
          <text>cho</text>
        </lyric>
        <lyric default-y="-127" number="2">
          <syllabic>single</syllabic>
          <text>ôi</text>
        </lyric>
      </note>
    </measure>
    <!--=======================================================-->
    <measure number="5" width="241">
      <print new-system="yes">
        <system-layout>
          <system-margins>
            <left-margin>0</left-margin>
            <right-margin>1</right-margin>
          </system-margins>
          <system-distance>124</system-distance>
        </system-layout>
      </print>
      <note default-x="51">
        <rest/>
        <duration>2</duration>
        <voice>1</voice>
        <type>quarter</type>
      </note>
      <note default-x="90">
        <pitch>
          <step>A</step>
          <octave>4</octave>
        </pitch>
        <duration>2</duration>
        <voice>1</voice>
        <type>quarter</type>
        <stem default-y="10">up</stem>
        <lyric default-y="-97" number="1">
          <syllabic>single</syllabic>
          <text>để</text>
        </lyric>
        <lyric default-y="-127" number="2">
          <syllabic>single</syllabic>
          <text>em</text>
        </lyric>
      </note>
      <note default-x="129">
        <pitch>
          <step>G</step>
          <octave>4</octave>
        </pitch>
        <duration>1</duration>
        <voice>1</voice>
        <type>eighth</type>
        <stem default-y="5">up</stem>
        <beam number="1">begin</beam>
        <notations>
          <slur bezier-x="8" bezier-y="-10" default-x="7" default-y="-43" number="1" placement="below" type="start"/>
        </notations>
        <lyric default-y="-97" justify="left" number="1">
          <syllabic>single</syllabic>
          <text>cho</text>
          <extend type="start"/>
        </lyric>
        <lyric default-y="-127" justify="left" number="2">
          <syllabic>single</syllabic>
          <text>đau</text>
          <extend type="start"/>
        </lyric>
      </note>
      <note default-x="160">
        <pitch>
          <step>F</step>
          <octave>4</octave>
        </pitch>
        <duration>1</duration>
        <voice>1</voice>
        <type>eighth</type>
        <stem default-y="0">up</stem>
        <beam number="1">end</beam>
        <notations>
          <slur bezier-x="-9" bezier-y="-9" default-x="6" default-y="-45" number="1" type="stop"/>
        </notations>
        <lyric number="1">
          <extend type="stop"/>
        </lyric>
        <lyric number="2">
          <extend type="stop"/>
        </lyric>
      </note>
      <note default-x="196">
        <pitch>
          <step>C</step>
          <octave>4</octave>
        </pitch>
        <duration>2</duration>
        <voice>1</voice>
        <type>quarter</type>
        <stem default-y="-15">up</stem>
        <lyric default-y="-97" number="1">
          <syllabic>single</syllabic>
          <text>con</text>
        </lyric>
        <lyric default-y="-127" number="2">
          <syllabic>single</syllabic>
          <text>bụng</text>
        </lyric>
      </note>
    </measure>
    <!--=======================================================-->
    <measure number="6" width="176">
      <note default-x="13">
        <pitch>
          <step>D</step>
          <octave>4</octave>
        </pitch>
        <duration>2</duration>
        <voice>1</voice>
        <type>quarter</type>
        <stem default-y="-10">up</stem>
        <lyric default-y="-97" number="1">
          <syllabic>single</syllabic>
          <text>sáo</text>
        </lyric>
        <lyric default-y="-127" number="2">
          <syllabic>single</syllabic>
          <text>lắm</text>
        </lyric>
      </note>
      <note default-x="51">
        <pitch>
          <step>G</step>
          <octave>4</octave>
        </pitch>
        <duration>1</duration>
        <voice>1</voice>
        <type>eighth</type>
        <stem default-y="5">up</stem>
        <beam number="1">begin</beam>
        <notations>
          <slur bezier-x="6" bezier-y="-9" default-x="6" default-y="-43" number="1" placement="below" type="start"/>
        </notations>
        <lyric default-y="-97" number="1" relative-x="6">
          <syllabic>single</syllabic>
          <text>ư</text>
        </lyric>
        <lyric default-y="-125" number="2" relative-x="4">
          <syllabic>single</syllabic>
          <text>ư</text>
        </lyric>
      </note>
      <note default-x="75">
        <pitch>
          <step>F</step>
          <octave>4</octave>
        </pitch>
        <duration>1</duration>
        <voice>1</voice>
        <type>eighth</type>
        <stem default-y="0">up</stem>
        <beam number="1">end</beam>
        <notations>
          <slur bezier-x="-8" bezier-y="-7" default-x="6" default-y="-45" number="1" type="stop"/>
        </notations>
      </note>
      <note default-x="99">
        <pitch>
          <step>C</step>
          <octave>4</octave>
        </pitch>
        <duration>2</duration>
        <voice>1</voice>
        <type>quarter</type>
        <stem default-y="-15">up</stem>
        <lyric default-y="-97" number="1">
          <syllabic>single</syllabic>
          <text>hừ</text>
        </lyric>
        <lyric default-y="-127" number="2">
          <syllabic>single</syllabic>
          <text>hừ</text>
        </lyric>
      </note>
      <note default-x="137">
        <pitch>
          <step>D</step>
          <octave>4</octave>
        </pitch>
        <duration>2</duration>
        <voice>1</voice>
        <type>quarter</type>
        <stem default-y="-10">up</stem>
        <lyric default-y="-97" number="1">
          <syllabic>single</syllabic>
          <text>ư.</text>
        </lyric>
        <lyric default-y="-127" number="2">
          <syllabic>single</syllabic>
          <text>ư.</text>
        </lyric>
      </note>
    </measure>
    <!--=======================================================-->
    <measure number="7" width="117">
      <note default-x="13">
        <rest/>
        <duration>4</duration>
        <voice>1</voice>
        <type>half</type>
      </note>
      <note default-x="66">
        <pitch>
          <step>A</step>
          <octave>4</octave>
        </pitch>
        <duration>4</duration>
        <voice>1</voice>
        <type>half</type>
        <stem default-y="10">up</stem>
        <lyric default-y="-97" number="1">
          <syllabic>single</syllabic>
          <text>Để</text>
        </lyric>
        <lyric default-y="-127" number="2">
          <syllabic>single</syllabic>
          <text>Chao</text>
        </lyric>
      </note>
    </measure>
    <!--=======================================================-->
    <measure number="8" width="223">
      <note default-x="13">
        <pitch>
          <step>G</step>
          <octave>4</octave>
        </pitch>
        <duration>2</duration>
        <voice>1</voice>
        <type>quarter</type>
        <stem default-y="5">up</stem>
        <lyric default-y="-97" number="1">
          <syllabic>single</syllabic>
          <text>cho</text>
        </lyric>
        <lyric default-y="-127" number="2">
          <syllabic>single</syllabic>
          <text>ôi</text>
        </lyric>
      </note>
      <note default-x="63">
        <pitch>
          <step>A</step>
          <octave>4</octave>
        </pitch>
        <duration>2</duration>
        <voice>1</voice>
        <type>quarter</type>
        <stem default-y="10">up</stem>
        <lyric default-y="-97" number="1">
          <syllabic>single</syllabic>
          <text>để</text>
        </lyric>
        <lyric default-y="-127" number="2">
          <syllabic>single</syllabic>
          <text>em</text>
        </lyric>
      </note>
      <note default-x="109">
        <pitch>
          <step>G</step>
          <octave>4</octave>
        </pitch>
        <duration>1</duration>
        <voice>1</voice>
        <type>eighth</type>
        <stem default-y="5">up</stem>
        <beam number="1">begin</beam>
        <notations>
          <slur bezier-x="8" bezier-y="-10" default-x="6" default-y="-43" number="1" placement="below" type="start"/>
        </notations>
        <lyric default-y="-97" justify="left" number="1">
          <syllabic>single</syllabic>
          <text>cho</text>
          <extend type="start"/>
        </lyric>
        <lyric default-y="-127" justify="left" number="2">
          <syllabic>single</syllabic>
          <text>đau</text>
          <extend type="start"/>
        </lyric>
      </note>
      <note default-x="137">
        <pitch>
          <step>F</step>
          <octave>4</octave>
        </pitch>
        <duration>1</duration>
        <voice>1</voice>
        <type>eighth</type>
        <stem default-y="0">up</stem>
        <beam number="1">end</beam>
        <notations>
          <slur bezier-x="-9" bezier-y="-8" default-x="6" default-y="-45" number="1" type="stop"/>
        </notations>
        <lyric number="1">
          <extend type="stop"/>
        </lyric>
        <lyric number="2">
          <extend type="stop"/>
        </lyric>
      </note>
      <note default-x="178">
        <pitch>
          <step>C</step>
          <octave>4</octave>
        </pitch>
        <duration>2</duration>
        <voice>1</voice>
        <type>quarter</type>
        <stem default-y="-15">up</stem>
        <lyric default-y="-97" number="1">
          <syllabic>single</syllabic>
          <text>con</text>
        </lyric>
        <lyric default-y="-127" number="2">
          <syllabic>single</syllabic>
          <text>bụng</text>
        </lyric>
      </note>
    </measure>
    <!--=======================================================-->
    <measure number="9" width="226">
      <note default-x="18">
        <pitch>
          <step>D</step>
          <octave>4</octave>
        </pitch>
        <duration>2</duration>
        <voice>1</voice>
        <type>quarter</type>
        <stem default-y="-10">up</stem>
        <lyric default-y="-97" number="1">
          <syllabic>single</syllabic>
          <text>sáo</text>
        </lyric>
        <lyric default-y="-127" number="2">
          <syllabic>single</syllabic>
          <text>lắm</text>
        </lyric>
      </note>
      <note default-x="69">
        <pitch>
          <step>D</step>
          <octave>4</octave>
        </pitch>
        <duration>2</duration>
        <voice>1</voice>
        <type>quarter</type>
        <stem default-y="-10">up</stem>
        <lyric default-y="-97" number="1">
          <syllabic>single</syllabic>
          <text>sổ</text>
        </lyric>
        <lyric default-y="-127" number="2">
          <syllabic>single</syllabic>
          <text>lấy</text>
        </lyric>
      </note>
      <note default-x="127">
        <pitch>
          <step>F</step>
          <octave>4</octave>
        </pitch>
        <duration>2</duration>
        <voice>1</voice>
        <type>quarter</type>
        <stem default-y="0">up</stem>
        <lyric default-y="-97" number="1">
          <syllabic>single</syllabic>
          <text>lồng</text>
        </lyric>
        <lyric default-y="-127" number="2">
          <syllabic>single</syllabic>
          <text>gừng</text>
        </lyric>
      </note>
      <note default-x="187">
        <pitch>
          <step>A</step>
          <octave>4</octave>
        </pitch>
        <duration>2</duration>
        <voice>1</voice>
        <type>quarter</type>
        <stem default-y="10">up</stem>
        <lyric default-y="-97" number="1">
          <syllabic>single</syllabic>
          <text>bay...</text>
        </lyric>
        <lyric default-y="-127" number="2">
          <syllabic>single</syllabic>
          <text>cho...</text>
        </lyric>
      </note>
    </measure>
    <!--=======================================================-->
    <measure number="10" width="233">
      <print new-system="yes">
        <system-layout>
          <system-distance>125</system-distance>
        </system-layout>
      </print>
      <note default-x="51">
        <pitch>
          <step>G</step>
          <octave>4</octave>
        </pitch>
        <duration>2</duration>
        <voice>1</voice>
        <type>quarter</type>
        <stem default-y="5">up</stem>
        <lyric default-y="-97" number="1" relative-x="3">
          <syllabic>single</syllabic>
          <text>xa</text>
        </lyric>
        <lyric default-y="-127" number="2">
          <syllabic>single</syllabic>
          <text>mau</text>
        </lyric>
      </note>
      <note default-x="89">
        <pitch>
          <step>A</step>
          <octave>4</octave>
        </pitch>
        <duration>1</duration>
        <voice>1</voice>
        <type>eighth</type>
        <stem default-y="15">up</stem>
        <beam number="1">begin</beam>
        <notations>
          <slur bezier-x="18" bezier-y="-16" default-x="4" default-y="-34" number="1" placement="below" type="start"/>
        </notations>
        <lyric default-y="-97" number="1" relative-x="28">
          <syllabic>single</syllabic>
          <text>ư</text>
        </lyric>
        <lyric default-y="-127" number="2" relative-x="26">
          <syllabic>single</syllabic>
          <text>ư</text>
        </lyric>
      </note>
      <note default-x="112">
        <pitch>
          <step>C</step>
          <octave>5</octave>
        </pitch>
        <duration>1</duration>
        <voice>1</voice>
        <type>eighth</type>
        <stem default-y="20">up</stem>
        <beam number="1">end</beam>
      </note>
      <note default-x="136">
        <pitch>
          <step>A</step>
          <octave>4</octave>
        </pitch>
        <duration>1</duration>
        <voice>1</voice>
        <type>eighth</type>
        <stem default-y="10">up</stem>
        <beam number="1">begin</beam>
      </note>
      <note default-x="159">
        <pitch>
          <step>G</step>
          <octave>4</octave>
        </pitch>
        <duration>1</duration>
        <voice>1</voice>
        <type>eighth</type>
        <stem default-y="5">up</stem>
        <beam number="1">end</beam>
        <notations>
          <slur bezier-x="-20" bezier-y="-12" default-x="3" default-y="-40" number="1" type="stop"/>
        </notations>
      </note>
      <note default-x="192">
        <pitch>
          <step>F</step>
          <octave>4</octave>
        </pitch>
        <duration>2</duration>
        <voice>1</voice>
        <type>quarter</type>
        <stem default-y="0">up</stem>
        <lyric default-y="-97" number="1">
          <syllabic>single</syllabic>
          <text>(làm</text>
        </lyric>
        <lyric default-y="-127" number="2">
          <syllabic>single</syllabic>
          <text>(làm</text>
        </lyric>
      </note>
    </measure>
    <!--=======================================================-->
    <measure number="11" width="177">
      <note default-x="13">
        <pitch>
          <step>G</step>
          <octave>4</octave>
        </pitch>
        <duration>3</duration>
        <voice>1</voice>
        <type>quarter</type>
        <dot/>
        <stem default-y="5">up</stem>
        <lyric default-y="-97" number="1" relative-x="6">
          <syllabic>single</syllabic>
          <text>răng)</text>
        </lyric>
        <lyric default-y="-127" number="2" relative-x="6">
          <syllabic>single</syllabic>
          <text>răng)</text>
        </lyric>
      </note>
      <note default-x="84">
        <pitch>
          <step>A</step>
          <octave>4</octave>
        </pitch>
        <duration>3</duration>
        <voice>1</voice>
        <type>quarter</type>
        <dot/>
        <stem default-y="10">up</stem>
        <lyric default-y="-97" number="1">
          <syllabic>single</syllabic>
          <text>để</text>
        </lyric>
        <lyric default-y="-127" number="2">
          <syllabic>single</syllabic>
          <text>chao</text>
        </lyric>
      </note>
      <note default-x="139">
        <pitch>
          <step>G</step>
          <octave>4</octave>
        </pitch>
        <duration>2</duration>
        <voice>1</voice>
        <type>quarter</type>
        <stem default-y="5">up</stem>
        <lyric default-y="-97" number="1">
          <syllabic>single</syllabic>
          <text>cho</text>
        </lyric>
        <lyric default-y="-127" number="2">
          <syllabic>single</syllabic>
          <text>ôi</text>
        </lyric>
      </note>
    </measure>
    <!--=======================================================-->
    <measure number="12" width="202">
      <note default-x="13">
        <rest/>
        <duration>2</duration>
        <voice>1</voice>
        <type>quarter</type>
      </note>
      <note default-x="52">
        <pitch>
          <step>A</step>
          <octave>4</octave>
        </pitch>
        <duration>2</duration>
        <voice>1</voice>
        <type>quarter</type>
        <stem default-y="10">up</stem>
        <lyric default-y="-97" number="1">
          <syllabic>single</syllabic>
          <text>để</text>
        </lyric>
        <lyric default-y="-127" number="2">
          <syllabic>single</syllabic>
          <text>em</text>
        </lyric>
      </note>
      <note default-x="91">
        <pitch>
          <step>G</step>
          <octave>4</octave>
        </pitch>
        <duration>1</duration>
        <voice>1</voice>
        <type>eighth</type>
        <stem default-y="5">up</stem>
        <beam number="1">begin</beam>
        <notations>
          <slur bezier-x="8" bezier-y="-10" default-x="6" default-y="-43" number="1" placement="below" type="start"/>
        </notations>
        <lyric default-y="-97" justify="left" number="1">
          <syllabic>single</syllabic>
          <text>cho</text>
          <extend type="start"/>
        </lyric>
        <lyric default-y="-127" justify="left" number="2">
          <syllabic>single</syllabic>
          <text>đau</text>
          <extend type="start"/>
        </lyric>
      </note>
      <note default-x="121">
        <pitch>
          <step>F</step>
          <octave>4</octave>
        </pitch>
        <duration>1</duration>
        <voice>1</voice>
        <type>eighth</type>
        <stem default-y="0">up</stem>
        <beam number="1">end</beam>
        <notations>
          <slur bezier-x="-9" bezier-y="-8" default-x="6" default-y="-45" number="1" type="stop"/>
        </notations>
        <lyric number="1">
          <extend type="stop"/>
        </lyric>
        <lyric number="2">
          <extend type="stop"/>
        </lyric>
      </note>
      <note default-x="157">
        <pitch>
          <step>C</step>
          <octave>4</octave>
        </pitch>
        <duration>2</duration>
        <voice>1</voice>
        <type>quarter</type>
        <stem default-y="-15">up</stem>
        <lyric default-y="-97" number="1">
          <syllabic>single</syllabic>
          <text>con</text>
        </lyric>
        <lyric default-y="-127" number="2">
          <syllabic>single</syllabic>
          <text>bụng</text>
        </lyric>
      </note>
    </measure>
    <!--=======================================================-->
    <measure number="13" width="172">
      <note default-x="13">
        <pitch>
          <step>D</step>
          <octave>4</octave>
        </pitch>
        <duration>2</duration>
        <voice>1</voice>
        <type>quarter</type>
        <stem default-y="-10">up</stem>
        <lyric default-y="-97" number="1">
          <syllabic>single</syllabic>
          <text>sáo</text>
        </lyric>
        <lyric default-y="-127" number="2">
          <syllabic>single</syllabic>
          <text>lắm</text>
        </lyric>
      </note>
      <note default-x="50">
        <pitch>
          <step>G</step>
          <octave>4</octave>
        </pitch>
        <duration>1</duration>
        <voice>1</voice>
        <type>eighth</type>
        <stem default-y="5">up</stem>
        <beam number="1">begin</beam>
        <notations>
          <slur bezier-x="6" bezier-y="-8" default-x="6" default-y="-43" number="1" placement="below" type="start"/>
        </notations>
        <lyric default-y="-97" number="1" relative-x="11">
          <syllabic>single</syllabic>
          <text>ư</text>
        </lyric>
        <lyric default-y="-127" number="2" relative-x="8">
          <syllabic>single</syllabic>
          <text>ư</text>
        </lyric>
      </note>
      <note default-x="74">
        <pitch>
          <step>F</step>
          <octave>4</octave>
        </pitch>
        <duration>1</duration>
        <voice>1</voice>
        <type>eighth</type>
        <stem default-y="0">up</stem>
        <beam number="1">end</beam>
        <notations>
          <slur bezier-x="-8" bezier-y="-7" default-x="6" default-y="-45" number="1" type="stop"/>
        </notations>
      </note>
      <note default-x="96">
        <pitch>
          <step>C</step>
          <octave>4</octave>
        </pitch>
        <duration>2</duration>
        <voice>1</voice>
        <type>quarter</type>
        <stem default-y="-15">up</stem>
        <lyric default-y="-97" number="1">
          <syllabic>single</syllabic>
          <text>ư</text>
        </lyric>
        <lyric default-y="-127" number="2">
          <syllabic>single</syllabic>
          <text>ư</text>
        </lyric>
      </note>
      <note default-x="134">
        <pitch>
          <step>D</step>
          <octave>4</octave>
        </pitch>
        <duration>2</duration>
        <voice>1</voice>
        <type>quarter</type>
        <stem default-y="-10">up</stem>
        <lyric default-y="-97" number="1">
          <syllabic>single</syllabic>
          <text>ư</text>
        </lyric>
        <lyric default-y="-127" number="2">
          <syllabic>single</syllabic>
          <text>ư</text>
        </lyric>
      </note>
    </measure>
    <!--=======================================================-->
    <measure number="14" width="200">
      <note default-x="13">
        <rest/>
        <duration>2</duration>
        <voice>1</voice>
        <type>quarter</type>
      </note>
      <note default-x="53">
        <pitch>
          <step>G</step>
          <octave>3</octave>
        </pitch>
        <duration>2</duration>
        <voice>1</voice>
        <type>quarter</type>
        <stem default-y="-20">up</stem>
        <lyric default-y="-97" number="1">
          <syllabic>single</syllabic>
          <text>sổ</text>
        </lyric>
        <lyric default-y="-127" number="2">
          <syllabic>single</syllabic>
          <text>lấy</text>
        </lyric>
      </note>
      <note default-x="105">
        <pitch>
          <step>G</step>
          <octave>3</octave>
        </pitch>
        <duration>2</duration>
        <voice>1</voice>
        <type>quarter</type>
        <stem default-y="-20">up</stem>
        <lyric default-y="-97" number="1">
          <syllabic>single</syllabic>
          <text>lồng</text>
        </lyric>
        <lyric default-y="-127" number="2">
          <syllabic>single</syllabic>
          <text>gừng</text>
        </lyric>
      </note>
      <note default-x="159">
        <pitch>
          <step>A</step>
          <octave>3</octave>
        </pitch>
        <duration>2</duration>
        <voice>1</voice>
        <type>quarter</type>
        <stem default-y="-20">up</stem>
        <lyric default-y="-97" number="1">
          <syllabic>single</syllabic>
          <text>bay</text>
        </lyric>
        <lyric default-y="-127" number="2">
          <syllabic>single</syllabic>
          <text>cho</text>
        </lyric>
      </note>
    </measure>
    <!--=======================================================-->
    <measure number="15" width="359">
      <print new-system="yes">
        <system-layout>
          <system-distance>129</system-distance>
        </system-layout>
      </print>
      <note default-x="53">
        <pitch>
          <step>C</step>
          <octave>4</octave>
        </pitch>
        <duration>2</duration>
        <voice>1</voice>
        <type>quarter</type>
        <stem default-y="-15">up</stem>
        <lyric default-y="-97" number="1">
          <syllabic>single</syllabic>
          <text>xa</text>
        </lyric>
        <lyric default-y="-127" number="2">
          <syllabic>single</syllabic>
          <text>mau</text>
        </lyric>
      </note>
      <note default-x="121">
        <pitch>
          <step>D</step>
          <octave>4</octave>
        </pitch>
        <duration>1</duration>
        <voice>1</voice>
        <type>eighth</type>
        <stem default-y="-5">up</stem>
        <beam number="1">begin</beam>
        <notations>
          <slur bezier-x="31" bezier-y="-17" default-x="6" default-y="-55" number="1" placement="below" type="start"/>
        </notations>
        <lyric default-y="-97" number="1" relative-x="58">
          <syllabic>single</syllabic>
          <text>ư</text>
        </lyric>
        <lyric default-y="-127" number="2" relative-x="56">
          <syllabic>single</syllabic>
          <text>ư</text>
        </lyric>
      </note>
      <note default-x="164">
        <pitch>
          <step>F</step>
          <octave>4</octave>
        </pitch>
        <duration>1</duration>
        <voice>1</voice>
        <type>eighth</type>
        <stem default-y="0">up</stem>
        <beam number="1">end</beam>
      </note>
      <note default-x="206">
        <pitch>
          <step>D</step>
          <octave>4</octave>
        </pitch>
        <duration>1</duration>
        <voice>1</voice>
        <type>eighth</type>
        <stem default-y="-10">up</stem>
        <beam number="1">begin</beam>
      </note>
      <note default-x="248">
        <pitch>
          <step>C</step>
          <octave>4</octave>
        </pitch>
        <duration>1</duration>
        <voice>1</voice>
        <type>eighth</type>
        <stem default-y="-15">up</stem>
        <beam number="1">end</beam>
        <notations>
          <slur bezier-x="-32" bezier-y="-14" default-x="6" default-y="-60" number="1" type="stop"/>
        </notations>
      </note>
      <note default-x="290">
        <pitch>
          <step>A</step>
          <octave>3</octave>
        </pitch>
        <duration>2</duration>
        <voice>1</voice>
        <type>quarter</type>
        <stem default-y="-20">up</stem>
        <lyric default-y="-97" number="1">
          <syllabic>single</syllabic>
          <text>bay</text>
        </lyric>
        <lyric default-y="-127" number="2">
          <syllabic>single</syllabic>
          <text>cho</text>
        </lyric>
      </note>
    </measure>
    <!--=======================================================-->
    <measure number="16" width="332">
      <note default-x="16">
        <pitch>
          <step>C</step>
          <octave>4</octave>
        </pitch>
        <duration>2</duration>
        <voice>1</voice>
        <type>quarter</type>
        <stem default-y="-15">up</stem>
        <lyric default-y="-97" number="1">
          <syllabic>single</syllabic>
          <text>xa</text>
        </lyric>
        <lyric default-y="-127" number="2">
          <syllabic>single</syllabic>
          <text>mau</text>
        </lyric>
      </note>
      <note default-x="86">
        <pitch>
          <step>D</step>
          <octave>4</octave>
        </pitch>
        <duration>1</duration>
        <voice>1</voice>
        <type>eighth</type>
        <stem default-y="-5">up</stem>
        <beam number="1">begin</beam>
        <notations>
          <slur bezier-x="32" bezier-y="-17" default-x="6" default-y="-55" number="1" placement="below" type="start"/>
        </notations>
        <lyric default-y="-96" number="1" relative-x="64">
          <syllabic>single</syllabic>
          <text>ư</text>
        </lyric>
        <lyric default-y="-125" number="2" relative-x="63">
          <syllabic>single</syllabic>
          <text>ư</text>
        </lyric>
      </note>
      <note default-x="130">
        <pitch>
          <step>F</step>
          <octave>4</octave>
        </pitch>
        <duration>1</duration>
        <voice>1</voice>
        <type>eighth</type>
        <stem default-y="0">up</stem>
        <beam number="1">end</beam>
      </note>
      <note default-x="173">
        <pitch>
          <step>D</step>
          <octave>4</octave>
        </pitch>
        <duration>1</duration>
        <voice>1</voice>
        <type>eighth</type>
        <stem default-y="-10">up</stem>
        <beam number="1">begin</beam>
      </note>
      <note default-x="217">
        <pitch>
          <step>C</step>
          <octave>4</octave>
        </pitch>
        <duration>1</duration>
        <voice>1</voice>
        <type>eighth</type>
        <stem default-y="-15">up</stem>
        <beam number="1">end</beam>
        <notations>
          <slur bezier-x="-33" bezier-y="-14" default-x="6" default-y="-60" number="1" type="stop"/>
        </notations>
      </note>
      <note default-x="261">
        <pitch>
          <step>A</step>
          <octave>3</octave>
        </pitch>
        <duration>2</duration>
        <voice>1</voice>
        <type>quarter</type>
        <stem default-y="-20">up</stem>
        <lyric default-y="-97" number="1">
          <syllabic>single</syllabic>
          <text>bay</text>
        </lyric>
        <lyric default-y="-127" number="2">
          <syllabic>single</syllabic>
          <text>cho</text>
        </lyric>
      </note>
    </measure>
    <!--=======================================================-->
    <measure number="17" width="292">
      <note default-x="16">
        <pitch>
          <step>C</step>
          <octave>4</octave>
        </pitch>
        <duration>2</duration>
        <voice>1</voice>
        <type>quarter</type>
        <stem default-y="-15">up</stem>
        <lyric default-y="-97" number="1">
          <syllabic>single</syllabic>
          <text>xa</text>
        </lyric>
        <lyric default-y="-127" number="2">
          <syllabic>single</syllabic>
          <text>mau</text>
        </lyric>
      </note>
      <note default-x="82">
        <pitch>
          <step>G</step>
          <octave>4</octave>
        </pitch>
        <duration>2</duration>
        <voice>1</voice>
        <type>quarter</type>
        <stem default-y="5">up</stem>
        <lyric default-y="-97" number="1">
          <syllabic>single</syllabic>
          <text>Hai</text>
        </lyric>
      </note>
      <note default-x="149">
        <pitch>
          <step>G</step>
          <octave>4</octave>
        </pitch>
        <duration>2</duration>
        <voice>1</voice>
        <type>quarter</type>
        <stem default-y="5">up</stem>
        <lyric default-y="-97" number="1">
          <syllabic>single</syllabic>
          <text>tay</text>
        </lyric>
      </note>
      <note default-x="215">
        <pitch>
          <step>G</step>
          <octave>4</octave>
        </pitch>
        <duration>2</duration>
        <voice>1</voice>
        <type>quarter</type>
        <stem default-y="5">up</stem>
        <lyric default-y="-97" number="1">
          <syllabic>single</syllabic>
          <text>ôm</text>
        </lyric>
      </note>
      <direction placement="above" system="only-top">
        <direction-type>
          <segno default-x="278" default-y="6"/>
        </direction-type>
        <sound divisions="2" segno="17"/>
      </direction>
      <barline location="right">
        <bar-style>light-heavy</bar-style>
      </barline>
    </measure>
  </part>
  <!--=========================================================-->
</score-partwise>
