<?xml version="1.0" encoding="UTF-8" standalone="no"?>
<!DOCTYPE score-partwise PUBLIC "-//Recordare//DTD MusicXML 4.0 Partwise//EN" "http://www.musicxml.org/dtds/partwise.dtd">
<score-partwise version="4.0">
  <movement-title>Tâmpớt đối đáp</movement-title>
  <identification>
    <creator type="composer">Người hát: 
Thị Muôn
Thị Pho</creator>
    <creator type="arranger">Ký âm: Mỹ Liêm</creator>
    <rights>©</rights>
    <encoding>
      <software>Finale v27.2 for Windows</software>
      <encoding-date>2025-08-18</encoding-date>
      <supports attribute="new-system" element="print" type="yes" value="yes"/>
      <supports attribute="new-page" element="print" type="yes" value="yes"/>
      <supports element="accidental" type="yes"/>
      <supports element="beam" type="yes"/>
      <supports element="stem" type="yes"/>
    </encoding>
  </identification>
  <defaults>
    <scaling>
      <millimeters>7.2319</millimeters>
      <tenths>40</tenths>
    </scaling>
    <page-layout>
      <page-height>1545</page-height>
      <page-width>1194</page-width>
      <page-margins type="both">
        <left-margin>140</left-margin>
        <right-margin>70</right-margin>
        <top-margin>222</top-margin>
        <bottom-margin>70</bottom-margin>
      </page-margins>
    </page-layout>
    <system-layout>
      <system-margins>
        <left-margin>63</left-margin>
        <right-margin>0</right-margin>
      </system-margins>
      <system-distance>121</system-distance>
      <top-system-distance>70</top-system-distance>
    </system-layout>
    <appearance>
      <line-width type="stem">0.9115</line-width>
      <line-width type="beam">5</line-width>
      <line-width type="staff">0.9115</line-width>
      <line-width type="light barline">1.0026</line-width>
      <line-width type="heavy barline">5</line-width>
      <line-width type="leger">1.1003</line-width>
      <line-width type="ending">1.3021</line-width>
      <line-width type="wedge">1.0026</line-width>
      <line-width type="enclosure">1.3021</line-width>
      <line-width type="tuplet bracket">1.0026</line-width>
      <note-size type="grace">60</note-size>
      <note-size type="cue">60</note-size>
      <distance type="hyphen">120</distance>
      <distance type="beam">7.5</distance>
    </appearance>
    <music-font font-family="Finale Maestro,engraved" font-size="20.5"/>
    <word-font font-family="Times New Roman" font-size="10.25"/>
    <lyric-font font-family="Arial" font-size="12"/>
  </defaults>
  <credit page="1">
    <credit-type>title</credit-type>
    <credit-words default-x="652" default-y="1440" font-family="Arial" font-size="24" font-weight="bold" justify="center" valign="top">Tâmpớt đối đáp</credit-words>
  </credit>
  <credit page="1">
    <credit-type>rights</credit-type>
    <credit-words default-x="632" default-y="53" font-size="10" justify="center" valign="bottom">©</credit-words>
  </credit>
  <credit page="1">
    <credit-type>arranger</credit-type>
    <credit-words default-x="1121" default-y="1245" font-family="Arial" font-size="14" halign="right" valign="top">Ký âm: Mỹ Liêm</credit-words>
  </credit>
  <credit page="1">
    <credit-words default-x="54" default-y="1195" font-family="Arial" font-size="12" font-weight="bold" valign="top" xml:space="preserve">Đối
(Thị Muôn)</credit-words>
  </credit>
  <credit page="1">
    <credit-words default-x="925" default-y="1354" font-family="Arial" font-size="14" valign="top">Người hát:</credit-words>
  </credit>
  <credit page="1">
    <credit-words default-x="962" default-y="1320" font-family="Arial" font-size="14" valign="top">Thị Muôn (1965)</credit-words>
  </credit>
  <credit page="1">
    <credit-words default-x="963" default-y="1289" font-family="Arial" font-size="14" valign="top">Thị Pho (1952)</credit-words>
  </credit>
  <credit page="1">
    <credit-words default-x="39" default-y="1329" font-family="Arial" font-size="12" valign="top" xml:space="preserve">Thu âm tại xã Thanh An, Hớn Quãn.
Ngày 8/1/2021</credit-words>
  </credit>
  <part-list>
    <score-part id="P1">
      <part-name print-object="no">MusicXML Part</part-name>
      <group>score</group>
      <score-instrument id="P1-I1">
        <instrument-name>SmartMusic SoftSynth</instrument-name>
        <virtual-instrument/>
      </score-instrument>
      <midi-device>SmartMusic SoftSynth</midi-device>
      <midi-instrument id="P1-I1">
        <midi-channel>1</midi-channel>
        <midi-bank>15489</midi-bank>
        <midi-program>1</midi-program>
        <volume>80</volume>
        <pan>0</pan>
      </midi-instrument>
    </score-part>
  </part-list>
  <!--=========================================================-->
  <part id="P1">
    <measure number="1" width="153">
      <print>
        <system-layout>
          <system-margins>
            <left-margin>70</left-margin>
            <right-margin>0</right-margin>
          </system-margins>
          <top-system-distance>177</top-system-distance>
        </system-layout>
        <measure-numbering multiple-rest-always="no" multiple-rest-range="no" system="only-top">system</measure-numbering>
      </print>
      <attributes>
        <divisions>4</divisions>
        <key print-object="no">
          <fifths>0</fifths>
          <mode>major</mode>
        </key>
        <time print-object="no">
          <senza-misura/>
        </time>
        <clef>
          <sign>G</sign>
          <line>2</line>
        </clef>
      </attributes>
      <sound tempo="120">
        <swing>
          <straight/>
        </swing>
      </sound>
      <note default-x="62">
        <pitch>
          <step>B</step>
          <alter>-1</alter>
          <octave>4</octave>
        </pitch>
        <duration>16</duration>
        <voice>1</voice>
        <type>whole</type>
        <accidental>flat</accidental>
        <notations>
          <slur bezier-x="15" bezier-y="-23" default-x="6" default-y="-29" number="1" placement="below" type="start"/>
          <fermata default-x="-4" default-y="5" type="upright"/>
        </notations>
        <lyric default-y="-95" number="1">
          <syllabic>single</syllabic>
          <text>Ê......</text>
        </lyric>
      </note>
      <note default-x="140">
        <grace slash="yes"/>
        <pitch>
          <step>F</step>
          <octave>4</octave>
        </pitch>
        <voice>1</voice>
        <type>quarter</type>
        <stem default-y="-14">up</stem>
        <notations>
          <slur bezier-x="-24" bezier-y="-14" default-x="-1" default-y="-46" number="1" type="stop"/>
        </notations>
      </note>
      <barline location="right">
        <bar-style>none</bar-style>
      </barline>
    </measure>
    <!--=======================================================-->
    <measure number="2" width="71">
      <note default-x="21">
        <grace slash="yes"/>
        <pitch>
          <step>E</step>
          <alter>-1</alter>
          <octave>4</octave>
        </pitch>
        <voice>1</voice>
        <type>eighth</type>
        <accidental>flat</accidental>
        <stem default-y="-19">up</stem>
        <notations>
          <slur bezier-x="8" bezier-y="-7" default-x="4" default-y="-48" number="1" placement="below" type="start"/>
        </notations>
      </note>
      <note default-x="43">
        <pitch>
          <step>F</step>
          <octave>4</octave>
        </pitch>
        <duration>2</duration>
        <voice>1</voice>
        <type>eighth</type>
        <stem default-y="0">up</stem>
        <notations>
          <slur bezier-x="-6" bezier-y="-9" default-x="6" default-y="-45" number="1" type="stop"/>
        </notations>
        <lyric default-y="-95" number="1">
          <syllabic>single</syllabic>
          <text>ê</text>
        </lyric>
      </note>
      <barline location="right">
        <bar-style>none</bar-style>
      </barline>
    </measure>
    <!--=======================================================-->
    <measure number="3" width="74">
      <note default-x="21">
        <grace slash="yes"/>
        <pitch>
          <step>E</step>
          <alter>-1</alter>
          <octave>4</octave>
        </pitch>
        <voice>1</voice>
        <type>eighth</type>
        <accidental>flat</accidental>
        <stem default-y="-19">up</stem>
        <notations>
          <slur bezier-x="8" bezier-y="-7" default-x="4" default-y="-48" number="1" placement="below" type="start"/>
        </notations>
      </note>
      <note default-x="43">
        <pitch>
          <step>F</step>
          <octave>4</octave>
        </pitch>
        <duration>2</duration>
        <voice>1</voice>
        <type>eighth</type>
        <stem default-y="0">up</stem>
        <notations>
          <slur bezier-x="-6" bezier-y="-9" default-x="6" default-y="-45" number="1" type="stop"/>
        </notations>
        <lyric default-y="-95" number="1">
          <syllabic>single</syllabic>
          <text>em</text>
        </lyric>
      </note>
      <barline location="right">
        <bar-style>none</bar-style>
      </barline>
    </measure>
    <!--=======================================================-->
    <measure number="4" width="105">
      <direction>
        <direction-type>
          <words default-x="75" default-y="-18" font-weight="bold" valign="top">b</words>
        </direction-type>
        <offset>4</offset>
      </direction>
      <note default-x="23">
        <grace slash="yes"/>
        <pitch>
          <step>E</step>
          <alter>-1</alter>
          <octave>4</octave>
        </pitch>
        <voice>1</voice>
        <type>eighth</type>
        <accidental>flat</accidental>
        <stem default-y="-19">up</stem>
        <notations>
          <slur bezier-x="8" bezier-y="-7" default-x="4" default-y="-48" number="1" placement="below" type="start"/>
        </notations>
      </note>
      <note default-x="45">
        <pitch>
          <step>F</step>
          <octave>4</octave>
        </pitch>
        <duration>4</duration>
        <voice>1</voice>
        <type>quarter</type>
        <stem default-y="0">up</stem>
        <notations>
          <slur bezier-x="-7" bezier-y="-9" default-x="7" default-y="-45" number="1" type="stop"/>
          <slur bezier-x="10" bezier-y="-12" default-x="7" default-y="-45" number="1" placement="below" type="start"/>
          <fermata default-x="-5" default-y="6" type="upright"/>
        </notations>
        <lyric default-y="-95" number="1">
          <syllabic>single</syllabic>
          <text>a.....</text>
        </lyric>
      </note>
      <note default-x="86">
        <pitch>
          <step>E</step>
          <alter>-1</alter>
          <octave>4</octave>
        </pitch>
        <duration>2</duration>
        <voice>1</voice>
        <type>eighth</type>
        <stem default-y="-5">up</stem>
        <notations>
          <slur bezier-x="-13" bezier-y="-10" default-x="6" default-y="-50" number="1" type="stop"/>
        </notations>
      </note>
      <barline location="right">
        <bar-style>none</bar-style>
      </barline>
    </measure>
    <!--=======================================================-->
    <measure number="5" width="86">
      <note default-x="21">
        <grace slash="yes"/>
        <pitch>
          <step>D</step>
          <alter>-1</alter>
          <octave>4</octave>
        </pitch>
        <voice>1</voice>
        <type>eighth</type>
        <accidental>flat</accidental>
        <stem default-y="-24">up</stem>
        <notations>
          <slur bezier-x="11" bezier-y="-10" default-x="4" default-y="-53" number="1" placement="below" type="start"/>
        </notations>
      </note>
      <note default-x="54">
        <pitch>
          <step>E</step>
          <alter>-1</alter>
          <octave>4</octave>
        </pitch>
        <duration>1</duration>
        <voice>1</voice>
        <type>16th</type>
        <accidental>flat</accidental>
        <stem default-y="-5">up</stem>
        <notations>
          <slur bezier-x="-10" bezier-y="-11" default-x="6" default-y="-50" number="1" type="stop"/>
        </notations>
        <lyric default-y="-95" number="1">
          <syllabic>single</syllabic>
          <text>Mê</text>
        </lyric>
      </note>
      <barline location="right">
        <bar-style>none</bar-style>
      </barline>
    </measure>
    <!--=======================================================-->
    <measure number="6" width="89">
      <note default-x="21">
        <grace slash="yes"/>
        <pitch>
          <step>D</step>
          <alter>-1</alter>
          <octave>4</octave>
        </pitch>
        <voice>1</voice>
        <type>eighth</type>
        <accidental>flat</accidental>
        <stem default-y="-24">up</stem>
        <notations>
          <slur bezier-x="11" bezier-y="-10" default-x="4" default-y="-53" number="1" placement="below" type="start"/>
        </notations>
      </note>
      <note default-x="55">
        <pitch>
          <step>E</step>
          <alter>-1</alter>
          <octave>4</octave>
        </pitch>
        <duration>1</duration>
        <voice>1</voice>
        <type>16th</type>
        <accidental>flat</accidental>
        <stem default-y="-5">up</stem>
        <notations>
          <slur bezier-x="-10" bezier-y="-11" default-x="6" default-y="-50" number="1" type="stop"/>
        </notations>
        <lyric default-y="-95" number="1">
          <syllabic>single</syllabic>
          <text>b'ra</text>
        </lyric>
      </note>
      <barline location="right">
        <bar-style>none</bar-style>
      </barline>
    </measure>
    <!--=======================================================-->
    <measure number="7" width="88">
      <note default-x="21">
        <grace slash="yes"/>
        <pitch>
          <step>D</step>
          <alter>-1</alter>
          <octave>4</octave>
        </pitch>
        <voice>1</voice>
        <type>eighth</type>
        <accidental>flat</accidental>
        <stem default-y="-24">up</stem>
        <notations>
          <slur bezier-x="11" bezier-y="-10" default-x="4" default-y="-53" number="1" placement="below" type="start"/>
        </notations>
      </note>
      <note default-x="55">
        <pitch>
          <step>E</step>
          <alter>-1</alter>
          <octave>4</octave>
        </pitch>
        <duration>1</duration>
        <voice>1</voice>
        <type>16th</type>
        <accidental>flat</accidental>
        <stem default-y="-5">up</stem>
        <notations>
          <slur bezier-x="-10" bezier-y="-11" default-x="6" default-y="-50" number="1" type="stop"/>
        </notations>
        <lyric default-y="-95" number="1">
          <syllabic>single</syllabic>
          <text>yoc</text>
        </lyric>
      </note>
      <barline location="right">
        <bar-style>none</bar-style>
      </barline>
    </measure>
    <!--=======================================================-->
    <measure number="8" width="106">
      <note default-x="25">
        <pitch>
          <step>E</step>
          <alter>-1</alter>
          <octave>4</octave>
        </pitch>
        <duration>2</duration>
        <voice>1</voice>
        <type>eighth</type>
        <accidental>flat</accidental>
        <stem default-y="-5">up</stem>
        <lyric default-y="-95" number="1">
          <syllabic>single</syllabic>
          <text>cluôn</text>
        </lyric>
      </note>
      <note default-x="75">
        <pitch>
          <step>D</step>
          <alter>-1</alter>
          <octave>4</octave>
        </pitch>
        <duration>2</duration>
        <voice>1</voice>
        <type>eighth</type>
        <accidental>flat</accidental>
        <stem default-y="-10">up</stem>
        <lyric default-y="-95" number="1">
          <syllabic>single</syllabic>
          <text>em</text>
        </lyric>
      </note>
      <barline location="right">
        <bar-style>none</bar-style>
      </barline>
    </measure>
    <!--=======================================================-->
    <measure number="9" width="141">
      <note default-x="25">
        <pitch>
          <step>D</step>
          <alter>-1</alter>
          <octave>4</octave>
        </pitch>
        <duration>2</duration>
        <voice>1</voice>
        <type>eighth</type>
        <accidental>flat</accidental>
        <stem default-y="-10">up</stem>
        <notations>
          <slur bezier-x="9" bezier-y="-14" default-x="6" default-y="-55" number="1" placement="below" type="start"/>
        </notations>
        <lyric default-y="-95" number="1">
          <syllabic>single</syllabic>
          <text>ê</text>
        </lyric>
      </note>
      <note default-x="65">
        <pitch>
          <step>B</step>
          <alter>-1</alter>
          <octave>3</octave>
        </pitch>
        <duration>8</duration>
        <voice>1</voice>
        <type>half</type>
        <accidental>flat</accidental>
        <stem default-y="-20">up</stem>
        <notations>
          <slur bezier-x="-15" bezier-y="-8" default-x="7" default-y="-65" number="1" type="stop"/>
        </notations>
        <lyric default-y="-95" number="1">
          <syllabic>single</syllabic>
          <text>ề...</text>
        </lyric>
      </note>
      <forward>
        <duration>2</duration>
        <voice>1</voice>
      </forward>
      <barline location="right">
        <bar-style>none</bar-style>
      </barline>
    </measure>
    <!--=======================================================-->
    <measure number="10" width="142">
      <print new-system="yes">
        <system-layout>
          <system-margins>
            <left-margin>0</left-margin>
            <right-margin>0</right-margin>
          </system-margins>
          <system-distance>114</system-distance>
        </system-layout>
      </print>
      <note default-x="59">
        <grace slash="yes"/>
        <pitch>
          <step>D</step>
          <alter>-1</alter>
          <octave>4</octave>
        </pitch>
        <voice>1</voice>
        <type>eighth</type>
        <accidental>flat</accidental>
        <stem default-y="-24">up</stem>
        <notations>
          <slur bezier-x="11" bezier-y="-10" default-x="4" default-y="-53" number="1" placement="below" type="start"/>
        </notations>
      </note>
      <note default-x="93">
        <pitch>
          <step>E</step>
          <alter>-1</alter>
          <octave>4</octave>
        </pitch>
        <duration>2</duration>
        <voice>1</voice>
        <type>eighth</type>
        <accidental>flat</accidental>
        <stem default-y="-5">up</stem>
        <notations>
          <slur bezier-x="-10" bezier-y="-11" default-x="6" default-y="-50" number="1" type="stop"/>
        </notations>
        <lyric default-y="-95" number="1">
          <syllabic>single</syllabic>
          <text>Rô</text>
        </lyric>
      </note>
      <barline location="right">
        <bar-style>none</bar-style>
      </barline>
    </measure>
    <!--=======================================================-->
    <measure number="11" width="106">
      <note default-x="22">
        <grace slash="yes"/>
        <pitch>
          <step>D</step>
          <alter>-1</alter>
          <octave>4</octave>
        </pitch>
        <voice>1</voice>
        <type>eighth</type>
        <accidental>flat</accidental>
        <stem default-y="-24">up</stem>
        <notations>
          <slur bezier-x="11" bezier-y="-10" default-x="4" default-y="-53" number="1" placement="below" type="start"/>
        </notations>
      </note>
      <note default-x="56">
        <pitch>
          <step>E</step>
          <alter>-1</alter>
          <octave>4</octave>
        </pitch>
        <duration>2</duration>
        <voice>1</voice>
        <type>eighth</type>
        <accidental>flat</accidental>
        <stem default-y="-5">up</stem>
        <notations>
          <slur bezier-x="-10" bezier-y="-11" default-x="7" default-y="-50" number="1" type="stop"/>
        </notations>
        <lyric default-y="-95" number="1">
          <syllabic>single</syllabic>
          <text>dơ</text>
        </lyric>
      </note>
      <barline location="right">
        <bar-style>none</bar-style>
      </barline>
    </measure>
    <!--=======================================================-->
    <measure number="12" width="119">
      <note default-x="22">
        <grace slash="yes"/>
        <pitch>
          <step>D</step>
          <alter>-1</alter>
          <octave>4</octave>
        </pitch>
        <voice>1</voice>
        <type>eighth</type>
        <accidental>flat</accidental>
        <stem default-y="-24">up</stem>
        <notations>
          <slur bezier-x="11" bezier-y="-10" default-x="4" default-y="-53" number="1" placement="below" type="start"/>
        </notations>
      </note>
      <note default-x="56">
        <pitch>
          <step>E</step>
          <alter>-1</alter>
          <octave>4</octave>
        </pitch>
        <duration>4</duration>
        <voice>1</voice>
        <type>quarter</type>
        <accidental>flat</accidental>
        <stem default-y="-5">up</stem>
        <notations>
          <slur bezier-x="-10" bezier-y="-11" default-x="7" default-y="-50" number="1" type="stop"/>
        </notations>
        <lyric default-y="-95" number="1">
          <syllabic>single</syllabic>
          <text>chơn</text>
        </lyric>
      </note>
      <barline location="right">
        <bar-style>none</bar-style>
      </barline>
    </measure>
    <!--=======================================================-->
    <measure number="13" width="150">
      <note default-x="22">
        <grace slash="yes"/>
        <pitch>
          <step>D</step>
          <alter>-1</alter>
          <octave>4</octave>
        </pitch>
        <voice>1</voice>
        <type>eighth</type>
        <accidental>flat</accidental>
        <stem default-y="-24">up</stem>
        <notations>
          <slur bezier-x="11" bezier-y="-10" default-x="4" default-y="-53" number="1" placement="below" type="start"/>
        </notations>
      </note>
      <note default-x="55">
        <pitch>
          <step>E</step>
          <alter>-1</alter>
          <octave>4</octave>
        </pitch>
        <duration>2</duration>
        <voice>1</voice>
        <type>eighth</type>
        <accidental>flat</accidental>
        <stem default-y="-5">up</stem>
        <notations>
          <slur bezier-x="-10" bezier-y="-11" default-x="6" default-y="-50" number="1" type="stop"/>
        </notations>
        <lyric default-y="-95" number="1">
          <syllabic>single</syllabic>
          <text>R'bơt</text>
        </lyric>
      </note>
      <barline location="right">
        <bar-style>none</bar-style>
      </barline>
    </measure>
    <!--=======================================================-->
    <measure number="14" width="142">
      <note default-x="21">
        <grace slash="yes"/>
        <pitch>
          <step>D</step>
          <alter>-1</alter>
          <octave>4</octave>
        </pitch>
        <voice>1</voice>
        <type>eighth</type>
        <accidental>flat</accidental>
        <stem default-y="-24">up</stem>
        <notations>
          <slur bezier-x="11" bezier-y="-10" default-x="4" default-y="-53" number="1" placement="below" type="start"/>
        </notations>
      </note>
      <note default-x="56">
        <pitch>
          <step>E</step>
          <alter>-1</alter>
          <octave>4</octave>
        </pitch>
        <duration>2</duration>
        <voice>1</voice>
        <type>eighth</type>
        <accidental>flat</accidental>
        <stem default-y="-5">up</stem>
        <notations>
          <slur bezier-x="-10" bezier-y="-11" default-x="7" default-y="-50" number="1" type="stop"/>
        </notations>
        <lyric default-y="-95" number="1">
          <syllabic>single</syllabic>
          <text>S'ka</text>
        </lyric>
      </note>
      <barline location="right">
        <bar-style>none</bar-style>
      </barline>
    </measure>
    <!--=======================================================-->
    <measure number="15" width="109">
      <note default-x="25">
        <pitch>
          <step>E</step>
          <alter>-1</alter>
          <octave>4</octave>
        </pitch>
        <duration>4</duration>
        <voice>1</voice>
        <type>quarter</type>
        <accidental>flat</accidental>
        <stem default-y="-5">up</stem>
        <notations>
          <slur bezier-x="13" bezier-y="-15" default-x="6" default-y="-50" number="1" placement="below" type="start"/>
        </notations>
        <lyric default-y="-95" number="1">
          <syllabic>single</syllabic>
          <text>chơn</text>
        </lyric>
      </note>
      <note default-x="77">
        <pitch>
          <step>D</step>
          <alter>-1</alter>
          <octave>4</octave>
        </pitch>
        <duration>2</duration>
        <voice>1</voice>
        <type>eighth</type>
        <accidental>flat</accidental>
        <stem default-y="-10">up</stem>
        <notations>
          <slur bezier-x="-16" bezier-y="-12" default-x="6" default-y="-55" number="1" type="stop"/>
        </notations>
      </note>
      <barline location="right">
        <bar-style>none</bar-style>
      </barline>
    </measure>
    <!--=======================================================-->
    <measure number="16" width="105">
      <note default-x="22">
        <grace slash="yes"/>
        <pitch>
          <step>D</step>
          <alter>-1</alter>
          <octave>4</octave>
        </pitch>
        <voice>1</voice>
        <type>eighth</type>
        <accidental>flat</accidental>
        <stem default-y="-24">up</stem>
        <notations>
          <slur bezier-x="11" bezier-y="-10" default-x="4" default-y="-53" number="1" placement="below" type="start"/>
        </notations>
      </note>
      <note default-x="56">
        <pitch>
          <step>E</step>
          <alter>-1</alter>
          <octave>4</octave>
        </pitch>
        <duration>1</duration>
        <voice>1</voice>
        <type>16th</type>
        <accidental>flat</accidental>
        <stem default-y="-5">up</stem>
        <notations>
          <slur bezier-x="-10" bezier-y="-11" default-x="7" default-y="-50" number="1" type="stop"/>
        </notations>
        <lyric default-y="-95" number="1">
          <syllabic>single</syllabic>
          <text>sơ</text>
        </lyric>
      </note>
      <barline location="right">
        <bar-style>none</bar-style>
      </barline>
    </measure>
    <!--=======================================================-->
    <measure number="17" width="110">
      <note default-x="22">
        <grace slash="yes"/>
        <pitch>
          <step>D</step>
          <alter>-1</alter>
          <octave>4</octave>
        </pitch>
        <voice>1</voice>
        <type>eighth</type>
        <accidental>flat</accidental>
        <stem default-y="-24">up</stem>
        <notations>
          <slur bezier-x="11" bezier-y="-10" default-x="4" default-y="-53" number="1" placement="below" type="start"/>
        </notations>
      </note>
      <note default-x="55">
        <pitch>
          <step>E</step>
          <alter>-1</alter>
          <octave>4</octave>
        </pitch>
        <duration>1</duration>
        <voice>1</voice>
        <type>16th</type>
        <accidental>flat</accidental>
        <stem default-y="-5">up</stem>
        <notations>
          <slur bezier-x="-10" bezier-y="-11" default-x="6" default-y="-50" number="1" type="stop"/>
        </notations>
        <lyric default-y="-95" number="1">
          <syllabic>single</syllabic>
          <text>đun</text>
        </lyric>
      </note>
      <barline location="right">
        <bar-style>none</bar-style>
      </barline>
    </measure>
    <!--=======================================================-->
    <measure number="18" width="166">
      <print new-system="yes">
        <system-layout>
          <system-margins>
            <left-margin>0</left-margin>
            <right-margin>0</right-margin>
          </system-margins>
          <system-distance>114</system-distance>
        </system-layout>
      </print>
      <direction>
        <direction-type>
          <words default-x="-94" default-y="-101" font-family="Arial" font-size="12" font-weight="bold" valign="top" xml:space="preserve">Đáp
(Thị Pho)</words>
        </direction-type>
      </direction>
      <note default-x="59">
        <grace slash="yes"/>
        <pitch>
          <step>D</step>
          <alter>-1</alter>
          <octave>4</octave>
        </pitch>
        <voice>1</voice>
        <type>eighth</type>
        <accidental>flat</accidental>
        <stem default-y="-24">up</stem>
        <notations>
          <slur bezier-x="11" bezier-y="-10" default-x="4" default-y="-53" number="1" placement="below" type="start"/>
        </notations>
      </note>
      <note default-x="93">
        <pitch>
          <step>E</step>
          <alter>-1</alter>
          <octave>4</octave>
        </pitch>
        <duration>2</duration>
        <voice>1</voice>
        <type>eighth</type>
        <accidental>flat</accidental>
        <stem default-y="-5">up</stem>
        <notations>
          <slur bezier-x="-10" bezier-y="-11" default-x="6" default-y="-50" number="1" type="stop"/>
        </notations>
        <lyric default-y="-95" number="1">
          <syllabic>single</syllabic>
          <text>lua</text>
        </lyric>
      </note>
      <barline location="right">
        <bar-style>none</bar-style>
      </barline>
    </measure>
    <!--=======================================================-->
    <measure number="19" width="141">
      <note default-x="22">
        <grace slash="yes"/>
        <pitch>
          <step>D</step>
          <alter>-1</alter>
          <octave>4</octave>
        </pitch>
        <voice>1</voice>
        <type>eighth</type>
        <accidental>flat</accidental>
        <stem default-y="-24">up</stem>
        <notations>
          <slur bezier-x="11" bezier-y="-10" default-x="4" default-y="-53" number="1" placement="below" type="start"/>
        </notations>
      </note>
      <note default-x="55">
        <pitch>
          <step>E</step>
          <alter>-1</alter>
          <octave>4</octave>
        </pitch>
        <duration>2</duration>
        <voice>1</voice>
        <type>eighth</type>
        <accidental>flat</accidental>
        <stem default-y="-5">up</stem>
        <notations>
          <slur bezier-x="-10" bezier-y="-11" default-x="6" default-y="-50" number="1" type="stop"/>
        </notations>
        <lyric default-y="-95" number="1">
          <syllabic>single</syllabic>
          <text>h'em</text>
        </lyric>
      </note>
      <barline location="right">
        <bar-style>none</bar-style>
      </barline>
    </measure>
    <!--=======================================================-->
    <measure number="20" width="95">
      <note default-x="25">
        <pitch>
          <step>E</step>
          <alter>-1</alter>
          <octave>4</octave>
        </pitch>
        <duration>1</duration>
        <voice>1</voice>
        <type>16th</type>
        <accidental>flat</accidental>
        <stem default-y="-5">up</stem>
        <lyric default-y="-95" number="1">
          <syllabic>single</syllabic>
          <text>mơn</text>
        </lyric>
      </note>
      <barline location="right">
        <bar-style>none</bar-style>
      </barline>
    </measure>
    <!--=======================================================-->
    <measure number="21" width="81">
      <note default-x="25">
        <pitch>
          <step>E</step>
          <alter>-1</alter>
          <octave>4</octave>
        </pitch>
        <duration>1</duration>
        <voice>1</voice>
        <type>16th</type>
        <accidental>flat</accidental>
        <stem default-y="-5">up</stem>
        <lyric default-y="-95" number="1">
          <syllabic>single</syllabic>
          <text>uê</text>
        </lyric>
      </note>
      <barline location="right">
        <bar-style>none</bar-style>
      </barline>
    </measure>
    <!--=======================================================-->
    <measure number="22" width="133">
      <note default-x="21">
        <grace slash="yes"/>
        <pitch>
          <step>D</step>
          <alter>-1</alter>
          <octave>4</octave>
        </pitch>
        <voice>1</voice>
        <type>eighth</type>
        <accidental>flat</accidental>
        <stem default-y="-24">up</stem>
        <notations>
          <slur bezier-x="11" bezier-y="-10" default-x="4" default-y="-53" number="1" placement="below" type="start"/>
        </notations>
      </note>
      <note default-x="56">
        <pitch>
          <step>E</step>
          <alter>-1</alter>
          <octave>4</octave>
        </pitch>
        <duration>2</duration>
        <voice>1</voice>
        <type>eighth</type>
        <accidental>flat</accidental>
        <stem default-y="-5">up</stem>
        <notations>
          <slur bezier-x="-10" bezier-y="-11" default-x="6" default-y="-50" number="1" type="stop"/>
        </notations>
        <lyric default-y="-95" number="1">
          <syllabic>single</syllabic>
          <text>t'ơn</text>
        </lyric>
      </note>
      <barline location="right">
        <bar-style>none</bar-style>
      </barline>
    </measure>
    <!--=======================================================-->
    <measure number="23" width="160">
      <note default-x="22">
        <grace slash="yes"/>
        <pitch>
          <step>D</step>
          <alter>-1</alter>
          <octave>4</octave>
        </pitch>
        <voice>1</voice>
        <type>eighth</type>
        <accidental>flat</accidental>
        <stem default-y="-24">up</stem>
        <notations>
          <slur bezier-x="11" bezier-y="-10" default-x="4" default-y="-53" number="1" placement="below" type="start"/>
        </notations>
      </note>
      <note default-x="55">
        <pitch>
          <step>E</step>
          <alter>-1</alter>
          <octave>4</octave>
        </pitch>
        <duration>2</duration>
        <voice>1</voice>
        <type>eighth</type>
        <accidental>flat</accidental>
        <stem default-y="-5">up</stem>
        <notations>
          <slur bezier-x="-10" bezier-y="-11" default-x="6" default-y="-50" number="1" type="stop"/>
          <slur bezier-x="30" bezier-y="-29" default-x="6" default-y="-50" number="1" placement="below" type="start"/>
          <fermata default-x="-6" default-y="5" type="upright"/>
        </notations>
        <lyric default-y="-95" number="1">
          <syllabic>single</syllabic>
          <text>t'ê....</text>
        </lyric>
      </note>
      <barline location="right">
        <bar-style>none</bar-style>
      </barline>
    </measure>
    <!--=======================================================-->
    <measure number="24" width="87">
      <note default-x="25">
        <pitch>
          <step>B</step>
          <alter>-1</alter>
          <octave>3</octave>
        </pitch>
        <duration>1</duration>
        <voice>1</voice>
        <type>16th</type>
        <accidental>flat</accidental>
        <stem default-y="-20">up</stem>
        <notations>
          <slur bezier-x="-35" bezier-y="-22" default-x="7" default-y="-65" number="1" type="stop"/>
        </notations>
        <lyric default-y="-95" number="1">
          <syllabic>single</syllabic>
          <text>lam</text>
        </lyric>
      </note>
      <barline location="right">
        <bar-style>none</bar-style>
      </barline>
    </measure>
    <!--=======================================================-->
    <measure number="25" width="121">
      <note default-x="25">
        <pitch>
          <step>B</step>
          <alter>-1</alter>
          <octave>3</octave>
        </pitch>
        <duration>8</duration>
        <voice>1</voice>
        <type>half</type>
        <accidental>flat</accidental>
        <stem default-y="-20">up</stem>
        <lyric default-y="-95" number="1">
          <syllabic>single</syllabic>
          <text>yêu</text>
        </lyric>
      </note>
      <barline location="right">
        <bar-style>none</bar-style>
      </barline>
    </measure>
    <!--=======================================================-->
    <measure number="26" width="175">
      <print new-system="yes">
        <system-layout>
          <system-distance>114</system-distance>
        </system-layout>
      </print>
      <note default-x="84">
        <grace slash="yes"/>
        <pitch>
          <step>E</step>
          <alter>-1</alter>
          <octave>4</octave>
        </pitch>
        <voice>1</voice>
        <type>eighth</type>
        <accidental>flat</accidental>
        <stem default-y="-19">up</stem>
        <notations>
          <slur bezier-x="9" bezier-y="-8" default-x="4" default-y="-48" number="1" placement="below" type="start"/>
        </notations>
      </note>
      <note default-x="106">
        <pitch>
          <step>F</step>
          <octave>4</octave>
        </pitch>
        <duration>16</duration>
        <voice>1</voice>
        <type>whole</type>
        <notations>
          <slur bezier-x="-7" bezier-y="-10" default-x="8" default-y="-45" number="1" type="stop"/>
          <fermata default-x="-4" default-y="5" type="upright"/>
        </notations>
        <lyric default-y="-95" number="1">
          <syllabic>single</syllabic>
          <text>a'....</text>
        </lyric>
      </note>
      <barline location="right">
        <bar-style>none</bar-style>
      </barline>
    </measure>
    <!--=======================================================-->
    <measure number="27" width="120">
      <note default-x="16">
        <pitch>
          <step>F</step>
          <octave>4</octave>
        </pitch>
        <duration>1</duration>
        <voice>1</voice>
        <type>16th</type>
        <stem default-y="0">up</stem>
        <lyric default-y="-95" number="1">
          <syllabic>single</syllabic>
          <text>B're</text>
        </lyric>
      </note>
      <note default-x="64">
        <pitch>
          <step>E</step>
          <alter>-1</alter>
          <octave>4</octave>
        </pitch>
        <duration>1</duration>
        <voice>1</voice>
        <type>16th</type>
        <accidental>flat</accidental>
        <stem default-y="-5">up</stem>
        <lyric default-y="-95" number="1">
          <syllabic>single</syllabic>
          <text>ri</text>
        </lyric>
      </note>
      <note default-x="101">
        <pitch>
          <step>F</step>
          <octave>4</octave>
        </pitch>
        <duration>2</duration>
        <voice>1</voice>
        <type>eighth</type>
        <stem default-y="0">up</stem>
        <lyric default-y="-95" number="1">
          <syllabic>single</syllabic>
          <text>sa</text>
        </lyric>
      </note>
      <barline location="right">
        <bar-style>none</bar-style>
      </barline>
    </measure>
    <!--=======================================================-->
    <measure number="28" width="125">
      <note default-x="19">
        <grace slash="yes"/>
        <pitch>
          <step>D</step>
          <alter>-1</alter>
          <octave>4</octave>
        </pitch>
        <voice>1</voice>
        <type>eighth</type>
        <accidental>flat</accidental>
        <stem default-y="-24">up</stem>
        <notations>
          <slur bezier-x="11" bezier-y="-10" default-x="4" default-y="-53" number="1" placement="below" type="start"/>
        </notations>
      </note>
      <note default-x="53">
        <pitch>
          <step>E</step>
          <alter>-1</alter>
          <octave>4</octave>
        </pitch>
        <duration>1</duration>
        <voice>1</voice>
        <type>16th</type>
        <accidental>flat</accidental>
        <stem default-y="-5">up</stem>
        <notations>
          <slur bezier-x="-10" bezier-y="-11" default-x="6" default-y="-50" number="1" type="stop"/>
        </notations>
        <lyric default-y="-95" number="1">
          <syllabic>single</syllabic>
          <text>B'ri</text>
        </lyric>
      </note>
      <note default-x="102">
        <pitch>
          <step>F</step>
          <octave>4</octave>
        </pitch>
        <duration>1</duration>
        <voice>1</voice>
        <type>16th</type>
        <stem default-y="0">up</stem>
        <lyric default-y="-95" number="1">
          <syllabic>single</syllabic>
          <text>hơ</text>
        </lyric>
      </note>
      <barline location="right">
        <bar-style>none</bar-style>
      </barline>
    </measure>
    <!--=======================================================-->
    <measure number="29" width="108">
      <note default-x="28">
        <grace slash="yes"/>
        <pitch>
          <step>D</step>
          <alter>-1</alter>
          <octave>4</octave>
        </pitch>
        <voice>1</voice>
        <type>eighth</type>
        <accidental>flat</accidental>
        <stem default-y="-24">up</stem>
        <notations>
          <slur bezier-x="11" bezier-y="-10" default-x="4" default-y="-53" number="1" placement="below" type="start"/>
        </notations>
      </note>
      <note default-x="61">
        <pitch>
          <step>E</step>
          <alter>-1</alter>
          <octave>4</octave>
        </pitch>
        <duration>2</duration>
        <voice>1</voice>
        <type>eighth</type>
        <accidental>flat</accidental>
        <stem default-y="-5">up</stem>
        <notations>
          <slur bezier-x="-10" bezier-y="-11" default-x="7" default-y="-50" number="1" type="stop"/>
        </notations>
        <lyric default-y="-95" number="1">
          <syllabic>single</syllabic>
          <text>b'ri</text>
        </lyric>
      </note>
      <barline location="right">
        <bar-style>none</bar-style>
      </barline>
    </measure>
    <!--=======================================================-->
    <measure number="30" width="100">
      <note default-x="25">
        <pitch>
          <step>E</step>
          <alter>-1</alter>
          <octave>4</octave>
        </pitch>
        <duration>4</duration>
        <voice>1</voice>
        <type>quarter</type>
        <accidental>flat</accidental>
        <stem default-y="-5">up</stem>
        <notations>
          <slur bezier-x="12" bezier-y="-13" default-x="7" default-y="-50" number="1" placement="below" type="start"/>
        </notations>
        <lyric default-y="-95" number="1">
          <syllabic>single</syllabic>
          <text>ơ...</text>
        </lyric>
      </note>
      <note default-x="71">
        <pitch>
          <step>D</step>
          <alter>-1</alter>
          <octave>4</octave>
        </pitch>
        <duration>2</duration>
        <voice>1</voice>
        <type>eighth</type>
        <accidental>flat</accidental>
        <stem default-y="-10">up</stem>
        <notations>
          <slur bezier-x="-15" bezier-y="-10" default-x="6" default-y="-55" number="1" type="stop"/>
        </notations>
        <lyric default-y="-95" number="1">
          <syllabic>single</syllabic>
          <text>ơi</text>
        </lyric>
      </note>
      <barline location="right">
        <bar-style>none</bar-style>
      </barline>
    </measure>
    <!--=======================================================-->
    <measure number="31" width="85">
      <note default-x="25">
        <pitch>
          <step>E</step>
          <alter>-1</alter>
          <octave>4</octave>
        </pitch>
        <duration>1</duration>
        <voice>1</voice>
        <type>16th</type>
        <accidental>flat</accidental>
        <stem default-y="-5">up</stem>
        <notations>
          <slur bezier-x="10" bezier-y="-7" default-x="7" default-y="-50" number="1" placement="below" type="start"/>
        </notations>
        <lyric default-y="-95" justify="left" number="1">
          <syllabic>single</syllabic>
          <text>K'ca</text>
          <extend type="start"/>
        </lyric>
      </note>
      <note default-x="55">
        <pitch>
          <step>F</step>
          <octave>4</octave>
        </pitch>
        <duration>1</duration>
        <voice>1</voice>
        <type>16th</type>
        <stem default-y="0">up</stem>
        <notations>
          <slur bezier-x="-7" bezier-y="-10" default-x="6" default-y="-45" number="1" type="stop"/>
        </notations>
        <lyric number="1">
          <extend type="stop"/>
        </lyric>
      </note>
      <barline location="right">
        <bar-style>none</bar-style>
      </barline>
    </measure>
    <!--=======================================================-->
    <measure number="32" width="103">
      <note default-x="24">
        <pitch>
          <step>D</step>
          <alter>-1</alter>
          <octave>4</octave>
        </pitch>
        <duration>1</duration>
        <voice>1</voice>
        <type>16th</type>
        <accidental>flat</accidental>
        <stem default-y="-10">up</stem>
        <lyric default-y="-95" number="1">
          <syllabic>single</syllabic>
          <text>sum</text>
        </lyric>
      </note>
      <note default-x="74">
        <pitch>
          <step>E</step>
          <alter>-1</alter>
          <octave>4</octave>
        </pitch>
        <duration>1</duration>
        <voice>1</voice>
        <type>16th</type>
        <accidental>flat</accidental>
        <stem default-y="-5">up</stem>
        <lyric default-y="-95" number="1">
          <syllabic>single</syllabic>
          <text>đôi</text>
        </lyric>
      </note>
      <barline location="right">
        <bar-style>none</bar-style>
      </barline>
    </measure>
    <!--=======================================================-->
    <measure number="33" width="106">
      <note default-x="25">
        <pitch>
          <step>E</step>
          <alter>-1</alter>
          <octave>4</octave>
        </pitch>
        <duration>2</duration>
        <voice>1</voice>
        <type>eighth</type>
        <accidental>flat</accidental>
        <stem default-y="-5">up</stem>
        <notations>
          <slur bezier-x="12" bezier-y="-13" default-x="6" default-y="-50" number="1" placement="below" type="start"/>
        </notations>
        <lyric default-y="-95" number="1">
          <syllabic>single</syllabic>
          <text>ơ...</text>
        </lyric>
      </note>
      <note default-x="70">
        <pitch>
          <step>D</step>
          <octave>4</octave>
        </pitch>
        <duration>4</duration>
        <voice>1</voice>
        <type>quarter</type>
        <stem default-y="-10">up</stem>
        <notations>
          <slur bezier-x="-14" bezier-y="-10" default-x="6" default-y="-55" number="1" type="stop"/>
        </notations>
        <lyric default-y="-95" number="1">
          <syllabic>single</syllabic>
          <text>ơi</text>
        </lyric>
      </note>
      <barline location="right">
        <bar-style>none</bar-style>
      </barline>
    </measure>
    <!--=======================================================-->
    <measure number="34" width="172">
      <print new-system="yes">
        <system-layout>
          <system-margins>
            <left-margin>0</left-margin>
            <right-margin>0</right-margin>
          </system-margins>
          <system-distance>114</system-distance>
        </system-layout>
      </print>
      <note default-x="59">
        <grace slash="yes"/>
        <pitch>
          <step>E</step>
          <alter>-1</alter>
          <octave>4</octave>
        </pitch>
        <voice>1</voice>
        <type>eighth</type>
        <accidental>flat</accidental>
        <stem default-y="-19">up</stem>
        <notations>
          <slur bezier-x="11" bezier-y="-10" default-x="4" default-y="-48" number="1" placement="below" type="start"/>
        </notations>
      </note>
      <note default-x="93">
        <pitch>
          <step>F</step>
          <alter>-1</alter>
          <octave>4</octave>
        </pitch>
        <duration>1</duration>
        <voice>1</voice>
        <type>16th</type>
        <accidental>flat</accidental>
        <stem default-y="0">up</stem>
        <notations>
          <slur bezier-x="-10" bezier-y="-11" default-x="6" default-y="-45" number="1" type="stop"/>
        </notations>
        <lyric default-y="-95" number="1">
          <syllabic>single</syllabic>
          <text>K'a</text>
        </lyric>
      </note>
      <barline location="right">
        <bar-style>none</bar-style>
      </barline>
    </measure>
    <!--=======================================================-->
    <measure number="35" width="84">
      <note default-x="25">
        <pitch>
          <step>E</step>
          <alter>-1</alter>
          <octave>4</octave>
        </pitch>
        <duration>1</duration>
        <voice>1</voice>
        <type>16th</type>
        <accidental>flat</accidental>
        <stem default-y="-5">up</stem>
        <lyric default-y="-95" number="1">
          <syllabic>single</syllabic>
          <text>re</text>
        </lyric>
      </note>
      <barline location="right">
        <bar-style>none</bar-style>
      </barline>
    </measure>
    <!--=======================================================-->
    <measure number="36" width="66">
      <note default-x="13">
        <pitch>
          <step>F</step>
          <octave>4</octave>
        </pitch>
        <duration>1</duration>
        <voice>1</voice>
        <type>16th</type>
        <stem default-y="0">up</stem>
        <lyric default-y="-95" number="1">
          <syllabic>single</syllabic>
          <text>xit</text>
        </lyric>
      </note>
      <barline location="right">
        <bar-style>none</bar-style>
      </barline>
    </measure>
    <!--=======================================================-->
    <measure number="37" width="91">
      <note default-x="25">
        <pitch>
          <step>D</step>
          <alter>-1</alter>
          <octave>4</octave>
        </pitch>
        <duration>1</duration>
        <voice>1</voice>
        <type>16th</type>
        <accidental>flat</accidental>
        <stem default-y="-10">up</stem>
        <lyric default-y="-95" number="1">
          <syllabic>single</syllabic>
          <text>bau</text>
        </lyric>
      </note>
      <barline location="right">
        <bar-style>none</bar-style>
      </barline>
    </measure>
    <!--=======================================================-->
    <measure number="38" width="84">
      <note default-x="25">
        <pitch>
          <step>E</step>
          <alter>-1</alter>
          <octave>4</octave>
        </pitch>
        <duration>1</duration>
        <voice>1</voice>
        <type>16th</type>
        <accidental>flat</accidental>
        <stem default-y="-5">up</stem>
        <lyric default-y="-95" number="1">
          <syllabic>single</syllabic>
          <text>ai</text>
        </lyric>
      </note>
      <barline location="right">
        <bar-style>none</bar-style>
      </barline>
    </measure>
    <!--=======================================================-->
    <measure number="39" width="82">
      <note default-x="25">
        <pitch>
          <step>D</step>
          <alter>-1</alter>
          <octave>4</octave>
        </pitch>
        <duration>2</duration>
        <voice>1</voice>
        <type>eighth</type>
        <accidental>flat</accidental>
        <stem default-y="-10">up</stem>
        <lyric default-y="-95" number="1">
          <syllabic>single</syllabic>
          <text>e</text>
        </lyric>
      </note>
      <barline location="right">
        <bar-style>none</bar-style>
      </barline>
    </measure>
    <!--=======================================================-->
    <measure number="40" width="112">
      <note default-x="25">
        <pitch>
          <step>E</step>
          <alter>-1</alter>
          <octave>4</octave>
        </pitch>
        <duration>2</duration>
        <voice>1</voice>
        <type>eighth</type>
        <accidental>flat</accidental>
        <stem default-y="-5">up</stem>
        <lyric default-y="-95" number="1">
          <syllabic>single</syllabic>
          <text>ban</text>
        </lyric>
      </note>
      <barline location="right">
        <bar-style>none</bar-style>
      </barline>
    </measure>
    <!--=======================================================-->
    <measure number="41" width="82">
      <note default-x="25">
        <pitch>
          <step>D</step>
          <alter>-1</alter>
          <octave>4</octave>
        </pitch>
        <duration>2</duration>
        <voice>1</voice>
        <type>eighth</type>
        <accidental>flat</accidental>
        <stem default-y="-10">up</stem>
        <notations>
          <fermata default-x="-6" default-y="5" type="upright"/>
        </notations>
        <lyric default-y="-95" number="1">
          <syllabic>single</syllabic>
          <text>ôi</text>
        </lyric>
      </note>
      <barline location="right">
        <bar-style>none</bar-style>
      </barline>
    </measure>
    <!--=======================================================-->
    <measure number="42" width="84">
      <note default-x="25">
        <pitch>
          <step>B</step>
          <alter>-1</alter>
          <octave>3</octave>
        </pitch>
        <duration>1</duration>
        <voice>1</voice>
        <type>16th</type>
        <accidental>flat</accidental>
        <stem default-y="-20">up</stem>
        <lyric default-y="-95" number="1">
          <syllabic>single</syllabic>
          <text>à</text>
        </lyric>
      </note>
      <barline location="right">
        <bar-style>none</bar-style>
      </barline>
    </measure>
    <!--=======================================================-->
    <measure number="43" width="125">
      <note default-x="44">
        <pitch>
          <step>B</step>
          <alter>-1</alter>
          <octave>3</octave>
        </pitch>
        <duration>8</duration>
        <voice>1</voice>
        <type>half</type>
        <accidental>flat</accidental>
        <stem default-y="-20">up</stem>
        <lyric default-y="-95" number="1">
          <syllabic>single</syllabic>
          <text>ề</text>
        </lyric>
      </note>
      <barline location="right">
        <bar-style>none</bar-style>
      </barline>
    </measure>
  </part>
  <!--=========================================================-->
</score-partwise>
