<svg width="200" height="100" xmlns="http://www.w3.org/2000/svg"><rect width="200" height="100" fill="#f8f9fa"/><circle cx="3.5714285714285716" cy="66" r="2" fill="#4dabf7"/><circle cx="10.714285714285715" cy="66" r="2" fill="#4dabf7"/><circle cx="17.857142857142858" cy="42" r="2" fill="#4dabf7"/><circle cx="25.000000000000004" cy="42" r="2" fill="#4dabf7"/><circle cx="32.142857142857146" cy="42" r="2" fill="#4dabf7"/><circle cx="39.285714285714285" cy="66" r="2" fill="#4dabf7"/><circle cx="46.42857142857143" cy="42" r="2" fill="#4dabf7"/><circle cx="53.57142857142857" cy="42" r="2" fill="#ff6b6b"/><circle cx="60.714285714285715" cy="42" r="2" fill="#4dabf7"/><circle cx="67.85714285714286" cy="42" r="2" fill="#ff6b6b"/><circle cx="75" cy="42" r="2" fill="#4dabf7"/><circle cx="82.14285714285714" cy="42" r="2" fill="#4dabf7"/><circle cx="89.28571428571429" cy="42" r="2" fill="#4dabf7"/><circle cx="96.42857142857143" cy="66" r="2" fill="#4dabf7"/><circle cx="103.57142857142857" cy="66" r="2" fill="#4dabf7"/><circle cx="110.71428571428572" cy="66" r="2" fill="#4dabf7"/><circle cx="117.85714285714286" cy="66" r="2" fill="#ff6b6b"/><circle cx="125" cy="42" r="2" fill="#4dabf7"/><circle cx="132.14285714285717" cy="42" r="2" fill="#4dabf7"/><circle cx="139.2857142857143" cy="42" r="2" fill="#4dabf7"/><circle cx="146.42857142857144" cy="42" r="2" fill="#4dabf7"/><circle cx="153.57142857142858" cy="66" r="2" fill="#4dabf7"/><circle cx="160.71428571428572" cy="42" r="2" fill="#4dabf7"/><circle cx="167.8571428571429" cy="42" r="2" fill="#4dabf7"/><circle cx="175.00000000000003" cy="66" r="2" fill="#4dabf7"/><circle cx="182.14285714285717" cy="42" r="2" fill="#4dabf7"/><circle cx="189.2857142857143" cy="66" r="2" fill="#4dabf7"/><circle cx="196.42857142857144" cy="42" r="2" fill="#ff6b6b"/></svg>