<svg width="300" height="120" viewBox="0 0 600 400" xmlns="http://www.w3.org/2000/svg">
    <rect width="600" height="400" fill="#ffffff"/>
    <g transform="scale(0.5)">
        <circle cx="100" cy="425" r="8" fill="#666666"
                            fill="#333">Con</text><circle cx="270" cy="425" r="8" fill="#666666"
                                stroke-dasharray="2,2"/><circle cx="355" cy="400" r="8" fill="#666666"
                                stroke-dasharray="3,2" fill="none"/><circle cx="440" cy="362.5" r="8" fill="#666666"
                            fill="#333">quẫy</text><circle cx="695" cy="462.5" r="8" fill="#666666"
                                stroke-dasharray="3,2" fill="none"/><circle cx="780" cy="362.5" r="8" fill="#666666"
                            fill="#333">ở</text><circle cx="865" cy="462.5" r="8" fill="#666666"
                        fill="#333">7</text><circle cx="950" cy="425" r="8" fill="#666666"
                            fill="#333">trong</text><circle cx="1120" cy="425" r="8" fill="#666666"
                            fill="#333">hang</text><circle cx="1290" cy="425" r="8" fill="#666666"
                                stroke-dasharray="2,2"/><circle cx="1375" cy="462.5" r="8" fill="#666666"
                        fill="#333">11</text><circle cx="1460" cy="425" r="8" fill="#666666"
                            fill="#333">a</text><circle cx="1545" cy="400" r="8" fill="#666666"
                                stroke-dasharray="3,2" fill="none"/><circle cx="1630" cy="362.5" r="8" fill="#666666"
                            fill="#333">rượng</text><circle cx="1800" cy="400" r="8" fill="#666666"
                                stroke-dasharray="3,2" fill="none"/><circle cx="2480" cy="362.5" r="8" fill="#666666"
                                stroke-dasharray="3,2" fill="none"/><circle cx="2650" cy="362.5" r="8" fill="#666666"
                                stroke-dasharray="3,2" fill="none"/><circle cx="2820" cy="362.5" r="8" fill="#666666"
                                stroke-dasharray="3,2" fill="none"/><circle cx="3160" cy="362.5" r="8" fill="#666666"
                                stroke-dasharray="3,2" fill="none"/><circle cx="3330" cy="362.5" r="8" fill="#666666"
                                stroke-dasharray="3,2" fill="none"/><circle cx="4010" cy="362.5" r="8" fill="#666666"
                                stroke-dasharray="3,2" fill="none"/><circle cx="4860" cy="362.5" r="8" fill="#666666"
                                stroke-dasharray="3,2" fill="none"/><circle cx="5030" cy="362.5" r="8" fill="#666666"
                                stroke-dasharray="3,2" fill="none"/><circle cx="5115" cy="362.5" r="8" fill="#666666"
                                stroke-dasharray="3,2" fill="none"/><circle cx="5540" cy="362.5" r="8" fill="#666666"
                                stroke-dasharray="3,2" fill="none"/><circle cx="5710" cy="362.5" r="8" fill="#666666"
                                stroke-dasharray="3,2" fill="none"/><circle cx="6390" cy="362.5" r="8" fill="#666666"
    </g>
    <!-- Song name overlay -->
    <rect x="0" y="90" width="300" height="30" fill="rgba(0,128,128,0.9)"/>
    <text x="150" y="108" text-anchor="middle" fill="white" font-size="12" font-family="system-ui">
        Lý con cua
    </text>
</svg>