<svg width="300" height="120" viewBox="0 0 600 400" xmlns="http://www.w3.org/2000/svg">
    <rect width="600" height="400" fill="#ffffff"/>
    <g transform="scale(0.5)">
        <circle cx="100" cy="400" r="8" fill="#666666"
                        fill="#333">1</text><circle cx="270" cy="400" r="8" fill="#666666"
                                stroke-dasharray="3,2" fill="none"/><circle cx="355" cy="387.5" r="8" fill="#666666"
                        fill="#333">3</text><circle cx="397.5" cy="400" r="8" fill="#666666"
                        fill="#333">4</text><circle cx="440" cy="425" r="8" fill="#666666"
                        fill="#333">5</text><circle cx="482.5" cy="400" r="8" fill="#666666"
                                stroke-dasharray="3,2" fill="none"/><circle cx="525" cy="387.5" r="8" fill="#666666"
                                stroke-dasharray="3,2" fill="none"/><circle cx="567.5" cy="362.5" r="8" fill="#666666"
                        fill="#333">8</text><circle cx="610" cy="400" r="8" fill="#666666"
                        fill="#333">9</text><circle cx="695" cy="400" r="8" fill="#666666"
                                stroke-dasharray="3,2" fill="none"/><circle cx="737.5" cy="362.5" r="8" fill="#666666"
                        fill="#333">11</text><circle cx="780" cy="400" r="8" fill="#666666"
                        fill="#333">12</text><circle cx="950" cy="400" r="8" fill="#666666"
                                stroke-dasharray="3,2" fill="none"/><circle cx="1035" cy="387.5" r="8" fill="#666666"
                        fill="#333">14</text><circle cx="1077.5" cy="400" r="8" fill="#666666"
                                stroke-dasharray="3,2" fill="none"/><circle cx="1120" cy="362.5" r="8" fill="#666666"
                                stroke-dasharray="3,2" fill="none"/><circle cx="1162.5" cy="337.5" r="8" fill="#666666"
                                stroke-dasharray="3,2" fill="none"/><circle cx="1205" cy="300" r="8" fill="#666666"
                                stroke-dasharray="3,2" fill="none"/><circle cx="1290" cy="337.5" r="8" fill="#666666"
    </g>
    <!-- Song name overlay -->
    <rect x="0" y="90" width="300" height="30" fill="rgba(0,128,128,0.9)"/>
    <text x="150" y="108" text-anchor="middle" fill="white" font-size="12" font-family="system-ui">
        Untitled1
    </text>
</svg>