<svg width="200" height="100" xmlns="http://www.w3.org/2000/svg"><rect width="200" height="100" fill="#f8f9fa"/><circle cx="2.380952380952381" cy="54" r="2" fill="#4dabf7"/><circle cx="7.142857142857142" cy="42" r="2" fill="#4dabf7"/><circle cx="11.904761904761905" cy="54" r="2" fill="#4dabf7"/><circle cx="16.666666666666664" cy="42" r="2" fill="#4dabf7"/><circle cx="21.428571428571427" cy="90" r="2" fill="#4dabf7"/><circle cx="26.19047619047619" cy="42" r="2" fill="#4dabf7"/><circle cx="30.95238095238095" cy="90" r="2" fill="#4dabf7"/><circle cx="35.714285714285715" cy="66" r="2" fill="#4dabf7"/><circle cx="40.476190476190474" cy="54" r="2" fill="#4dabf7"/><circle cx="45.238095238095234" cy="66" r="2" fill="#4dabf7"/><circle cx="50" cy="54" r="2" fill="#4dabf7"/><circle cx="54.76190476190476" cy="42" r="2" fill="#4dabf7"/><circle cx="59.52380952380952" cy="54" r="2" fill="#4dabf7"/><circle cx="64.28571428571429" cy="54" r="2" fill="#4dabf7"/><circle cx="69.04761904761905" cy="42" r="2" fill="#4dabf7"/><circle cx="73.80952380952381" cy="54" r="2" fill="#4dabf7"/><circle cx="78.57142857142857" cy="54" r="2" fill="#4dabf7"/><circle cx="83.33333333333333" cy="54" r="2" fill="#4dabf7"/><circle cx="88.09523809523809" cy="66" r="2" fill="#4dabf7"/><circle cx="92.85714285714286" cy="90" r="2" fill="#4dabf7"/><circle cx="97.61904761904762" cy="90" r="2" fill="#4dabf7"/><circle cx="102.38095238095238" cy="66" r="2" fill="#ff6b6b"/><circle cx="107.14285714285714" cy="90" r="2" fill="#4dabf7"/><circle cx="111.9047619047619" cy="54" r="2" fill="#4dabf7"/><circle cx="116.66666666666666" cy="42" r="2" fill="#4dabf7"/><circle cx="121.42857142857143" cy="54" r="2" fill="#4dabf7"/><circle cx="126.19047619047619" cy="66" r="2" fill="#4dabf7"/><circle cx="130.95238095238096" cy="90" r="2" fill="#4dabf7"/><circle cx="135.71428571428572" cy="66" r="2" fill="#4dabf7"/><circle cx="140.47619047619048" cy="66" r="2" fill="#4dabf7"/><circle cx="145.23809523809524" cy="54" r="2" fill="#4dabf7"/><circle cx="150" cy="42" r="2" fill="#ff6b6b"/><circle cx="154.76190476190476" cy="42" r="2" fill="#4dabf7"/><circle cx="159.52380952380952" cy="90" r="2" fill="#4dabf7"/><circle cx="164.28571428571428" cy="54" r="2" fill="#4dabf7"/><circle cx="169.04761904761904" cy="54" r="2" fill="#4dabf7"/><circle cx="173.8095238095238" cy="42" r="2" fill="#4dabf7"/><circle cx="178.57142857142856" cy="90" r="2" fill="#4dabf7"/><circle cx="183.33333333333334" cy="90" r="2" fill="#4dabf7"/><circle cx="188.0952380952381" cy="42" r="2" fill="#4dabf7"/><circle cx="192.85714285714286" cy="66" r="2" fill="#4dabf7"/><circle cx="197.61904761904762" cy="66" r="2" fill="#4dabf7"/></svg>