<?xml version="1.0" encoding="UTF-8"?>
<svg width="2960" height="800" xmlns="http://www.w3.org/2000/svg">
    <defs>
        <style>
            .string-line { stroke: #333; stroke-width: 3; }
            .string-label { font-family: Arial; font-size: 14px; font-weight: bold; fill: #2c3e50; }
            .note-circle { fill: #008080; stroke: #005959; stroke-width: 2; }
            .note-text { font-family: Arial; font-size: 10px; font-weight: bold; fill: white; text-anchor: middle; }
            .grace-note { fill: #FFD700; stroke: #CC9900; }
            .bent-note { fill: #E67E22; stroke: #D35400; }
            .lyric-text { font-family: Arial; font-size: 12px; fill: #2c3e50; }
            .resonance-band { fill: #008080; opacity: 0.3; }
        </style>
    </defs>

    <!-- Title -->
    <text x="10" y="30" style="font-size: 20px; font-weight: bold; fill: #2c3e50;">RU EM CẢNH DƯƠNG</text>
    <text x="10" y="50" style="font-size: 14px; fill: #666;">Tuning: C-D-E-G-A | 69 notes | Ru Con</text>

    <!-- String Lines -->
    <line x1="100" y1="100" x2="2940" y2="100" class="string-line"/>
    <line x1="100" y1="125" x2="2940" y2="125" class="string-line"/>
    <line x1="100" y1="150" x2="2940" y2="150" class="string-line"/>
    <line x1="100" y1="187.5" x2="2940" y2="187.5" class="string-line"/>
    <line x1="100" y1="212.5" x2="2940" y2="212.5" class="string-line"/>
    <line x1="100" y1="250" x2="2940" y2="250" class="string-line"/>
    <line x1="100" y1="275" x2="2940" y2="275" class="string-line"/>
    <line x1="100" y1="300" x2="2940" y2="300" class="string-line"/>
    <line x1="100" y1="337.5" x2="2940" y2="337.5" class="string-line"/>
    <line x1="100" y1="362.5" x2="2940" y2="362.5" class="string-line"/>
    <line x1="100" y1="400" x2="2940" y2="400" class="string-line"/>
    <line x1="100" y1="425" x2="2940" y2="425" class="string-line"/>
    <line x1="100" y1="450" x2="2940" y2="450" class="string-line"/>
    <line x1="100" y1="487.5" x2="2940" y2="487.5" class="string-line"/>
    <line x1="100" y1="512.5" x2="2940" y2="512.5" class="string-line"/>
    <line x1="100" y1="550" x2="2940" y2="550" class="string-line"/>
    <line x1="100" y1="575" x2="2940" y2="575" class="string-line"/>

    <!-- String Labels -->
    <text x="50" y="105" class="string-label">C3</text>
    <text x="50" y="130" class="string-label">D3</text>
    <text x="50" y="155" class="string-label">E3</text>
    <text x="50" y="192.5" class="string-label">G3</text>
    <text x="50" y="217.5" class="string-label">A3</text>
    <text x="50" y="255" class="string-label">C4</text>
    <text x="50" y="280" class="string-label">D4</text>
    <text x="50" y="305" class="string-label">E4</text>
    <text x="50" y="342.5" class="string-label">G4</text>
    <text x="50" y="367.5" class="string-label">A4</text>
    <text x="50" y="405" class="string-label">C5</text>
    <text x="50" y="430" class="string-label">D5</text>
    <text x="50" y="455" class="string-label">E5</text>
    <text x="50" y="492.5" class="string-label">G5</text>
    <text x="50" y="517.5" class="string-label">A5</text>
    <text x="50" y="555" class="string-label">C6</text>
    <text x="50" y="580" class="string-label">D6</text>

    <!-- Notes -->
    <rect x="-10" y="248.5" width="320" height="3" class="resonance-band"/>
    <circle cx="150" cy="250" r="12" class="note-circle"/>
    <text x="150" y="254" class="note-text">6</text>
    <rect x="30" y="248.5" width="320" height="3" class="resonance-band"/>
    <circle cx="190" cy="250" r="6" class="grace-note"/>
    <rect x="70" y="273.5" width="320" height="3" class="resonance-band"/>
    <circle cx="230" cy="275" r="12" class="note-circle"/>
    <text x="230" y="279" class="note-text">7</text>
    <rect x="110" y="311" width="320" height="3" class="resonance-band"/>
    <circle cx="270" cy="312.5" r="6" class="grace-note"/>
    <rect x="150" y="248.5" width="320" height="3" class="resonance-band"/>
    <circle cx="310" cy="250" r="12" class="note-circle"/>
    <text x="310" y="254" class="note-text">6</text>
    <rect x="190" y="273.5" width="320" height="3" class="resonance-band"/>
    <circle cx="350" cy="275" r="6" class="grace-note"/>
    <rect x="230" y="248.5" width="320" height="3" class="resonance-band"/>
    <circle cx="390" cy="250" r="12" class="note-circle"/>
    <text x="390" y="254" class="note-text">6</text>
    <rect x="270" y="248.5" width="320" height="3" class="resonance-band"/>
    <circle cx="430" cy="250" r="12" class="note-circle"/>
    <text x="430" y="254" class="note-text">6</text>
    <rect x="310" y="248.5" width="320" height="3" class="resonance-band"/>
    <circle cx="470" cy="250" r="6" class="grace-note"/>
    <rect x="350" y="273.5" width="320" height="3" class="resonance-band"/>
    <circle cx="510" cy="275" r="12" class="note-circle"/>
    <text x="510" y="279" class="note-text">7</text>
    <rect x="390" y="311" width="320" height="3" class="resonance-band"/>
    <circle cx="550" cy="312.5" r="6" class="grace-note"/>
    <rect x="430" y="273.5" width="320" height="3" class="resonance-band"/>
    <circle cx="590" cy="275" r="6" class="grace-note"/>
    <rect x="470" y="248.5" width="320" height="3" class="resonance-band"/>
    <circle cx="630" cy="250" r="12" class="note-circle"/>
    <text x="630" y="254" class="note-text">6</text>
    <rect x="510" y="248.5" width="320" height="3" class="resonance-band"/>
    <circle cx="670" cy="250" r="12" class="note-circle"/>
    <text x="670" y="254" class="note-text">6</text>
    <rect x="550" y="248.5" width="320" height="3" class="resonance-band"/>
    <circle cx="710" cy="250" r="12" class="note-circle"/>
    <text x="710" y="254" class="note-text">6</text>
    <rect x="590" y="248.5" width="320" height="3" class="resonance-band"/>
    <circle cx="750" cy="250" r="6" class="grace-note"/>
    <rect x="630" y="273.5" width="320" height="3" class="resonance-band"/>
    <circle cx="790" cy="275" r="12" class="note-circle"/>
    <text x="790" y="279" class="note-text">7</text>
    <rect x="670" y="311" width="320" height="3" class="resonance-band"/>
    <circle cx="830" cy="312.5" r="6" class="grace-note"/>
    <rect x="710" y="248.5" width="320" height="3" class="resonance-band"/>
    <circle cx="870" cy="250" r="12" class="note-circle"/>
    <text x="870" y="254" class="note-text">6</text>
    <rect x="750" y="273.5" width="320" height="3" class="resonance-band"/>
    <circle cx="910" cy="275" r="6" class="grace-note"/>
    <rect x="790" y="248.5" width="320" height="3" class="resonance-band"/>
    <circle cx="950" cy="250" r="12" class="note-circle"/>
    <text x="950" y="254" class="note-text">6</text>
    <rect x="830" y="248.5" width="320" height="3" class="resonance-band"/>
    <circle cx="990" cy="250" r="12" class="note-circle"/>
    <text x="990" y="254" class="note-text">6</text>
    <rect x="870" y="248.5" width="320" height="3" class="resonance-band"/>
    <circle cx="1030" cy="250" r="6" class="grace-note"/>
    <rect x="910" y="273.5" width="320" height="3" class="resonance-band"/>
    <circle cx="1070" cy="275" r="12" class="note-circle"/>
    <text x="1070" y="279" class="note-text">7</text>
    <rect x="950" y="311" width="320" height="3" class="resonance-band"/>
    <circle cx="1110" cy="312.5" r="6" class="grace-note"/>
    <rect x="990" y="273.5" width="320" height="3" class="resonance-band"/>
    <circle cx="1150" cy="275" r="6" class="grace-note"/>
    <rect x="1030" y="248.5" width="320" height="3" class="resonance-band"/>
    <circle cx="1190" cy="250" r="12" class="note-circle"/>
    <text x="1190" y="254" class="note-text">6</text>
    <rect x="1070" y="273.5" width="320" height="3" class="resonance-band"/>
    <circle cx="1230" cy="275" r="6" class="grace-note"/>
    <rect x="1110" y="248.5" width="320" height="3" class="resonance-band"/>
    <circle cx="1270" cy="250" r="12" class="note-circle"/>
    <text x="1270" y="254" class="note-text">6</text>
    <rect x="1150" y="336" width="320" height="3" class="resonance-band"/>
    <circle cx="1310" cy="337.5" r="12" class="note-circle"/>
    <text x="1310" y="341.5" class="note-text">9</text>
    <rect x="1190" y="398.5" width="320" height="3" class="resonance-band"/>
    <circle cx="1350" cy="400" r="12" class="note-circle"/>
    <text x="1350" y="404" class="note-text">11</text>
    <rect x="1230" y="423.5" width="320" height="3" class="resonance-band"/>
    <circle cx="1390" cy="425" r="6" class="grace-note"/>
    <rect x="1270" y="398.5" width="320" height="3" class="resonance-band"/>
    <circle cx="1430" cy="400" r="6" class="grace-note"/>
    <rect x="1310" y="361" width="320" height="3" class="resonance-band"/>
    <circle cx="1470" cy="362.5" r="12" class="note-circle"/>
    <text x="1470" y="366.5" class="note-text">10</text>
    <rect x="1350" y="398.5" width="320" height="3" class="resonance-band"/>
    <circle cx="1510" cy="400" r="12" class="note-circle"/>
    <text x="1510" y="404" class="note-text">11</text>
    <rect x="1390" y="336" width="320" height="3" class="resonance-band"/>
    <circle cx="1550" cy="337.5" r="6" class="grace-note"/>
    <rect x="1430" y="311" width="320" height="3" class="resonance-band"/>
    <circle cx="1590" cy="312.5" r="6" class="grace-note"/>
    <rect x="1470" y="361" width="320" height="3" class="resonance-band"/>
    <circle cx="1630" cy="362.5" r="12" class="note-circle"/>
    <text x="1630" y="366.5" class="note-text">10</text>
    <rect x="1510" y="311" width="320" height="3" class="resonance-band"/>
    <circle cx="1670" cy="312.5" r="12" class="bent-note"/>
    <rect x="1550" y="361" width="320" height="3" class="resonance-band"/>
    <circle cx="1710" cy="362.5" r="12" class="note-circle"/>
    <text x="1710" y="366.5" class="note-text">10</text>
    <rect x="1590" y="273.5" width="320" height="3" class="resonance-band"/>
    <circle cx="1750" cy="275" r="12" class="note-circle"/>
    <text x="1750" y="279" class="note-text">7</text>
    <rect x="1630" y="361" width="320" height="3" class="resonance-band"/>
    <circle cx="1790" cy="362.5" r="12" class="note-circle"/>
    <text x="1790" y="366.5" class="note-text">10</text>
    <rect x="1670" y="336" width="320" height="3" class="resonance-band"/>
    <circle cx="1830" cy="337.5" r="12" class="note-circle"/>
    <text x="1830" y="341.5" class="note-text">9</text>
    <rect x="1710" y="336" width="320" height="3" class="resonance-band"/>
    <circle cx="1870" cy="337.5" r="12" class="note-circle"/>
    <text x="1870" y="341.5" class="note-text">9</text>
    <rect x="1750" y="336" width="320" height="3" class="resonance-band"/>
    <circle cx="1910" cy="337.5" r="12" class="note-circle"/>
    <text x="1910" y="341.5" class="note-text">9</text>
    <rect x="1790" y="336" width="320" height="3" class="resonance-band"/>
    <circle cx="1950" cy="337.5" r="12" class="note-circle"/>
    <text x="1950" y="341.5" class="note-text">9</text>
    <rect x="1830" y="311" width="320" height="3" class="resonance-band"/>
    <circle cx="1990" cy="312.5" r="12" class="bent-note"/>
    <rect x="1870" y="311" width="320" height="3" class="resonance-band"/>
    <circle cx="2030" cy="312.5" r="12" class="bent-note"/>
    <rect x="1910" y="311" width="320" height="3" class="resonance-band"/>
    <circle cx="2070" cy="312.5" r="12" class="bent-note"/>
    <rect x="1950" y="361" width="320" height="3" class="resonance-band"/>
    <circle cx="2110" cy="362.5" r="12" class="note-circle"/>
    <text x="2110" y="366.5" class="note-text">10</text>
    <rect x="1990" y="361" width="320" height="3" class="resonance-band"/>
    <circle cx="2150" cy="362.5" r="12" class="note-circle"/>
    <text x="2150" y="366.5" class="note-text">10</text>
    <rect x="2030" y="311" width="320" height="3" class="resonance-band"/>
    <circle cx="2190" cy="312.5" r="12" class="bent-note"/>
    <rect x="2070" y="361" width="320" height="3" class="resonance-band"/>
    <circle cx="2230" cy="362.5" r="12" class="note-circle"/>
    <text x="2230" y="366.5" class="note-text">10</text>
    <rect x="2110" y="336" width="320" height="3" class="resonance-band"/>
    <circle cx="2270" cy="337.5" r="12" class="note-circle"/>
    <text x="2270" y="341.5" class="note-text">9</text>
    <rect x="2150" y="311" width="320" height="3" class="resonance-band"/>
    <circle cx="2310" cy="312.5" r="12" class="bent-note"/>
    <rect x="2190" y="248.5" width="320" height="3" class="resonance-band"/>
    <circle cx="2350" cy="250" r="12" class="note-circle"/>
    <text x="2350" y="254" class="note-text">6</text>
    <rect x="2230" y="248.5" width="320" height="3" class="resonance-band"/>
    <circle cx="2390" cy="250" r="12" class="note-circle"/>
    <text x="2390" y="254" class="note-text">6</text>
    <rect x="2270" y="248.5" width="320" height="3" class="resonance-band"/>
    <circle cx="2430" cy="250" r="6" class="grace-note"/>
    <rect x="2310" y="273.5" width="320" height="3" class="resonance-band"/>
    <circle cx="2470" cy="275" r="12" class="note-circle"/>
    <text x="2470" y="279" class="note-text">7</text>
    <rect x="2350" y="311" width="320" height="3" class="resonance-band"/>
    <circle cx="2510" cy="312.5" r="6" class="grace-note"/>
    <rect x="2390" y="248.5" width="320" height="3" class="resonance-band"/>
    <circle cx="2550" cy="250" r="12" class="note-circle"/>
    <text x="2550" y="254" class="note-text">6</text>
    <rect x="2430" y="273.5" width="320" height="3" class="resonance-band"/>
    <circle cx="2590" cy="275" r="6" class="grace-note"/>
    <rect x="2470" y="248.5" width="320" height="3" class="resonance-band"/>
    <circle cx="2630" cy="250" r="12" class="note-circle"/>
    <text x="2630" y="254" class="note-text">6</text>
    <rect x="2510" y="248.5" width="320" height="3" class="resonance-band"/>
    <circle cx="2670" cy="250" r="12" class="note-circle"/>
    <text x="2670" y="254" class="note-text">6</text>
    <rect x="2550" y="248.5" width="320" height="3" class="resonance-band"/>
    <circle cx="2710" cy="250" r="6" class="grace-note"/>
    <rect x="2590" y="273.5" width="320" height="3" class="resonance-band"/>
    <circle cx="2750" cy="275" r="12" class="note-circle"/>
    <text x="2750" y="279" class="note-text">7</text>
    <rect x="2630" y="311" width="320" height="3" class="resonance-band"/>
    <circle cx="2790" cy="312.5" r="6" class="grace-note"/>
    <rect x="2670" y="248.5" width="320" height="3" class="resonance-band"/>
    <circle cx="2830" cy="250" r="12" class="note-circle"/>
    <text x="2830" y="254" class="note-text">6</text>
    <rect x="2710" y="248.5" width="320" height="3" class="resonance-band"/>
    <circle cx="2870" cy="250" r="12" class="note-circle"/>
    <text x="2870" y="254" class="note-text">6</text>
    

    <!-- Lyrics -->
    <text x="150" y="290" class="lyric-text">Hò</text>
    <text x="230" y="315" class="lyric-text">hẻ</text>
    <text x="310" y="290" class="lyric-text">hò</text>
    <text x="390" y="290" class="lyric-text">hè</text>
    <text x="430" y="290" class="lyric-text">Hò</text>
    <text x="510" y="315" class="lyric-text">hẻ</text>
    <text x="630" y="290" class="lyric-text">hò</text>
    <text x="670" y="290" class="lyric-text">hè.</text>
    <text x="710" y="290" class="lyric-text">Bồong</text>
    <text x="790" y="315" class="lyric-text">bổong</text>
    <text x="870" y="290" class="lyric-text">bồong</text>
    <text x="950" y="290" class="lyric-text">bồong</text>
    <text x="990" y="290" class="lyric-text">bồong</text>
    <text x="1070" y="315" class="lyric-text">bổong</text>
    <text x="1190" y="290" class="lyric-text">bồong</text>
    <text x="1270" y="290" class="lyric-text">bồong</text>
    <text x="1310" y="377.5" class="lyric-text">Hò</text>
    <text x="1350" y="440" class="lyric-text">ơ</text>
    <text x="1470" y="402.5" class="lyric-text">ơ</text>
    <text x="1510" y="440" class="lyric-text">ơ....</text>
    <text x="1630" y="402.5" class="lyric-text">Ai</text>
    <text x="1670" y="352.5" class="lyric-text">về</text>
    <text x="1710" y="402.5" class="lyric-text">đất</text>
    <text x="1750" y="315" class="lyric-text">Cảnh</text>
    <text x="1830" y="377.5" class="lyric-text">hôm</text>
    <text x="1870" y="377.5" class="lyric-text">nay</text>
    <text x="1910" y="377.5" class="lyric-text">Ra</text>
    <text x="1950" y="377.5" class="lyric-text">khơi</text>
    <text x="1990" y="352.5" class="lyric-text">mà</text>
    <text x="2030" y="352.5" class="lyric-text">vào</text>
    <text x="2070" y="352.5" class="lyric-text">động</text>
    <text x="2150" y="402.5" class="lyric-text">sóng</text>
    <text x="2190" y="352.5" class="lyric-text">reo</text>
    <text x="2230" y="402.5" class="lyric-text">sớm</text>
    <text x="2350" y="290" class="lyric-text">chiều.</text>
    <text x="2390" y="290" class="lyric-text">Hò</text>
    <text x="2470" y="315" class="lyric-text">hẻ</text>
    <text x="2550" y="290" class="lyric-text">hò</text>
    <text x="2630" y="290" class="lyric-text">hè</text>
    <text x="2670" y="290" class="lyric-text">Bồong</text>
    <text x="2750" y="315" class="lyric-text">bổong</text>
    <text x="2830" y="290" class="lyric-text">bồong</text>
    <text x="2870" y="290" class="lyric-text">bồong</text>
    
</svg>