<?xml version="1.0" encoding="UTF-8"?>
<svg width="1000" height="800" xmlns="http://www.w3.org/2000/svg">
    <defs>
        <style>
            .string-line { stroke: #333; stroke-width: 3; }
            .string-label { font-family: Arial; font-size: 14px; font-weight: bold; fill: #2c3e50; }
            .note-circle { fill: #008080; stroke: #005959; stroke-width: 2; }
            .note-text { font-family: Arial; font-size: 10px; font-weight: bold; fill: white; text-anchor: middle; }
            .grace-note { fill: #FFD700; stroke: #CC9900; }
            .bent-note { fill: #E67E22; stroke: #D35400; }
            .lyric-text { font-family: Arial; font-size: 12px; fill: #2c3e50; }
            .resonance-band { fill: #008080; opacity: 0.3; }
        </style>
    </defs>

    <!-- Title -->
    <text x="10" y="30" style="font-size: 20px; font-weight: bold; fill: #2c3e50;">Thang âm</text>
    <text x="10" y="50" style="font-size: 14px; fill: #666;">Tuning: C-D-E-G-A | 20 notes | Traditional</text>

    <!-- String Lines -->
    <line x1="100" y1="100" x2="980" y2="100" class="string-line"/>
    <line x1="100" y1="125" x2="980" y2="125" class="string-line"/>
    <line x1="100" y1="150" x2="980" y2="150" class="string-line"/>
    <line x1="100" y1="187.5" x2="980" y2="187.5" class="string-line"/>
    <line x1="100" y1="212.5" x2="980" y2="212.5" class="string-line"/>
    <line x1="100" y1="250" x2="980" y2="250" class="string-line"/>
    <line x1="100" y1="275" x2="980" y2="275" class="string-line"/>
    <line x1="100" y1="300" x2="980" y2="300" class="string-line"/>
    <line x1="100" y1="337.5" x2="980" y2="337.5" class="string-line"/>
    <line x1="100" y1="362.5" x2="980" y2="362.5" class="string-line"/>
    <line x1="100" y1="400" x2="980" y2="400" class="string-line"/>
    <line x1="100" y1="425" x2="980" y2="425" class="string-line"/>
    <line x1="100" y1="450" x2="980" y2="450" class="string-line"/>
    <line x1="100" y1="487.5" x2="980" y2="487.5" class="string-line"/>
    <line x1="100" y1="512.5" x2="980" y2="512.5" class="string-line"/>
    <line x1="100" y1="550" x2="980" y2="550" class="string-line"/>
    <line x1="100" y1="575" x2="980" y2="575" class="string-line"/>

    <!-- String Labels -->
    <text x="50" y="105" class="string-label">C3</text>
    <text x="50" y="130" class="string-label">D3</text>
    <text x="50" y="155" class="string-label">E3</text>
    <text x="50" y="192.5" class="string-label">G3</text>
    <text x="50" y="217.5" class="string-label">A3</text>
    <text x="50" y="255" class="string-label">C4</text>
    <text x="50" y="280" class="string-label">D4</text>
    <text x="50" y="305" class="string-label">E4</text>
    <text x="50" y="342.5" class="string-label">G4</text>
    <text x="50" y="367.5" class="string-label">A4</text>
    <text x="50" y="405" class="string-label">C5</text>
    <text x="50" y="430" class="string-label">D5</text>
    <text x="50" y="455" class="string-label">E5</text>
    <text x="50" y="492.5" class="string-label">G5</text>
    <text x="50" y="517.5" class="string-label">A5</text>
    <text x="50" y="555" class="string-label">C6</text>
    <text x="50" y="580" class="string-label">D6</text>

    <!-- Notes -->
    <rect x="-10" y="248.5" width="320" height="3" class="resonance-band"/>
    <circle cx="150" cy="250" r="12" class="note-circle"/>
    <text x="150" y="254" class="note-text">6</text>
    <rect x="30" y="286" width="320" height="3" class="resonance-band"/>
    <circle cx="190" cy="287.5" r="12" class="bent-note"/>
    <rect x="70" y="311" width="320" height="3" class="resonance-band"/>
    <circle cx="230" cy="312.5" r="12" class="bent-note"/>
    <rect x="110" y="336" width="320" height="3" class="resonance-band"/>
    <circle cx="270" cy="337.5" r="12" class="note-circle"/>
    <text x="270" y="341.5" class="note-text">9</text>
    <rect x="150" y="398.5" width="320" height="3" class="resonance-band"/>
    <circle cx="310" cy="400" r="12" class="note-circle"/>
    <text x="310" y="404" class="note-text">11</text>
    <rect x="190" y="223.5" width="320" height="3" class="resonance-band"/>
    <circle cx="350" cy="225" r="12" class="bent-note"/>
    <rect x="230" y="261" width="320" height="3" class="resonance-band"/>
    <circle cx="390" cy="262.5" r="12" class="bent-note"/>
    <rect x="270" y="286" width="320" height="3" class="resonance-band"/>
    <circle cx="430" cy="287.5" r="12" class="bent-note"/>
    <rect x="310" y="311" width="320" height="3" class="resonance-band"/>
    <circle cx="470" cy="312.5" r="12" class="bent-note"/>
    <rect x="350" y="386" width="320" height="3" class="resonance-band"/>
    <circle cx="510" cy="387.5" r="12" class="bent-note"/>
    <rect x="390" y="236" width="320" height="3" class="resonance-band"/>
    <circle cx="550" cy="237.5" r="12" class="bent-note"/>
    <rect x="430" y="273.5" width="320" height="3" class="resonance-band"/>
    <circle cx="590" cy="275" r="12" class="note-circle"/>
    <text x="590" y="279" class="note-text">7</text>
    <rect x="470" y="298.5" width="320" height="3" class="resonance-band"/>
    <circle cx="630" cy="300" r="12" class="note-circle"/>
    <text x="630" y="304" class="note-text">8</text>
    <rect x="510" y="323.5" width="320" height="3" class="resonance-band"/>
    <circle cx="670" cy="325" r="12" class="bent-note"/>
    <rect x="550" y="386" width="320" height="3" class="resonance-band"/>
    <circle cx="710" cy="387.5" r="12" class="bent-note"/>
    <rect x="590" y="273.5" width="320" height="3" class="resonance-band"/>
    <circle cx="750" cy="275" r="12" class="note-circle"/>
    <text x="750" y="279" class="note-text">7</text>
    <rect x="630" y="311" width="320" height="3" class="resonance-band"/>
    <circle cx="790" cy="312.5" r="12" class="bent-note"/>
    <rect x="670" y="336" width="320" height="3" class="resonance-band"/>
    <circle cx="830" cy="337.5" r="12" class="note-circle"/>
    <text x="830" y="341.5" class="note-text">9</text>
    <rect x="710" y="361" width="320" height="3" class="resonance-band"/>
    <circle cx="870" cy="362.5" r="12" class="note-circle"/>
    <text x="870" y="366.5" class="note-text">10</text>
    <rect x="750" y="423.5" width="320" height="3" class="resonance-band"/>
    <circle cx="910" cy="425" r="12" class="note-circle"/>
    <text x="910" y="429" class="note-text">12</text>
    

    <!-- Lyrics -->
    
</svg>