<svg width="200" height="100" xmlns="http://www.w3.org/2000/svg"><rect width="200" height="100" fill="#f8f9fa"/><circle cx="2.7777777777777777" cy="30" r="2" fill="#4dabf7"/><circle cx="8.333333333333332" cy="42" r="2" fill="#4dabf7"/><circle cx="13.88888888888889" cy="90" r="2" fill="#4dabf7"/><circle cx="19.444444444444443" cy="42" r="2" fill="#4dabf7"/><circle cx="25" cy="66" r="2" fill="#4dabf7"/><circle cx="30.555555555555557" cy="90" r="2" fill="#4dabf7"/><circle cx="36.11111111111111" cy="54" r="2" fill="#4dabf7"/><circle cx="41.666666666666664" cy="66" r="2" fill="#4dabf7"/><circle cx="47.22222222222222" cy="54" r="2" fill="#4dabf7"/><circle cx="52.77777777777778" cy="42" r="2" fill="#4dabf7"/><circle cx="58.333333333333336" cy="42" r="2" fill="#4dabf7"/><circle cx="63.888888888888886" cy="66" r="2" fill="#4dabf7"/><circle cx="69.44444444444443" cy="42" r="2" fill="#4dabf7"/><circle cx="74.99999999999999" cy="90" r="2" fill="#4dabf7"/><circle cx="80.55555555555554" cy="42" r="2" fill="#4dabf7"/><circle cx="86.1111111111111" cy="90" r="2" fill="#4dabf7"/><circle cx="91.66666666666666" cy="42" r="2" fill="#4dabf7"/><circle cx="97.22222222222221" cy="90" r="2" fill="#4dabf7"/><circle cx="102.77777777777777" cy="66" r="2" fill="#4dabf7"/><circle cx="108.33333333333333" cy="54" r="2" fill="#4dabf7"/><circle cx="113.88888888888889" cy="90" r="2" fill="#4dabf7"/><circle cx="119.44444444444443" cy="42" r="2" fill="#4dabf7"/><circle cx="124.99999999999999" cy="54" r="2" fill="#4dabf7"/><circle cx="130.55555555555554" cy="66" r="2" fill="#4dabf7"/><circle cx="136.1111111111111" cy="42" r="2" fill="#4dabf7"/><circle cx="141.66666666666666" cy="90" r="2" fill="#4dabf7"/><circle cx="147.2222222222222" cy="42" r="2" fill="#4dabf7"/><circle cx="152.77777777777777" cy="90" r="2" fill="#4dabf7"/><circle cx="158.33333333333331" cy="42" r="2" fill="#4dabf7"/><circle cx="163.88888888888889" cy="90" r="2" fill="#4dabf7"/><circle cx="169.44444444444443" cy="54" r="2" fill="#4dabf7"/><circle cx="175" cy="42" r="2" fill="#4dabf7"/><circle cx="180.55555555555554" cy="54" r="2" fill="#4dabf7"/><circle cx="186.1111111111111" cy="66" r="2" fill="#4dabf7"/><circle cx="191.66666666666666" cy="54" r="2" fill="#4dabf7"/><circle cx="197.2222222222222" cy="42" r="2" fill="#4dabf7"/></svg>