<svg width="300" height="120" viewBox="0 0 600 400" xmlns="http://www.w3.org/2000/svg">
    <rect width="600" height="400" fill="#ffffff"/>
    <g transform="scale(0.5)">
                                        stroke-dasharray="3,2" fill="none"/><circle cx="100" cy="337.5" r="8" fill="#666666"
                            fill="#333">À</text><circle cx="865" cy="400" r="8" fill="#666666"
                                stroke-dasharray="2,2"/><circle cx="992.5" cy="425" r="8" fill="#666666"
                        fill="#333">3</text><circle cx="1120" cy="400" r="8" fill="#666666"
                            fill="#333">ơi</text><circle cx="2140" cy="400" r="8" fill="#666666"
                        fill="#333">5</text><circle cx="2522.5" cy="425" r="8" fill="#666666"
                                stroke-dasharray="3,2" fill="none"/><circle cx="2650" cy="337.5" r="8" fill="#666666"
                                stroke-dasharray="2,2"/><circle cx="2777.5" cy="400" r="8" fill="#666666"
                                stroke-dasharray="3,2" fill="none"/><circle cx="2905" cy="337.5" r="8" fill="#666666"
                            fill="#333">bồng</text><circle cx="3032.5" cy="400" r="8" fill="#666666"
                        fill="#333">10</text><circle cx="3147.5" cy="400" r="5" fill="#FFD700"
<circle cx="3160" cy="425" r="8" fill="#666666"
                            fill="#FFD700">♪</text><circle cx="3415" cy="400" r="8" fill="#666666"
                            fill="#333">chừ</text><circle cx="3500" cy="425" r="8" fill="#666666"
                            fill="#333">lên</text><circle cx="3670" cy="425" r="8" fill="#666666"
                                stroke-dasharray="3,2" fill="none"/><circle cx="5200" cy="337.5" r="8" fill="#666666"
                                stroke-dasharray="3,2" fill="none"/><circle cx="8770" cy="337.5" r="8" fill="#666666"
                                stroke-dasharray="3,2" fill="none"/><circle cx="9280" cy="337.5" r="8" fill="#666666"
                                stroke-dasharray="3,2" fill="none"/><circle cx="18460" cy="337.5" r="8" fill="#666666"
                                stroke-dasharray="3,2" fill="none"/><circle cx="20245" cy="337.5" r="8" fill="#666666"
                                stroke-dasharray="3,2" fill="none"/><circle cx="20500" cy="337.5" r="8" fill="#666666"
    </g>
    <!-- Song name overlay -->
    <rect x="0" y="90" width="300" height="30" fill="rgba(0,128,128,0.9)"/>
    <text x="150" y="108" text-anchor="middle" fill="white" font-size="12" font-family="system-ui">
        Hát ru con
    </text>
</svg>