<svg width="300" height="120" viewBox="0 0 600 400" xmlns="http://www.w3.org/2000/svg">
    <rect width="600" height="400" fill="#ffffff"/>
    <g transform="scale(0.5)">
        <circle cx="100" cy="437.5" r="8" fill="#666666"
                            fill="#333">Cá</text><circle cx="142.5" cy="400" r="8" fill="#666666"
                                stroke-dasharray="3,2" fill="none"/><circle cx="185" cy="337.5" r="8" fill="#666666"
                            fill="#333">mà</text><circle cx="227.5" cy="400" r="8" fill="#666666"
                            fill="#333">thiên</text><circle cx="300" cy="337.5" r="5" fill="#FFD700"
<circle cx="312.5" cy="400" r="8" fill="#666666"
                            fill="#FFD700">♪</text><circle cx="737.5" cy="400" r="8" fill="#666666"
                                stroke-dasharray="2,2"/><circle cx="780" cy="437.5" r="8" fill="#666666"
                        fill="#333">8</text><circle cx="822.5" cy="400" r="8" fill="#666666"
                                stroke-dasharray="3,2" fill="none"/><circle cx="907.5" cy="337.5" r="8" fill="#666666"
                                stroke-dasharray="3,2" fill="none"/><circle cx="992.5" cy="337.5" r="8" fill="#666666"
                            fill="#333">mồm?</text><circle cx="1460" cy="400" r="8" fill="#666666"
                            fill="#333">Không</text><circle cx="1502.5" cy="400" r="8" fill="#666666"
                                stroke-dasharray="3,2" fill="none"/><circle cx="1545" cy="337.5" r="8" fill="#666666"
                                stroke-dasharray="3,2" fill="none"/><circle cx="1587.5" cy="337.5" r="8" fill="#666666"
                                stroke-dasharray="3,2" fill="none"/><circle cx="2097.5" cy="337.5" r="8" fill="#666666"
                                stroke-dasharray="3,2" fill="none"/><circle cx="2267.5" cy="337.5" r="8" fill="#666666"
                                stroke-dasharray="3,2" fill="none"/><circle cx="2352.5" cy="337.5" r="8" fill="#666666"
                                stroke-dasharray="3,2" fill="none"/><circle cx="2905" cy="337.5" r="8" fill="#666666"
                                stroke-dasharray="3,2" fill="none"/><circle cx="2947.5" cy="337.5" r="8" fill="#666666"
    </g>
    <!-- Song name overlay -->
    <rect x="0" y="90" width="300" height="30" fill="rgba(0,128,128,0.9)"/>
    <text x="150" y="108" text-anchor="middle" fill="white" font-size="12" font-family="system-ui">
        Vè con cá
    </text>
</svg>