<svg width="200" height="100" xmlns="http://www.w3.org/2000/svg"><rect width="200" height="100" fill="#f8f9fa"/><circle cx="2.2222222222222223" cy="66" r="2" fill="#4dabf7"/><circle cx="6.666666666666667" cy="42" r="2" fill="#4dabf7"/><circle cx="11.11111111111111" cy="42" r="2" fill="#4dabf7"/><circle cx="15.555555555555557" cy="42" r="2" fill="#4dabf7"/><circle cx="20" cy="42" r="2" fill="#4dabf7"/><circle cx="24.444444444444443" cy="42" r="2" fill="#4dabf7"/><circle cx="28.88888888888889" cy="42" r="2" fill="#4dabf7"/><circle cx="33.333333333333336" cy="30" r="2" fill="#ff6b6b"/><circle cx="37.77777777777778" cy="42" r="2" fill="#ff6b6b"/><circle cx="42.22222222222222" cy="30" r="2" fill="#4dabf7"/><circle cx="46.666666666666664" cy="42" r="2" fill="#4dabf7"/><circle cx="51.111111111111114" cy="66" r="2" fill="#4dabf7"/><circle cx="55.55555555555556" cy="42" r="2" fill="#4dabf7"/><circle cx="60" cy="42" r="2" fill="#ff6b6b"/><circle cx="64.44444444444446" cy="30" r="2" fill="#4dabf7"/><circle cx="68.8888888888889" cy="42" r="2" fill="#4dabf7"/><circle cx="73.33333333333334" cy="42" r="2" fill="#4dabf7"/><circle cx="77.77777777777779" cy="42" r="2" fill="#4dabf7"/><circle cx="82.22222222222223" cy="42" r="2" fill="#4dabf7"/><circle cx="86.66666666666667" cy="30" r="2" fill="#4dabf7"/><circle cx="91.11111111111111" cy="42" r="2" fill="#4dabf7"/><circle cx="95.55555555555557" cy="30" r="2" fill="#4dabf7"/><circle cx="100.00000000000001" cy="66" r="2" fill="#4dabf7"/><circle cx="104.44444444444446" cy="42" r="2" fill="#4dabf7"/><circle cx="108.8888888888889" cy="66" r="2" fill="#4dabf7"/><circle cx="113.33333333333334" cy="90" r="2" fill="#4dabf7"/><circle cx="117.77777777777779" cy="66" r="2" fill="#4dabf7"/><circle cx="122.22222222222223" cy="66" r="2" fill="#ff6b6b"/><circle cx="126.66666666666669" cy="42" r="2" fill="#4dabf7"/><circle cx="131.11111111111111" cy="42" r="2" fill="#4dabf7"/><circle cx="135.55555555555557" cy="66" r="2" fill="#4dabf7"/><circle cx="140" cy="66" r="2" fill="#4dabf7"/><circle cx="144.44444444444446" cy="42" r="2" fill="#4dabf7"/><circle cx="148.8888888888889" cy="42" r="2" fill="#4dabf7"/><circle cx="153.33333333333334" cy="42" r="2" fill="#4dabf7"/><circle cx="157.7777777777778" cy="30" r="2" fill="#4dabf7"/><circle cx="162.22222222222223" cy="42" r="2" fill="#4dabf7"/><circle cx="166.66666666666669" cy="30" r="2" fill="#4dabf7"/><circle cx="171.11111111111111" cy="42" r="2" fill="#4dabf7"/><circle cx="175.55555555555557" cy="66" r="2" fill="#4dabf7"/><circle cx="180" cy="42" r="2" fill="#4dabf7"/><circle cx="184.44444444444446" cy="66" r="2" fill="#4dabf7"/><circle cx="188.8888888888889" cy="42" r="2" fill="#4dabf7"/><circle cx="193.33333333333334" cy="42" r="2" fill="#4dabf7"/><circle cx="197.7777777777778" cy="42" r="2" fill="#4dabf7"/></svg>