<svg width="300" height="120" viewBox="0 0 600 400" xmlns="http://www.w3.org/2000/svg">
    <rect width="600" height="400" fill="#ffffff"/>
    <g transform="scale(0.5)">
        <circle cx="100" cy="425" r="8" fill="#666666"
                                stroke-dasharray="3,2" fill="none"/><circle cx="185" cy="450" r="8" fill="#666666"
                            fill="#333">dô</text><circle cx="270" cy="425" r="8" fill="#666666"
                            fill="#333">khoan</text><circle cx="355" cy="400" r="8" fill="#666666"
                            fill="#333">ta</text><circle cx="397.5" cy="425" r="8" fill="#666666"
                        fill="#333">5</text><circle cx="427.5" cy="425" r="5" fill="#FFD700"
                                stroke-dasharray="3,2" fill="none"/><circle cx="440" cy="450" r="8" fill="#666666"
                            fill="#FFD700">♪</text><circle cx="525" cy="425" r="8" fill="#666666"
                        fill="#333">8</text><circle cx="780" cy="425" r="8" fill="#666666"
                                stroke-dasharray="3,2" fill="none"/><circle cx="865" cy="450" r="8" fill="#666666"
                            fill="#333">dô</text><circle cx="950" cy="400" r="8" fill="#666666"
                        fill="#333">11</text><circle cx="1290" cy="425" r="8" fill="#666666"
                            fill="#333">khoan</text><circle cx="1375" cy="400" r="8" fill="#666666"
                            fill="#333">ta</text><circle cx="1417.5" cy="425" r="8" fill="#666666"
                        fill="#333">14</text><circle cx="1447.5" cy="425" r="5" fill="#FFD700"
                                stroke-dasharray="3,2" fill="none"/><circle cx="1460" cy="450" r="8" fill="#666666"
                                stroke-dasharray="3,2" fill="none"/><circle cx="1800" cy="337.5" r="8" fill="#666666"
                                stroke-dasharray="3,2" fill="none"/><circle cx="1970" cy="450" r="8" fill="#666666"
                                stroke-dasharray="3,2" fill="none"/><circle cx="2565" cy="450" r="8" fill="#666666"
                                stroke-dasharray="3,2" fill="none"/><circle cx="2650" cy="337.5" r="8" fill="#666666"
                                stroke-dasharray="3,2" fill="none"/><circle cx="3160" cy="450" r="8" fill="#666666"
                                stroke-dasharray="3,2" fill="none"/><circle cx="3500" cy="337.5" r="8" fill="#666666"
                                stroke-dasharray="3,2" fill="none"/><circle cx="3755" cy="337.5" r="8" fill="#666666"
                                stroke-dasharray="3,2" fill="none"/><circle cx="4265" cy="450" r="8" fill="#666666"
                                stroke-dasharray="3,2" fill="none"/><circle cx="4860" cy="450" r="8" fill="#666666"
                                stroke-dasharray="3,2" fill="none"/><circle cx="5200" cy="487.5" r="8" fill="#666666"
                                stroke-dasharray="3,2" fill="none"/><circle cx="5285" cy="487.5" r="8" fill="#666666"
                                stroke-dasharray="3,2" fill="none"/><circle cx="5880" cy="487.5" r="8" fill="#666666"
                                stroke-dasharray="3,2" fill="none"/><circle cx="6050" cy="487.5" r="8" fill="#666666"
                                stroke-dasharray="3,2" fill="none"/><circle cx="6390" cy="487.5" r="8" fill="#666666"
                                stroke-dasharray="3,2" fill="none"/><circle cx="6560" cy="450" r="8" fill="#666666"
                                stroke-dasharray="3,2" fill="none"/><circle cx="6985" cy="450" r="8" fill="#666666"
                                stroke-dasharray="3,2" fill="none"/><circle cx="7070" cy="487.5" r="8" fill="#666666"
                                stroke-dasharray="3,2" fill="none"/><circle cx="7325" cy="450" r="8" fill="#666666"
                                stroke-dasharray="3,2" fill="none"/><circle cx="7495" cy="450" r="8" fill="#666666"
                                stroke-dasharray="3,2" fill="none"/><circle cx="7750" cy="487.5" r="8" fill="#666666"
                                stroke-dasharray="3,2" fill="none"/><circle cx="7920" cy="362.5" r="8" fill="#666666"
                                stroke-dasharray="3,2" fill="none"/><circle cx="8430" cy="450" r="8" fill="#666666"
                                stroke-dasharray="3,2" fill="none"/><circle cx="9025" cy="450" r="8" fill="#666666"
                                stroke-dasharray="3,2" fill="none"/><circle cx="9365" cy="337.5" r="8" fill="#666666"
                                stroke-dasharray="3,2" fill="none"/><circle cx="9535" cy="450" r="8" fill="#666666"
                                stroke-dasharray="3,2" fill="none"/><circle cx="9705" cy="450" r="8" fill="#666666"
                                stroke-dasharray="3,2" fill="none"/><circle cx="10130" cy="450" r="8" fill="#666666"
                                stroke-dasharray="3,2" fill="none"/><circle cx="10725" cy="450" r="8" fill="#666666"
                                stroke-dasharray="3,2" fill="none"/><circle cx="11150" cy="487.5" r="8" fill="#666666"
                                stroke-dasharray="3,2" fill="none"/><circle cx="11320" cy="362.5" r="8" fill="#666666"
                                stroke-dasharray="3,2" fill="none"/><circle cx="11830" cy="450" r="8" fill="#666666"
                                stroke-dasharray="3,2" fill="none"/><circle cx="12425" cy="450" r="8" fill="#666666"
                                stroke-dasharray="3,2" fill="none"/><circle cx="12765" cy="487.5" r="8" fill="#666666"
                                stroke-dasharray="3,2" fill="none"/><circle cx="12892.5" cy="487.5" r="8" fill="#666666"
                                stroke-dasharray="3,2" fill="none"/><circle cx="13445" cy="487.5" r="8" fill="#666666"
                                stroke-dasharray="3,2" fill="none"/><circle cx="13615" cy="487.5" r="8" fill="#666666"
                                stroke-dasharray="3,2" fill="none"/><circle cx="13955" cy="487.5" r="8" fill="#666666"
                                stroke-dasharray="3,2" fill="none"/><circle cx="14125" cy="450" r="8" fill="#666666"
                                stroke-dasharray="3,2" fill="none"/><circle cx="14550" cy="450" r="8" fill="#666666"
                                stroke-dasharray="3,2" fill="none"/><circle cx="14635" cy="487.5" r="8" fill="#666666"
                                stroke-dasharray="3,2" fill="none"/><circle cx="14890" cy="450" r="8" fill="#666666"
    </g>
    <!-- Song name overlay -->
    <rect x="0" y="90" width="300" height="30" fill="rgba(0,128,128,0.9)"/>
    <text x="150" y="108" text-anchor="middle" fill="white" font-size="12" font-family="system-ui">
        Hò xuôi nhịp một đôi
    </text>
</svg>