<svg width="300" height="120" viewBox="0 0 600 400" xmlns="http://www.w3.org/2000/svg">
    <rect width="600" height="400" fill="#ffffff"/>
    <g transform="scale(0.5)">
        <circle cx="100" cy="312.5" r="8" fill="#666666"
                            fill="#333">Thiên</text><circle cx="270" cy="250" r="8" fill="#666666"
                            fill="#333">đàng</text><circle cx="342.5" cy="250" r="5" fill="#FFD700"
<circle cx="355" cy="312.5" r="8" fill="#666666"
                            fill="#FFD700">♪</text><circle cx="427.5" cy="250" r="5" fill="#FFD700"
<circle cx="440" cy="275" r="8" fill="#666666"
                            fill="#FFD700">♪</text><circle cx="525" cy="312.5" r="8" fill="#666666"
                                stroke-dasharray="3,2" fill="none"/><circle cx="610" cy="337.5" r="8" fill="#666666"
                            fill="#333">bên.</text><circle cx="780" cy="312.5" r="8" fill="#666666"
                            fill="#333">Ai</text><circle cx="950" cy="312.5" r="8" fill="#666666"
                            fill="#333">khôn</text><circle cx="1035" cy="250" r="8" fill="#666666"
                            fill="#333">thì</text><circle cx="1107.5" cy="250" r="5" fill="#FFD700"
<circle cx="1120" cy="275" r="8" fill="#666666"
                            fill="#FFD700">♪</text><circle cx="1205" cy="312.5" r="8" fill="#666666"
                            fill="#333">ai</text><circle cx="1277.5" cy="275" r="5" fill="#FFD700"
                                stroke-dasharray="3,2" fill="none"/><circle cx="1460" cy="337.5" r="8" fill="#666666"
                                stroke-dasharray="3,2" fill="none"/><circle cx="1885" cy="362.5" r="8" fill="#666666"
                                stroke-dasharray="3,2" fill="none"/><circle cx="1970" cy="362.5" r="8" fill="#666666"
                                stroke-dasharray="3,2" fill="none"/><circle cx="2055" cy="362.5" r="8" fill="#666666"
                                stroke-dasharray="3,2" fill="none"/><circle cx="2140" cy="362.5" r="8" fill="#666666"
                                stroke-dasharray="3,2" fill="none"/><circle cx="2735" cy="362.5" r="8" fill="#666666"
                                stroke-dasharray="3,2" fill="none"/><circle cx="2820" cy="337.5" r="8" fill="#666666"
                                stroke-dasharray="3,2" fill="none"/><circle cx="3415" cy="362.5" r="8" fill="#666666"
                                stroke-dasharray="3,2" fill="none"/><circle cx="3500" cy="362.5" r="8" fill="#666666"
                                stroke-dasharray="3,2" fill="none"/><circle cx="3840" cy="362.5" r="8" fill="#666666"
                                stroke-dasharray="3,2" fill="none"/><circle cx="4180" cy="362.5" r="8" fill="#666666"
                                stroke-dasharray="3,2" fill="none"/><circle cx="4350" cy="337.5" r="8" fill="#666666"
    </g>
    <!-- Song name overlay -->
    <rect x="0" y="90" width="300" height="30" fill="rgba(0,128,128,0.9)"/>
    <text x="150" y="108" text-anchor="middle" fill="white" font-size="12" font-family="system-ui">
        Thiên đàng địa ngục
    </text>
</svg>