<svg width="300" height="120" viewBox="0 0 600 400" xmlns="http://www.w3.org/2000/svg">
    <rect width="600" height="400" fill="#ffffff"/>
    <g transform="scale(0.5)">
                                        stroke-dasharray="3,2" fill="none"/><circle cx="100" cy="362.5" r="8" fill="#666666"
                                stroke-dasharray="3,2" fill="none"/><circle cx="185" cy="362.5" r="8" fill="#666666"
                                stroke-dasharray="3,2" fill="none"/><circle cx="227.5" cy="337.5" r="8" fill="#666666"
                        fill="#333">3</text><circle cx="270" cy="312.5" r="8" fill="#666666"
                                stroke-dasharray="3,2" fill="none"/><circle cx="397.5" cy="337.5" r="8" fill="#666666"
                            fill="#333">vô</text><circle cx="440" cy="275" r="8" fill="#666666"
                            fill="#333">xứ</text><circle cx="525" cy="312.5" r="8" fill="#666666"
                            fill="#333">(ớ)</text><circle cx="610" cy="250" r="8" fill="#666666"
                            fill="#333">Nghệ</text><circle cx="780" cy="312.5" r="8" fill="#666666"
                                stroke-dasharray="3,2" fill="none"/><circle cx="865" cy="337.5" r="8" fill="#666666"
                            fill="#333">sơn</text><circle cx="950" cy="250" r="8" fill="#666666"
                            fill="#333">thủy</text><circle cx="1107.5" cy="275" r="5" fill="#FFD700"
<circle cx="1120" cy="250" r="8" fill="#666666"
                            fill="#FFD700">♪</text><circle cx="1162.5" cy="275" r="8" fill="#666666"
                                stroke-dasharray="2,2"/><circle cx="1205" cy="312.5" r="8" fill="#666666"
                                stroke-dasharray="3,2" fill="none"/><circle cx="1247.5" cy="337.5" r="8" fill="#666666"
                                stroke-dasharray="3,2" fill="none"/><circle cx="1927.5" cy="337.5" r="8" fill="#666666"
                                stroke-dasharray="3,2" fill="none"/><circle cx="1970" cy="362.5" r="8" fill="#666666"
                                stroke-dasharray="3,2" fill="none"/><circle cx="2140" cy="362.5" r="8" fill="#666666"
                                stroke-dasharray="3,2" fill="none"/><circle cx="2225" cy="362.5" r="8" fill="#666666"
                                stroke-dasharray="3,2" fill="none"/><circle cx="2352.5" cy="337.5" r="8" fill="#666666"
                                stroke-dasharray="3,2" fill="none"/><circle cx="2395" cy="362.5" r="8" fill="#666666"
                                stroke-dasharray="3,2" fill="none"/><circle cx="2947.5" cy="337.5" r="8" fill="#666666"
    </g>
    <!-- Song name overlay -->
    <rect x="0" y="90" width="300" height="30" fill="rgba(0,128,128,0.9)"/>
    <text x="150" y="108" text-anchor="middle" fill="white" font-size="12" font-family="system-ui">
        Giặm Đức Sơn
    </text>
</svg>