<svg width="200" height="100" xmlns="http://www.w3.org/2000/svg"><rect width="200" height="100" fill="#f8f9fa"/><circle cx="2.5641025641025643" cy="42" r="2" fill="#4dabf7"/><circle cx="7.692307692307693" cy="66" r="2" fill="#4dabf7"/><circle cx="12.820512820512821" cy="42" r="2" fill="#4dabf7"/><circle cx="17.948717948717952" cy="66" r="2" fill="#4dabf7"/><circle cx="23.07692307692308" cy="42" r="2" fill="#4dabf7"/><circle cx="28.205128205128208" cy="42" r="2" fill="#4dabf7"/><circle cx="33.333333333333336" cy="42" r="2" fill="#4dabf7"/><circle cx="38.46153846153846" cy="42" r="2" fill="#4dabf7"/><circle cx="43.58974358974359" cy="42" r="2" fill="#4dabf7"/><circle cx="48.71794871794872" cy="42" r="2" fill="#4dabf7"/><circle cx="53.84615384615385" cy="66" r="2" fill="#4dabf7"/><circle cx="58.97435897435898" cy="42" r="2" fill="#ff6b6b"/><circle cx="64.10256410256412" cy="42" r="2" fill="#4dabf7"/><circle cx="69.23076923076924" cy="66" r="2" fill="#4dabf7"/><circle cx="74.35897435897436" cy="42" r="2" fill="#ff6b6b"/><circle cx="79.4871794871795" cy="42" r="2" fill="#4dabf7"/><circle cx="84.61538461538463" cy="42" r="2" fill="#4dabf7"/><circle cx="89.74358974358975" cy="42" r="2" fill="#ff6b6b"/><circle cx="94.87179487179489" cy="42" r="2" fill="#4dabf7"/><circle cx="100.00000000000001" cy="66" r="2" fill="#4dabf7"/><circle cx="105.12820512820514" cy="42" r="2" fill="#4dabf7"/><circle cx="110.25641025641028" cy="66" r="2" fill="#4dabf7"/><circle cx="115.3846153846154" cy="42" r="2" fill="#4dabf7"/><circle cx="120.51282051282053" cy="42" r="2" fill="#4dabf7"/><circle cx="125.64102564102566" cy="42" r="2" fill="#4dabf7"/><circle cx="130.76923076923077" cy="42" r="2" fill="#4dabf7"/><circle cx="135.8974358974359" cy="66" r="2" fill="#4dabf7"/><circle cx="141.02564102564105" cy="42" r="2" fill="#4dabf7"/><circle cx="146.15384615384616" cy="66" r="2" fill="#4dabf7"/><circle cx="151.2820512820513" cy="42" r="2" fill="#4dabf7"/><circle cx="156.41025641025644" cy="66" r="2" fill="#4dabf7"/><circle cx="161.53846153846155" cy="42" r="2" fill="#4dabf7"/><circle cx="166.66666666666669" cy="66" r="2" fill="#4dabf7"/><circle cx="171.79487179487182" cy="42" r="2" fill="#4dabf7"/><circle cx="176.92307692307693" cy="66" r="2" fill="#4dabf7"/><circle cx="182.05128205128207" cy="42" r="2" fill="#4dabf7"/><circle cx="187.1794871794872" cy="66" r="2" fill="#4dabf7"/><circle cx="192.30769230769232" cy="42" r="2" fill="#4dabf7"/><circle cx="197.43589743589746" cy="42" r="2" fill="#4dabf7"/></svg>