<svg width="300" height="120" viewBox="0 0 600 400" xmlns="http://www.w3.org/2000/svg">
    <rect width="600" height="400" fill="#ffffff"/>
    <g transform="scale(0.5)">
        <circle cx="87.5" cy="250" r="5" fill="#FFD700"
<circle cx="100" cy="312.5" r="8" fill="#666666"
                            fill="#FFD700">♪</text><circle cx="142.5" cy="250" r="8" fill="#666666"
                            fill="#333">bù</text><circle cx="185" cy="250" r="8" fill="#666666"
                            fill="#333">kè</text><circle cx="257.5" cy="312.5" r="5" fill="#FFD700"
                                stroke-dasharray="3,2" fill="none"/><circle cx="270" cy="337.5" r="8" fill="#666666"
                            fill="#FFD700">♪</text><circle cx="300" cy="312.5" r="5" fill="#FFD700"
                                stroke-dasharray="3,2" fill="none"/><circle cx="312.5" cy="337.5" r="8" fill="#666666"
                            fill="#FFD700">♪</text><circle cx="355" cy="250" r="8" fill="#666666"
                            fill="#333">mè.</text><circle cx="427.5" cy="250" r="5" fill="#FFD700"
<circle cx="440" cy="312.5" r="8" fill="#666666"
                                stroke-dasharray="3,2" fill="none"/><circle cx="482.5" cy="337.5" r="8" fill="#666666"
                            fill="#333">với</text><circle cx="525" cy="312.5" r="8" fill="#666666"
                            fill="#333">xôi</text><circle cx="610" cy="312.5" r="8" fill="#666666"
                            fill="#333">ăn</text><circle cx="652.5" cy="250" r="8" fill="#666666"
                                stroke-dasharray="3,2" fill="none"/><circle cx="780" cy="337.5" r="8" fill="#666666"
                                stroke-dasharray="3,2" fill="none"/><circle cx="1035" cy="337.5" r="8" fill="#666666"
    </g>
    <!-- Song name overlay -->
    <rect x="0" y="90" width="300" height="30" fill="rgba(0,128,128,0.9)"/>
    <text x="150" y="108" text-anchor="middle" fill="white" font-size="12" font-family="system-ui">
        Cặp bù kè
    </text>
</svg>