<svg width="200" height="100" xmlns="http://www.w3.org/2000/svg"><rect width="200" height="100" fill="#f8f9fa"/><circle cx="4.3478260869565215" cy="42" r="2" fill="#ff6b6b"/><circle cx="13.043478260869565" cy="42" r="2" fill="#4dabf7"/><circle cx="21.73913043478261" cy="42" r="2" fill="#4dabf7"/><circle cx="30.43478260869565" cy="42" r="2" fill="#4dabf7"/><circle cx="39.130434782608695" cy="42" r="2" fill="#ff6b6b"/><circle cx="47.82608695652174" cy="66" r="2" fill="#4dabf7"/><circle cx="56.52173913043478" cy="42" r="2" fill="#ff6b6b"/><circle cx="65.21739130434781" cy="66" r="2" fill="#4dabf7"/><circle cx="73.91304347826086" cy="42" r="2" fill="#4dabf7"/><circle cx="82.6086956521739" cy="42" r="2" fill="#ff6b6b"/><circle cx="91.30434782608695" cy="42" r="2" fill="#4dabf7"/><circle cx="99.99999999999999" cy="66" r="2" fill="#4dabf7"/><circle cx="108.69565217391303" cy="42" r="2" fill="#4dabf7"/><circle cx="117.39130434782608" cy="42" r="2" fill="#4dabf7"/><circle cx="126.08695652173911" cy="42" r="2" fill="#4dabf7"/><circle cx="134.7826086956522" cy="42" r="2" fill="#4dabf7"/><circle cx="143.47826086956522" cy="42" r="2" fill="#ff6b6b"/><circle cx="152.17391304347825" cy="66" r="2" fill="#4dabf7"/><circle cx="160.8695652173913" cy="42" r="2" fill="#ff6b6b"/><circle cx="169.56521739130434" cy="90" r="2" fill="#4dabf7"/><circle cx="178.2608695652174" cy="42" r="2" fill="#4dabf7"/><circle cx="186.95652173913044" cy="42" r="2" fill="#ff6b6b"/><circle cx="195.65217391304347" cy="66" r="2" fill="#4dabf7"/></svg>